<svg width="607" height="616" viewBox="0 0 607 616" fill="none" xmlns="http://www.w3.org/2000/svg">
<path d="M126.698 542.567C25.5497 490.209 27.3673 406.534 130.674 359.528C233.981 312.521 406.154 317.027 507.302 369.384C608.45 421.742 606.633 505.417 503.326 552.424C400.019 599.43 233.227 595.065 126.698 542.567Z" fill="url(#paint0_linear_429_20627)"/>
<path d="M126.698 521.567C25.5497 469.209 27.3673 385.534 130.674 338.528C233.981 291.521 406.154 296.027 507.302 348.384C608.45 400.742 606.633 484.417 503.326 531.424C400.019 578.43 233.227 574.065 126.698 521.567Z" fill="url(#paint1_linear_429_20627)"/>
<path d="M168.349 490.862C89.3388 457.378 90.7586 403.865 171.455 373.803C252.151 343.74 386.641 346.622 465.651 380.106C544.661 413.591 543.241 467.104 462.545 497.166C381.849 527.229 251.562 524.437 168.349 490.862Z" fill="url(#paint2_linear_429_20627)"/>
<path d="M215.745 465.198C161.926 446.933 162.894 417.745 217.861 401.347C272.828 384.949 364.436 386.521 418.255 404.785C472.074 423.05 471.106 452.238 416.139 468.636C361.172 485.034 272.426 483.511 215.745 465.198Z" fill="white"/>
<path d="M215.745 465.198C161.926 446.933 162.894 417.745 217.861 401.347C272.828 384.949 364.436 386.521 418.255 404.785C472.074 423.05 471.106 452.238 416.139 468.636C361.172 485.034 272.426 483.511 215.745 465.198Z" fill="url(#paint3_linear_429_20627)"/>
<path fill-rule="evenodd" clip-rule="evenodd" d="M316 268.029V124.884C316 124.884 318.406 101.815 341.867 111.279L495.268 179.605C508.068 185.566 518.406 193.801 518.406 219.827L518.406 353.482C518.406 370.306 507.642 376.61 495.268 370.306L337.437 298.376C325.063 292.071 316 286.366 316 268.029Z" fill="#0A1622"/>
<path fill-rule="evenodd" clip-rule="evenodd" d="M245.157 173.792C245.156 173.793 245.156 173.794 246.649 173.946C248.141 174.098 248.141 174.099 248.141 174.1L248.142 174.093L248.146 174.053C248.151 174.015 248.158 173.956 248.169 173.876C248.191 173.716 248.227 173.477 248.281 173.172C248.39 172.56 248.573 171.69 248.865 170.673C249.454 168.626 250.468 166.054 252.163 163.806C253.845 161.576 256.178 159.688 259.452 158.898C262.734 158.107 267.141 158.376 273.044 160.804L436.357 238.355L437.643 235.645L274.259 158.06L274.223 158.045C267.899 155.437 262.819 155 258.748 155.982C254.663 156.967 251.776 159.338 249.768 161.999C247.775 164.642 246.63 167.592 245.982 169.844C245.656 170.976 245.452 171.95 245.328 172.645C245.266 172.993 245.224 173.272 245.197 173.468C245.183 173.567 245.174 173.644 245.167 173.699C245.166 173.712 245.164 173.724 245.163 173.734C245.162 173.746 245.161 173.756 245.16 173.764L245.158 173.783L245.157 173.79L245.157 173.792ZM459.437 310.886H456.437L456.437 417.829C456.437 426.534 453.715 432.128 449.846 434.826C446.018 437.495 440.608 437.64 434.476 434.447L433.091 437.108C439.876 440.641 446.543 440.786 451.562 437.287C456.541 433.815 459.437 427.072 459.437 417.829L459.437 310.886Z" fill="#CCCCCC"/>
<path fill-rule="evenodd" clip-rule="evenodd" d="M203.728 346.213V193.497C203.728 193.497 206.24 168.886 230.73 178.982L390.862 251.877C404.224 258.236 415.016 267.022 415.016 294.789L415.016 437.38C415.016 455.328 403.779 462.054 390.862 455.328L226.106 378.589C213.189 371.863 203.728 365.776 203.728 346.213Z" fill="#1E5F84"/>
<path fill-rule="evenodd" clip-rule="evenodd" d="M203.728 346.213V193.497C203.728 193.497 206.24 168.886 230.73 178.982L390.862 251.877C404.224 258.236 415.016 267.022 415.016 294.789L415.016 437.38C415.016 455.328 403.779 462.054 390.862 455.328L226.106 378.589C213.189 371.863 203.728 365.776 203.728 346.213Z" fill="url(#paint4_linear_429_20627)" fill-opacity="0.5"/>
<path fill-rule="evenodd" clip-rule="evenodd" d="M198.728 349.213V196.497C198.728 196.497 201.24 171.886 225.73 181.982L385.862 254.877C399.224 261.236 410.016 270.022 410.016 297.789L410.016 440.38C410.016 458.328 398.779 465.054 385.862 458.328L221.106 381.589C208.189 374.863 198.728 368.776 198.728 349.213Z" fill="#2B8DC5"/>
<path fill-rule="evenodd" clip-rule="evenodd" d="M153 225.022C153 225.022 153 225.918 153 218.756C153 211.593 156.581 196.995 177.173 205.052L340.135 278.588C353.497 284.947 364.288 290.105 364.288 314.337L364.288 322.528C364.288 340.476 364.288 345.147 364.288 345.147L153 247.632C153 247.632 153 244.585 153 225.022Z" fill="#61D0F3"/>
<path fill-rule="evenodd" clip-rule="evenodd" d="M153 225.022C153 225.022 153 225.918 153 218.756C153 211.593 156.581 196.995 177.173 205.052L340.135 278.588C353.497 284.947 364.288 290.105 364.288 314.337L364.288 322.528C364.288 340.476 364.288 345.147 364.288 345.147L153 247.632C153 247.632 153 244.585 153 225.022Z" fill="url(#paint5_linear_429_20627)" fill-opacity="0.5"/>
<path fill-rule="evenodd" clip-rule="evenodd" d="M45.0001 295.303V257.946C45.0001 257.946 47.5121 233.335 72.0029 243.432L146.124 276.072C159.486 282.431 170.277 291.217 170.277 318.984L170.277 346.215C170.277 364.164 159.041 370.89 146.124 364.164L67.3781 327.678C54.4611 320.952 45.0001 314.866 45.0001 295.303Z" fill="#1D4267"/>
<path fill-rule="evenodd" clip-rule="evenodd" d="M45.0001 295.303V257.946C45.0001 257.946 47.5121 233.335 72.0029 243.432L146.124 276.072C159.486 282.431 170.277 291.217 170.277 318.984L170.277 346.215C170.277 364.164 159.041 370.89 146.124 364.164L67.3781 327.678C54.4611 320.952 45.0001 314.866 45.0001 295.303Z" fill="url(#paint6_linear_429_20627)" fill-opacity="0.5"/>
<path fill-rule="evenodd" clip-rule="evenodd" d="M41.0001 297.303V259.946C41.0001 259.946 43.5121 235.335 68.0029 245.432L142.124 278.072C155.486 284.431 166.277 293.217 166.277 320.984L166.277 348.215C166.277 366.164 155.041 372.89 142.124 366.164L63.3781 329.678C50.4611 322.952 41.0001 316.866 41.0001 297.303Z" fill="#1D4267"/>
<path fill-rule="evenodd" clip-rule="evenodd" d="M41.0001 297.303V259.946C41.0001 259.946 43.5121 235.335 68.0029 245.432L142.124 278.072C155.486 284.431 166.277 293.217 166.277 320.984L166.277 348.215C166.277 366.164 155.041 372.89 142.124 366.164L63.3781 329.678C50.4611 322.952 41.0001 316.866 41.0001 297.303Z" fill="url(#paint7_linear_429_20627)" fill-opacity="0.5"/>
<path fill-rule="evenodd" clip-rule="evenodd" d="M30.0001 306.303V268.946C30.0001 268.946 32.5121 244.335 57.0029 254.432L131.124 287.072C144.486 293.431 155.277 302.217 155.277 329.984L155.277 357.215C155.277 375.164 144.041 381.89 131.124 375.164L52.3781 338.678C39.4611 331.952 30.0001 325.866 30.0001 306.303Z" fill="#1D4267"/>
<path fill-rule="evenodd" clip-rule="evenodd" d="M30.0001 306.303V268.946C30.0001 268.946 32.5121 244.335 57.0029 254.432L131.124 287.072C144.486 293.431 155.277 302.217 155.277 329.984L155.277 357.215C155.277 375.164 144.041 381.89 131.124 375.164L52.3781 338.678C39.4611 331.952 30.0001 325.866 30.0001 306.303Z" fill="url(#paint8_linear_429_20627)" fill-opacity="0.5"/>
<path fill-rule="evenodd" clip-rule="evenodd" d="M30.0001 270.503V268.946C30.0001 268.946 30.0587 268.371 30.2456 267.433L32.207 267.824C32.121 268.256 32.0654 268.6 32.0319 268.83C32.0173 268.93 32.0069 269.008 32.0001 269.063V270.503H30.0001ZM31.0198 264.455L32.9239 265.067C33.1909 264.236 33.5271 263.34 33.9479 262.43L32.1327 261.591C31.6728 262.585 31.3079 263.558 31.0198 264.455ZM33.6172 258.899L35.2905 259.995C35.7815 259.245 36.3375 258.524 36.9664 257.86L35.5143 256.485C34.794 257.246 34.1654 258.062 33.6172 258.899ZM37.8439 254.484L38.9769 256.132C39.6741 255.653 40.4407 255.236 41.2859 254.901L40.5488 253.042C39.5586 253.434 38.6597 253.923 37.8439 254.484ZM43.5077 252.225L43.837 254.198C44.6666 254.059 45.5658 253.988 46.5409 254.002L46.5679 252.002C45.4788 251.987 44.4602 252.066 43.5077 252.225ZM49.6237 252.27L49.3137 254.246C50.1952 254.384 51.1285 254.584 52.1161 254.854L52.6443 252.925C51.5897 252.637 50.5835 252.42 49.6237 252.27ZM55.5507 253.864L54.8576 255.74C55.302 255.904 55.7556 256.081 56.2188 256.272L57.6223 256.89L58.4283 255.059L57.0029 254.432C56.51 254.228 56.026 254.039 55.5507 253.864ZM61.2791 256.315L60.4731 258.145L63.3239 259.4L64.1299 257.57L61.2791 256.315ZM66.9807 258.826L66.1747 260.656L69.0255 261.911L69.8315 260.081L66.9807 258.826ZM72.6823 261.336L71.8763 263.167L74.7271 264.422L75.5331 262.592L72.6823 261.336ZM78.3839 263.847L77.5779 265.677L80.4287 266.933L81.2347 265.102L78.3839 263.847ZM84.0855 266.358L83.2795 268.188L86.1303 269.444L86.9363 267.613L84.0855 266.358ZM89.7871 268.869L88.9811 270.699L91.8319 271.954L92.6379 270.124L89.7871 268.869ZM95.4887 271.379L94.6827 273.21L97.5335 274.465L98.3395 272.635L95.4887 271.379ZM101.19 273.89L100.384 275.721L103.235 276.976L104.041 275.146L101.19 273.89ZM106.892 276.401L106.086 278.231L108.937 279.487L109.743 277.656L106.892 276.401ZM112.593 278.912L111.787 280.742L114.638 281.998L115.444 280.167L112.593 278.912ZM118.295 281.423L117.489 283.253L120.34 284.508L121.146 282.678L118.295 281.423ZM123.997 283.933L123.191 285.764L126.041 287.019L126.847 285.189L123.997 283.933ZM129.698 286.444L128.892 288.274L130.291 288.89C130.715 289.093 131.136 289.297 131.554 289.504L132.443 287.712C132.006 287.496 131.566 287.282 131.124 287.072L129.698 286.444ZM135.043 289.067L134.08 290.82C134.912 291.277 135.726 291.749 136.518 292.243L137.575 290.544C136.748 290.03 135.903 289.539 135.043 289.067ZM140.012 292.173L138.844 293.796C139.597 294.338 140.327 294.904 141.033 295.501L142.324 293.974C141.576 293.341 140.804 292.742 140.012 292.173ZM144.478 295.961L143.059 297.37C143.697 298.013 144.312 298.69 144.901 299.406L146.445 298.135C145.815 297.37 145.159 296.647 144.478 295.961ZM148.2 300.483L146.543 301.604C147.045 302.346 147.525 303.126 147.979 303.949L149.73 302.982C149.246 302.107 148.736 301.275 148.2 300.483ZM151.036 305.604L149.21 306.42C149.576 307.239 149.921 308.097 150.244 308.996L152.127 308.321C151.787 307.375 151.423 306.47 151.036 305.604ZM153.021 311.113L151.098 311.66C151.346 312.533 151.575 313.442 151.784 314.388L153.737 313.957C153.519 312.973 153.281 312.026 153.021 311.113ZM154.292 316.833L152.319 317.162C152.471 318.067 152.605 319.004 152.722 319.973L154.707 319.734C154.587 318.736 154.448 317.769 154.292 316.833ZM155 322.661L153.006 322.821C153.08 323.742 153.139 324.691 153.183 325.668L155.181 325.578C155.136 324.578 155.075 323.607 155 322.661ZM155.277 355.854L155.277 357.215C155.277 357.756 155.267 358.287 155.247 358.807L153.248 358.73C153.268 358.236 153.277 357.731 153.277 357.215L153.277 355.854H155.277ZM154.987 361.977L153.004 361.723C152.871 362.756 152.693 363.729 152.473 364.643L154.418 365.111C154.655 364.122 154.846 363.077 154.987 361.977ZM153.475 368.149L151.611 367.425C151.247 368.362 150.831 369.214 150.372 369.983L152.089 371.008C152.61 370.137 153.073 369.184 153.475 368.149ZM150.197 373.558L148.727 372.202C148.094 372.888 147.409 373.47 146.681 373.951L147.784 375.62C148.65 375.047 149.458 374.359 150.197 373.558ZM144.935 377.017L144.29 375.123C143.461 375.406 142.58 375.591 141.652 375.673L141.828 377.666C142.909 377.57 143.948 377.353 144.935 377.017ZM138.653 377.61L138.886 375.624C137.992 375.518 137.062 375.328 136.102 375.047L135.54 376.966C136.6 377.277 137.64 377.491 138.653 377.61ZM126.905 373.209L127.746 371.395L124.934 370.092L124.093 371.906L126.905 373.209ZM121.28 370.603L122.121 368.789L119.309 367.485L118.468 369.3L121.28 370.603ZM115.656 367.997L116.497 366.182L113.684 364.879L112.843 366.694L115.656 367.997ZM110.031 365.391L110.872 363.576L108.06 362.273L107.219 364.088L110.031 365.391ZM104.406 362.785L105.247 360.97L102.435 359.667L101.594 361.482L104.406 362.785ZM98.7817 360.179L99.6225 358.364L96.8102 357.061L95.9694 358.876L98.7817 360.179ZM93.157 357.573L93.9978 355.758L91.1855 354.455L90.3447 356.27L93.157 357.573ZM87.5324 354.967L88.3732 353.152L85.5608 351.849L84.72 353.663L87.5324 354.967ZM81.9077 352.36L82.7485 350.546L79.9361 349.243L79.0953 351.057L81.9077 352.36ZM76.283 349.754L77.1238 347.94L74.3115 346.637L73.4707 348.451L76.283 349.754ZM70.6583 347.148L71.4991 345.334L68.6868 344.03L67.846 345.845L70.6583 347.148ZM65.0336 344.542L65.8745 342.727L63.0621 341.424L62.2213 343.239L65.0336 344.542ZM59.409 341.936L60.2498 340.121L57.4374 338.818L56.5966 340.633L59.409 341.936ZM53.7843 339.33L54.6251 337.515L53.261 336.883C52.8283 336.658 52.4005 336.434 51.9774 336.21L51.0426 337.978C51.4834 338.211 51.9287 338.444 52.3781 338.678L53.7843 339.33ZM48.391 336.542L49.3642 334.795C48.4888 334.308 47.6403 333.818 46.8195 333.321L45.7835 335.032C46.6289 335.544 47.4988 336.045 48.391 336.542ZM43.246 333.407L44.3714 331.754C43.5642 331.204 42.7923 330.641 42.0568 330.059L40.8148 331.626C41.5927 332.243 42.404 332.834 43.246 333.407ZM38.5391 329.652L39.92 328.206C39.2412 327.558 38.6025 326.882 38.0051 326.172L36.4744 327.459C37.1219 328.229 37.8112 328.958 38.5391 329.652ZM34.6769 325.044L36.3507 323.949C35.855 323.191 35.397 322.391 34.9789 321.542L33.1848 322.426C33.6388 323.348 34.1371 324.218 34.6769 325.044ZM32.0126 319.653L33.8954 318.978C33.5916 318.13 33.3208 317.235 33.0856 316.288L31.1446 316.77C31.3953 317.78 31.6853 318.739 32.0126 319.653ZM30.5482 313.818L32.5234 313.504C32.3794 312.598 32.2638 311.65 32.1781 310.655L30.1855 310.827C30.275 311.867 30.3963 312.863 30.5482 313.818ZM30.0001 273.616H32.0001V276.729H30.0001V273.616ZM30.0001 279.842H32.0001V282.955H30.0001V279.842ZM30.0001 286.068H32.0001V289.181H30.0001V286.068ZM30.0001 292.294H32.0001V295.407H30.0001V292.294ZM30.0001 298.52H32.0001V301.633H30.0001V298.52ZM30.0001 304.746H32.0001V306.303C32.0001 306.799 32.0064 307.286 32.0188 307.763L30.0195 307.815C30.0066 307.32 30.0001 306.816 30.0001 306.303V304.746ZM129.717 374.512L130.558 372.698L132.006 373.369L132.047 373.39C132.494 373.623 132.938 373.837 133.376 374.034L132.558 375.859C132.083 375.646 131.604 375.414 131.124 375.164L129.717 374.512ZM155.277 353.131H153.277L153.277 350.407H155.277L155.277 353.131ZM155.277 347.684H153.277L153.277 344.961H155.277L155.277 347.684ZM155.277 342.238H153.277L153.277 339.515H155.277L155.277 342.238ZM155.277 336.792H153.277L153.277 334.068H155.277L155.277 336.792ZM155.277 331.345H153.277L153.277 329.984C153.277 329.494 153.274 329.01 153.267 328.533L155.267 328.505C155.274 328.992 155.277 329.485 155.277 329.984L155.277 331.345Z" fill="white"/>
<path d="M82.1305 329.549L101.869 298L105.666 299.435L85.4863 330.984L82.1305 329.549Z" fill="white"/>
<path d="M123 331L102.284 328.654V325.543L118.618 327.485L102.284 313.996V309.932L123 326.99V331Z" fill="white"/>
<path d="M63 299.893L83.7164 302.239V305.351L67.3823 303.408L83.7164 316.897V320.961L63 303.903V299.893Z" fill="white"/>
<g filter="url(#filter0_d_429_20627)">
<path fill-rule="evenodd" clip-rule="evenodd" d="M304 470.945V385.946C304 385.946 306.512 361.335 331.003 371.432L492.218 444.573C505.58 450.933 516.372 459.719 516.372 487.485L516.372 559.359C516.372 577.307 505.135 584.033 492.218 577.307L326.378 503.32C313.461 496.594 304 490.507 304 470.945Z" fill="#AC4046"/>
<path fill-rule="evenodd" clip-rule="evenodd" d="M304 470.945V385.946C304 385.946 306.512 361.335 331.003 371.432L492.218 444.573C505.58 450.933 516.372 459.719 516.372 487.485L516.372 559.359C516.372 577.307 505.135 584.033 492.218 577.307L326.378 503.32C313.461 496.594 304 490.507 304 470.945Z" fill="url(#paint9_linear_429_20627)"/>
</g>
<g filter="url(#filter1_d_429_20627)">
<path fill-rule="evenodd" clip-rule="evenodd" d="M298 473.945V388.946C298 388.946 300.512 364.335 325.003 374.432L486.218 447.573C499.58 453.933 510.372 462.719 510.372 490.485L510.372 562.359C510.372 580.307 499.135 587.033 486.218 580.307L320.378 506.32C307.461 499.594 298 493.507 298 473.945Z" fill="#AC4046"/>
<path fill-rule="evenodd" clip-rule="evenodd" d="M298 473.945V388.946C298 388.946 300.512 364.335 325.003 374.432L486.218 447.573C499.58 453.933 510.372 462.719 510.372 490.485L510.372 562.359C510.372 580.307 499.135 587.033 486.218 580.307L320.378 506.32C307.461 499.594 298 493.507 298 473.945Z" fill="url(#paint10_linear_429_20627)"/>
</g>
<g filter="url(#filter2_d_429_20627)">
<path fill-rule="evenodd" clip-rule="evenodd" d="M280 403.464V401.946C280 401.946 280.059 401.371 280.245 400.433L282.207 400.824C282.121 401.256 282.065 401.6 282.032 401.83C282.017 401.93 282.007 402.008 282 402.063V403.464H280ZM281.02 397.455L282.924 398.067C283.191 397.236 283.527 396.34 283.948 395.43L282.133 394.591C281.673 395.585 281.308 396.558 281.02 397.455ZM283.617 391.899L285.29 392.995C285.781 392.245 286.337 391.524 286.966 390.86L285.514 389.485C284.794 390.246 284.165 391.062 283.617 391.899ZM287.844 387.484L288.977 389.132C289.674 388.653 290.441 388.236 291.286 387.901L290.549 386.042C289.558 386.434 288.66 386.923 287.844 387.484ZM293.508 385.225L293.837 387.198C294.666 387.059 295.566 386.988 296.541 387.002L296.568 385.002C295.479 384.987 294.46 385.066 293.508 385.225ZM299.624 385.27L299.314 387.246C300.195 387.384 301.128 387.584 302.116 387.854L302.644 385.925C301.59 385.637 300.583 385.42 299.624 385.27ZM305.551 386.864L304.857 388.74C305.299 388.903 305.749 389.078 306.209 389.268L307.52 389.862L308.346 388.041L307.003 387.432C306.51 387.228 306.026 387.039 305.551 386.864ZM311.033 389.26L310.207 391.081L312.894 392.3L313.72 390.479L311.033 389.26ZM316.407 391.698L315.581 393.519L318.268 394.739L319.094 392.917L316.407 391.698ZM321.781 394.136L320.954 395.958L323.641 397.177L324.468 395.355L321.781 394.136ZM327.155 396.574L326.328 398.396L329.015 399.615L329.842 397.793L327.155 396.574ZM332.528 399.012L331.702 400.834L334.389 402.053L335.215 400.231L332.528 399.012ZM337.902 401.45L337.076 403.272L339.763 404.491L340.589 402.669L337.902 401.45ZM343.276 403.888L342.45 405.71L345.137 406.929L345.963 405.108L343.276 403.888ZM348.65 406.327L347.824 408.148L350.511 409.367L351.337 407.546L348.65 406.327ZM354.024 408.765L353.198 410.586L355.885 411.805L356.711 409.984L354.024 408.765ZM359.398 411.203L358.571 413.024L361.258 414.243L362.085 412.422L359.398 411.203ZM364.772 413.641L363.945 415.462L366.632 416.681L367.459 414.86L364.772 413.641ZM370.146 416.079L369.319 417.9L372.006 419.119L372.832 417.298L370.146 416.079ZM375.519 418.517L374.693 420.338L377.38 421.557L378.206 419.736L375.519 418.517ZM380.893 420.955L380.067 422.776L382.754 423.995L383.58 422.174L380.893 420.955ZM386.267 423.393L388.954 424.612L388.128 426.433L385.441 425.214L386.267 423.393ZM391.641 425.831L390.815 427.652L393.502 428.871L394.328 427.05L391.641 425.831ZM397.015 428.269L396.188 430.09L398.875 431.309L399.702 429.488L397.015 428.269ZM402.389 430.707L401.562 432.528L404.249 433.747L405.076 431.926L402.389 430.707ZM407.763 433.145L406.936 434.967L409.623 436.186L410.449 434.364L407.763 433.145ZM413.136 435.583L412.31 437.405L414.997 438.624L415.823 436.802L413.136 435.583ZM418.51 438.021L417.684 439.843L420.371 441.062L421.197 439.24L418.51 438.021ZM423.884 440.459L423.058 442.281L425.745 443.5L426.571 441.678L423.884 440.459ZM429.258 442.897L428.432 444.719L431.119 445.938L431.945 444.116L429.258 442.897ZM434.632 445.335L433.805 447.157L436.492 448.376L437.319 446.555L434.632 445.335ZM440.006 447.774L439.179 449.595L441.866 450.814L442.693 448.993L440.006 447.774ZM445.38 450.212L444.553 452.033L447.24 453.252L448.066 451.431L445.38 450.212ZM450.753 452.65L449.927 454.471L452.614 455.69L453.44 453.869L450.753 452.65ZM456.127 455.088L455.301 456.909L457.988 458.128L458.814 456.307L456.127 455.088ZM461.501 457.526L460.675 459.347L463.362 460.566L464.188 458.745L461.501 457.526ZM466.875 459.964L468.218 460.573C468.661 460.784 469.101 460.997 469.537 461.214L468.649 463.006C468.228 462.797 467.803 462.591 467.375 462.387L466.049 461.785L466.875 459.964ZM472.138 462.568L471.175 464.322C472.007 464.778 472.82 465.251 473.613 465.744L474.67 464.046C473.843 463.532 472.998 463.041 472.138 462.568ZM477.107 465.674L475.939 467.298C476.692 467.839 477.422 468.406 478.127 469.003L479.419 467.475C478.67 466.843 477.899 466.244 477.107 465.674ZM481.573 469.463L480.153 470.871C480.792 471.515 481.406 472.192 481.996 472.908L483.54 471.637C482.91 470.872 482.254 470.149 481.573 469.463ZM485.294 473.985L483.638 475.106C484.14 475.847 484.619 476.628 485.074 477.451L486.825 476.484C486.341 475.608 485.83 474.776 485.294 473.985ZM488.13 479.105L486.305 479.922C486.671 480.741 487.016 481.598 487.339 482.498L489.221 481.822C488.882 480.876 488.518 479.972 488.13 479.105ZM490.116 484.615L488.192 485.162C488.44 486.035 488.67 486.943 488.879 487.89L490.831 487.459C490.614 486.475 490.375 485.528 490.116 484.615ZM491.387 490.334L489.414 490.664C489.565 491.569 489.7 492.505 489.816 493.475L491.802 493.235C491.682 492.237 491.543 491.271 491.387 490.334ZM492.094 496.163L490.101 496.322C490.175 497.244 490.234 498.193 490.278 499.169L492.276 499.079C492.231 498.08 492.17 497.108 492.094 496.163ZM492.372 573.861H490.372L490.372 575.359C490.372 575.875 490.362 576.379 490.343 576.873L492.342 576.951C492.362 576.43 492.372 575.9 492.372 575.359L492.372 573.861ZM492.082 580.121L490.098 579.866C489.966 580.899 489.788 581.873 489.568 582.787L491.512 583.255C491.75 582.266 491.941 581.221 492.082 580.121ZM490.57 586.292L488.706 585.568C488.342 586.506 487.926 587.358 487.467 588.126L489.184 589.152C489.704 588.281 490.168 587.327 490.57 586.292ZM487.292 591.701L485.822 590.345C485.188 591.032 484.503 591.614 483.776 592.094L484.878 593.763C485.745 593.191 486.552 592.503 487.292 591.701ZM482.03 595.16L481.385 593.267C480.555 593.549 479.674 593.735 478.746 593.817L478.923 595.809C480.004 595.713 481.042 595.496 482.03 595.16ZM475.748 595.753L475.981 593.767C475.086 593.662 474.157 593.472 473.197 593.19L472.635 595.11C473.695 595.42 474.734 595.634 475.748 595.753ZM464.072 591.458L464.887 589.631L462.123 588.398L461.308 590.225L464.072 591.458ZM458.544 588.992L459.359 587.165L456.595 585.932L455.78 587.758L458.544 588.992ZM453.016 586.525L453.831 584.699L451.067 583.466L450.252 585.292L453.016 586.525ZM447.488 584.059L448.303 582.233L445.539 580.999L444.724 582.826L447.488 584.059ZM441.96 581.593L442.775 579.766L440.011 578.533L439.196 580.36L441.96 581.593ZM436.432 579.127L437.247 577.3L434.483 576.067L433.668 577.893L436.432 579.127ZM430.904 576.66L431.719 574.834L428.955 573.601L428.14 575.427L430.904 576.66ZM425.376 574.194L426.191 572.368L423.427 571.135L422.612 572.961L425.376 574.194ZM419.848 571.728L420.663 569.901L417.899 568.668L417.084 570.495L419.848 571.728ZM414.32 569.262L415.135 567.435L412.371 566.202L411.556 568.029L414.32 569.262ZM408.792 566.795L409.607 564.969L406.843 563.736L406.028 565.562L408.792 566.795ZM403.264 564.329L404.079 562.503L401.315 561.27L400.5 563.096L403.264 564.329ZM397.736 561.863L398.551 560.036L395.787 558.803L394.972 560.63L397.736 561.863ZM392.208 559.397L393.023 557.57L390.259 556.337L389.444 558.164L392.208 559.397ZM386.68 556.93L387.495 555.104L384.731 553.871L383.916 555.697L386.68 556.93ZM381.152 554.464L381.967 552.638L379.203 551.405L378.388 553.231L381.152 554.464ZM375.624 551.998L376.439 550.171L373.675 548.938L372.86 550.765L375.624 551.998ZM370.096 549.532L370.911 547.705L368.147 546.472L367.332 548.299L370.096 549.532ZM364.568 547.065L365.383 545.239L362.619 544.006L361.804 545.832L364.568 547.065ZM359.04 544.599L359.855 542.773L357.091 541.54L356.276 543.366L359.04 544.599ZM353.512 542.133L350.748 540.9L351.563 539.073L354.327 540.306L353.512 542.133ZM347.984 539.667L348.799 537.84L346.035 536.607L345.22 538.434L347.984 539.667ZM342.456 537.2L343.271 535.374L340.507 534.141L339.692 535.967L342.456 537.2ZM336.928 534.734L334.164 533.501L334.979 531.675L337.743 532.908L336.928 534.734ZM331.4 532.268L332.215 530.442L329.451 529.208L328.636 531.035L331.4 532.268ZM325.872 529.802L326.687 527.975L323.923 526.742L323.108 528.569L325.872 529.802ZM320.344 527.336L317.58 526.102L318.395 524.276L321.159 525.509L320.344 527.336ZM314.816 524.869L315.631 523.043L312.867 521.81L312.052 523.636L314.816 524.869ZM309.288 522.403L310.103 520.577L307.339 519.343L306.524 521.17L309.288 522.403ZM303.76 519.937L302.378 519.32C301.929 519.086 301.483 518.853 301.042 518.62L301.977 516.852C302.396 517.073 302.82 517.295 303.248 517.518L304.575 518.11L303.76 519.937ZM298.391 517.184L299.364 515.437C298.489 514.949 297.64 514.46 296.819 513.963L295.783 515.674C296.629 516.186 297.499 516.687 298.391 517.184ZM293.246 514.049L294.371 512.396C293.564 511.846 292.792 511.283 292.057 510.701L290.815 512.268C291.593 512.884 292.404 513.476 293.246 514.049ZM288.539 510.294L289.92 508.848C289.241 508.2 288.602 507.524 288.005 506.814L286.474 508.101C287.122 508.871 287.811 509.6 288.539 510.294ZM284.677 505.685L286.351 504.591C285.855 503.833 285.397 503.033 284.979 502.184L283.185 503.068C283.639 503.99 284.137 504.86 284.677 505.685ZM282.012 500.295L283.895 499.62C283.591 498.772 283.321 497.877 283.085 496.93L281.144 497.412C281.395 498.422 281.685 499.381 282.012 500.295ZM280.548 494.46L282.523 494.146C282.379 493.24 282.264 492.292 282.178 491.297L280.185 491.469C280.275 492.509 280.396 493.505 280.548 494.46ZM280 406.5H282V409.535H280V406.5ZM280 412.571H282V415.607H280V412.571ZM280 418.642H282V421.678H280V418.642ZM280 424.714H282V427.749H280V424.714ZM280 430.785H282V433.821H280V430.785ZM280 436.856H282V439.892H280V436.856ZM280 442.928H282V445.963H280V442.928ZM280 448.999H282V452.035H280V448.999ZM280 455.07H282V458.106H280V455.07ZM280 461.142H282V464.177H280V461.142ZM280 467.213H282V470.248H280V467.213ZM280 473.284H282V476.32H280V473.284ZM280 479.355H282V482.391H280V479.355ZM280 485.427H282V486.945C282 487.441 282.006 487.927 282.019 488.405L280.019 488.457C280.006 487.962 280 487.458 280 486.945V485.427ZM466.836 592.691L467.651 590.864L469.088 591.506L469.142 591.534C469.589 591.766 470.032 591.981 470.471 592.178L469.653 594.003C469.177 593.789 468.699 593.558 468.218 593.307L466.836 592.691ZM492.372 570.867H490.372L490.372 567.872H492.372L492.372 570.867ZM492.372 564.877H490.372L490.372 561.883H492.372L492.372 564.877ZM492.372 558.888H490.372L490.372 555.893H492.372L492.372 558.888ZM492.372 552.898H490.372L490.372 549.904H492.372L492.372 552.898ZM492.372 546.909H490.372L490.372 543.914H492.372L492.372 546.909ZM492.372 540.919H490.372L490.372 537.925H492.372L492.372 540.919ZM492.372 534.93H490.372L490.372 531.935H492.372L492.372 534.93ZM492.372 528.941H490.372L490.372 525.946H492.372L492.372 528.941ZM492.372 522.951H490.372L490.372 519.956H492.372L492.372 522.951ZM492.372 516.962H490.372L490.372 513.967H492.372L492.372 516.962ZM492.372 510.972H490.372L490.372 507.977H492.372L492.372 510.972ZM492.372 504.983H490.372L490.372 503.485C490.372 502.995 490.369 502.512 490.362 502.035L492.362 502.006C492.369 502.493 492.372 502.986 492.372 503.485L492.372 504.983Z" fill="white"/>
</g>
<path d="M459.223 523.715L312 455.706" stroke="white" stroke-width="2" stroke-linecap="round" stroke-linejoin="round" stroke-dasharray="5 12"/>
<path d="M462.223 549.419L312 482.41" stroke="white" stroke-width="2" stroke-linecap="round" stroke-linejoin="round" stroke-dasharray="31 15"/>
<path d="M462.223 499.009L312 430" stroke="white" stroke-width="2" stroke-linecap="round" stroke-linejoin="round"/>
<path d="M401.172 297.764C397.379 302.847 392.954 306.023 386 306.023C391.057 313.647 400.54 319.365 411.919 320C425.148 319.94 432.781 317.459 439.735 308.565C443.529 302.847 444.161 290.776 439.103 285.058C432.781 277.911 426.288 278.073 416.977 281.246C409.159 285.487 406.728 288.347 401.172 297.764Z" fill="#315681"/>
<path d="M401.172 297.764C397.379 302.847 392.954 306.023 386 306.023C391.057 313.647 400.54 319.365 411.919 320C425.148 319.94 432.781 317.459 439.735 308.565C443.529 302.847 444.161 290.776 439.103 285.058C432.781 277.911 426.288 278.073 416.977 281.246C409.159 285.487 406.728 288.347 401.172 297.764Z" fill="url(#paint11_linear_429_20627)"/>
<path d="M502.321 232.963C513.069 221.527 497.896 208.186 487.149 218.986L459.965 245.669L432.781 272.352C441.553 274.977 445.375 278.063 448.586 288.87L502.321 232.963Z" fill="#295784"/>
<path d="M502.321 232.963C513.069 221.527 497.896 208.186 487.149 218.986L459.965 245.669L432.781 272.352C441.553 274.977 445.375 278.063 448.586 288.87L502.321 232.963Z" fill="url(#paint12_linear_429_20627)"/>
<defs>
<filter id="filter0_d_429_20627" x="294" y="289" width="312.372" height="310.866" filterUnits="userSpaceOnUse" color-interpolation-filters="sRGB">
<feFlood flood-opacity="0" result="BackgroundImageFix"/>
<feColorMatrix in="SourceAlpha" type="matrix" values="0 0 0 0 0 0 0 0 0 0 0 0 0 0 0 0 0 0 127 0" result="hardAlpha"/>
<feOffset dx="40" dy="-30"/>
<feGaussianBlur stdDeviation="25"/>
<feComposite in2="hardAlpha" operator="out"/>
<feColorMatrix type="matrix" values="0 0 0 0 0 0 0 0 0 0 0 0 0 0 0 0 0 0 0.25 0"/>
<feBlend mode="normal" in2="BackgroundImageFix" result="effect1_dropShadow_429_20627"/>
<feBlend mode="normal" in="SourceGraphic" in2="effect1_dropShadow_429_20627" result="shape"/>
</filter>
<filter id="filter1_d_429_20627" x="288" y="292" width="312.372" height="310.866" filterUnits="userSpaceOnUse" color-interpolation-filters="sRGB">
<feFlood flood-opacity="0" result="BackgroundImageFix"/>
<feColorMatrix in="SourceAlpha" type="matrix" values="0 0 0 0 0 0 0 0 0 0 0 0 0 0 0 0 0 0 127 0" result="hardAlpha"/>
<feOffset dx="40" dy="-30"/>
<feGaussianBlur stdDeviation="25"/>
<feComposite in2="hardAlpha" operator="out"/>
<feColorMatrix type="matrix" values="0 0 0 0 0 0 0 0 0 0 0 0 0 0 0 0 0 0 0.25 0"/>
<feBlend mode="normal" in2="BackgroundImageFix" result="effect1_dropShadow_429_20627"/>
<feBlend mode="normal" in="SourceGraphic" in2="effect1_dropShadow_429_20627" result="shape"/>
</filter>
<filter id="filter2_d_429_20627" x="270" y="305" width="312.372" height="310.809" filterUnits="userSpaceOnUse" color-interpolation-filters="sRGB">
<feFlood flood-opacity="0" result="BackgroundImageFix"/>
<feColorMatrix in="SourceAlpha" type="matrix" values="0 0 0 0 0 0 0 0 0 0 0 0 0 0 0 0 0 0 127 0" result="hardAlpha"/>
<feOffset dx="40" dy="-30"/>
<feGaussianBlur stdDeviation="25"/>
<feComposite in2="hardAlpha" operator="out"/>
<feColorMatrix type="matrix" values="0 0 0 0 0 0 0 0 0 0 0 0 0 0 0 0 0 0 0.25 0"/>
<feBlend mode="normal" in2="BackgroundImageFix" result="effect1_dropShadow_429_20627"/>
<feBlend mode="normal" in="SourceGraphic" in2="effect1_dropShadow_429_20627" result="shape"/>
</filter>
<linearGradient id="paint0_linear_429_20627" x1="317.211" y1="327" x2="316.976" y2="585" gradientUnits="userSpaceOnUse">
<stop stop-color="#05192D"/>
<stop offset="1" stop-color="#0D2A45"/>
</linearGradient>
<linearGradient id="paint1_linear_429_20627" x1="317.211" y1="306" x2="316.976" y2="564" gradientUnits="userSpaceOnUse">
<stop stop-color="#1F2232"/>
<stop offset="1" stop-color="#412F44"/>
</linearGradient>
<linearGradient id="paint2_linear_429_20627" x1="317.165" y1="353" x2="317.042" y2="518" gradientUnits="userSpaceOnUse">
<stop stop-color="#21293D"/>
<stop offset="1" stop-color="#683343"/>
</linearGradient>
<linearGradient id="paint3_linear_429_20627" x1="317.112" y1="390" x2="317.059" y2="480" gradientUnits="userSpaceOnUse">
<stop stop-color="#342F47"/>
<stop offset="1" stop-color="#85384C"/>
</linearGradient>
<linearGradient id="paint4_linear_429_20627" x1="309.372" y1="210" x2="309.831" y2="418.999" gradientUnits="userSpaceOnUse">
<stop stop-color="#2472C0"/>
<stop offset="1" stop-color="#3C0808"/>
</linearGradient>
<linearGradient id="paint5_linear_429_20627" x1="185.177" y1="209.606" x2="228.869" y2="322.361" gradientUnits="userSpaceOnUse">
<stop stop-color="white"/>
<stop offset="1" stop-color="white" stop-opacity="0"/>
</linearGradient>
<linearGradient id="paint6_linear_429_20627" x1="54.0001" y1="241" x2="162.18" y2="361.839" gradientUnits="userSpaceOnUse">
<stop stop-color="#174E8B"/>
<stop offset="1" stop-color="#7E021C"/>
</linearGradient>
<linearGradient id="paint7_linear_429_20627" x1="50.0001" y1="243" x2="158.18" y2="363.839" gradientUnits="userSpaceOnUse">
<stop stop-color="#0B3157"/>
<stop offset="1" stop-color="#FF3C3C"/>
</linearGradient>
<linearGradient id="paint8_linear_429_20627" x1="39.0001" y1="252" x2="147.18" y2="372.839" gradientUnits="userSpaceOnUse">
<stop stop-color="#0B3157"/>
<stop offset="1" stop-color="#FF3C3C"/>
</linearGradient>
<linearGradient id="paint9_linear_429_20627" x1="311" y1="375" x2="516" y2="642" gradientUnits="userSpaceOnUse">
<stop stop-color="#3E84CD"/>
<stop offset="1" stop-color="#9E232B"/>
</linearGradient>
<linearGradient id="paint10_linear_429_20627" x1="305" y1="378" x2="510" y2="645" gradientUnits="userSpaceOnUse">
<stop stop-color="#295784"/>
<stop offset="1" stop-color="#F3333F"/>
</linearGradient>
<linearGradient id="paint11_linear_429_20627" x1="438" y1="283" x2="400.35" y2="322.61" gradientUnits="userSpaceOnUse">
<stop stop-color="#295784"/>
<stop offset="1" stop-color="#F3333F"/>
</linearGradient>
<linearGradient id="paint12_linear_429_20627" x1="455.5" y1="252" x2="471.093" y2="269.091" gradientUnits="userSpaceOnUse">
<stop stop-color="#295784"/>
<stop offset="0.945055" stop-color="#F3333F"/>
</linearGradient>
</defs>
</svg>
