<svg width="596" height="596" viewBox="0 0 596 596" fill="none" xmlns="http://www.w3.org/2000/svg">
<g style="mix-blend-mode:luminosity">
<path d="M54.5604 199.268L54.5605 199.268L54.5725 199.263L122.844 167.531L122.848 167.529C125.671 166.184 129.386 165.5 133.095 165.5C136.805 165.5 140.452 166.185 143.144 167.525L143.144 167.525L143.156 167.531L211.423 199.261C211.424 199.261 211.424 199.261 211.425 199.262C211.458 199.277 211.495 199.295 211.537 199.315C211.94 199.502 212.759 199.884 213.563 200.527C214.444 201.231 215.263 202.214 215.5 203.543V203.611V203.723V203.834V203.945V204.056V204.167V204.278V204.39V204.501V204.612V204.723V204.834V204.944V205.055V205.166V205.277V205.388V205.499V205.609V205.72V205.831V205.941V206.052V206.163V206.273V206.384V206.494V206.605V206.715V206.825V206.936V207.046V207.156V207.267V207.377V207.487V207.598V207.708V207.818V207.928V208.038V208.148V208.258V208.368V208.478V208.588V208.698V208.808V208.918V209.028V209.138V209.248V209.358V209.468V209.577V209.687V209.797V209.907V210.016V210.126V210.236V210.345V210.455V210.564V210.674V210.784V210.893V211.003V211.112V211.222V211.331V211.441V211.55V211.659V211.769V211.878V211.987V212.097V212.206V212.315V212.425V212.534V212.643V212.753V212.862V212.971V213.08V213.189V213.298V213.408V213.517V213.626V213.735V213.844V213.953V214.062V214.171V214.28V214.389V214.498V214.607V214.716V214.825V214.934V215.043V215.152V215.261V215.37V215.479V215.588V215.697V215.806V215.915V216.024V216.132V216.241V216.35V216.459V216.568V216.677V216.785V216.894V217.003V217.112V217.221V217.329V217.438V217.547V217.656V217.764V217.873V217.982V218.091V218.199V218.308V218.417V218.526V218.634V218.743V218.852V218.96V219.069V219.178V219.287V219.395V219.504V219.613V219.721V219.83V219.939V220.047V220.156V220.265V220.373V220.482V220.591V220.7V220.808V220.917V221.026V221.134V221.243V221.352V221.46V221.569V221.678V221.787V221.895V222.004V222.113V222.221V222.33V222.439V222.548V222.656V222.765V222.874V222.983V223.091V223.2V223.309V223.418V223.526V223.635V223.744V223.853V223.962V224.07V224.179V224.288V224.397V224.506V224.615V224.724V224.832V224.941V225.05V225.159V225.268V225.377V225.486V225.595V225.704V225.813V225.922V226.031V226.14V226.249V226.358V226.467V226.576V226.685V226.794V226.903V227.012V227.121V227.231V227.34V227.449V227.558V227.667V227.776V227.886V227.995V228.104V228.213V228.323V228.432V228.541V228.651V228.76V228.869V228.979V229.088V229.198V229.307V229.416V229.526V229.635V229.745V229.854V229.964V230.074V230.183V230.293V230.402V230.512V230.622V230.732V230.841V230.951V231.061V231.171V231.28V231.39V231.5V231.61V231.72V231.83V231.94V232.05V232.16V232.27V232.38V232.49V232.6V232.71V232.82V232.93V233.04V233.151V233.261V233.371V233.481V233.592V233.702V233.813V233.923V234.033V234.144V234.254V234.365V234.475V234.586V234.697V234.807V234.918V235.029V235.139V235.25V235.361V235.472V235.582V235.693V235.804V235.915V236.026V236.137V236.248V236.359V236.47V236.582V236.693V236.804V236.915V237.026V237.138V237.249V237.36V237.472V237.583V237.695V237.806V237.918V238.029V238.141V238.253V238.364V238.476V238.588V238.7V238.812V238.923V239.035V239.147V239.259V239.371V239.483V239.595V239.708V239.82V239.932V240.044V240.157V240.269V240.381V240.494V240.606V240.719V240.831V240.944V241.057V241.169V241.282V241.395V241.508V241.62V241.733V241.846V241.959V242.072V242.185V242.298V242.412V242.525V242.638V242.751V242.865V242.978V243.091V243.205V243.318V243.432V243.546V243.659V243.773V243.887V244.001V244.114V244.228V244.342V244.456V244.57V244.684V244.799V244.913V245.027V245.141V245.256V245.37V245.484V245.599V245.714V245.828V245.943V246.057V246.172V246.287V246.402V246.517V246.632V246.747V246.862V246.977V247.092V247.207V247.323V247.438V247.553V247.669V247.784V247.9V248.016V248.131V248.247V248.363V248.479V248.594V248.71V248.826V248.942V249.059V249.175V249.291V249.407V249.524V249.64V249.757V249.873V249.99V250.106V250.223V250.34V250.457V250.574V250.691V250.808V250.925V251.042V251.159V251.276V251.394V251.511V251.628V251.746V251.863V251.981V252.099V252.217V252.334V252.452V252.57V252.688V252.806V252.924V253.043V253.161V253.279V253.398V253.516V253.635V253.753V253.872V253.991V254.11V254.228V254.347V254.466V254.585V254.705V254.824V254.943V255.062V255.182V255.301V255.421V255.541V255.66V255.78V255.9V256.02V256.14V256.26V256.38V256.5V256.62V256.741V256.861V256.982V257.102V257.223V257.344V257.464V257.585V257.706V257.827V257.948V258.069V258.191V258.312V258.433V258.555V258.676V258.798V258.92V259.041V259.163V259.285V259.407V259.529V259.651V259.773V259.896V260.018V260.141V260.263V260.386V260.508V260.631V260.754V260.877V260.958C215.252 262.396 214.9 263.286 214.318 263.979C213.722 264.688 212.843 265.243 211.424 265.928C211.423 265.928 211.422 265.929 211.421 265.929L143.168 297.652C143.166 297.653 143.165 297.654 143.163 297.655C140.335 298.878 136.617 299.5 132.905 299.5C129.191 299.5 125.539 298.877 122.842 297.657C122.841 297.657 122.84 297.656 122.839 297.656L54.7344 266.058C54.4771 265.903 54.2322 265.763 53.9992 265.629C53.0492 265.084 52.2979 264.653 51.7097 263.884C50.9951 262.949 50.5 261.456 50.5 258.5L50.5 203C50.5 202.642 50.655 202.255 50.9576 201.848C51.2589 201.442 51.6811 201.049 52.1497 200.692C53.0874 199.976 54.1397 199.451 54.5604 199.268Z" fill="#464646" stroke="url(#paint0_linear_79_12943)"/>
<g style="mix-blend-mode:overlay">
<path d="M133 240L216 202.5V257.5L133 296V240Z" fill="url(#paint1_linear_79_12943)"/>
</g>
<path d="M54.5605 199.268L54.5605 199.268L54.5725 199.263L122.844 167.531L122.848 167.529C125.671 166.184 129.386 165.5 133.095 165.5C136.805 165.5 140.452 166.185 143.144 167.525L143.144 167.525L143.156 167.531L211.423 199.261C211.424 199.261 211.424 199.261 211.425 199.262C214.282 200.623 215.5 202.258 215.5 203.689C215.5 205.111 214.293 206.685 211.44 207.921L211.439 207.92L211.427 207.926L143.168 239.652C143.166 239.653 143.164 239.654 143.162 239.655C140.335 240.878 136.617 241.5 132.905 241.5C129.19 241.5 125.538 240.877 122.841 239.657C122.84 239.656 122.84 239.656 122.839 239.656L54.5768 207.928C54.576 207.928 54.5753 207.927 54.5745 207.927C51.7181 206.566 50.5 204.931 50.5 203.5C50.5 202.078 51.7071 200.504 54.5605 199.268Z" fill="#7A7A7A"/>
<path d="M54.5605 199.268L54.5605 199.268L54.5725 199.263L122.844 167.531L122.848 167.529C125.671 166.184 129.386 165.5 133.095 165.5C136.805 165.5 140.452 166.185 143.144 167.525L143.144 167.525L143.156 167.531L211.423 199.261C211.424 199.261 211.424 199.261 211.425 199.262C214.282 200.623 215.5 202.258 215.5 203.689C215.5 205.111 214.293 206.685 211.44 207.921L211.439 207.92L211.427 207.926L143.168 239.652C143.166 239.653 143.164 239.654 143.162 239.655C140.335 240.878 136.617 241.5 132.905 241.5C129.19 241.5 125.538 240.877 122.841 239.657C122.84 239.656 122.84 239.656 122.839 239.656L54.5768 207.928C54.576 207.928 54.5753 207.927 54.5745 207.927C51.7181 206.566 50.5 204.931 50.5 203.5C50.5 202.078 51.7071 200.504 54.5605 199.268Z" fill="url(#paint2_linear_79_12943)" fill-opacity="0.5"/>
<path d="M54.5605 199.268L54.5605 199.268L54.5725 199.263L122.844 167.531L122.848 167.529C125.671 166.184 129.386 165.5 133.095 165.5C136.805 165.5 140.452 166.185 143.144 167.525L143.144 167.525L143.156 167.531L211.423 199.261C211.424 199.261 211.424 199.261 211.425 199.262C214.282 200.623 215.5 202.258 215.5 203.689C215.5 205.111 214.293 206.685 211.44 207.921L211.439 207.92L211.427 207.926L143.168 239.652C143.166 239.653 143.164 239.654 143.162 239.655C140.335 240.878 136.617 241.5 132.905 241.5C129.19 241.5 125.538 240.877 122.841 239.657C122.84 239.656 122.84 239.656 122.839 239.656L54.5768 207.928C54.576 207.928 54.5753 207.927 54.5745 207.927C51.7181 206.566 50.5 204.931 50.5 203.5C50.5 202.078 51.7071 200.504 54.5605 199.268Z" stroke="url(#paint3_linear_79_12943)"/>
</g>
<path d="M107 118.773V112.012C107 112.012 107.891 103.281 116.579 106.863L173.386 132.722C178.126 134.978 181.955 138.095 181.955 147.945L181.955 198.529C181.955 204.897 177.968 207.283 173.386 204.897L163.856 200.631" stroke="#CCCCCC" stroke-width="4"/>
<path fill-rule="evenodd" clip-rule="evenodd" d="M89.9999 174.188V120.012C89.9999 120.012 90.891 111.281 99.5791 114.863L156.386 140.722C161.126 142.978 164.955 146.095 164.955 155.945L164.955 206.529C164.955 212.897 160.968 215.283 156.386 212.897L97.9385 185.673C93.3562 183.287 89.9999 181.128 89.9999 174.188Z" fill="#777777" fill-opacity="0.8"/>
<path fill-rule="evenodd" clip-rule="evenodd" d="M70.9999 132.969C70.9999 132.969 70.9999 132.872 70.9999 130.331C70.9999 127.79 72.2703 123.026 79.5752 125.885L137.386 151.971C142.126 154.227 145.955 156.057 145.955 164.654L145.955 167.559C145.955 173.926 145.955 175.583 145.955 175.583L70.9999 140.99C70.9999 140.99 70.9999 139.909 70.9999 132.969Z" fill="#5DC0E8"/>
<path fill-rule="evenodd" clip-rule="evenodd" d="M70.9999 132.969C70.9999 132.969 70.9999 132.872 70.9999 130.331C70.9999 127.79 72.2703 123.026 79.5752 125.885L137.386 151.971C142.126 154.227 145.955 156.057 145.955 164.654L145.955 167.559C145.955 173.926 145.955 175.583 145.955 175.583L70.9999 140.99C70.9999 140.99 70.9999 139.909 70.9999 132.969Z" fill="url(#paint4_linear_79_12943)" fill-opacity="0.5"/>
<path d="M129.937 191.181L77 166.7" stroke="#EFEFEF" stroke-width="3" stroke-linecap="round" stroke-linejoin="round" stroke-dasharray="5 12"/>
<path d="M129.937 198.881L77 174.4" stroke="#EFEFEF" stroke-width="3" stroke-linecap="round" stroke-linejoin="round" stroke-dasharray="31 15"/>
<path d="M129.937 206.581L77 182.1" stroke="#EFEFEF" stroke-width="3" stroke-linecap="round" stroke-linejoin="round" stroke-dasharray="6 9"/>
<path d="M129.937 183.481L77 159" stroke="#EFEFEF" stroke-width="3" stroke-linecap="round" stroke-linejoin="round" stroke-dasharray="16 16"/>
<g style="mix-blend-mode:luminosity">
<path d="M407.56 176.268L407.561 176.268L407.572 176.263L475.844 144.531L475.848 144.529C478.671 143.184 482.386 142.5 486.095 142.5C489.805 142.5 493.452 143.185 496.144 144.525L496.144 144.525L496.156 144.531L564.423 176.261C564.424 176.261 564.424 176.261 564.425 176.262C564.458 176.277 564.495 176.295 564.537 176.315C564.94 176.502 565.759 176.884 566.563 177.527C567.444 178.231 568.263 179.214 568.5 180.543V180.612V180.725V180.84V180.956V181.073V181.192V181.312V181.433V181.556V181.679V181.804V181.931V182.059V182.187V182.318V182.449V182.582V182.716V182.851V182.987V183.125V183.264V183.404V183.546V183.688V183.832V183.977V184.123V184.271V184.419V184.569V184.72V184.872V185.025V185.18V185.335V185.492V185.65V185.809V185.969V186.131V186.293V186.457V186.622V186.787V186.954V187.122V187.291V187.462V187.633V187.805V187.979V188.153V188.329V188.506V188.683V188.862V189.042V189.223V189.405V189.588V189.772V189.957V190.143V190.33V190.518V190.707V190.897V191.088V191.28V191.472V191.666V191.861V192.057V192.254V192.452V192.65V192.85V193.051V193.252V193.455V193.658V193.862V194.068V194.274V194.481V194.689V194.897V195.107V195.318V195.529V195.741V195.955V196.169V196.384V196.599V196.816V197.033V197.252V197.471V197.691V197.911V198.133V198.355V198.579V198.803V199.027V199.253V199.479V199.706V199.934V200.163V200.392V200.623V200.853V201.085V201.318V201.551V201.785V202.019V202.255V202.491V202.727V202.965V203.203V203.442V203.682V203.922V204.163V204.404V204.647V204.89V205.133V205.378V205.622V205.868V206.114V206.361V206.609V206.857V207.105V207.355V207.605V207.855V208.106V208.358V208.61V208.863V209.117V209.371V209.625V209.881V210.136V210.393V210.649V210.907V211.165V211.423V211.682V211.942V212.202V212.462V212.723V212.985V213.247V213.509V213.772V214.036V214.3V214.564V214.829V215.094V215.36V215.627V215.893V216.16V216.428V216.696V216.964V217.233V217.503V217.772V218.042V218.313V218.584V218.855V219.126V219.398V219.671V219.944V220.217V220.49V220.764V221.038V221.313V221.588V221.863V222.138V222.414V222.69V222.967V223.243V223.521V223.798V224.076V224.353V224.632V224.91V225.189V225.468V225.747V226.027V226.307V226.587V226.867V227.147V227.428V227.709V227.99V228.272V228.553V228.835V229.117V229.399V229.682V229.964V230.247V230.53V230.813V231.096V231.379V231.663V231.947V232.23V232.514V232.799V233.083V233.367V233.652V233.936V234.221V234.506V234.79V235.075V235.36V235.646V235.931V236.216V236.501V236.787V237.072V237.358V237.643V237.929V238.214V238.5V238.786V239.071V239.357V239.643V239.928V240.214V240.5V240.785V241.071V241.357V241.642V241.928V242.213V242.499V242.784V243.07V243.355V243.64V243.925V244.211V244.496V244.781V245.065V245.35V245.635V245.919V246.204V246.488V246.772V247.057V247.34V247.624V247.908V248.191V248.475V248.758V249.041V249.324V249.607V249.889V250.172V250.454V250.736V251.018V251.299V251.58V251.862V252.143V252.423V252.704V252.984V253.264V253.544V253.823V254.103V254.382V254.66V254.939V255.217V255.495V255.772V256.05V256.327V256.604V256.88V257.156V257.432V257.707V257.982V258.257V258.532V258.806V259.08V259.353V259.626V259.899V260.171V260.443V260.715V260.986V261.257V261.527V261.797V262.067V262.336V262.605V262.873V263.141V263.409V263.676V263.943V264.209V264.475V264.74V265.005V265.269V265.533V265.797V266.06V266.322V266.584V266.846V267.107V267.367V267.627V267.886V268.145V268.404V268.662V268.919V269.176V269.432V269.688V269.943V270.197V270.451V270.705V270.958V271.21V271.462V271.713V271.963V272.213V272.462V272.711V272.959V273.206V273.453V273.699V273.945V274.19V274.434V274.677V274.92V275.162V275.404V275.645V275.885V276.125V276.363V276.602V276.839V277.076V277.312V277.547V277.782V278.015V278.248V278.481V278.712V278.943V279.173V279.403V279.631V279.859V280.086V280.312V280.538V280.763V280.987V281.21V281.432V281.653V281.874V282.094V282.313V282.531V282.749V282.965V283.181V283.396V283.61V283.823V284.035V284.246V284.457V284.666V284.875V285.083V285.29V285.496V285.701V285.905V286.109V286.311V286.512V286.713V286.912V287.111V287.309V287.505V287.701V287.896V288.09V288.283V288.475V288.665V288.855V289.044V289.232V289.419V289.605V289.79V289.974V290.156V290.338V290.519V290.699V290.877V291.055V291.232V291.407V291.582V291.755V291.927V292.098V292.269V292.438V292.605V292.772V292.938V293.103V293.266V293.428V293.59V293.75V293.909V294.067V294.223V294.379V294.533V294.686V294.838V294.989V295.139V295.287V295.435V295.581V295.726V295.869V296.012V296.153V296.293V296.432V296.569V296.706V296.841V296.975V297.107V297.239V297.369V297.498V297.625V297.751V297.876V297.958C568.252 299.396 567.9 300.286 567.318 300.979C566.722 301.688 565.843 302.243 564.424 302.928C564.423 302.928 564.422 302.929 564.421 302.929L496.168 334.652C496.166 334.653 496.165 334.654 496.163 334.655C493.335 335.878 489.617 336.5 485.905 336.5C482.191 336.5 478.539 335.877 475.842 334.657C475.841 334.657 475.84 334.656 475.839 334.656L407.734 303.057C407.477 302.903 407.232 302.763 406.999 302.629C406.049 302.084 405.298 301.653 404.71 300.884C403.995 299.949 403.5 298.456 403.5 295.5L403.5 180C403.5 179.642 403.655 179.255 403.958 178.848C404.259 178.442 404.681 178.049 405.15 177.692C406.087 176.976 407.14 176.451 407.56 176.268Z" fill="#464646" stroke="url(#paint5_linear_79_12943)"/>
<g style="mix-blend-mode:overlay">
<path d="M486 220L569 182.5V267.5L486 306V220Z" fill="url(#paint6_linear_79_12943)"/>
</g>
<path d="M407.56 176.268L407.561 176.268L407.573 176.263L475.844 144.531L475.848 144.529C478.671 143.184 482.386 142.5 486.095 142.5C489.805 142.5 493.452 143.185 496.144 144.525L496.144 144.525L496.156 144.531L564.423 176.261C564.424 176.261 564.424 176.261 564.425 176.262C567.282 177.623 568.5 179.258 568.5 180.689C568.5 182.111 567.293 183.685 564.44 184.921L564.439 184.92L564.427 184.926L496.168 216.652C496.166 216.653 496.164 216.654 496.162 216.655C493.335 217.878 489.617 218.5 485.905 218.5C482.19 218.5 478.538 217.877 475.841 216.657C475.84 216.656 475.84 216.656 475.839 216.656L407.577 184.928C407.576 184.928 407.575 184.927 407.575 184.927C404.718 183.566 403.5 181.931 403.5 180.5C403.5 179.078 404.707 177.504 407.56 176.268Z" fill="#606060"/>
<path d="M407.56 176.268L407.561 176.268L407.573 176.263L475.844 144.531L475.848 144.529C478.671 143.184 482.386 142.5 486.095 142.5C489.805 142.5 493.452 143.185 496.144 144.525L496.144 144.525L496.156 144.531L564.423 176.261C564.424 176.261 564.424 176.261 564.425 176.262C567.282 177.623 568.5 179.258 568.5 180.689C568.5 182.111 567.293 183.685 564.44 184.921L564.439 184.92L564.427 184.926L496.168 216.652C496.166 216.653 496.164 216.654 496.162 216.655C493.335 217.878 489.617 218.5 485.905 218.5C482.19 218.5 478.538 217.877 475.841 216.657C475.84 216.656 475.84 216.656 475.839 216.656L407.577 184.928C407.576 184.928 407.575 184.927 407.575 184.927C404.718 183.566 403.5 181.931 403.5 180.5C403.5 179.078 404.707 177.504 407.56 176.268Z" fill="url(#paint7_linear_79_12943)" fill-opacity="0.5"/>
<path d="M407.56 176.268L407.561 176.268L407.573 176.263L475.844 144.531L475.848 144.529C478.671 143.184 482.386 142.5 486.095 142.5C489.805 142.5 493.452 143.185 496.144 144.525L496.144 144.525L496.156 144.531L564.423 176.261C564.424 176.261 564.424 176.261 564.425 176.262C567.282 177.623 568.5 179.258 568.5 180.689C568.5 182.111 567.293 183.685 564.44 184.921L564.439 184.92L564.427 184.926L496.168 216.652C496.166 216.653 496.164 216.654 496.162 216.655C493.335 217.878 489.617 218.5 485.905 218.5C482.19 218.5 478.538 217.877 475.841 216.657C475.84 216.656 475.84 216.656 475.839 216.656L407.577 184.928C407.576 184.928 407.575 184.927 407.575 184.927C404.718 183.566 403.5 181.931 403.5 180.5C403.5 179.078 404.707 177.504 407.56 176.268Z" stroke="url(#paint8_linear_79_12943)"/>
</g>
<path fill-rule="evenodd" clip-rule="evenodd" d="M498 156.188V102.012C498 102.012 498.891 93.2808 507.579 96.8626L531.932 107.777L540.5 123L540.5 173.584C540.5 179.952 536.514 182.338 531.932 179.952L505.939 167.673C501.356 165.287 498 163.128 498 156.188Z" fill="#AA5252"/>
<path d="M505 142.618C505 141.875 505.782 141.391 506.447 141.724L510.447 143.724C510.786 143.893 511 144.239 511 144.618V150.382C511 151.125 510.218 151.609 509.553 151.276L505.553 149.276C505.214 149.107 505 148.761 505 148.382V142.618Z" stroke="white" stroke-width="2"/>
<path d="M515 128.618C515 127.875 515.782 127.391 516.447 127.724L520.447 129.724C520.786 129.893 521 130.239 521 130.618V155.382C521 156.125 520.218 156.609 519.553 156.276L515.553 154.276C515.214 154.107 515 153.761 515 153.382V128.618Z" stroke="white" stroke-width="2"/>
<path d="M525 140.618C525 139.875 525.782 139.391 526.447 139.724L530.447 141.724C530.786 141.893 531 142.239 531 142.618V160.382C531 161.125 530.218 161.609 529.553 161.276L525.553 159.276C525.214 159.107 525 158.761 525 158.382V140.618Z" stroke="white" stroke-width="2"/>
<path fill-rule="evenodd" clip-rule="evenodd" d="M465 164.188V110.012C465 110.012 465.891 101.281 474.579 104.863L498.932 115.777L507.5 131L507.501 181.584C507.501 187.952 503.514 190.338 498.932 187.952L472.939 175.673C468.356 173.287 465 171.128 465 164.188Z" fill="#40865C"/>
<path fill-rule="evenodd" clip-rule="evenodd" d="M474.875 128.508C475.062 128.484 475.257 128.513 475.439 128.601L485.572 133.55C485.659 133.579 485.74 133.619 485.814 133.668L496.92 139.092C496.962 139.112 497.003 139.134 497.042 139.159C497.173 139.243 497.278 139.354 497.355 139.481C497.454 139.643 497.504 139.832 497.5 140.023L497.5 165.98C497.502 166.061 497.494 166.144 497.475 166.225C497.414 166.487 497.251 166.71 497.03 166.848C496.808 166.986 496.537 167.035 496.275 166.975C496.193 166.956 496.116 166.927 496.043 166.89L474.561 156.399C474.51 156.374 474.462 156.345 474.418 156.313C474.029 156.176 473.75 155.805 473.75 155.37V129.5C473.75 128.948 474.198 128.5 474.75 128.5C474.793 128.5 474.834 128.503 474.875 128.508ZM475.75 154.753V148.465L484.259 152.516V158.909L475.75 154.753ZM486.259 159.885V153.469L495.5 157.869L495.5 164.399L486.259 159.885ZM495.5 147.154L495.5 140.624L486.259 136.111V142.753L495.5 147.154ZM495.5 155.654V149.369L486.259 144.969L486.259 151.253L495.5 155.654ZM475.75 130.979L484.259 135.134V141.801L475.75 137.75V130.979ZM475.75 139.965L484.259 144.016V150.301L475.75 146.25V139.965Z" fill="white"/>
<path fill-rule="evenodd" clip-rule="evenodd" d="M432 172.188V118.012C432 118.012 432.891 109.281 441.579 112.863L465.932 123.777L474.5 139L474.5 189.584C474.5 195.952 470.514 198.338 465.932 195.952L439.939 183.673C435.356 181.287 432 179.128 432 172.188Z" fill="#446995"/>
<path fill-rule="evenodd" clip-rule="evenodd" d="M446.924 141.095C446.424 140.86 445.829 141.075 445.595 141.576C445.36 142.076 445.575 142.671 446.076 142.905L462.076 150.405C462.576 150.64 463.171 150.424 463.405 149.924C463.64 149.424 463.424 148.829 462.924 148.595L446.924 141.095ZM441.404 147.585C440.899 147.362 440.309 147.591 440.085 148.096C439.862 148.601 440.091 149.191 440.596 149.415L462.096 158.915C462.601 159.138 463.191 158.909 463.415 158.404C463.638 157.899 463.409 157.309 462.904 157.085L441.404 147.585ZM440.085 156.596C440.309 156.091 440.899 155.862 441.404 156.085L462.904 165.585C463.409 165.809 463.638 166.399 463.415 166.904C463.191 167.409 462.601 167.638 462.096 167.415L440.596 157.915C440.091 157.691 439.862 157.101 440.085 156.596ZM441.412 164.589C440.909 164.361 440.317 164.585 440.089 165.088C439.861 165.591 440.085 166.183 440.588 166.411L461.588 175.911C462.091 176.139 462.683 175.915 462.911 175.412C463.139 174.909 462.915 174.317 462.412 174.089L441.412 164.589Z" fill="white"/>
<g style="mix-blend-mode:luminosity">
<path fill-rule="evenodd" clip-rule="evenodd" d="M270.28 457.978L96.1265 380.056C88.4718 376.546 84.7667 372.048 85.0114 367.666C85.2409 363.556 85.0114 349.309 85.0114 349.309L270.28 278.633C285.116 271.831 308.981 271.831 323.172 278.633L508.452 350.686C508.452 350.686 508.452 360.323 508.452 366.29C508.452 366.29 508.452 373.633 493.801 381.435L323.172 457.978C308.336 464.163 284.471 464.163 270.28 457.978Z" fill="#3D3D3D"/>
<g style="mix-blend-mode:overlay">
<path d="M300 445.509L524.5 345.486V366.85L316 460.561C310.144 462.009 306 462.503 300 462.503V445.509Z" fill="url(#paint9_linear_79_12943)"/>
</g>
<path d="M96.3189 344.486L96.3189 344.486L96.3307 344.481L270.485 266.558L270.489 266.557C277.824 263.193 287.423 261.5 296.968 261.5C306.514 261.5 315.948 263.194 322.956 266.553L322.955 266.553L322.967 266.558L497.117 344.479C497.118 344.479 497.118 344.479 497.118 344.479C504.493 347.862 507.952 352.065 507.952 356.006C507.952 359.938 504.505 363.99 497.133 367.063L497.121 367.068L322.979 444.986C322.977 444.986 322.975 444.987 322.973 444.988C315.634 448.046 306.031 449.585 296.484 449.585C286.935 449.585 277.496 448.045 270.484 444.99C270.482 444.99 270.481 444.989 270.48 444.989L96.3349 367.07C96.3343 367.07 96.3337 367.07 96.3331 367.069C88.9585 363.687 85.5 359.484 85.5 355.543C85.5 351.611 88.9469 347.559 96.3189 344.486Z" fill="#464646"/>
<path d="M96.3189 344.486L96.3189 344.486L96.3307 344.481L270.485 266.558L270.489 266.557C277.824 263.193 287.423 261.5 296.968 261.5C306.514 261.5 315.948 263.194 322.956 266.553L322.955 266.553L322.967 266.558L497.117 344.479C497.118 344.479 497.118 344.479 497.118 344.479C504.493 347.862 507.952 352.065 507.952 356.006C507.952 359.938 504.505 363.99 497.133 367.063L497.121 367.068L322.979 444.986C322.977 444.986 322.975 444.987 322.973 444.988C315.634 448.046 306.031 449.585 296.484 449.585C286.935 449.585 277.496 448.045 270.484 444.99C270.482 444.99 270.481 444.989 270.48 444.989L96.3349 367.07C96.3343 367.07 96.3337 367.07 96.3331 367.069C88.9585 363.687 85.5 359.484 85.5 355.543C85.5 351.611 88.9469 347.559 96.3189 344.486Z" fill="url(#paint10_linear_79_12943)" fill-opacity="0.5"/>
<path d="M96.3189 344.486L96.3189 344.486L96.3307 344.481L270.485 266.558L270.489 266.557C277.824 263.193 287.423 261.5 296.968 261.5C306.514 261.5 315.948 263.194 322.956 266.553L322.955 266.553L322.967 266.558L497.117 344.479C497.118 344.479 497.118 344.479 497.118 344.479C504.493 347.862 507.952 352.065 507.952 356.006C507.952 359.938 504.505 363.99 497.133 367.063L497.121 367.068L322.979 444.986C322.977 444.986 322.975 444.987 322.973 444.988C315.634 448.046 306.031 449.585 296.484 449.585C286.935 449.585 277.496 448.045 270.484 444.99C270.482 444.99 270.481 444.989 270.48 444.989L96.3349 367.07C96.3343 367.07 96.3337 367.07 96.3331 367.069C88.9585 363.687 85.5 359.484 85.5 355.543C85.5 351.611 88.9469 347.559 96.3189 344.486Z" stroke="url(#paint11_linear_79_12943)"/>
</g>
<g style="mix-blend-mode:luminosity">
<path d="M424.56 348.268L424.561 348.268L424.572 348.263L492.844 316.531L492.848 316.529C495.671 315.184 499.386 314.5 503.095 314.5C506.805 314.5 510.452 315.185 513.144 316.525L513.144 316.525L513.156 316.531L581.423 348.261C581.424 348.261 581.424 348.261 581.425 348.262C581.458 348.277 581.495 348.295 581.537 348.315C581.94 348.502 582.759 348.884 583.563 349.527C584.444 350.231 585.263 351.214 585.5 352.543V352.612V352.724V352.838V352.952V353.068V353.184V353.301V353.419V353.537V353.657V353.777V353.898V354.021V354.143V354.267V354.392V354.517V354.643V354.77V354.898V355.027V355.157V355.287V355.418V355.55V355.683V355.816V355.95V356.085V356.221V356.358V356.495V356.634V356.773V356.912V357.053V357.194V357.336V357.479V357.622V357.767V357.912V358.057V358.204V358.351V358.499V358.648V358.797V358.947V359.098V359.25V359.402V359.555V359.709V359.863V360.018V360.174V360.33V360.487V360.645V360.804V360.963V361.123V361.283V361.444V361.606V361.769V361.932V362.096V362.26V362.425V362.591V362.758V362.925V363.092V363.261V363.429V363.599V363.769V363.94V364.111V364.283V364.456V364.629V364.803V364.977V365.152V365.328V365.504V365.681V365.858V366.036V366.215V366.394V366.573V366.754V366.934V367.116V367.298V367.48V367.663V367.846V368.03V368.215V368.4V368.586V368.772V368.959V369.146V369.334V369.522V369.711V369.9V370.09V370.28V370.471V370.662V370.853V371.046V371.238V371.432V371.625V371.819V372.014V372.209V372.404V372.6V372.797V372.994V373.191V373.389V373.587V373.786V373.985V374.184V374.384V374.585V374.785V374.987V375.188V375.39V375.593V375.796V375.999V376.203V376.407V376.611V376.816V377.021V377.227V377.433V377.639V377.846V378.053V378.26V378.468V378.676V378.885V379.094V379.303V379.513V379.722V379.933V380.143V380.354V380.565V380.777V380.989V381.201V381.414V381.627V381.84V382.053V382.267V382.481V382.695V382.91V383.125V383.34V383.556V383.771V383.987V384.204V384.42V384.637V384.854V385.072V385.289V385.507V385.725V385.944V386.162V386.381V386.6V386.819V387.039V387.259V387.479V387.699V387.919V388.14V388.361V388.582V388.803V389.024V389.246V389.468V389.69V389.912V390.134V390.357V390.58V390.802V391.025V391.249V391.472V391.696V391.919V392.143V392.367V392.591V392.815V393.04V393.264V393.489V393.714V393.939V394.164V394.389V394.614V394.84V395.065V395.291V395.516V395.742V395.968V396.194V396.42V396.646V396.872V397.099V397.325V397.551V397.778V398.005V398.231V398.458V398.685V398.911V399.138V399.365V399.592V399.819V400.046V400.273V400.5V400.727V400.954V401.181V401.408V401.635V401.863V402.09V402.317V402.544V402.771V402.998V403.225V403.452V403.679V403.906V404.133V404.36V404.587V404.814V405.041V405.268V405.495V405.721V405.948V406.175V406.401V406.628V406.854V407.08V407.307V407.533V407.759V407.985V408.211V408.437V408.663V408.888V409.114V409.339V409.565V409.79V410.015V410.24V410.465V410.69V410.914V411.139V411.363V411.587V411.811V412.035V412.259V412.483V412.706V412.929V413.153V413.376V413.598V413.821V414.044V414.266V414.488V414.71V414.932V415.153V415.375V415.596V415.817V416.037V416.258V416.478V416.698V416.918V417.138V417.357V417.577V417.796V418.014V418.233V418.451V418.669V418.887V419.105V419.322V419.539V419.756V419.972V420.188V420.404V420.62V420.835V421.05V421.265V421.48V421.694V421.908V422.122V422.335V422.548V422.761V422.973V423.185V423.397V423.608V423.82V424.03V424.241V424.451V424.661V424.87V425.079V425.288V425.497V425.705V425.912V426.12V426.327V426.533V426.739V426.945V427.151V427.356V427.561V427.765V427.969V428.172V428.375V428.578V428.78V428.982V429.184V429.385V429.586V429.786V429.986V430.185V430.384V430.582V430.78V430.978V431.175V431.372V431.568V431.764V431.959V432.154V432.349V432.543V432.736V432.929V433.122V433.314V433.505V433.696V433.887V434.077V434.267V434.456V434.644V434.832V435.02V435.207V435.393V435.579V435.765V435.95V436.134V436.318V436.501V436.684V436.866V437.048V437.229V437.41V437.59V437.769V437.948V438.126V438.304V438.481V438.658V438.834V439.009V439.184V439.358V439.532V439.705V439.877V440.049V440.22V440.391V440.561V440.73V440.899V441.067V441.234V441.401V441.567V441.733V441.898V442.062V442.225V442.388V442.551V442.712V442.873V443.034V443.193V443.352V443.51V443.668V443.825V443.981V444.137V444.291V444.446V444.599V444.752V444.904V445.055V445.206V445.355V445.505V445.653V445.801V445.948V446.094V446.239V446.384V446.528V446.671V446.814V446.956V447.097V447.237V447.376V447.515V447.653V447.79V447.927V448.062V448.197V448.331V448.464V448.597V448.728V448.859V448.989V449.118V449.247V449.374V449.501V449.627V449.752V449.877V449.958C585.252 451.396 584.9 452.286 584.318 452.979C583.722 453.688 582.843 454.243 581.424 454.928C581.423 454.928 581.422 454.929 581.421 454.929L513.168 486.652C513.166 486.653 513.165 486.654 513.163 486.655C510.335 487.878 506.617 488.5 502.905 488.5C499.191 488.5 495.539 487.877 492.842 486.657C492.841 486.657 492.84 486.656 492.839 486.656L424.734 455.057C424.477 454.903 424.232 454.763 423.999 454.629C423.049 454.084 422.298 453.653 421.71 452.884C420.995 451.949 420.5 450.456 420.5 447.5L420.5 352C420.5 351.642 420.655 351.255 420.958 350.848C421.259 350.442 421.681 350.049 422.15 349.692C423.087 348.976 424.14 348.451 424.56 348.268Z" fill="#464646" stroke="url(#paint12_linear_79_12943)"/>
<g style="mix-blend-mode:overlay">
<path d="M503 390L586 352.5V437.5L503 476V390Z" fill="url(#paint13_linear_79_12943)"/>
</g>
<path d="M424.56 348.268L424.561 348.268L424.573 348.263L492.844 316.531L492.848 316.529C495.671 315.184 499.386 314.5 503.095 314.5C506.805 314.5 510.452 315.185 513.144 316.525L513.144 316.525L513.156 316.531L581.423 348.261C581.424 348.261 581.424 348.261 581.425 348.262C584.282 349.623 585.5 351.258 585.5 352.689C585.5 354.111 584.293 355.685 581.44 356.921L581.439 356.92L581.427 356.926L513.168 388.652C513.166 388.653 513.164 388.654 513.162 388.655C510.335 389.878 506.617 390.5 502.905 390.5C499.19 390.5 495.538 389.877 492.841 388.657C492.84 388.656 492.84 388.656 492.839 388.656L424.577 356.928C424.576 356.928 424.575 356.927 424.575 356.927C421.718 355.566 420.5 353.931 420.5 352.5C420.5 351.078 421.707 349.504 424.56 348.268Z" fill="#7A7A7A"/>
<path d="M424.56 348.268L424.561 348.268L424.573 348.263L492.844 316.531L492.848 316.529C495.671 315.184 499.386 314.5 503.095 314.5C506.805 314.5 510.452 315.185 513.144 316.525L513.144 316.525L513.156 316.531L581.423 348.261C581.424 348.261 581.424 348.261 581.425 348.262C584.282 349.623 585.5 351.258 585.5 352.689C585.5 354.111 584.293 355.685 581.44 356.921L581.439 356.92L581.427 356.926L513.168 388.652C513.166 388.653 513.164 388.654 513.162 388.655C510.335 389.878 506.617 390.5 502.905 390.5C499.19 390.5 495.538 389.877 492.841 388.657C492.84 388.656 492.84 388.656 492.839 388.656L424.577 356.928C424.576 356.928 424.575 356.927 424.575 356.927C421.718 355.566 420.5 353.931 420.5 352.5C420.5 351.078 421.707 349.504 424.56 348.268Z" fill="url(#paint14_linear_79_12943)" fill-opacity="0.5"/>
<path d="M424.56 348.268L424.561 348.268L424.573 348.263L492.844 316.531L492.848 316.529C495.671 315.184 499.386 314.5 503.095 314.5C506.805 314.5 510.452 315.185 513.144 316.525L513.144 316.525L513.156 316.531L581.423 348.261C581.424 348.261 581.424 348.261 581.425 348.262C584.282 349.623 585.5 351.258 585.5 352.689C585.5 354.111 584.293 355.685 581.44 356.921L581.439 356.92L581.427 356.926L513.168 388.652C513.166 388.653 513.164 388.654 513.162 388.655C510.335 389.878 506.617 390.5 502.905 390.5C499.19 390.5 495.538 389.877 492.841 388.657C492.84 388.656 492.84 388.656 492.839 388.656L424.577 356.928C424.576 356.928 424.575 356.927 424.575 356.927C421.718 355.566 420.5 353.931 420.5 352.5C420.5 351.078 421.707 349.504 424.56 348.268Z" stroke="url(#paint15_linear_79_12943)"/>
<path d="M480.783 345.084L508.416 300L513.733 302.051L485.481 347.135L480.783 345.084Z" fill="white"/>
<path d="M538 347.158L508.997 343.806V339.359L531.865 342.135L508.997 322.859V317.051L538 341.428V347.158Z" fill="white"/>
<path d="M454 302.705L483.003 306.058V310.504L460.135 307.729L483.003 327.005V332.812L454 308.436V302.705Z" fill="white"/>
</g>
<g style="mix-blend-mode:overlay" opacity="0.7">
<path fill-rule="evenodd" clip-rule="evenodd" d="M278.489 296.436L180.405 345.526C171.981 349.628 171.981 356.049 180.405 359.778L279.291 405.791C287.716 409.893 301.268 409.893 309.326 405.791L408.222 359.778C416.646 355.676 416.646 349.255 408.222 345.526L310.129 296.436C301.704 292.707 286.547 292.707 278.489 296.436Z" fill="url(#paint16_linear_79_12943)"/>
</g>
<path fill-rule="evenodd" clip-rule="evenodd" d="M279.323 376.895L181 330C172.5 326 174 319.5 174.5 318.5C175 317.5 179 314 179 314L279.323 271.757C287.748 267.769 301.3 267.769 309.358 271.757L414.39 320.231C415.578 326.169 408.244 330.524 408.244 330.524L309.358 376.895C300.934 380.52 287.381 380.52 279.323 376.895Z" fill="#FF6F3D"/>
<g style="mix-blend-mode:overlay" opacity="0.6">
<path fill-rule="evenodd" clip-rule="evenodd" d="M279 320.5L181.5 275C177.5 273 174 270.211 174 265.444C174.772 262.265 175.565 261.868 175.565 261.868L279.478 216.002C287.924 211.999 301.51 211.999 309.588 216.002L414.5 264C415.5 271 407.74 274.582 407.74 274.582L309.5 320.5C299 324.5 287.078 324.138 279 320.5Z" fill="url(#paint17_linear_79_12943)"/>
</g>
<mask id="mask0_79_12943" style="mask-type:alpha" maskUnits="userSpaceOnUse" x="174" y="268" width="241" height="112">
<path fill-rule="evenodd" clip-rule="evenodd" d="M280.115 376.895L180 329.5C175.645 327.125 174 324 174 320.5C174.109 318.076 181.229 314.688 181.229 314.688L280.115 271.757C288.54 267.769 302.092 267.769 310.15 271.757L414.5 319C415.5 327.5 407 331 407 331L310.15 376.895C301.726 380.52 288.173 380.52 280.115 376.895Z" fill="#1A90BE"/>
</mask>
<g mask="url(#mask0_79_12943)">
<g style="mix-blend-mode:overlay">
<circle cx="366.092" cy="342.004" r="40.7762" fill="url(#paint18_radial_79_12943)"/>
</g>
<g style="mix-blend-mode:overlay">
<circle cx="190.776" cy="330.776" r="40.7762" fill="url(#paint19_radial_79_12943)"/>
</g>
</g>
<path fill-rule="evenodd" clip-rule="evenodd" d="M279.323 373.412L180.5 327C172.076 322.954 172 317.5 180.428 313.087L224.733 290.935L280.103 316.272C288.527 320.318 302.103 320.318 310.161 316.272L363.949 290.935L408.254 313.087C416.678 317.133 416.678 323.386 408.254 327.064L308.5 373.5C300.076 377.546 287.382 377.458 279.323 373.412Z" fill="#FF6F3D"/>
<g style="mix-blend-mode:overlay" opacity="0.7">
<path fill-rule="evenodd" clip-rule="evenodd" d="M278.402 263.797L180.5 313C172 317 172 323 180.5 327L279.204 373.152C287.629 377.254 301.181 377.254 309.239 373.152C347.655 355.286 369.323 345.203 408.135 327.138C416.559 323.036 416.559 316.616 408.135 312.887L310.042 263.797C301.617 260.068 286.46 260.068 278.402 263.797Z" fill="url(#paint20_linear_79_12943)"/>
<path fill-rule="evenodd" clip-rule="evenodd" d="M278.402 263.797L180.5 313C172 317 172 323 180.5 327L279.204 373.152C287.629 377.254 301.181 377.254 309.239 373.152C347.655 355.286 369.323 345.203 408.135 327.138C416.559 323.036 416.559 316.616 408.135 312.887L310.042 263.797C301.617 260.068 286.46 260.068 278.402 263.797Z" fill="url(#paint21_linear_79_12943)"/>
</g>
<g style="mix-blend-mode:soft-light" opacity="0.2">
<path fill-rule="evenodd" clip-rule="evenodd" d="M279.323 338.889L201.217 302.812C201.217 302.812 258.238 274.582 289.686 260.056C298.11 256.068 301.3 229.763 309.358 233.751L355.799 287.372C375.023 296.472 387.47 302.809 387.47 302.809L309.358 338.889C300.934 342.515 287.381 342.515 279.323 338.889Z" fill="black"/>
</g>
<g style="mix-blend-mode:overlay" opacity="0.3" filter="url(#filter0_d_79_12943)">
<path fill-rule="evenodd" clip-rule="evenodd" d="M279.323 338.89L201.008 302.812L223.969 291.331C215.545 287.343 220.295 266.849 228.72 263.223L279.323 233.752C287.748 229.764 301.3 229.764 309.358 233.752L362.529 290.144L387.47 302.812L309.358 338.89C300.934 342.515 287.381 342.515 279.323 338.89Z" fill="black" fill-opacity="0.9"/>
</g>
<path fill-rule="evenodd" clip-rule="evenodd" d="M279.328 320.679L180.442 274.308C176.5 272.5 174 270 174 264C174.074 263.31 174.701 262.538 175 262L279.328 215.541C287.752 211.553 301.305 211.553 309.363 215.541L414.39 264.411C415.182 271.141 408.249 274.308 408.249 274.308L309.363 320.679C300.938 324.304 287.386 324.304 279.328 320.679Z" fill="#7DA822"/>
<mask id="mask1_79_12943" style="mask-type:alpha" maskUnits="userSpaceOnUse" x="174" y="213" width="241" height="111">
<path fill-rule="evenodd" clip-rule="evenodd" d="M280 321L179 273.602C176 272.102 174 269 174 264.102C174.109 261.678 181.229 259.265 181.229 259.265L280.115 216.333C288.54 212.345 302.092 212.345 310.15 216.333L414.5 265.102C414.5 272.102 407 275 407 275L309.5 320.5C301.076 324.125 288.058 324.625 280 321Z" fill="#1A90BE"/>
</mask>
<g mask="url(#mask1_79_12943)">
<g style="mix-blend-mode:overlay">
<circle cx="366.092" cy="288.956" r="40.7762" fill="url(#paint22_radial_79_12943)"/>
</g>
<g style="mix-blend-mode:overlay">
<circle cx="191.11" cy="277.871" r="40.7762" fill="url(#paint23_radial_79_12943)"/>
</g>
</g>
<path fill-rule="evenodd" clip-rule="evenodd" d="M279.449 317.983L180.332 271.913C171.889 267.891 171.889 261.675 180.332 258.019L224.737 236L280.23 261.185C288.674 265.207 302.279 265.207 310.355 261.185L364 235.5L408.668 258.019C417.111 262.041 417.111 268.257 408.668 271.913L309.551 317.983C301.108 322.006 287.525 322.006 279.449 317.983Z" fill="#95C038"/>
<path fill-rule="evenodd" clip-rule="evenodd" d="M279.449 317.983L180.332 271.913C171.889 267.891 171.889 261.675 180.332 258.019L224.737 236L280.23 261.185C288.674 265.207 302.279 265.207 310.355 261.185L364 235.5L408.668 258.019C417.111 262.041 417.111 268.257 408.668 271.913L309.551 317.983C301.108 322.006 287.525 322.006 279.449 317.983Z" fill="url(#paint24_linear_79_12943)"/>
<g style="mix-blend-mode:overlay" opacity="0.8">
<path fill-rule="evenodd" clip-rule="evenodd" d="M278.521 208.592L180.438 257.681C172.528 262.432 172.528 267.183 180.438 271.933L279.324 317.947C287.748 322.049 301.3 322.049 309.359 317.947L408.5 271.5C416.924 267.398 416.678 261.41 408.254 257.681L310.161 208.592C301.736 204.863 286.579 204.863 278.521 208.592Z" fill="url(#paint25_linear_79_12943)"/>
</g>
<g style="mix-blend-mode:soft-light" opacity="0.2">
<path fill-rule="evenodd" clip-rule="evenodd" d="M279.323 283.465L201.217 247.387C201.217 247.387 258.238 219.158 289.686 204.632C298.11 200.644 301.3 174.339 309.358 178.327L355.799 231.948C375.023 241.048 387.47 247.385 387.47 247.385L309.358 283.465C300.934 287.091 287.381 287.091 279.323 283.465Z" fill="black"/>
</g>
<g style="mix-blend-mode:overlay" opacity="0.3" filter="url(#filter1_d_79_12943)">
<path fill-rule="evenodd" clip-rule="evenodd" d="M279.323 283.466L201.008 247.388L223.969 235.907C215.545 231.919 220.295 211.425 228.72 207.8L279.323 178.328C287.748 174.34 301.3 174.34 309.358 178.328L362.529 234.72L387.47 247.388L309.358 283.466C300.934 287.091 287.381 287.091 279.323 283.466Z" fill="black"/>
</g>
<path fill-rule="evenodd" clip-rule="evenodd" d="M279.323 261.296L178.442 213.737C174.087 211.362 173.843 210.096 174.087 204.632C174.196 202.208 180.437 200.673 180.437 200.673L279.323 157.741C287.748 153.753 301.3 153.753 309.358 157.741L414.39 204.632C414.39 212.946 408.244 214.925 408.244 214.925L309.358 261.296C300.934 264.921 287.381 264.921 279.323 261.296Z" fill="#1A90BE"/>
<mask id="mask2_79_12943" style="mask-type:alpha" maskUnits="userSpaceOnUse" x="174" y="155" width="241" height="110">
<path fill-rule="evenodd" clip-rule="evenodd" d="M279.301 261.545L178.42 213.987C174.065 211.612 173.82 210.345 174.065 204.882C174.174 202.458 180.415 200.923 180.415 200.923L279.301 157.991C287.726 154.003 301.278 154.003 309.336 157.991L414.368 205.673C414.368 212.403 409 214.5 409 214.5L309.336 261.545C300.912 265.171 287.359 265.171 279.301 261.545Z" fill="#1A90BE"/>
</mask>
<g mask="url(#mask2_79_12943)">
<g style="mix-blend-mode:overlay">
<circle cx="365.278" cy="228.239" r="40.7762" fill="url(#paint26_radial_79_12943)"/>
</g>
<g style="mix-blend-mode:overlay">
<circle cx="190.296" cy="217.155" r="40.7762" fill="url(#paint27_radial_79_12943)"/>
</g>
</g>
<path fill-rule="evenodd" clip-rule="evenodd" d="M279.323 258.129L180.428 212.448C172.003 208.46 172.003 202.297 180.428 198.672L279.323 152.991C287.748 149.003 301.3 149.003 309.358 152.991L408.254 198.672C416.678 202.66 416.678 208.823 408.254 212.448L309.358 258.129C300.934 261.754 287.381 261.754 279.323 258.129Z" fill="#5DC0E8"/>
<path fill-rule="evenodd" clip-rule="evenodd" d="M279.323 258.129L180.428 212.448C172.003 208.46 172.003 202.297 180.428 198.672L279.323 152.991C287.748 149.003 301.3 149.003 309.358 152.991L408.254 198.672C416.678 202.66 416.678 208.823 408.254 212.448L309.358 258.129C300.934 261.754 287.381 261.754 279.323 258.129Z" fill="url(#paint28_linear_79_12943)" fill-opacity="0.6"/>
<defs>
<filter id="filter0_d_79_12943" x="185.008" y="224.761" width="218.462" height="142.848" filterUnits="userSpaceOnUse" color-interpolation-filters="sRGB">
<feFlood flood-opacity="0" result="BackgroundImageFix"/>
<feColorMatrix in="SourceAlpha" type="matrix" values="0 0 0 0 0 0 0 0 0 0 0 0 0 0 0 0 0 0 127 0" result="hardAlpha"/>
<feOffset dy="10"/>
<feGaussianBlur stdDeviation="8"/>
<feColorMatrix type="matrix" values="0 0 0 0 0 0 0 0 0 0 0 0 0 0 0 0 0 0 1 0"/>
<feBlend mode="normal" in2="BackgroundImageFix" result="effect1_dropShadow_79_12943"/>
<feBlend mode="normal" in="SourceGraphic" in2="effect1_dropShadow_79_12943" result="shape"/>
</filter>
<filter id="filter1_d_79_12943" x="185.008" y="169.337" width="218.462" height="142.848" filterUnits="userSpaceOnUse" color-interpolation-filters="sRGB">
<feFlood flood-opacity="0" result="BackgroundImageFix"/>
<feColorMatrix in="SourceAlpha" type="matrix" values="0 0 0 0 0 0 0 0 0 0 0 0 0 0 0 0 0 0 127 0" result="hardAlpha"/>
<feOffset dy="10"/>
<feGaussianBlur stdDeviation="8"/>
<feColorMatrix type="matrix" values="0 0 0 0 0 0 0 0 0 0 0 0 0 0 0 0 0 0 1 0"/>
<feBlend mode="normal" in2="BackgroundImageFix" result="effect1_dropShadow_79_12943"/>
<feBlend mode="normal" in="SourceGraphic" in2="effect1_dropShadow_79_12943" result="shape"/>
</filter>
<linearGradient id="paint0_linear_79_12943" x1="133" y1="283" x2="133" y2="360" gradientUnits="userSpaceOnUse">
<stop offset="0.260417" stop-color="#747474" stop-opacity="0"/>
<stop offset="1" stop-color="#747474"/>
</linearGradient>
<linearGradient id="paint1_linear_79_12943" x1="138.5" y1="217" x2="166.5" y2="285" gradientUnits="userSpaceOnUse">
<stop stop-color="#A8A8A8"/>
<stop offset="1" stop-color="#A8A8A8" stop-opacity="0"/>
</linearGradient>
<linearGradient id="paint2_linear_79_12943" x1="133.066" y1="165" x2="132.999" y2="242" gradientUnits="userSpaceOnUse">
<stop stop-color="#212121"/>
<stop offset="1" stop-color="#5F5F5F"/>
</linearGradient>
<linearGradient id="paint3_linear_79_12943" x1="133" y1="165" x2="133" y2="242" gradientUnits="userSpaceOnUse">
<stop offset="0.260417" stop-color="#747474" stop-opacity="0"/>
<stop offset="1" stop-color="#747474"/>
</linearGradient>
<linearGradient id="paint4_linear_79_12943" x1="81.9999" y1="127.5" x2="97.4999" y2="167.5" gradientUnits="userSpaceOnUse">
<stop stop-color="white"/>
<stop offset="1" stop-color="white" stop-opacity="0"/>
</linearGradient>
<linearGradient id="paint5_linear_79_12943" x1="486" y1="260" x2="486" y2="337" gradientUnits="userSpaceOnUse">
<stop offset="0.260417" stop-color="#747474" stop-opacity="0"/>
<stop offset="1" stop-color="#747474"/>
</linearGradient>
<linearGradient id="paint6_linear_79_12943" x1="491.5" y1="197" x2="528" y2="288" gradientUnits="userSpaceOnUse">
<stop stop-color="#A8A8A8"/>
<stop offset="1" stop-color="#A8A8A8" stop-opacity="0"/>
</linearGradient>
<linearGradient id="paint7_linear_79_12943" x1="486.066" y1="142" x2="485.999" y2="219" gradientUnits="userSpaceOnUse">
<stop stop-color="#212121"/>
<stop offset="1" stop-color="#5F5F5F"/>
</linearGradient>
<linearGradient id="paint8_linear_79_12943" x1="486" y1="142" x2="486" y2="219" gradientUnits="userSpaceOnUse">
<stop offset="0.260417" stop-color="#747474" stop-opacity="0"/>
<stop offset="1" stop-color="#747474"/>
</linearGradient>
<linearGradient id="paint9_linear_79_12943" x1="326" y1="443.081" x2="326.943" y2="470.274" gradientUnits="userSpaceOnUse">
<stop stop-color="#A8A8A8"/>
<stop offset="1" stop-color="#A8A8A8" stop-opacity="0"/>
</linearGradient>
<linearGradient id="paint10_linear_79_12943" x1="296.895" y1="261" x2="296.736" y2="450.085" gradientUnits="userSpaceOnUse">
<stop stop-color="#212121"/>
<stop offset="1" stop-color="#5F5F5F"/>
</linearGradient>
<linearGradient id="paint11_linear_79_12943" x1="296.726" y1="261" x2="296.726" y2="450.085" gradientUnits="userSpaceOnUse">
<stop offset="0.260417" stop-color="#747474" stop-opacity="0"/>
<stop offset="1" stop-color="#747474"/>
</linearGradient>
<linearGradient id="paint12_linear_79_12943" x1="503" y1="412" x2="503" y2="489" gradientUnits="userSpaceOnUse">
<stop offset="0.260417" stop-color="#747474" stop-opacity="0"/>
<stop offset="1" stop-color="#747474"/>
</linearGradient>
<linearGradient id="paint13_linear_79_12943" x1="508.5" y1="367" x2="545" y2="458" gradientUnits="userSpaceOnUse">
<stop stop-color="#A8A8A8"/>
<stop offset="1" stop-color="#A8A8A8" stop-opacity="0"/>
</linearGradient>
<linearGradient id="paint14_linear_79_12943" x1="503.066" y1="314" x2="502.999" y2="391" gradientUnits="userSpaceOnUse">
<stop stop-color="#212121"/>
<stop offset="1" stop-color="#5F5F5F"/>
</linearGradient>
<linearGradient id="paint15_linear_79_12943" x1="503" y1="314" x2="503" y2="391" gradientUnits="userSpaceOnUse">
<stop offset="0.260417" stop-color="#747474" stop-opacity="0"/>
<stop offset="1" stop-color="#747474"/>
</linearGradient>
<linearGradient id="paint16_linear_79_12943" x1="294.309" y1="408.868" x2="294.309" y2="294.853" gradientUnits="userSpaceOnUse">
<stop stop-color="#686868"/>
<stop offset="1" stop-color="#545454" stop-opacity="0"/>
</linearGradient>
<linearGradient id="paint17_linear_79_12943" x1="364.48" y1="298.817" x2="281.917" y2="321.022" gradientUnits="userSpaceOnUse">
<stop stop-color="white"/>
<stop offset="1" stop-color="white" stop-opacity="0"/>
</linearGradient>
<radialGradient id="paint18_radial_79_12943" cx="0" cy="0" r="1" gradientUnits="userSpaceOnUse" gradientTransform="translate(366.092 342.004) rotate(90) scale(40.7762)">
<stop stop-color="white"/>
<stop offset="1" stop-color="white" stop-opacity="0"/>
</radialGradient>
<radialGradient id="paint19_radial_79_12943" cx="0" cy="0" r="1" gradientUnits="userSpaceOnUse" gradientTransform="translate(190.776 330.776) rotate(90) scale(40.7762)">
<stop stop-color="white"/>
<stop offset="1" stop-color="white" stop-opacity="0"/>
</radialGradient>
<linearGradient id="paint20_linear_79_12943" x1="294.222" y1="376.228" x2="294.222" y2="262.213" gradientUnits="userSpaceOnUse">
<stop stop-color="#CCCCCC"/>
<stop offset="1" stop-color="#8D8D8D" stop-opacity="0"/>
</linearGradient>
<linearGradient id="paint21_linear_79_12943" x1="294.222" y1="376.228" x2="294.222" y2="262.213" gradientUnits="userSpaceOnUse">
<stop stop-color="white"/>
<stop offset="1" stop-opacity="0"/>
</linearGradient>
<radialGradient id="paint22_radial_79_12943" cx="0" cy="0" r="1" gradientUnits="userSpaceOnUse" gradientTransform="translate(366.092 288.956) rotate(90) scale(40.7762)">
<stop stop-color="white"/>
<stop offset="1" stop-color="white" stop-opacity="0"/>
</radialGradient>
<radialGradient id="paint23_radial_79_12943" cx="0" cy="0" r="1" gradientUnits="userSpaceOnUse" gradientTransform="translate(191.11 277.871) rotate(90) scale(40.7762)">
<stop stop-color="white"/>
<stop offset="1" stop-color="white" stop-opacity="0"/>
</radialGradient>
<linearGradient id="paint24_linear_79_12943" x1="294.5" y1="236" x2="294.5" y2="321" gradientUnits="userSpaceOnUse">
<stop stop-color="#EBFF71" stop-opacity="0"/>
<stop offset="0.901042" stop-color="#E6FF49"/>
</linearGradient>
<linearGradient id="paint25_linear_79_12943" x1="294.341" y1="321.023" x2="294.341" y2="207.008" gradientUnits="userSpaceOnUse">
<stop stop-color="white"/>
<stop offset="1" stop-opacity="0"/>
</linearGradient>
<radialGradient id="paint26_radial_79_12943" cx="0" cy="0" r="1" gradientUnits="userSpaceOnUse" gradientTransform="translate(365.278 228.239) rotate(90) scale(40.7762)">
<stop stop-color="white"/>
<stop offset="1" stop-color="white" stop-opacity="0"/>
</radialGradient>
<radialGradient id="paint27_radial_79_12943" cx="0" cy="0" r="1" gradientUnits="userSpaceOnUse" gradientTransform="translate(190.296 217.155) rotate(90) scale(40.7762)">
<stop stop-color="white"/>
<stop offset="1" stop-color="white" stop-opacity="0"/>
</radialGradient>
<linearGradient id="paint28_linear_79_12943" x1="317.092" y1="233.376" x2="130.058" y2="150" gradientUnits="userSpaceOnUse">
<stop stop-color="white" stop-opacity="0"/>
<stop offset="1" stop-color="white"/>
</linearGradient>
</defs>
</svg>
