<svg width="17" height="16" viewBox="0 0 17 16" fill="none" xmlns="http://www.w3.org/2000/svg">
<path fill-rule="evenodd" clip-rule="evenodd" d="M7.79309 0.34691C8.18337 -0.043371 8.81614 -0.0433712 9.20642 0.34691L15.7927 6.93314C16.1832 7.32366 16.1832 7.95683 15.7927 8.34735L9.20643 14.9336C8.81614 15.3239 8.18337 15.3239 7.79309 14.9336C7.40281 14.5433 7.40281 13.9105 7.79309 13.5202L12.6731 8.64024L12.6876 8.62267C12.6269 8.63421 12.5641 8.64024 12.5 8.64024H1.5C0.947715 8.64024 0.5 8.19253 0.5 7.64024C0.5 7.08796 0.947715 6.64024 1.5 6.64024H12.5C12.5641 6.64024 12.6269 6.64628 12.6876 6.65782L12.6731 6.64024L7.79309 1.76024C7.40281 1.36996 7.40281 0.737192 7.79309 0.34691Z" fill="#5DC0E8"/>
</svg>
