<svg width="420" height="169" viewBox="0 0 420 169" fill="none" xmlns="http://www.w3.org/2000/svg">
<path d="M203.426 16.4574C199.805 12.8296 199.805 6.71969 203.426 3.09192C207.046 -0.535849 213.145 -0.535849 216.765 3.09192C220.386 6.71969 220.386 12.8296 216.765 16.4574C213.145 20.0852 207.046 20.0852 203.426 16.4574Z" fill="white"/>
<path d="M223.435 36.5048C219.814 32.877 219.814 26.7671 223.435 23.1393C227.056 19.5115 233.154 19.5115 236.775 23.1393C240.396 26.7671 240.396 32.877 236.775 36.5048C233.154 40.1325 227.056 40.1325 223.435 36.5048Z" fill="white"/>
<path d="M183.416 36.5048C179.604 32.6861 179.604 26.7671 183.416 23.1393C187.036 19.5115 193.135 19.5115 196.755 23.1393C200.376 26.7671 200.376 32.877 196.755 36.5048C192.944 40.1325 187.036 40.1325 183.416 36.5048Z" fill="white"/>
<path d="M223.435 76.6019C219.814 72.9742 219.814 66.8642 223.435 63.2365C227.056 59.6087 233.154 59.6087 236.775 63.2365C240.396 66.8642 240.396 72.9742 236.775 76.6019C233.154 80.2297 227.056 80.2297 223.435 76.6019Z" fill="white"/>
<path d="M163.216 56.5538C159.595 52.9261 159.595 46.8161 163.216 43.1884C166.836 39.5606 172.935 39.5606 176.555 43.1884C180.176 46.8161 180.176 52.9261 176.555 56.5538C172.935 60.1816 167.027 60.1816 163.216 56.5538Z" fill="white"/>
<path d="M243.445 56.5538C239.824 52.9261 239.824 46.8161 243.445 43.1884C247.065 39.5606 253.164 39.5606 256.784 43.1884C260.405 46.8161 260.405 52.9261 256.784 56.5538C253.164 60.1816 247.065 60.1816 243.445 56.5538Z" fill="#F3333F"/>
<path d="M203.426 56.5538C199.805 52.9261 199.805 46.8161 203.426 43.1884C207.046 39.5606 213.145 39.5606 216.765 43.1884C220.386 46.8161 220.386 52.9261 216.765 56.5538C213.145 60.1816 207.046 60.1816 203.426 56.5538Z" fill="#F3333F"/>
<path d="M203.426 96.6503C199.805 93.0225 199.805 86.9126 203.426 83.2848C207.046 79.657 213.145 79.657 216.765 83.2848C220.386 86.9126 220.386 93.0225 216.765 96.6503C213.145 100.278 207.046 100.278 203.426 96.6503Z" fill="#F3333F"/>
<path d="M32.2655 137.777C32.2655 140.396 31.8241 142.579 30.7941 144.471C29.9114 146.217 28.5872 147.672 26.9687 148.836C25.3503 150 23.4376 150.728 21.3777 151.164C19.3179 151.601 16.9638 151.892 14.6097 151.892C13.7269 151.892 12.8441 151.892 11.8142 151.746C10.7843 151.746 9.90152 151.601 9.16587 151.601V167.316C9.16587 167.607 9.01873 167.899 8.8716 168.19C8.57734 168.481 8.43021 168.481 7.98881 168.481H2.10357C1.80931 168.481 1.51504 168.335 1.22078 168.19C0.92652 168.044 0.926514 167.607 0.926514 167.316V125.99C0.926514 125.408 1.07365 124.972 1.51504 124.681C1.8093 124.39 2.39783 124.244 2.98635 124.099C4.60479 123.808 6.37038 123.662 8.43021 123.517C10.49 123.371 12.697 123.371 14.904 123.371C17.2581 123.371 19.465 123.662 21.5249 124.099C23.5847 124.535 25.4974 125.263 27.1159 126.427C28.7343 127.445 30.0585 128.901 30.9413 130.792C31.8241 132.684 32.4126 134.721 32.4126 137.486V137.777H32.2655ZM23.7318 137.195C23.7318 134.721 22.9962 132.83 21.5249 131.811C20.0536 130.792 17.6995 130.21 14.7568 130.21C14.4626 130.21 14.0212 130.21 13.5798 130.21C13.1384 130.21 12.5499 130.21 11.9613 130.21C11.3728 130.21 10.9314 130.21 10.49 130.21C10.0486 130.21 9.60726 130.21 9.313 130.356V144.616C9.60726 144.616 9.90151 144.616 10.49 144.616C10.9314 144.616 11.52 144.616 12.1085 144.616C12.697 144.616 13.1384 144.616 13.7269 144.616C14.1683 144.616 14.6097 144.616 14.904 144.616C18.1409 144.616 20.495 144.034 21.9663 142.87C23.4376 141.706 24.0261 139.814 24.0261 137.486V137.195H23.7318Z" fill="white"/>
<path d="M71.4025 167.899C71.4025 168.19 71.1082 168.482 70.5197 168.482H62.4274C61.8389 168.482 61.2504 168.19 61.1033 167.754L46.9786 147.382V167.317C46.9786 167.608 46.8315 167.899 46.6844 168.19C46.5373 168.482 46.0959 168.482 45.8016 168.482H39.7692C39.4749 168.482 39.1807 168.336 38.8864 168.19C38.5922 168.045 38.5922 167.608 38.5922 167.317V125.118C38.5922 124.827 38.7393 124.536 38.8864 124.245C39.1807 123.954 39.4749 123.954 39.7692 123.954H45.8016C46.0959 123.954 46.3901 124.1 46.6844 124.245C46.9787 124.536 46.9786 124.682 46.9786 125.118V144.181L61.8389 124.391C61.986 124.245 62.1332 124.1 62.4274 123.954C62.7217 123.954 62.8688 123.809 63.3102 123.809H70.2254C70.9611 123.809 71.4025 124.1 71.4025 124.536C71.4025 124.827 71.2553 125.118 70.9611 125.555L55.3651 145.49L70.9611 167.172C71.2553 167.463 71.4025 167.754 71.4025 167.899Z" fill="white"/>
<path d="M88.4695 152.91H76.5519C76.2577 152.91 75.9634 152.764 75.6691 152.619C75.3749 152.473 75.3749 152.182 75.3749 151.891V148.108C75.3749 147.817 75.522 147.526 75.6691 147.235C75.9634 146.944 76.2577 146.944 76.5519 146.944H88.4695C89.2052 146.944 89.6466 147.38 89.6466 148.108V151.891C89.6466 152.619 89.2052 152.91 88.4695 152.91Z" fill="white"/>
<path d="M125.252 130.502C124.958 130.648 124.664 130.793 124.37 130.793H113.776V167.317C113.776 167.608 113.629 167.899 113.482 168.19C113.335 168.482 112.893 168.482 112.599 168.482H106.567C106.272 168.482 105.978 168.336 105.684 168.19C105.39 167.899 105.39 167.608 105.39 167.317V130.793H94.7962C94.5019 130.793 94.2077 130.648 93.9134 130.502C93.6191 130.357 93.6191 130.066 93.6191 129.775V124.973C93.6191 124.682 93.7663 124.391 93.9134 124.1C94.2077 123.809 94.5019 123.809 94.7962 123.809H124.517C124.811 123.809 125.105 123.954 125.399 124.1C125.694 124.391 125.694 124.536 125.694 124.973V129.775C125.547 130.066 125.399 130.357 125.252 130.502Z" fill="white"/>
<path d="M154.384 152.765C154.384 153.784 153.943 154.22 153.207 154.22H133.492V154.366C133.492 155.239 133.639 156.112 133.786 156.985C133.933 157.858 134.374 158.731 134.963 159.459C135.551 160.186 136.287 160.768 137.17 161.205C138.053 161.641 139.377 161.932 140.848 161.932C143.055 161.932 145.115 161.932 147.175 161.787C149.088 161.641 150.706 161.496 152.03 161.35H152.177C152.472 161.35 152.766 161.35 152.913 161.496C153.06 161.641 153.207 161.932 153.207 162.223V166.298C153.207 166.734 153.207 167.171 153.06 167.316C152.913 167.607 152.619 167.753 152.03 167.753C151 167.899 150.117 168.044 149.235 168.19C148.352 168.335 147.469 168.481 146.586 168.481C145.704 168.626 144.821 168.626 143.791 168.626C142.761 168.626 141.584 168.626 140.113 168.626C138.641 168.626 136.876 168.335 135.257 167.899C133.492 167.462 132.02 166.589 130.549 165.425C129.078 164.261 127.901 162.806 126.871 160.768C125.988 158.877 125.399 156.403 125.399 153.347V148.836C125.399 146.508 125.694 144.471 126.429 142.579C127.018 140.687 128.048 139.087 129.225 137.777C130.402 136.467 132.02 135.449 133.786 134.721C135.551 133.994 137.611 133.703 139.965 133.703C142.32 133.703 144.379 134.139 146.145 134.867C147.91 135.594 149.382 136.613 150.706 138.068C151.883 139.378 152.766 140.978 153.501 142.87C154.237 144.762 154.384 146.799 154.384 148.982V152.765ZM146.292 148.4C146.292 146.071 145.704 144.18 144.526 142.87C143.349 141.56 141.878 140.978 139.965 140.978C138.053 140.978 136.434 141.56 135.257 142.87C134.08 144.18 133.492 145.926 133.492 148.4V148.691H146.292V148.4Z" fill="white"/>
<path d="M189.549 167.753C189.549 167.898 189.402 168.189 189.254 168.335C189.107 168.481 188.813 168.626 188.666 168.626H181.751C181.457 168.626 181.162 168.626 180.868 168.481C180.574 168.335 180.427 168.044 179.985 167.462L173.07 156.839L166.449 167.462C166.155 168.044 165.861 168.335 165.566 168.481C165.272 168.626 165.125 168.626 164.684 168.626H158.357C157.916 168.626 157.621 168.335 157.621 167.898C157.621 167.753 157.621 167.607 157.768 167.316L168.656 151.019L158.357 135.885C158.21 135.74 158.21 135.594 158.21 135.594C158.21 135.449 158.357 135.158 158.504 135.012C158.651 134.867 158.946 134.721 159.24 134.721H166.155C166.449 134.721 166.743 134.867 166.891 135.012C167.038 135.158 167.332 135.449 167.626 135.885L173.806 145.198L179.544 135.885C179.838 135.303 180.132 135.012 180.427 134.867C180.721 134.721 180.868 134.721 181.309 134.721H187.636C188.077 134.721 188.372 135.012 188.372 135.449C188.372 135.594 188.372 135.885 188.225 136.031L178.22 151.164L189.254 167.462C189.549 167.462 189.549 167.607 189.549 167.753Z" fill="white"/>
<path d="M202.496 167.171C202.496 167.462 202.349 167.753 202.202 168.044C201.908 168.335 201.614 168.481 201.319 168.481H195.728C195.434 168.481 195.14 168.335 194.846 168.044C194.551 167.753 194.551 167.462 194.551 167.171V135.885C194.551 135.594 194.698 135.303 194.846 135.012C195.14 134.721 195.434 134.576 195.728 134.576H201.319C201.614 134.576 201.908 134.721 202.202 135.012C202.496 135.303 202.496 135.594 202.496 135.885V147.963H214.561V135.885C214.561 135.594 214.708 135.303 214.855 135.012C215.15 134.721 215.444 134.576 215.738 134.576H221.329C221.623 134.576 221.918 134.721 222.212 135.012C222.506 135.303 222.506 135.594 222.506 135.885V167.171C222.506 167.462 222.359 167.753 222.212 168.044C221.918 168.335 221.623 168.481 221.329 168.481H215.738C215.444 168.481 215.15 168.335 214.855 168.044C214.561 167.753 214.561 167.462 214.561 167.171V153.929H202.496V167.171Z" fill="white"/>
<path d="M258.112 153.929C258.112 156.111 257.818 158.149 257.229 159.895C256.641 161.641 255.611 163.242 254.434 164.551C253.257 165.861 251.638 166.879 249.873 167.607C248.107 168.335 246.047 168.771 243.546 168.771C241.045 168.771 239.132 168.335 237.219 167.607C235.454 166.879 233.835 165.861 232.658 164.551C231.481 163.242 230.451 161.641 229.863 159.895C229.274 158.149 228.98 156.111 228.98 153.929V149.127C228.98 146.944 229.274 144.907 229.863 143.161C230.451 141.414 231.481 139.814 232.658 138.504C233.835 137.194 235.454 136.176 237.219 135.448C238.985 134.721 241.045 134.284 243.546 134.284C246.047 134.284 247.96 134.721 249.873 135.448C251.638 136.176 253.109 137.194 254.434 138.504C255.611 139.814 256.641 141.414 257.229 143.161C257.818 144.907 258.112 146.944 258.112 149.127V153.929ZM250.02 149.127C250.02 146.653 249.431 144.616 248.401 143.161C247.371 141.705 245.753 140.978 243.546 140.978C241.339 140.978 239.721 141.705 238.691 143.161C237.661 144.616 237.072 146.653 237.072 149.127V153.929C237.072 156.402 237.661 158.44 238.691 159.895C239.721 161.35 241.339 162.077 243.546 162.077C245.753 162.077 247.371 161.35 248.401 159.895C249.431 158.44 250.02 156.402 250.02 153.929V149.127Z" fill="white"/>
<path d="M278.563 142.143C278.416 141.415 277.974 140.979 277.239 140.979C276.503 140.979 276.062 141.415 275.915 142.143L270.029 167.462C269.882 167.753 269.735 168.044 269.588 168.19C269.441 168.335 269.147 168.481 268.852 168.481H262.82C262.526 168.481 262.231 168.335 262.084 168.19C261.937 168.044 261.79 167.753 261.79 167.462V167.317V167.171L268.852 140.397C269.147 138.941 269.735 137.923 270.471 137.05C271.206 136.177 271.942 135.595 272.678 135.158C273.413 134.721 274.296 134.43 275.179 134.285C276.062 134.139 276.797 134.139 277.386 134.139C277.974 134.139 278.71 134.139 279.593 134.285C280.476 134.43 281.211 134.721 282.094 135.158C282.83 135.595 283.565 136.177 284.301 137.05C285.037 137.923 285.478 138.941 285.92 140.397L293.129 167.171C293.129 167.317 293.129 167.317 293.129 167.317V167.462C293.129 167.753 292.982 168.044 292.835 168.19C292.688 168.335 292.393 168.481 292.099 168.481H286.067C285.772 168.481 285.478 168.335 285.331 168.19C285.184 168.044 285.037 167.753 284.89 167.462L278.563 142.143Z" fill="white"/>
<path d="M324.909 153.929C324.909 156.111 324.615 158.149 324.026 159.895C323.438 161.641 322.408 163.242 321.231 164.551C320.054 165.861 318.435 166.879 316.67 167.607C314.904 168.335 312.845 168.771 310.343 168.771C307.842 168.771 305.929 168.335 304.017 167.607C302.251 166.879 300.633 165.861 299.456 164.551C298.279 163.242 297.249 161.641 296.66 159.895C296.072 158.149 295.777 156.111 295.777 153.929V149.127C295.777 146.944 296.072 144.907 296.66 143.161C297.249 141.414 298.279 139.814 299.456 138.504C300.633 137.194 302.251 136.176 304.017 135.448C305.782 134.721 307.842 134.284 310.343 134.284C312.845 134.284 314.757 134.721 316.67 135.448C318.435 136.176 319.907 137.194 321.231 138.504C322.408 139.814 323.438 141.414 324.026 143.161C324.615 144.907 324.909 146.944 324.909 149.127V153.929ZM316.817 149.127C316.817 146.653 316.228 144.616 315.199 143.161C314.169 141.705 312.55 140.978 310.343 140.978C308.136 140.978 306.518 141.705 305.488 143.161C304.458 144.616 303.87 146.653 303.87 149.127V153.929C303.87 156.402 304.458 158.44 305.488 159.895C306.518 161.35 308.136 162.077 310.343 162.077C312.55 162.077 314.169 161.35 315.199 159.895C316.228 158.44 316.817 156.402 316.817 153.929V149.127Z" fill="white"/>
<path d="M342.418 141.56C340.505 141.56 339.476 142.724 339.476 144.907V167.316C339.476 167.607 339.328 167.898 339.181 168.19C339.034 168.481 338.593 168.481 338.299 168.481H332.708C332.413 168.481 332.119 168.335 331.825 168.19C331.531 168.044 331.531 167.607 331.531 167.316V144.907C331.531 141.269 332.413 138.65 334.032 137.049C335.797 135.449 338.593 134.576 342.418 134.576H349.628C349.922 134.576 350.216 134.721 350.51 134.867C350.805 135.012 350.805 135.449 350.805 135.74V140.251C350.805 140.542 350.657 140.833 350.51 141.124C350.363 141.415 349.922 141.415 349.628 141.415H342.418V141.56Z" fill="white"/>
<path d="M375.67 148.982L363.605 167.171C363.311 167.607 363.016 167.898 362.722 168.044C362.428 168.335 361.839 168.335 361.104 168.335H356.69C356.395 168.335 356.101 168.19 355.807 167.898C355.513 167.607 355.513 167.316 355.513 167.025V135.885C355.513 135.594 355.66 135.303 355.807 135.012C356.101 134.721 356.395 134.576 356.69 134.576H362.281C362.575 134.576 362.869 134.721 363.163 135.012C363.458 135.303 363.458 135.594 363.458 135.885V154.075L375.522 135.885C375.67 135.594 375.964 135.449 376.258 135.158C376.552 134.867 377.141 134.721 378.024 134.721H382.291C382.585 134.721 382.879 134.867 383.173 135.158C383.468 135.449 383.468 135.74 383.468 136.031V167.316C383.468 167.607 383.32 167.898 383.173 168.19C382.879 168.481 382.585 168.626 382.291 168.626H376.7C376.405 168.626 376.111 168.481 375.817 168.19C375.522 167.898 375.522 167.607 375.522 167.316V148.982H375.67Z" fill="white"/>
<path d="M411.276 148.982L399.211 167.171C398.917 167.607 398.622 167.898 398.328 168.044C398.034 168.335 397.445 168.335 396.71 168.335H392.296C392.001 168.335 391.707 168.19 391.413 167.898C391.119 167.607 391.119 167.316 391.119 167.025V135.885C391.119 135.594 391.266 135.303 391.413 135.012C391.707 134.721 392.001 134.576 392.296 134.576H397.887C398.181 134.576 398.475 134.721 398.77 135.012C399.064 135.303 399.064 135.594 399.064 135.885V154.075L411.129 135.885C411.276 135.594 411.57 135.449 411.864 135.158C412.158 134.867 412.747 134.721 413.63 134.721H417.897C418.191 134.721 418.485 134.867 418.779 135.158C419.074 135.449 419.074 135.74 419.074 136.031V167.316C419.074 167.607 418.927 167.898 418.779 168.19C418.485 168.481 418.191 168.626 417.897 168.626H412.306C412.011 168.626 411.717 168.481 411.423 168.19C411.129 167.898 411.129 167.607 411.129 167.316V148.982H411.276Z" fill="white"/>
</svg>
