<svg width="768" height="88" viewBox="0 0 768 88" fill="none" xmlns="http://www.w3.org/2000/svg">
<path d="M73.9656 32.7579C80.1793 49.3026 71.8042 67.752 55.2595 73.9656C38.7147 80.1793 20.2654 71.8042 14.0517 55.2595C7.83806 38.7147 16.2131 20.2654 32.7579 14.0517C49.3026 7.83806 67.752 16.2131 73.9656 32.7579Z" fill="url(#paint0_linear_429_20926)"/>
<path d="M73.9656 32.7579C80.1793 49.3026 71.8042 67.752 55.2595 73.9656C38.7147 80.1793 20.2654 71.8042 14.0517 55.2595C7.83806 38.7147 16.2131 20.2654 32.7579 14.0517C49.3026 7.83806 67.752 16.2131 73.9656 32.7579Z" fill="url(#paint1_linear_429_20926)"/>
<path d="M69.8286 32.1071C63.5069 17.9612 46.8221 11.8222 32.5621 18.3953C18.3022 24.9684 11.8669 41.7644 18.1886 55.9103C24.5103 70.0561 41.195 76.1951 55.455 69.622C69.715 63.049 76.1503 46.2529 69.8286 32.1071Z" fill="url(#paint2_linear_429_20926)"/>
<path d="M69.8286 32.1071C63.5069 17.9612 46.8221 11.8222 32.5621 18.3953C18.3022 24.9684 11.8669 41.7644 18.1886 55.9103C24.5103 70.0561 41.195 76.1951 55.455 69.622C69.715 63.049 76.1503 46.2529 69.8286 32.1071Z" fill="url(#paint3_linear_429_20926)"/>
<path d="M39.7826 47.8371H42.6453V40.0702L42.9542 38.7331L41.9657 39.8933L40.1327 41.0927L39 39.618L43.6957 36H45.1991V47.8371H48V50H39.7826V47.8371Z" fill="#FF8C8C"/>
<path d="M154 36H205V61.0595C205 62.2404 204.308 63.3161 203.221 63.7785C186.672 70.8206 172.987 70.9295 155.801 63.7711C154.702 63.3135 154 62.2316 154 61.0415V36Z" fill="url(#paint4_linear_429_20926)"/>
<path d="M154 36H205V61.0595C205 62.2404 204.308 63.3161 203.221 63.7785C186.672 70.8206 172.987 70.9295 155.801 63.7711C154.702 63.3135 154 62.2316 154 61.0415V36Z" fill="url(#paint5_linear_429_20926)"/>
<path d="M176.226 20.2783C178.331 19.4563 180.669 19.4563 182.774 20.2783L219.601 34.659C220.451 34.9909 220.448 36.1948 219.597 36.5234L182.741 50.7491C180.655 51.5541 178.345 51.5541 176.259 50.7491L139.403 36.5234C138.552 36.1948 138.549 34.9909 139.399 34.659L176.226 20.2783Z" fill="url(#paint6_linear_429_20926)"/>
<path d="M176.226 20.2783C178.331 19.4563 180.669 19.4563 182.774 20.2783L219.601 34.659C220.451 34.9909 220.448 36.1948 219.597 36.5234L182.741 50.7491C180.655 51.5541 178.345 51.5541 176.259 50.7491L139.403 36.5234C138.552 36.1948 138.549 34.9909 139.399 34.659L176.226 20.2783Z" fill="url(#paint7_linear_429_20926)"/>
<rect x="316" y="9" width="1" height="11" fill="url(#paint8_linear_429_20926)"/>
<rect x="316" y="9" width="1" height="11" fill="url(#paint9_linear_429_20926)"/>
<path d="M328 9H317V15H328L325.5 12L328 9Z" fill="url(#paint10_linear_429_20926)"/>
<path d="M328 9H317V15H328L325.5 12L328 9Z" fill="url(#paint11_linear_429_20926)"/>
<path d="M305 79V37L289 37V79H305Z" fill="url(#paint12_linear_429_20926)"/>
<path d="M305 79V37L289 37V79H305Z" fill="url(#paint13_linear_429_20926)"/>
<path d="M335.5 37L328 37V79H343V37L339.25 37L335.5 37Z" fill="url(#paint14_linear_429_20926)"/>
<path d="M335.5 37L328 37V79H343V37L339.25 37L335.5 37Z" fill="url(#paint15_linear_429_20926)"/>
<path d="M335.5 37L328 37V79H343V37L339.25 37L335.5 37Z" fill="url(#paint16_linear_429_20926)"/>
<path d="M316.5 20L305 36.9424V79H328V36.9424L316.5 20Z" fill="url(#paint17_linear_429_20926)"/>
<path d="M316.5 20L305 36.9424V79H328V36.9424L316.5 20Z" fill="url(#paint18_linear_429_20926)"/>
<rect x="314" y="66" width="6" height="13" fill="url(#paint19_linear_429_20926)"/>
<rect x="314" y="66" width="6" height="13" fill="url(#paint20_linear_429_20926)"/>
<path fill-rule="evenodd" clip-rule="evenodd" d="M416.009 31.803C416.003 31.6075 416 31.4113 416 31.2143C416 21.1548 424.171 13 434.25 13C444.316 13 452.479 21.1342 452.5 31.1761C452.521 21.1342 460.683 13 470.75 13C480.829 13 489 21.1548 489 31.2143C489 31.411 488.997 31.607 488.991 31.8022C488.997 31.9075 489 32.0151 489 32.125C489 53.9821 452.5 75 452.5 75C452.5 75 416 53.9821 416 32.125C416 32.0154 416.003 31.9081 416.009 31.803Z" fill="url(#paint21_linear_429_20926)"/>
<path fill-rule="evenodd" clip-rule="evenodd" d="M416.009 31.803C416.003 31.6075 416 31.4113 416 31.2143C416 21.1548 424.171 13 434.25 13C444.316 13 452.479 21.1342 452.5 31.1761C452.521 21.1342 460.683 13 470.75 13C480.829 13 489 21.1548 489 31.2143C489 31.411 488.997 31.607 488.991 31.8022C488.997 31.9075 489 32.0151 489 32.125C489 53.9821 452.5 75 452.5 75C452.5 75 416 53.9821 416 32.125C416 32.0154 416.003 31.9081 416.009 31.803Z" fill="url(#paint22_linear_429_20926)"/>
<path fill-rule="evenodd" clip-rule="evenodd" d="M422.008 34.1637C422.003 34.0061 422 33.8478 422 33.689C422 25.5765 428.828 19 437.25 19C445.661 19 452.482 25.5589 452.5 33.6564C452.518 25.5589 459.339 19 467.75 19C476.172 19 483 25.5765 483 33.689C483 33.8476 482.997 34.0056 482.992 34.163C482.997 34.2479 483 34.3347 483 34.4234C483 52.0501 452.5 70 452.5 70C452.5 70 422 52.0501 422 34.4234C422 34.335 422.003 34.2485 422.008 34.1637Z" fill="url(#paint23_linear_429_20926)"/>
<path fill-rule="evenodd" clip-rule="evenodd" d="M422.008 34.1637C422.003 34.0061 422 33.8478 422 33.689C422 25.5765 428.828 19 437.25 19C445.661 19 452.482 25.5589 452.5 33.6564C452.518 25.5589 459.339 19 467.75 19C476.172 19 483 25.5765 483 33.689C483 33.8476 482.997 34.0056 482.992 34.163C482.997 34.2479 483 34.3347 483 34.4234C483 52.0501 452.5 70 452.5 70C452.5 70 422 52.0501 422 34.4234C422 34.335 422.003 34.2485 422.008 34.1637Z" fill="url(#paint24_linear_429_20926)"/>
<ellipse cx="588" cy="27.5" rx="14" ry="14.5" fill="url(#paint25_linear_429_20926)"/>
<ellipse cx="588" cy="27.5" rx="14" ry="14.5" fill="url(#paint26_linear_429_20926)"/>
<path d="M620 66.7C620 75.2604 605.673 76 588 76C570.327 76 556 75.2604 556 66.7C556 58.1396 570.327 45 588 45C605.673 45 620 58.1396 620 66.7Z" fill="url(#paint27_linear_429_20926)"/>
<path d="M620 66.7C620 75.2604 605.673 76 588 76C570.327 76 556 75.2604 556 66.7C556 58.1396 570.327 45 588 45C605.673 45 620 58.1396 620 66.7Z" fill="url(#paint28_linear_429_20926)"/>
<path d="M723.5 2L733.042 31.3668H763.92L738.939 49.5164L748.481 78.8832L723.5 60.7336L698.519 78.8832L708.061 49.5164L683.08 31.3668H713.958L723.5 2Z" fill="url(#paint29_linear_429_20926)"/>
<path d="M723.5 2L733.042 31.3668H763.92L738.939 49.5164L748.481 78.8832L723.5 60.7336L698.519 78.8832L708.061 49.5164L683.08 31.3668H713.958L723.5 2Z" fill="url(#paint30_linear_429_20926)"/>
<path d="M723.5 14L730.348 35.075H752.507L734.58 48.1L741.427 69.175L723.5 56.15L705.573 69.175L712.42 48.1L694.493 35.075H716.652L723.5 14Z" fill="url(#paint31_linear_429_20926)"/>
<path d="M723.5 14L730.348 35.075H752.507L734.58 48.1L741.427 69.175L723.5 56.15L705.573 69.175L712.42 48.1L694.493 35.075H716.652L723.5 14Z" fill="url(#paint32_linear_429_20926)"/>
<defs>
<linearGradient id="paint0_linear_429_20926" x1="32.7817" y1="14.0427" x2="55.1709" y2="73.9987" gradientUnits="userSpaceOnUse">
<stop stop-color="#12263C"/>
<stop offset="1" stop-color="#CF3B44"/>
</linearGradient>
<linearGradient id="paint1_linear_429_20926" x1="37.6575" y1="15.1927" x2="76.9173" y2="64.7708" gradientUnits="userSpaceOnUse">
<stop stop-color="#173F69"/>
<stop offset="1" stop-color="#CE3435"/>
</linearGradient>
<linearGradient id="paint2_linear_429_20926" x1="55.4756" y1="69.6126" x2="31.8953" y2="18.7042" gradientUnits="userSpaceOnUse">
<stop stop-color="#12263C"/>
<stop offset="1" stop-color="#CF3B44"/>
</linearGradient>
<linearGradient id="paint3_linear_429_20926" x1="57.834" y1="65.8315" x2="50.9331" y2="10.5659" gradientUnits="userSpaceOnUse">
<stop stop-color="#173F69"/>
<stop offset="1" stop-color="#CE3435"/>
</linearGradient>
<linearGradient id="paint4_linear_429_20926" x1="170.556" y1="37.0562" x2="178.642" y2="70.4195" gradientUnits="userSpaceOnUse">
<stop stop-color="#12263C"/>
<stop offset="1" stop-color="#CF3B44"/>
</linearGradient>
<linearGradient id="paint5_linear_429_20926" x1="174.44" y1="37.6508" x2="191.397" y2="70.6446" gradientUnits="userSpaceOnUse">
<stop stop-color="#173F69"/>
<stop offset="1" stop-color="#CE3435"/>
</linearGradient>
<linearGradient id="paint6_linear_429_20926" x1="164.593" y1="20.053" x2="169.594" y2="54.5443" gradientUnits="userSpaceOnUse">
<stop stop-color="#12263C"/>
<stop offset="1" stop-color="#CF3B44"/>
</linearGradient>
<linearGradient id="paint7_linear_429_20926" x1="171.067" y1="20.6458" x2="182.747" y2="58.6377" gradientUnits="userSpaceOnUse">
<stop stop-color="#173F69"/>
<stop offset="1" stop-color="#CE3435"/>
</linearGradient>
<linearGradient id="paint8_linear_429_20926" x1="316.325" y1="9.351" x2="319.022" y2="10.0078" gradientUnits="userSpaceOnUse">
<stop stop-color="#12263C"/>
<stop offset="1" stop-color="#CF3B44"/>
</linearGradient>
<linearGradient id="paint9_linear_429_20926" x1="316.401" y1="9.5486" x2="317.971" y2="9.7289" gradientUnits="userSpaceOnUse">
<stop stop-color="#173F69"/>
<stop offset="1" stop-color="#CE3435"/>
</linearGradient>
<linearGradient id="paint10_linear_429_20926" x1="320.571" y1="9.19145" x2="321.823" y2="15.3393" gradientUnits="userSpaceOnUse">
<stop stop-color="#12263C"/>
<stop offset="1" stop-color="#CF3B44"/>
</linearGradient>
<linearGradient id="paint11_linear_429_20926" x1="321.409" y1="9.29923" x2="324.161" y2="15.671" gradientUnits="userSpaceOnUse">
<stop stop-color="#173F69"/>
<stop offset="1" stop-color="#CE3435"/>
</linearGradient>
<linearGradient id="paint12_linear_429_20926" x1="294.194" y1="38.3402" x2="316.6" y2="61.1976" gradientUnits="userSpaceOnUse">
<stop stop-color="#12263C"/>
<stop offset="1" stop-color="#CF3B44"/>
</linearGradient>
<linearGradient id="paint13_linear_429_20926" x1="295.413" y1="39.0946" x2="316.088" y2="49.0409" gradientUnits="userSpaceOnUse">
<stop stop-color="#173F69"/>
<stop offset="1" stop-color="#CE3435"/>
</linearGradient>
<linearGradient id="paint14_linear_429_20926" x1="332.869" y1="38.3402" x2="355.257" y2="59.752" gradientUnits="userSpaceOnUse">
<stop stop-color="#12263C"/>
<stop offset="1" stop-color="#CF3B44"/>
</linearGradient>
<linearGradient id="paint15_linear_429_20926" x1="334.012" y1="39.0946" x2="353.846" y2="48.0401" gradientUnits="userSpaceOnUse">
<stop stop-color="#173F69"/>
<stop offset="1" stop-color="#CE3435"/>
</linearGradient>
<linearGradient id="paint16_linear_429_20926" x1="334.012" y1="39.0946" x2="353.846" y2="48.0401" gradientUnits="userSpaceOnUse">
<stop stop-color="#173F69"/>
<stop offset="1" stop-color="#CE3435"/>
</linearGradient>
<linearGradient id="paint17_linear_429_20926" x1="312.466" y1="21.8826" x2="343.919" y2="54.7163" gradientUnits="userSpaceOnUse">
<stop stop-color="#12263C"/>
<stop offset="1" stop-color="#CF3B44"/>
</linearGradient>
<linearGradient id="paint18_linear_429_20926" x1="314.218" y1="22.9425" x2="343.678" y2="37.445" gradientUnits="userSpaceOnUse">
<stop stop-color="#173F69"/>
<stop offset="1" stop-color="#CE3435"/>
</linearGradient>
<linearGradient id="paint19_linear_429_20926" x1="315.948" y1="66.4148" x2="322.732" y2="74.7992" gradientUnits="userSpaceOnUse">
<stop stop-color="#12263C"/>
<stop offset="1" stop-color="#CF3B44"/>
</linearGradient>
<linearGradient id="paint20_linear_429_20926" x1="316.405" y1="66.6483" x2="323.531" y2="70.802" gradientUnits="userSpaceOnUse">
<stop stop-color="#173F69"/>
<stop offset="1" stop-color="#CE3435"/>
</linearGradient>
<linearGradient id="paint21_linear_429_20926" x1="439.698" y1="14.9783" x2="458.764" y2="75.0951" gradientUnits="userSpaceOnUse">
<stop stop-color="#12263C"/>
<stop offset="1" stop-color="#CF3B44"/>
</linearGradient>
<linearGradient id="paint22_linear_429_20926" x1="445.258" y1="16.0921" x2="481.436" y2="69.8851" gradientUnits="userSpaceOnUse">
<stop stop-color="#173F69"/>
<stop offset="1" stop-color="#CE3435"/>
</linearGradient>
<linearGradient id="paint23_linear_429_20926" x1="441.802" y1="20.6274" x2="457.285" y2="70.2186" gradientUnits="userSpaceOnUse">
<stop stop-color="#CF3B44"/>
<stop offset="1" stop-color="#12263C"/>
</linearGradient>
<linearGradient id="paint24_linear_429_20926" x1="446.448" y1="21.5435" x2="476.029" y2="66.2234" gradientUnits="userSpaceOnUse">
<stop stop-color="#CE3435"/>
<stop offset="1" stop-color="#173F69"/>
</linearGradient>
<linearGradient id="paint25_linear_429_20926" x1="583.09" y1="13.9254" x2="593.501" y2="40.846" gradientUnits="userSpaceOnUse">
<stop stop-color="#12263C"/>
<stop offset="1" stop-color="#CF3B44"/>
</linearGradient>
<linearGradient id="paint26_linear_429_20926" x1="585.222" y1="14.4463" x2="603.14" y2="36.2932" gradientUnits="userSpaceOnUse">
<stop stop-color="#173F69"/>
<stop offset="1" stop-color="#CE3435"/>
</linearGradient>
<linearGradient id="paint27_linear_429_20926" x1="576.776" y1="45.9892" x2="582.57" y2="78.023" gradientUnits="userSpaceOnUse">
<stop stop-color="#12263C"/>
<stop offset="1" stop-color="#CF3B44"/>
</linearGradient>
<linearGradient id="paint28_linear_429_20926" x1="581.651" y1="46.546" x2="594.712" y2="80.5987" gradientUnits="userSpaceOnUse">
<stop stop-color="#173F69"/>
<stop offset="1" stop-color="#CE3435"/>
</linearGradient>
<linearGradient id="paint29_linear_429_20926" x1="708.593" y1="4.71225" x2="738.321" y2="84.3197" gradientUnits="userSpaceOnUse">
<stop stop-color="#12263C"/>
<stop offset="1" stop-color="#CF3B44"/>
</linearGradient>
<linearGradient id="paint30_linear_429_20926" x1="715.067" y1="6.23915" x2="767.195" y2="72.0673" gradientUnits="userSpaceOnUse">
<stop stop-color="#173F69"/>
<stop offset="1" stop-color="#CE3435"/>
</linearGradient>
<linearGradient id="paint31_linear_429_20926" x1="733" y1="78" x2="710.585" y2="20.4669" gradientUnits="userSpaceOnUse">
<stop stop-color="#12263C"/>
<stop offset="1" stop-color="#CF3B44"/>
</linearGradient>
<linearGradient id="paint32_linear_429_20926" x1="717.448" y1="17.0422" x2="754.858" y2="64.2836" gradientUnits="userSpaceOnUse">
<stop stop-color="#CE3435"/>
<stop offset="1" stop-color="#173F69"/>
</linearGradient>
</defs>
</svg>
