<svg width="260" height="240" viewBox="0 0 260 240" fill="none" xmlns="http://www.w3.org/2000/svg">
<g clip-path="url(#clip0_429_20483)">
<path fill-rule="evenodd" clip-rule="evenodd" d="M114.598 361.009L9.11535 312.069C5.24487 309.747 2.14849 308.973 2.14844 299.684C2.14842 270.268 2.14847 190.536 2.14846 151.831C2.14846 148.712 7.51972 145.942 8.90127 145.344L114.598 96.2166C123.602 91.9278 138.086 91.9278 146.699 96.2166L252.396 145.344C253.419 145.831 258.358 147.916 259.148 152.605C259.148 182.021 259.148 271.042 259.148 303.554C258.358 308.21 256.826 309.747 252.396 311.883L146.699 361.009C137.695 364.908 123.21 364.908 114.598 361.009Z" fill="url(#paint0_linear_429_20483)"/>
<path d="M135.362 211.917C140.179 211.835 142.641 211.051 146.839 209.048L248.081 162.321C248.081 162.321 257.509 157.812 259.148 154.123L258.738 307.323L138.231 365.625L135.362 211.917Z" fill="url(#paint1_linear_429_20483)"/>
<path fill-rule="evenodd" clip-rule="evenodd" d="M114.553 209.287L8.85588 160.16C-0.147924 155.871 -0.147924 149.243 8.85588 145.344L114.553 96.2166C123.557 91.9278 138.041 91.9278 146.653 96.2166L252.35 145.344C261.354 149.632 261.354 156.261 252.35 160.16L146.653 209.287C137.649 213.186 123.165 213.186 114.553 209.287Z" fill="url(#paint2_linear_429_20483)"/>
<path fill-rule="evenodd" clip-rule="evenodd" d="M8.85588 145.344C-0.147924 149.243 -0.147924 155.871 8.85588 160.16L114.553 209.287C123.165 213.186 137.649 213.186 146.653 209.287L252.35 160.16C261.354 156.261 261.354 149.632 252.35 145.344L146.653 96.2166C138.041 91.9278 123.557 91.9278 114.553 96.2166L8.85588 145.344ZM251.498 147.153C251.495 147.152 251.493 147.15 251.49 147.149L145.786 98.019L145.762 98.0069C141.813 96.0407 136.369 95 130.75 95C125.136 95 119.576 96.0391 115.413 98.0223L115.404 98.0263L9.67489 147.168L9.65064 147.179C5.36684 149.034 4.10303 151.162 4.10303 152.605C4.10303 154.084 5.41158 156.302 9.70774 158.35C9.71048 158.351 9.71322 158.353 9.71597 158.354L115.378 207.465C115.381 207.466 115.384 207.467 115.387 207.469C119.354 209.262 124.82 210.211 130.456 210.211C136.081 210.211 141.655 209.266 145.835 207.462L251.531 158.335L251.555 158.324C255.839 156.469 257.103 154.341 257.103 152.898C257.103 151.419 255.794 149.201 251.498 147.153Z" fill="url(#paint3_linear_429_20483)"/>
<path fill-rule="evenodd" clip-rule="evenodd" d="M100.603 17.3405C100.603 17.3411 100.603 17.3416 101.603 17.35L100.603 17.3416L100.603 17.35L100.603 39H102.603V17.3572L102.603 17.3441C102.604 17.3297 102.604 17.3058 102.606 17.2733C102.608 17.2083 102.614 17.1089 102.624 16.9815C102.645 16.726 102.686 16.3609 102.766 15.9344C102.927 15.07 103.238 14.0096 103.819 13.0971C104.389 12.2019 105.203 11.4683 106.408 11.1595C107.631 10.846 109.396 10.935 111.921 11.9741L203.515 52.7055C206.293 54.0296 208.733 55.8101 210.495 58.6486C212.264 61.499 213.409 65.5141 213.409 71.4091L213.409 130.255C213.409 133.968 212.249 136.26 210.7 137.34C209.179 138.401 206.979 138.498 204.395 137.153L204.367 137.138L169.217 121.586L168.408 123.414L203.5 138.941C206.51 140.499 209.536 140.59 211.844 138.981C214.133 137.385 215.409 134.326 215.409 130.255L215.409 71.4091C215.409 65.261 214.215 60.8492 212.194 57.594C210.169 54.3308 207.375 52.3278 204.363 50.8941L204.351 50.8885L112.708 10.1354L112.696 10.1302C109.917 8.98441 107.69 8.76631 105.911 9.22212C104.112 9.68313 102.912 10.7971 102.132 12.0232C101.362 13.2319 100.987 14.5665 100.8 15.5667C100.705 16.0725 100.656 16.5072 100.631 16.8183C100.618 16.9742 100.611 17.0999 100.607 17.1891C100.606 17.2337 100.604 17.2693 100.604 17.295L100.603 17.326L100.603 17.3358L100.603 17.3405Z" fill="#CCCCCC"/>
<path d="M224.603 123.5C237.906 129.322 255.482 120.149 258.603 106.5C261.725 92.8509 254.311 81.2331 241.008 75.4111C237.461 73.8587 233.913 73.1714 230.558 73.2569C232.799 51.4189 219.232 27.8184 198.339 18.6742C178.699 10.0787 159.044 17.0835 150.737 34.2733C148.678 32.6635 146.429 31.2994 144.022 30.2459C130.054 24.1327 116.073 30.7951 112.796 45.1266C109.613 59.0438 117.694 75.0755 130.955 81.5888L130.948 81.6177L132.106 82.1246C132.122 82.1314 132.137 82.1381 132.153 82.1449C132.168 82.1516 132.183 82.1583 132.199 82.165L224.603 123.5Z" fill="#BB1C22"/>
<path d="M224.603 123.5C237.906 129.322 255.482 120.149 258.603 106.5C261.725 92.8509 254.311 81.2331 241.008 75.4111C237.461 73.8587 233.913 73.1714 230.558 73.2569C232.799 51.4189 219.232 27.8184 198.339 18.6742C178.699 10.0787 159.044 17.0835 150.737 34.2733C148.678 32.6635 146.429 31.2994 144.022 30.2459C130.054 24.1327 116.073 30.7951 112.796 45.1266C109.613 59.0438 117.694 75.0755 130.955 81.5888L130.948 81.6177L132.106 82.1246C132.122 82.1314 132.137 82.1381 132.153 82.1449C132.168 82.1516 132.183 82.1583 132.199 82.165L224.603 123.5Z" fill="url(#paint4_linear_429_20483)" fill-opacity="0.8"/>
<path fill-rule="evenodd" clip-rule="evenodd" d="M84.3611 143.151V125C84.3611 125 92.8718 126.789 94.8423 127.569L106.726 132.598C107.801 133.089 117.361 136.1 117.361 138.245V155.906C117.361 157.293 115.946 157.15 114.906 156.63L86.3611 145.113C85.3218 144.594 84.3611 144.663 84.3611 143.151Z" fill="#2D5D9D"/>
<path fill-rule="evenodd" clip-rule="evenodd" d="M84.3611 143.5V125.349C84.3611 125.349 90.8718 126.789 92.8423 127.569L104.726 132.598C105.801 133.089 115.361 136.1 115.361 138.245V155.906C115.361 157.293 113.946 157.15 112.906 156.63L86.3611 145.462C85.3218 144.943 84.3611 145.012 84.3611 143.5Z" fill="#1D3756"/>
<path fill-rule="evenodd" clip-rule="evenodd" d="M81.9726 143.884L61.8158 150.5C61.8158 150.5 61.1055 152.874 62.8158 154L91.5261 167.583C93.5261 168.626 96.049 167.583 96.049 167.583L114.861 160.5C117.861 159 117.361 156.5 117.361 155L85.5261 143.126C85.5261 143.126 83.1444 142.9 81.9726 143.884Z" fill="#2D5D9D"/>
<path fill-rule="evenodd" clip-rule="evenodd" d="M81.9725 141.884L62.8157 149.5C62.8157 149.5 60.526 150.626 62.526 152.126L91.526 165.583C93.526 166.626 96.0489 165.583 96.0489 165.583L111.861 160C113.049 159.554 115.361 158.313 115.361 156.5C115.361 154.688 115.361 154 115.361 154L84.361 139.5C84.361 139.5 84.026 141.126 81.9725 141.884Z" fill="#234670"/>
<path fill-rule="evenodd" clip-rule="evenodd" d="M44.3157 99.5872V33.35C44.3157 33.35 45.4051 22.6754 56.0275 27.0547L148.691 67.8812C154.487 70.6396 159.167 74.4502 159.167 86.4933L159.167 148.339C159.167 156.124 154.294 159.041 148.691 156.124L54.0216 113.629C48.4191 110.712 44.3157 108.072 44.3157 99.5872Z" fill="url(#paint5_linear_429_20483)"/>
<path fill-rule="evenodd" clip-rule="evenodd" d="M41.3157 100.587V34.35C41.3157 34.35 42.4051 23.6754 53.0275 28.0547L145.691 68.8812C151.487 71.6396 156.167 75.4502 156.167 87.4933L156.167 149.339C156.167 157.124 151.294 160.041 145.691 157.124L51.0216 114.629C45.4191 111.712 41.3157 109.072 41.3157 100.587Z" fill="url(#paint6_linear_429_20483)"/>
<path fill-rule="evenodd" clip-rule="evenodd" d="M21.3125 53.4981V52.4894C21.3125 52.4894 21.3525 52.096 21.4916 51.4896L20.5169 51.2661C20.4416 51.5946 20.3926 51.8675 20.362 52.0615C20.3468 52.1586 20.3361 52.2363 20.329 52.2916C20.3255 52.3193 20.3228 52.3414 20.321 52.3576L20.3188 52.3774L20.3181 52.3839L20.3178 52.3863L20.3177 52.3877C20.3177 52.3878 20.3176 52.3881 20.8151 52.4387L20.3177 52.3877L20.3125 52.4386V53.4981H21.3125ZM22.1128 49.5548L21.1914 49.166C21.461 48.5272 21.8148 47.8465 22.2788 47.1949L23.0934 47.7749C22.6802 48.3552 22.36 48.9689 22.1128 49.5548ZM24.4887 46.3032L23.8757 45.5131C24.4697 45.0522 25.1596 44.665 25.9562 44.3976L26.2744 45.3456C25.5907 45.5751 24.9995 45.9068 24.4887 46.3032ZM28.2708 45.0032L28.2424 44.0036C28.9395 43.9839 29.6846 44.0442 30.4808 44.1946L30.2952 45.1772C29.563 45.0389 28.8898 44.9857 28.2708 45.0032ZM32.2602 45.7115L32.5893 44.7672C32.9166 44.8812 33.2515 45.0088 33.5943 45.1505L33.604 45.1545L34.5142 45.5534L34.1128 46.4693L33.2122 46.0747C32.8861 45.9398 32.5689 45.819 32.2602 45.7115ZM35.914 47.2585L36.3153 46.3426L38.1165 47.1319L37.7151 48.0478L35.914 47.2585ZM39.5163 48.837L39.9177 47.9211L41.7188 48.7104L41.3175 49.6263L39.5163 48.837ZM43.1186 50.4155L43.52 49.4996L45.3212 50.2889L44.9198 51.2048L43.1186 50.4155ZM46.721 51.994L48.5221 52.7833L48.9235 51.8674L47.1223 51.0781L46.721 51.994ZM50.3233 53.5725L50.7247 52.6566L52.5258 53.4459L52.1245 54.3618L50.3233 53.5725ZM53.9256 55.151L54.327 54.2351L56.1282 55.0244L55.7268 55.9403L53.9256 55.151ZM57.528 56.7295L57.9293 55.8136L59.7305 56.6029L59.3291 57.5188L57.528 56.7295ZM61.1303 58.308L61.5317 57.3921L63.3328 58.1814L62.9315 59.0973L61.1303 58.308ZM64.7327 59.8865L65.134 58.9706L66.9352 59.7599L66.5338 60.6758L64.7327 59.8865ZM68.335 61.465L68.7363 60.5491L70.5375 61.3384L70.1362 62.2543L68.335 61.465ZM71.9373 63.0435L72.3387 62.1276L74.1398 62.9169L73.7385 63.8328L71.9373 63.0435ZM75.5397 64.622L75.941 63.7061L77.7422 64.4954L77.3408 65.4113L75.5397 64.622ZM79.142 66.2005L79.5433 65.2846L81.3445 66.0739L80.9432 66.9898L79.142 66.2005ZM82.7443 67.779L83.1457 66.8631L84.9468 67.6524L84.5455 68.5683L82.7443 67.779ZM86.3467 69.3575L86.748 68.4416L88.5492 69.2309L88.1478 70.1468L86.3467 69.3575ZM89.949 70.936L90.3503 70.0201L92.1515 70.8094L91.7502 71.7253L89.949 70.936ZM93.5513 72.5145L93.9527 71.5986L95.7539 72.3879L95.3525 73.3038L93.5513 72.5145ZM97.1537 74.093L97.555 73.1771L99.3562 73.9664L98.9548 74.8823L97.1537 74.093ZM100.756 75.6715L101.157 74.7556L102.959 75.5449L102.557 76.4608L100.756 75.6715ZM104.358 77.25L104.76 76.3341L106.561 77.1234L106.16 78.0393L104.358 77.25ZM107.961 78.8285L108.362 77.9126L110.163 78.7019L109.762 79.6178L107.961 78.8285ZM111.563 80.407L111.964 79.4911L113.766 80.2804L113.364 81.1963L111.563 80.407ZM115.165 81.9855L115.567 81.0696L117.368 81.8589L116.967 82.7748L115.165 81.9855ZM118.768 83.564L119.169 82.6481L120.084 83.0492L120.099 83.0562C120.399 83.1994 120.697 83.3459 120.993 83.4966L120.54 84.3878C120.252 84.2415 119.962 84.0987 119.668 83.9587L118.768 83.564ZM122.239 85.3264L122.756 84.4703C123.336 84.8208 123.903 85.1975 124.451 85.6085L123.851 86.4083C123.333 86.02 122.795 85.662 122.239 85.3264ZM125.329 87.6651L126.024 86.9464C126.513 87.4196 126.978 87.932 127.415 88.4908L126.627 89.1065C126.22 88.5857 125.786 88.1076 125.329 87.6651ZM127.712 90.7145L128.577 90.2132C128.911 90.7895 129.218 91.4049 129.496 92.0639L128.575 92.4527C128.313 91.8313 128.024 91.2535 127.712 90.7145ZM129.23 94.2806L130.188 93.9929C130.374 94.6153 130.54 95.2706 130.682 95.9613L129.702 96.1628C129.566 95.4995 129.408 94.8731 129.23 94.2806ZM130.021 98.0763L131.013 97.9464C131.096 98.5828 131.163 99.2459 131.212 99.9376L130.214 100.008C130.167 99.3352 130.102 98.6918 130.021 98.0763ZM130.302 101.95L131.302 101.928C131.309 102.254 131.312 102.586 131.312 102.924L131.312 103.924H130.312L130.312 102.924C130.312 102.593 130.309 102.268 130.302 101.95ZM130.312 105.924H131.312L131.312 107.925H130.312L130.312 105.924ZM130.312 109.925H131.312L131.312 111.926H130.312L130.312 109.925ZM130.312 113.926H131.312L131.312 115.927H130.312L130.312 113.926ZM130.312 117.928H131.312L131.312 119.928H130.312L130.312 117.928ZM130.312 121.929H131.312L131.312 123.929H130.312L130.312 121.929ZM130.312 125.93H131.312L131.312 127.93H130.312L130.312 125.93ZM130.312 129.931H131.312L131.312 131.931H130.312L130.312 129.931ZM130.312 133.932H131.312L131.312 135.932H130.312L130.312 133.932ZM130.312 137.933H131.312L131.312 139.933H130.312L130.312 137.933ZM130.312 141.934H131.312L131.312 143.934H130.312L130.312 141.934ZM130.312 145.935L131.312 145.935L131.312 147.935H130.312L130.312 145.935ZM130.312 149.936H131.312L131.312 151.936H130.312L130.312 149.936ZM130.312 153.937H131.312L131.312 154.937C131.312 155.318 131.302 155.69 131.28 156.052L130.282 155.993C130.302 155.651 130.312 155.299 130.312 154.937L130.312 153.937ZM130.011 158.08L130.99 158.284C130.824 159.079 130.595 159.814 130.306 160.483L129.388 160.087C129.648 159.485 129.858 158.815 130.011 158.08ZM128.309 161.888L129.082 162.523C128.545 163.178 127.919 163.714 127.218 164.117L126.719 163.251C127.31 162.91 127.844 162.455 128.309 161.888ZM124.739 163.933L124.886 164.922C124.112 165.037 123.305 165.024 122.48 164.889L122.642 163.902C123.374 164.022 124.076 164.031 124.739 163.933ZM120.624 163.316L120.243 164.24C119.907 164.102 119.57 163.945 119.233 163.77L118.338 163.37L118.746 162.457L119.668 162.869C119.989 163.037 120.308 163.186 120.624 163.316ZM116.903 161.632L116.495 162.545L114.651 161.721L115.059 160.808L116.903 161.632ZM113.216 159.983L112.807 160.896L110.964 160.071L111.372 159.158L113.216 159.983ZM109.528 158.334L109.12 159.247L107.276 158.422L107.685 157.509L109.528 158.334ZM105.841 156.684L105.433 157.597L103.589 156.773L103.997 155.86L105.841 156.684ZM102.154 155.035L101.745 155.948L99.9019 155.123L100.31 154.211L102.154 155.035ZM98.4665 153.386L98.0582 154.299L96.2146 153.474L96.6229 152.561L98.4665 153.386ZM94.7793 151.737L94.371 152.649L92.5273 151.825L92.9357 150.912L94.7793 151.737ZM91.092 150.087L90.6837 151L88.8401 150.175L89.2484 149.263L91.092 150.087ZM87.4048 148.438L86.9965 149.351L85.1528 148.526L85.5611 147.613L87.4048 148.438ZM83.7175 146.789L83.3092 147.701L81.4656 146.877L81.8739 145.964L83.7175 146.789ZM80.0303 145.139L79.622 146.052L77.7783 145.227L78.1866 144.315L80.0303 145.139ZM76.343 143.49L75.9347 144.403L74.0911 143.578L74.4994 142.665L76.343 143.49ZM72.6558 141.841L72.2475 142.754L70.4038 141.929L70.8121 141.016L72.6558 141.841ZM68.9685 140.191L68.5602 141.104L66.7166 140.28L67.1249 139.367L68.9685 140.191ZM65.2813 138.542L64.8729 139.455L63.0293 138.63L63.4376 137.717L65.2813 138.542ZM61.594 136.893L61.1857 137.806L59.3421 136.981L59.7504 136.068L61.594 136.893ZM57.9068 135.243L57.4984 136.156L55.6548 135.332L56.0631 134.419L57.9068 135.243ZM54.2195 133.594L53.8112 134.507L51.9676 133.682L52.3759 132.769L54.2195 133.594ZM50.5322 131.945L50.1239 132.858L48.2803 132.033L48.6886 131.12L50.5322 131.945ZM46.845 130.295L46.4367 131.208L44.593 130.384L45.0014 129.471L46.845 130.295ZM43.1577 128.646L42.7494 129.559L40.9058 128.734L41.3141 127.822L43.1577 128.646ZM39.4705 126.997L39.0622 127.91L37.2185 127.085L37.6268 126.172L39.4705 126.997ZM35.7832 125.348L35.3749 126.26L33.5313 125.436L33.9396 124.523L35.7832 125.348ZM32.096 123.698L31.6876 124.611L30.7382 124.186L30.7113 124.172C30.4306 124.026 30.1527 123.879 29.878 123.733L30.3495 122.851C30.6205 122.996 30.8955 123.14 31.1741 123.286L32.096 123.698ZM28.7221 121.945L28.2171 122.808C27.6537 122.478 27.1068 122.138 26.5816 121.779L27.1456 120.953C27.6475 121.296 28.174 121.624 28.7221 121.945ZM25.6628 119.827L25.0137 120.588C24.5055 120.154 24.0264 119.689 23.5826 119.184L24.3342 118.524C24.7429 118.99 25.187 119.421 25.6628 119.827ZM23.2268 117.029L22.3757 117.554C22.0305 116.994 21.7245 116.394 21.461 115.747L22.3871 115.369C22.63 115.966 22.911 116.517 23.2268 117.029ZM21.8157 113.599L20.845 113.839C20.6936 113.227 20.5737 112.58 20.4863 111.894L21.4783 111.768C21.5611 112.418 21.6742 113.027 21.8157 113.599ZM21.3294 109.911L20.3301 109.948C20.3184 109.632 20.3125 109.309 20.3125 108.977V107.969H21.3125V108.977C21.3125 109.297 21.3182 109.608 21.3294 109.911ZM21.3125 105.951H20.3125V103.934H21.3125V105.951ZM21.3125 101.916H20.3125V99.899H21.3125V101.916ZM21.3125 97.8816H20.3125V95.8642H21.3125V97.8816ZM21.3125 93.8467H20.3125V91.8293H21.3125V93.8467ZM21.3125 89.8119H20.3125V87.7944H21.3125V89.8119ZM21.3125 85.777H20.3125V83.7596H21.3125V85.777ZM21.3125 81.7421H20.3125V79.7247H21.3125V81.7421ZM21.3125 77.7073H20.3125V75.6898H21.3125V77.7073ZM21.3125 73.6724H20.3125V71.655H21.3125V73.6724ZM21.3125 69.6375H20.3125V67.6201H21.3125V69.6375ZM21.3125 65.6027H20.3125V63.5852H21.3125V65.6027ZM21.3125 61.5678H20.3125V59.5504H21.3125V61.5678ZM21.3125 57.5329H20.3125V55.5155H21.3125V57.5329Z" fill="white"/>
<path fill-rule="evenodd" clip-rule="evenodd" d="M21.3125 53.4981V52.4894C21.3125 52.4894 21.3525 52.096 21.4916 51.4896L20.5169 51.2661C20.4416 51.5946 20.3926 51.8675 20.362 52.0615C20.3468 52.1586 20.3361 52.2363 20.329 52.2916C20.3255 52.3193 20.3228 52.3414 20.321 52.3576L20.3188 52.3774L20.3181 52.3839L20.3178 52.3863L20.3177 52.3877C20.3177 52.3878 20.3176 52.3881 20.8151 52.4387L20.3177 52.3877L20.3125 52.4386V53.4981H21.3125ZM22.1128 49.5548L21.1914 49.166C21.461 48.5272 21.8148 47.8465 22.2788 47.1949L23.0934 47.7749C22.6802 48.3552 22.36 48.9689 22.1128 49.5548ZM24.4887 46.3032L23.8757 45.5131C24.4697 45.0522 25.1596 44.665 25.9562 44.3976L26.2744 45.3456C25.5907 45.5751 24.9995 45.9068 24.4887 46.3032ZM28.2708 45.0032L28.2424 44.0036C28.9395 43.9839 29.6846 44.0442 30.4808 44.1946L30.2952 45.1772C29.563 45.0389 28.8898 44.9857 28.2708 45.0032ZM32.2602 45.7115L32.5893 44.7672C32.9166 44.8812 33.2515 45.0088 33.5943 45.1505L33.604 45.1545L34.5142 45.5534L34.1128 46.4693L33.2122 46.0747C32.8861 45.9398 32.5689 45.819 32.2602 45.7115ZM35.914 47.2585L36.3153 46.3426L38.1165 47.1319L37.7151 48.0478L35.914 47.2585ZM39.5163 48.837L39.9177 47.9211L41.7188 48.7104L41.3175 49.6263L39.5163 48.837ZM43.1186 50.4155L43.52 49.4996L45.3212 50.2889L44.9198 51.2048L43.1186 50.4155ZM46.721 51.994L48.5221 52.7833L48.9235 51.8674L47.1223 51.0781L46.721 51.994ZM50.3233 53.5725L50.7247 52.6566L52.5258 53.4459L52.1245 54.3618L50.3233 53.5725ZM53.9256 55.151L54.327 54.2351L56.1282 55.0244L55.7268 55.9403L53.9256 55.151ZM57.528 56.7295L57.9293 55.8136L59.7305 56.6029L59.3291 57.5188L57.528 56.7295ZM61.1303 58.308L61.5317 57.3921L63.3328 58.1814L62.9315 59.0973L61.1303 58.308ZM64.7327 59.8865L65.134 58.9706L66.9352 59.7599L66.5338 60.6758L64.7327 59.8865ZM68.335 61.465L68.7363 60.5491L70.5375 61.3384L70.1362 62.2543L68.335 61.465ZM71.9373 63.0435L72.3387 62.1276L74.1398 62.9169L73.7385 63.8328L71.9373 63.0435ZM75.5397 64.622L75.941 63.7061L77.7422 64.4954L77.3408 65.4113L75.5397 64.622ZM79.142 66.2005L79.5433 65.2846L81.3445 66.0739L80.9432 66.9898L79.142 66.2005ZM82.7443 67.779L83.1457 66.8631L84.9468 67.6524L84.5455 68.5683L82.7443 67.779ZM86.3467 69.3575L86.748 68.4416L88.5492 69.2309L88.1478 70.1468L86.3467 69.3575ZM89.949 70.936L90.3503 70.0201L92.1515 70.8094L91.7502 71.7253L89.949 70.936ZM93.5513 72.5145L93.9527 71.5986L95.7539 72.3879L95.3525 73.3038L93.5513 72.5145ZM97.1537 74.093L97.555 73.1771L99.3562 73.9664L98.9548 74.8823L97.1537 74.093ZM100.756 75.6715L101.157 74.7556L102.959 75.5449L102.557 76.4608L100.756 75.6715ZM104.358 77.25L104.76 76.3341L106.561 77.1234L106.16 78.0393L104.358 77.25ZM107.961 78.8285L108.362 77.9126L110.163 78.7019L109.762 79.6178L107.961 78.8285ZM111.563 80.407L111.964 79.4911L113.766 80.2804L113.364 81.1963L111.563 80.407ZM115.165 81.9855L115.567 81.0696L117.368 81.8589L116.967 82.7748L115.165 81.9855ZM118.768 83.564L119.169 82.6481L120.084 83.0492L120.099 83.0562C120.399 83.1994 120.697 83.3459 120.993 83.4966L120.54 84.3878C120.252 84.2415 119.962 84.0987 119.668 83.9587L118.768 83.564ZM122.239 85.3264L122.756 84.4703C123.336 84.8208 123.903 85.1975 124.451 85.6085L123.851 86.4083C123.333 86.02 122.795 85.662 122.239 85.3264ZM125.329 87.6651L126.024 86.9464C126.513 87.4196 126.978 87.932 127.415 88.4908L126.627 89.1065C126.22 88.5857 125.786 88.1076 125.329 87.6651ZM127.712 90.7145L128.577 90.2132C128.911 90.7895 129.218 91.4049 129.496 92.0639L128.575 92.4527C128.313 91.8313 128.024 91.2535 127.712 90.7145ZM129.23 94.2806L130.188 93.9929C130.374 94.6153 130.54 95.2706 130.682 95.9613L129.702 96.1628C129.566 95.4995 129.408 94.8731 129.23 94.2806ZM130.021 98.0763L131.013 97.9464C131.096 98.5828 131.163 99.2459 131.212 99.9376L130.214 100.008C130.167 99.3352 130.102 98.6918 130.021 98.0763ZM130.302 101.95L131.302 101.928C131.309 102.254 131.312 102.586 131.312 102.924L131.312 103.924H130.312L130.312 102.924C130.312 102.593 130.309 102.268 130.302 101.95ZM130.312 105.924H131.312L131.312 107.925H130.312L130.312 105.924ZM130.312 109.925H131.312L131.312 111.926H130.312L130.312 109.925ZM130.312 113.926H131.312L131.312 115.927H130.312L130.312 113.926ZM130.312 117.928H131.312L131.312 119.928H130.312L130.312 117.928ZM130.312 121.929H131.312L131.312 123.929H130.312L130.312 121.929ZM130.312 125.93H131.312L131.312 127.93H130.312L130.312 125.93ZM130.312 129.931H131.312L131.312 131.931H130.312L130.312 129.931ZM130.312 133.932H131.312L131.312 135.932H130.312L130.312 133.932ZM130.312 137.933H131.312L131.312 139.933H130.312L130.312 137.933ZM130.312 141.934H131.312L131.312 143.934H130.312L130.312 141.934ZM130.312 145.935L131.312 145.935L131.312 147.935H130.312L130.312 145.935ZM130.312 149.936H131.312L131.312 151.936H130.312L130.312 149.936ZM130.312 153.937H131.312L131.312 154.937C131.312 155.318 131.302 155.69 131.28 156.052L130.282 155.993C130.302 155.651 130.312 155.299 130.312 154.937L130.312 153.937ZM130.011 158.08L130.99 158.284C130.824 159.079 130.595 159.814 130.306 160.483L129.388 160.087C129.648 159.485 129.858 158.815 130.011 158.08ZM128.309 161.888L129.082 162.523C128.545 163.178 127.919 163.714 127.218 164.117L126.719 163.251C127.31 162.91 127.844 162.455 128.309 161.888ZM124.739 163.933L124.886 164.922C124.112 165.037 123.305 165.024 122.48 164.889L122.642 163.902C123.374 164.022 124.076 164.031 124.739 163.933ZM120.624 163.316L120.243 164.24C119.907 164.102 119.57 163.945 119.233 163.77L118.338 163.37L118.746 162.457L119.668 162.869C119.989 163.037 120.308 163.186 120.624 163.316ZM116.903 161.632L116.495 162.545L114.651 161.721L115.059 160.808L116.903 161.632ZM113.216 159.983L112.807 160.896L110.964 160.071L111.372 159.158L113.216 159.983ZM109.528 158.334L109.12 159.247L107.276 158.422L107.685 157.509L109.528 158.334ZM105.841 156.684L105.433 157.597L103.589 156.773L103.997 155.86L105.841 156.684ZM102.154 155.035L101.745 155.948L99.9019 155.123L100.31 154.211L102.154 155.035ZM98.4665 153.386L98.0582 154.299L96.2146 153.474L96.6229 152.561L98.4665 153.386ZM94.7793 151.737L94.371 152.649L92.5273 151.825L92.9357 150.912L94.7793 151.737ZM91.092 150.087L90.6837 151L88.8401 150.175L89.2484 149.263L91.092 150.087ZM87.4048 148.438L86.9965 149.351L85.1528 148.526L85.5611 147.613L87.4048 148.438ZM83.7175 146.789L83.3092 147.701L81.4656 146.877L81.8739 145.964L83.7175 146.789ZM80.0303 145.139L79.622 146.052L77.7783 145.227L78.1866 144.315L80.0303 145.139ZM76.343 143.49L75.9347 144.403L74.0911 143.578L74.4994 142.665L76.343 143.49ZM72.6558 141.841L72.2475 142.754L70.4038 141.929L70.8121 141.016L72.6558 141.841ZM68.9685 140.191L68.5602 141.104L66.7166 140.28L67.1249 139.367L68.9685 140.191ZM65.2813 138.542L64.8729 139.455L63.0293 138.63L63.4376 137.717L65.2813 138.542ZM61.594 136.893L61.1857 137.806L59.3421 136.981L59.7504 136.068L61.594 136.893ZM57.9068 135.243L57.4984 136.156L55.6548 135.332L56.0631 134.419L57.9068 135.243ZM54.2195 133.594L53.8112 134.507L51.9676 133.682L52.3759 132.769L54.2195 133.594ZM50.5322 131.945L50.1239 132.858L48.2803 132.033L48.6886 131.12L50.5322 131.945ZM46.845 130.295L46.4367 131.208L44.593 130.384L45.0014 129.471L46.845 130.295ZM43.1577 128.646L42.7494 129.559L40.9058 128.734L41.3141 127.822L43.1577 128.646ZM39.4705 126.997L39.0622 127.91L37.2185 127.085L37.6268 126.172L39.4705 126.997ZM35.7832 125.348L35.3749 126.26L33.5313 125.436L33.9396 124.523L35.7832 125.348ZM32.096 123.698L31.6876 124.611L30.7382 124.186L30.7113 124.172C30.4306 124.026 30.1527 123.879 29.878 123.733L30.3495 122.851C30.6205 122.996 30.8955 123.14 31.1741 123.286L32.096 123.698ZM28.7221 121.945L28.2171 122.808C27.6537 122.478 27.1068 122.138 26.5816 121.779L27.1456 120.953C27.6475 121.296 28.174 121.624 28.7221 121.945ZM25.6628 119.827L25.0137 120.588C24.5055 120.154 24.0264 119.689 23.5826 119.184L24.3342 118.524C24.7429 118.99 25.187 119.421 25.6628 119.827ZM23.2268 117.029L22.3757 117.554C22.0305 116.994 21.7245 116.394 21.461 115.747L22.3871 115.369C22.63 115.966 22.911 116.517 23.2268 117.029ZM21.8157 113.599L20.845 113.839C20.6936 113.227 20.5737 112.58 20.4863 111.894L21.4783 111.768C21.5611 112.418 21.6742 113.027 21.8157 113.599ZM21.3294 109.911L20.3301 109.948C20.3184 109.632 20.3125 109.309 20.3125 108.977V107.969H21.3125V108.977C21.3125 109.297 21.3182 109.608 21.3294 109.911ZM21.3125 105.951H20.3125V103.934H21.3125V105.951ZM21.3125 101.916H20.3125V99.899H21.3125V101.916ZM21.3125 97.8816H20.3125V95.8642H21.3125V97.8816ZM21.3125 93.8467H20.3125V91.8293H21.3125V93.8467ZM21.3125 89.8119H20.3125V87.7944H21.3125V89.8119ZM21.3125 85.777H20.3125V83.7596H21.3125V85.777ZM21.3125 81.7421H20.3125V79.7247H21.3125V81.7421ZM21.3125 77.7073H20.3125V75.6898H21.3125V77.7073ZM21.3125 73.6724H20.3125V71.655H21.3125V73.6724ZM21.3125 69.6375H20.3125V67.6201H21.3125V69.6375ZM21.3125 65.6027H20.3125V63.5852H21.3125V65.6027ZM21.3125 61.5678H20.3125V59.5504H21.3125V61.5678ZM21.3125 57.5329H20.3125V55.5155H21.3125V57.5329Z" fill="white"/>
<path d="M64.9358 116.769L81.0553 90L84.1568 91.2177L67.6763 117.987L64.9358 116.769Z" fill="white"/>
<path d="M98.3125 118L81.3941 116.01V113.37L94.7336 115.017L81.3941 103.572V100.124L98.3125 114.598V118Z" fill="white"/>
<path d="M49.3125 91.6064L66.2309 93.5967V96.2369L52.8914 94.589L66.2309 106.034V109.482L49.3125 95.0087V91.6064Z" fill="white"/>
</g>
<defs>
<linearGradient id="paint0_linear_429_20483" x1="130.648" y1="195.816" x2="130.648" y2="240.145" gradientUnits="userSpaceOnUse">
<stop stop-color="#122941"/>
<stop offset="1" stop-color="#2A283F"/>
</linearGradient>
<linearGradient id="paint1_linear_429_20483" x1="168.603" y1="133.145" x2="208.496" y2="301.459" gradientUnits="userSpaceOnUse">
<stop stop-color="#1E5777"/>
<stop offset="1" stop-color="#4D2A49"/>
</linearGradient>
<linearGradient id="paint2_linear_429_20483" x1="130.705" y1="93" x2="130.602" y2="212.211" gradientUnits="userSpaceOnUse">
<stop stop-color="#132539"/>
<stop offset="1" stop-color="#83313D"/>
</linearGradient>
<linearGradient id="paint3_linear_429_20483" x1="130.603" y1="93" x2="130.603" y2="212.211" gradientUnits="userSpaceOnUse">
<stop offset="0.5625" stop-color="#A96F6F" stop-opacity="0"/>
<stop offset="1" stop-color="#D13333"/>
</linearGradient>
<linearGradient id="paint4_linear_429_20483" x1="171.103" y1="20.5" x2="232.081" y2="123.29" gradientUnits="userSpaceOnUse">
<stop stop-color="#173F69"/>
<stop offset="1" stop-color="#CE3435"/>
</linearGradient>
<linearGradient id="paint5_linear_429_20483" x1="52.1675" y1="31.219" x2="136.168" y2="152.719" gradientUnits="userSpaceOnUse">
<stop stop-color="#36658D"/>
<stop offset="1" stop-color="#2D5D9D"/>
</linearGradient>
<linearGradient id="paint6_linear_429_20483" x1="49.1675" y1="32.219" x2="133.168" y2="153.719" gradientUnits="userSpaceOnUse">
<stop stop-color="#1A446D"/>
<stop offset="1" stop-color="#0D2A49"/>
</linearGradient>
<clipPath id="clip0_429_20483">
<rect width="260" height="240" fill="white"/>
</clipPath>
</defs>
</svg>
