<svg width="1680" height="1458" viewBox="0 0 1680 1458" fill="none" xmlns="http://www.w3.org/2000/svg">
<g clip-path="url(#clip0_413_10569)">
<rect width="1681" height="1464" transform="translate(-1)" fill="#0F2031"/>
<g style="mix-blend-mode:overlay">
<path fill-rule="evenodd" clip-rule="evenodd" d="M749.499 1423.15C748.671 1423.15 747.999 1422.05 747.999 1420.7L747.999 749.732C747.999 748.377 748.671 747.278 749.499 747.278C750.327 747.278 750.999 748.377 750.999 749.732L750.999 1420.7C750.999 1422.05 750.327 1423.15 749.499 1423.15Z" fill="url(#paint0_linear_413_10569)" fill-opacity="0.9"/>
</g>
<g style="mix-blend-mode:overlay">
<path fill-rule="evenodd" clip-rule="evenodd" d="M625.5 1403.15C624.672 1403.15 624 1402.05 624 1400.7L624 729.732C624 728.377 624.672 727.278 625.5 727.278C626.328 727.278 627 728.377 627 729.732L627 1400.7C627 1402.05 626.328 1403.15 625.5 1403.15Z" fill="url(#paint1_linear_413_10569)" fill-opacity="0.9"/>
</g>
<g style="mix-blend-mode:overlay">
<path fill-rule="evenodd" clip-rule="evenodd" d="M595.5 1387.15C594.672 1387.15 594 1386.05 594 1384.7L594 713.732C594 712.377 594.672 711.278 595.5 711.278C596.328 711.278 597 712.377 597 713.732L597 1384.7C597 1386.05 596.328 1387.15 595.5 1387.15Z" fill="url(#paint2_linear_413_10569)" fill-opacity="0.9"/>
</g>
<g style="mix-blend-mode:overlay">
<path fill-rule="evenodd" clip-rule="evenodd" d="M229.5 1307.15C228.671 1307.15 228 1306.05 228 1304.7L228 633.732C228 632.377 228.671 631.278 229.5 631.278C230.328 631.278 231 632.377 231 633.732L231 1304.7C231 1306.05 230.328 1307.15 229.5 1307.15Z" fill="url(#paint3_linear_413_10569)" fill-opacity="0.9"/>
</g>
<g style="mix-blend-mode:overlay">
<path fill-rule="evenodd" clip-rule="evenodd" d="M215.5 1367.15C214.671 1367.15 214 1366.05 214 1364.7L214 693.732C214 692.377 214.671 691.278 215.5 691.278C216.328 691.278 217 692.377 217 693.732L217 1364.7C217 1366.05 216.328 1367.15 215.5 1367.15Z" fill="url(#paint4_linear_413_10569)" fill-opacity="0.9"/>
</g>
<g style="mix-blend-mode:overlay">
<path fill-rule="evenodd" clip-rule="evenodd" d="M169.5 1362.15C168.671 1362.15 168 1361.05 168 1359.7L167.999 688.732C167.999 687.377 168.671 686.278 169.499 686.278C170.328 686.278 170.999 687.377 170.999 688.732L171 1359.7C171 1361.05 170.328 1362.15 169.5 1362.15Z" fill="url(#paint5_linear_413_10569)" fill-opacity="0.9"/>
</g>
<g style="mix-blend-mode:overlay">
<path fill-rule="evenodd" clip-rule="evenodd" d="M155.499 1350.15C154.671 1350.15 153.999 1349.05 153.999 1347.7L153.999 676.732C153.999 675.377 154.671 674.278 155.499 674.278C156.328 674.278 156.999 675.377 156.999 676.732L156.999 1347.7C156.999 1349.05 156.328 1350.15 155.499 1350.15Z" fill="url(#paint6_linear_413_10569)" fill-opacity="0.9"/>
</g>
<g style="mix-blend-mode:overlay">
<path fill-rule="evenodd" clip-rule="evenodd" d="M129.499 1317.15C128.671 1317.15 127.999 1316.05 127.999 1314.7L127.999 643.732C127.999 642.377 128.671 641.278 129.499 641.278C130.328 641.278 130.999 642.377 130.999 643.732L130.999 1314.7C130.999 1316.05 130.328 1317.15 129.499 1317.15Z" fill="url(#paint7_linear_413_10569)" fill-opacity="0.9"/>
</g>
<g style="mix-blend-mode:overlay">
<path fill-rule="evenodd" clip-rule="evenodd" d="M80.499 1237.15C79.6706 1237.15 78.999 1236.05 78.999 1234.7L78.999 563.732C78.999 562.377 79.6706 561.278 80.499 561.278C81.3274 561.278 81.999 562.377 81.999 563.732L81.999 1234.7C81.999 1236.05 81.3275 1237.15 80.499 1237.15Z" fill="url(#paint8_linear_413_10569)" fill-opacity="0.9"/>
</g>
<g style="mix-blend-mode:overlay">
<path fill-rule="evenodd" clip-rule="evenodd" d="M66.499 1302.15C65.6706 1302.15 64.999 1301.05 64.999 1299.7L64.999 628.732C64.999 627.377 65.6706 626.278 66.499 626.278C67.3274 626.278 67.999 627.377 67.999 628.732L67.999 1299.7C67.999 1301.05 67.3275 1302.15 66.499 1302.15Z" fill="url(#paint9_linear_413_10569)" fill-opacity="0.9"/>
</g>
<g style="mix-blend-mode:overlay">
<path fill-rule="evenodd" clip-rule="evenodd" d="M32.4988 1299.15C31.6704 1299.15 30.9988 1298.05 30.9988 1296.7L30.9988 625.732C30.9988 624.377 31.6703 623.278 32.4988 623.278C33.3272 623.278 33.9988 624.377 33.9988 625.732L33.9988 1296.7C33.9988 1298.05 33.3272 1299.15 32.4988 1299.15Z" fill="url(#paint10_linear_413_10569)" fill-opacity="0.9"/>
</g>
<g style="mix-blend-mode:overlay">
<path fill-rule="evenodd" clip-rule="evenodd" d="M330.499 1369.15C329.67 1369.15 328.999 1368.05 328.999 1366.7L328.999 695.732C328.999 694.377 329.67 693.278 330.499 693.278C331.327 693.278 331.999 694.377 331.999 695.732L331.999 1366.7C331.999 1368.05 331.327 1369.15 330.499 1369.15Z" fill="url(#paint11_linear_413_10569)" fill-opacity="0.9"/>
</g>
<g style="mix-blend-mode:overlay">
<path fill-rule="evenodd" clip-rule="evenodd" d="M371.499 1448.15C370.67 1448.15 369.999 1447.05 369.999 1445.7L369.999 774.732C369.999 773.377 370.67 772.278 371.499 772.278C372.327 772.278 372.999 773.377 372.999 774.732L372.999 1445.7C372.999 1447.05 372.327 1448.15 371.499 1448.15Z" fill="url(#paint12_linear_413_10569)" fill-opacity="0.9"/>
</g>
<g style="mix-blend-mode:overlay">
<path fill-rule="evenodd" clip-rule="evenodd" d="M412.499 1348.15C411.67 1348.15 410.999 1347.05 410.999 1345.7L410.999 674.732C410.999 673.377 411.67 672.278 412.499 672.278C413.327 672.278 413.999 673.377 413.999 674.732L413.999 1345.7C413.999 1347.05 413.327 1348.15 412.499 1348.15Z" fill="url(#paint13_linear_413_10569)" fill-opacity="0.9"/>
</g>
<g style="mix-blend-mode:overlay">
<path fill-rule="evenodd" clip-rule="evenodd" d="M468.499 1410.15C467.67 1410.15 466.999 1409.05 466.999 1407.7L466.999 736.732C466.999 735.377 467.67 734.278 468.499 734.278C469.327 734.278 469.999 735.377 469.999 736.732L469.999 1407.7C469.999 1409.05 469.327 1410.15 468.499 1410.15Z" fill="url(#paint14_linear_413_10569)" fill-opacity="0.9"/>
</g>
<g style="mix-blend-mode:overlay">
<path fill-rule="evenodd" clip-rule="evenodd" d="M511.499 1367.15C510.67 1367.15 509.999 1366.05 509.999 1364.7L509.999 693.732C509.999 692.377 510.67 691.278 511.499 691.278C512.327 691.278 512.999 692.377 512.999 693.732L512.999 1364.7C512.999 1366.05 512.327 1367.15 511.499 1367.15Z" fill="url(#paint15_linear_413_10569)" fill-opacity="0.9"/>
</g>
<g style="mix-blend-mode:overlay">
<path fill-rule="evenodd" clip-rule="evenodd" d="M805.499 1200.89C804.67 1200.89 803.999 1199.8 803.999 1198.44L803.999 527.474C803.999 526.119 804.67 525.019 805.499 525.019C806.327 525.019 806.999 526.119 806.999 527.474L806.999 1198.44C806.999 1199.8 806.327 1200.89 805.499 1200.89Z" fill="url(#paint16_linear_413_10569)" fill-opacity="0.9"/>
</g>
<g style="mix-blend-mode:overlay">
<path fill-rule="evenodd" clip-rule="evenodd" d="M834.499 1173.07C833.67 1173.07 832.999 1171.97 832.999 1170.62L832.999 499.654C832.999 498.298 833.67 497.199 834.499 497.199C835.327 497.199 835.999 498.298 835.999 499.654L835.999 1170.62C835.999 1171.97 835.327 1173.07 834.499 1173.07Z" fill="url(#paint17_linear_413_10569)" fill-opacity="0.9"/>
</g>
<g style="mix-blend-mode:overlay">
<path fill-rule="evenodd" clip-rule="evenodd" d="M862.499 1245.08C861.67 1245.08 860.999 1243.98 860.999 1242.63L860.999 571.66C860.999 570.304 861.67 569.205 862.499 569.205C863.327 569.205 863.999 570.304 863.999 571.66L863.999 1242.63C863.999 1243.98 863.327 1245.08 862.499 1245.08Z" fill="url(#paint18_linear_413_10569)" fill-opacity="0.9"/>
</g>
<g style="mix-blend-mode:overlay">
<path fill-rule="evenodd" clip-rule="evenodd" d="M889.499 1069.97C888.67 1069.97 887.999 1068.88 887.999 1067.52L887.999 396.554C887.999 395.198 888.67 394.099 889.499 394.099C890.327 394.099 890.999 395.198 890.999 396.554L890.999 1067.52C890.999 1068.88 890.327 1069.97 889.499 1069.97Z" fill="url(#paint19_linear_413_10569)" fill-opacity="0.9"/>
</g>
<g style="mix-blend-mode:overlay">
<path fill-rule="evenodd" clip-rule="evenodd" d="M902.499 1179.79C901.67 1179.79 900.999 1178.69 900.999 1177.33L900.999 506.366C900.999 505.01 901.67 503.911 902.499 503.911C903.327 503.911 903.999 505.01 903.999 506.366L903.999 1177.33C903.999 1178.69 903.327 1179.79 902.499 1179.79Z" fill="url(#paint20_linear_413_10569)" fill-opacity="0.9"/>
</g>
<g style="mix-blend-mode:overlay">
<path fill-rule="evenodd" clip-rule="evenodd" d="M916.499 1066.79C915.67 1066.79 914.999 1065.69 914.999 1064.33L914.999 393.369C914.999 392.013 915.67 390.914 916.499 390.914C917.327 390.914 917.999 392.013 917.999 393.369L917.999 1064.33C917.999 1065.69 917.327 1066.79 916.499 1066.79Z" fill="url(#paint21_linear_413_10569)" fill-opacity="0.9"/>
</g>
<g style="mix-blend-mode:overlay">
<path fill-rule="evenodd" clip-rule="evenodd" d="M930.499 1025.96C929.67 1025.96 928.999 1024.86 928.999 1023.51L928.999 352.542C928.999 351.186 929.67 350.087 930.499 350.087C931.327 350.087 931.999 351.186 931.999 352.542L931.999 1023.51C931.999 1024.86 931.327 1025.96 930.499 1025.96Z" fill="url(#paint22_linear_413_10569)" fill-opacity="0.9"/>
</g>
<g style="mix-blend-mode:overlay">
<path fill-rule="evenodd" clip-rule="evenodd" d="M1015.5 1033.97C1014.67 1033.97 1014 1032.87 1014 1031.52L1014 491.471C1014 490.115 1014.67 489.016 1015.5 489.016C1016.33 489.016 1017 490.115 1017 491.471L1017 1031.52C1017 1032.87 1016.33 1033.97 1015.5 1033.97Z" fill="url(#paint23_linear_413_10569)" fill-opacity="0.9"/>
</g>
<g style="mix-blend-mode:overlay">
<path fill-rule="evenodd" clip-rule="evenodd" d="M1080.5 1034.7C1079.67 1034.7 1079 1033.6 1079 1032.24L1079 361.275C1079 359.92 1079.67 358.82 1080.5 358.82C1081.33 358.82 1082 359.92 1082 361.275L1082 1032.24C1082 1033.6 1081.33 1034.7 1080.5 1034.7Z" fill="url(#paint24_linear_413_10569)" fill-opacity="0.9"/>
</g>
<g style="mix-blend-mode:overlay">
<path fill-rule="evenodd" clip-rule="evenodd" d="M1139.5 1074.15C1138.67 1074.15 1138 1073.05 1138 1071.7L1138 400.732C1138 399.377 1138.67 398.278 1139.5 398.278C1140.33 398.278 1141 399.377 1141 400.732L1141 1071.7C1141 1073.05 1140.33 1074.15 1139.5 1074.15Z" fill="url(#paint25_linear_413_10569)" fill-opacity="0.9"/>
</g>
<g style="mix-blend-mode:overlay">
<path fill-rule="evenodd" clip-rule="evenodd" d="M1153.5 1215.62C1152.67 1215.62 1152 1214.52 1152 1213.17L1152 542.203C1152 540.847 1152.67 539.748 1153.5 539.748C1154.33 539.748 1155 540.847 1155 542.203L1155 1213.17C1155 1214.52 1154.33 1215.62 1153.5 1215.62Z" fill="url(#paint26_linear_413_10569)" fill-opacity="0.9"/>
</g>
<g style="mix-blend-mode:overlay">
<path fill-rule="evenodd" clip-rule="evenodd" d="M1181.5 1215.62C1180.67 1215.62 1180 1214.52 1180 1213.17L1180 542.203C1180 540.847 1180.67 539.748 1181.5 539.748C1182.33 539.748 1183 540.847 1183 542.203L1183 1213.17C1183 1214.52 1182.33 1215.62 1181.5 1215.62Z" fill="url(#paint27_linear_413_10569)" fill-opacity="0.9"/>
</g>
<g style="mix-blend-mode:overlay">
<path fill-rule="evenodd" clip-rule="evenodd" d="M1195.5 1049.33C1194.67 1049.33 1194 1048.23 1194 1046.88L1194 375.911C1194 374.556 1194.67 373.457 1195.5 373.457C1196.33 373.457 1197 374.556 1197 375.911L1197 1046.88C1197 1048.23 1196.33 1049.33 1195.5 1049.33Z" fill="url(#paint28_linear_413_10569)" fill-opacity="0.9"/>
</g>
<g style="mix-blend-mode:overlay">
<path fill-rule="evenodd" clip-rule="evenodd" d="M1209.5 1156.71C1208.67 1156.71 1208 1155.61 1208 1154.25L1208 483.289C1208 481.933 1208.67 480.834 1209.5 480.834C1210.33 480.834 1211 481.933 1211 483.289L1211 1154.25C1211 1155.61 1210.33 1156.71 1209.5 1156.71Z" fill="url(#paint29_linear_413_10569)" fill-opacity="0.9"/>
</g>
<g style="mix-blend-mode:overlay">
<path fill-rule="evenodd" clip-rule="evenodd" d="M1363.5 1127.25C1364.33 1127.25 1365 1126.15 1365 1124.8L1365 453.832C1365 452.476 1364.33 451.377 1363.5 451.377C1362.67 451.377 1362 452.476 1362 453.832L1362 1124.8C1362 1126.15 1362.67 1127.25 1363.5 1127.25Z" fill="url(#paint30_linear_413_10569)" fill-opacity="0.9"/>
</g>
<g style="mix-blend-mode:overlay">
<path fill-rule="evenodd" clip-rule="evenodd" d="M1335.5 1230.35C1336.33 1230.35 1337 1229.25 1337 1227.9L1337 556.931C1337 555.576 1336.33 554.477 1335.5 554.477C1334.67 554.477 1334 555.576 1334 556.931L1334 1227.9C1334 1229.25 1334.67 1230.35 1335.5 1230.35Z" fill="url(#paint31_linear_413_10569)" fill-opacity="0.9"/>
</g>
<g style="mix-blend-mode:overlay">
<path fill-rule="evenodd" clip-rule="evenodd" d="M1309.5 990.232C1310.33 990.232 1311 989.133 1311 987.777L1311 316.812C1311 315.456 1310.33 314.357 1309.5 314.357C1308.67 314.357 1308 315.456 1308 316.812L1308 987.777C1308 989.133 1308.67 990.232 1309.5 990.232Z" fill="url(#paint32_linear_413_10569)" fill-opacity="0.9"/>
</g>
<g style="mix-blend-mode:overlay">
<path fill-rule="evenodd" clip-rule="evenodd" d="M1267.5 1202.53C1268.33 1202.53 1269 1201.43 1269 1200.08L1269 529.111C1269 527.755 1268.33 526.656 1267.5 526.656C1266.67 526.656 1266 527.755 1266 529.111L1266 1200.08C1266 1201.43 1266.67 1202.53 1267.5 1202.53Z" fill="url(#paint33_linear_413_10569)" fill-opacity="0.9"/>
</g>
<g style="mix-blend-mode:overlay">
<path fill-rule="evenodd" clip-rule="evenodd" d="M1445.5 920.321C1444.67 920.321 1444 919.222 1444 917.867L1444 377.821C1444 376.466 1444.67 375.367 1445.5 375.367C1446.33 375.367 1447 376.466 1447 377.821L1447 917.867C1447 919.222 1446.33 920.321 1445.5 920.321Z" fill="url(#paint34_linear_413_10569)" fill-opacity="0.9"/>
</g>
<g style="mix-blend-mode:overlay">
<path fill-rule="evenodd" clip-rule="evenodd" d="M1032.5 927.591C1031.67 927.591 1031 926.492 1031 925.137L1031 385.091C1031 383.736 1031.67 382.637 1032.5 382.637C1033.33 382.637 1034 383.736 1034 385.091L1034 925.137C1034 926.492 1033.33 927.591 1032.5 927.591Z" fill="url(#paint35_linear_413_10569)" fill-opacity="0.9"/>
</g>
<g style="mix-blend-mode:overlay">
<path fill-rule="evenodd" clip-rule="evenodd" d="M1462.5 975.057C1461.67 975.057 1461 973.958 1461 972.602L1461 301.637C1461 300.281 1461.67 299.182 1462.5 299.182C1463.33 299.182 1464 300.281 1464 301.637L1464 972.602C1464 973.958 1463.33 975.057 1462.5 975.057Z" fill="url(#paint36_linear_413_10569)" fill-opacity="0.9"/>
</g>
<g style="mix-blend-mode:overlay">
<path fill-rule="evenodd" clip-rule="evenodd" d="M1554.5 991.422C1553.67 991.422 1553 990.323 1553 988.968L1553 318.002C1553 316.647 1553.67 315.548 1554.5 315.548C1555.33 315.548 1556 316.647 1556 318.002L1556 988.968C1556 990.323 1555.33 991.422 1554.5 991.422Z" fill="url(#paint37_linear_413_10569)" fill-opacity="0.9"/>
</g>
<g style="mix-blend-mode:overlay">
<path fill-rule="evenodd" clip-rule="evenodd" d="M1583.5 1051.97C1582.67 1051.97 1582 1050.87 1582 1049.52L1582 378.553C1582 377.197 1582.67 376.098 1583.5 376.098C1584.33 376.098 1585 377.197 1585 378.553L1585 1049.52C1585 1050.87 1584.33 1051.97 1583.5 1051.97Z" fill="url(#paint38_linear_413_10569)" fill-opacity="0.9"/>
</g>
<g style="mix-blend-mode:overlay">
<path fill-rule="evenodd" clip-rule="evenodd" d="M1597.5 975.057C1596.67 975.057 1596 973.958 1596 972.602L1596 301.637C1596 300.281 1596.67 299.182 1597.5 299.182C1598.33 299.182 1599 300.281 1599 301.637L1599 972.602C1599 973.958 1598.33 975.057 1597.5 975.057Z" fill="url(#paint39_linear_413_10569)" fill-opacity="0.9"/>
</g>
<g style="mix-blend-mode:overlay">
<path fill-rule="evenodd" clip-rule="evenodd" d="M1611.5 1051.97C1610.67 1051.97 1610 1050.87 1610 1049.52L1610 378.553C1610 377.197 1610.67 376.098 1611.5 376.098C1612.33 376.098 1613 377.197 1613 378.553L1613 1049.52C1613 1050.87 1612.33 1051.97 1611.5 1051.97Z" fill="url(#paint40_linear_413_10569)" fill-opacity="0.9"/>
</g>
<g style="mix-blend-mode:overlay">
<line x1="734.5" y1="1132.5" x2="734.5" y2="722.5" stroke="#E2E2E2" stroke-width="3" stroke-linecap="round" stroke-dasharray="1 17"/>
<line x1="749.5" y1="1162.5" x2="749.5" y2="752.5" stroke="#E2E2E2" stroke-width="3" stroke-linecap="round" stroke-dasharray="1 17"/>
<line x1="763.5" y1="1029.5" x2="763.5" y2="619.5" stroke="#E2E2E2" stroke-width="3" stroke-linecap="round" stroke-dasharray="1 17"/>
<line x1="777.5" y1="1073.5" x2="777.5" y2="663.5" stroke="#E2E2E2" stroke-width="3" stroke-linecap="round" stroke-dasharray="1 17"/>
<line x1="791.5" y1="1009.5" x2="791.5" y2="599.5" stroke="#E2E2E2" stroke-width="3" stroke-linecap="round" stroke-dasharray="1 17"/>
<line x1="805.5" y1="930.5" x2="805.5" y2="520.5" stroke="#E2E2E2" stroke-width="3" stroke-linecap="round" stroke-dasharray="1 17"/>
<line x1="819.5" y1="903.5" x2="819.5" y2="493.5" stroke="#E2E2E2" stroke-width="3" stroke-linecap="round" stroke-dasharray="1 17"/>
<line x1="834.5" y1="913.5" x2="834.5" y2="503.5" stroke="#E2E2E2" stroke-width="3" stroke-linecap="round" stroke-dasharray="1 17"/>
<line x1="848.5" y1="885.5" x2="848.5" y2="475.5" stroke="#E2E2E2" stroke-width="3" stroke-linecap="round" stroke-dasharray="1 17"/>
<line x1="862.5" y1="947.5" x2="862.5" y2="537.5" stroke="#E2E2E2" stroke-width="3" stroke-linecap="round" stroke-dasharray="1 17"/>
<line x1="876.5" y1="938.5" x2="876.5" y2="528.5" stroke="#E2E2E2" stroke-width="3" stroke-linecap="round" stroke-dasharray="1 17"/>
<line x1="889.5" y1="840.5" x2="889.5" y2="430.5" stroke="#E2E2E2" stroke-width="3" stroke-linecap="round" stroke-dasharray="1 17"/>
<line x1="902.5" y1="921.5" x2="902.5" y2="511.5" stroke="#E2E2E2" stroke-width="3" stroke-linecap="round" stroke-dasharray="1 17"/>
<line x1="916.5" y1="823.5" x2="916.5" y2="413.5" stroke="#E2E2E2" stroke-width="3" stroke-linecap="round" stroke-dasharray="1 17"/>
<line x1="930.5" y1="762.5" x2="930.5" y2="352.5" stroke="#E2E2E2" stroke-width="3" stroke-linecap="round" stroke-dasharray="1 17"/>
<line x1="944.5" y1="773.5" x2="944.5" y2="363.5" stroke="#E2E2E2" stroke-width="3" stroke-linecap="round" stroke-dasharray="1 17"/>
<line x1="1015.5" y1="828.5" x2="1015.5" y2="498.5" stroke="#E2E2E2" stroke-width="3" stroke-linecap="round" stroke-dasharray="1 17"/>
<line x1="1032.5" y1="812.5" x2="1032.5" y2="402.5" stroke="#E2E2E2" stroke-width="3" stroke-linecap="round" stroke-dasharray="1 17"/>
<line x1="1.5" y1="-1.5" x2="411.5" y2="-1.5" transform="matrix(4.37114e-08 -1 -1 -4.37114e-08 79 976)" stroke="#E2E2E2" stroke-width="3" stroke-linecap="round" stroke-dasharray="1 17"/>
<line x1="1.5" y1="-1.5" x2="411.5" y2="-1.5" transform="matrix(4.37114e-08 -1 -1 -4.37114e-08 65 987)" stroke="#E2E2E2" stroke-width="3" stroke-linecap="round" stroke-dasharray="1 17"/>
<line x1="1.5" y1="-1.5" x2="331.5" y2="-1.5" transform="matrix(4.37114e-08 -1 -1 -4.37114e-08 48 1055)" stroke="#E2E2E2" stroke-width="3" stroke-linecap="round" stroke-dasharray="1 17"/>
<line x1="1.5" y1="-1.5" x2="411.5" y2="-1.5" transform="matrix(4.37114e-08 -1 -1 -4.37114e-08 31 1039)" stroke="#E2E2E2" stroke-width="3" stroke-linecap="round" stroke-dasharray="1 17"/>
<line x1="1.5" y1="-1.5" x2="411.5" y2="-1.5" transform="matrix(4.37114e-08 -1 -1 -4.37114e-08 142 1044)" stroke="#E2E2E2" stroke-width="3" stroke-linecap="round" stroke-dasharray="1 17"/>
<line x1="1.5" y1="-1.5" x2="411.5" y2="-1.5" transform="matrix(4.37114e-08 -1 -1 -4.37114e-08 128 1055)" stroke="#E2E2E2" stroke-width="3" stroke-linecap="round" stroke-dasharray="1 17"/>
<line x1="1.5" y1="-1.5" x2="331.5" y2="-1.5" transform="matrix(4.37114e-08 -1 -1 -4.37114e-08 111 1123)" stroke="#E2E2E2" stroke-width="3" stroke-linecap="round" stroke-dasharray="1 17"/>
<line x1="1.5" y1="-1.5" x2="411.5" y2="-1.5" transform="matrix(4.37114e-08 -1 -1 -4.37114e-08 94 1107)" stroke="#E2E2E2" stroke-width="3" stroke-linecap="round" stroke-dasharray="1 17"/>
<line x1="155.5" y1="1086.5" x2="155.5" y2="676.5" stroke="#E2E2E2" stroke-width="3" stroke-linecap="round" stroke-dasharray="1 17"/>
<line x1="169.5" y1="1097.5" x2="169.5" y2="687.5" stroke="#E2E2E2" stroke-width="3" stroke-linecap="round" stroke-dasharray="1 17"/>
<line x1="186.5" y1="1165.5" x2="186.5" y2="835.5" stroke="#E2E2E2" stroke-width="3" stroke-linecap="round" stroke-dasharray="1 17"/>
<line x1="203.5" y1="1149.5" x2="203.5" y2="739.5" stroke="#E2E2E2" stroke-width="3" stroke-linecap="round" stroke-dasharray="1 17"/>
<line x1="1080.5" y1="804.5" x2="1080.5" y2="394.5" stroke="#E2E2E2" stroke-width="3" stroke-linecap="round" stroke-dasharray="1 17"/>
<line x1="1094.5" y1="742.5" x2="1094.5" y2="332.5" stroke="#E2E2E2" stroke-width="3" stroke-linecap="round" stroke-dasharray="1 17"/>
<line x1="1109.5" y1="839.5" x2="1109.5" y2="429.5" stroke="#E2E2E2" stroke-width="3" stroke-linecap="round" stroke-dasharray="1 17"/>
<line x1="1124.5" y1="902.5" x2="1124.5" y2="492.5" stroke="#E2E2E2" stroke-width="3" stroke-linecap="round" stroke-dasharray="1 17"/>
<line x1="1139.5" y1="822.5" x2="1139.5" y2="412.5" stroke="#E2E2E2" stroke-width="3" stroke-linecap="round" stroke-dasharray="1 17"/>
<line x1="1153.5" y1="939.5" x2="1153.5" y2="529.5" stroke="#E2E2E2" stroke-width="3" stroke-linecap="round" stroke-dasharray="1 17"/>
<line x1="1167.5" y1="892.5" x2="1167.5" y2="482.5" stroke="#E2E2E2" stroke-width="3" stroke-linecap="round" stroke-dasharray="1 17"/>
<line x1="1181.5" y1="939.5" x2="1181.5" y2="529.5" stroke="#E2E2E2" stroke-width="3" stroke-linecap="round" stroke-dasharray="1 17"/>
<line x1="1195.5" y1="805.5" x2="1195.5" y2="395.5" stroke="#E2E2E2" stroke-width="3" stroke-linecap="round" stroke-dasharray="1 17"/>
<line x1="1209.5" y1="903.5" x2="1209.5" y2="493.5" stroke="#E2E2E2" stroke-width="3" stroke-linecap="round" stroke-dasharray="1 17"/>
<line x1="1.5" y1="-1.5" x2="411.5" y2="-1.5" transform="matrix(4.37114e-08 -1 -1 -4.37114e-08 1376 915)" stroke="#E2E2E2" stroke-width="3" stroke-linecap="round" stroke-dasharray="1 17"/>
<line x1="1.5" y1="-1.5" x2="411.5" y2="-1.5" transform="matrix(4.37114e-08 -1 -1 -4.37114e-08 1362 887)" stroke="#E2E2E2" stroke-width="3" stroke-linecap="round" stroke-dasharray="1 17"/>
<line x1="1.5" y1="-1.5" x2="411.5" y2="-1.5" transform="matrix(4.37114e-08 -1 -1 -4.37114e-08 1348 949)" stroke="#E2E2E2" stroke-width="3" stroke-linecap="round" stroke-dasharray="1 17"/>
<line x1="1.5" y1="-1.5" x2="411.5" y2="-1.5" transform="matrix(4.37114e-08 -1 -1 -4.37114e-08 1334 940)" stroke="#E2E2E2" stroke-width="3" stroke-linecap="round" stroke-dasharray="1 17"/>
<line x1="1.5" y1="-1.5" x2="411.5" y2="-1.5" transform="matrix(4.37114e-08 -1 -1 -4.37114e-08 1321 788)" stroke="#E2E2E2" stroke-width="3" stroke-linecap="round" stroke-dasharray="1 17"/>
<line x1="438.5" y1="952.5" x2="438.5" y2="542.5" stroke="#E2E2E2" stroke-width="3" stroke-linecap="round" stroke-dasharray="1 17"/>
<line x1="453.5" y1="1049.5" x2="453.5" y2="639.5" stroke="#E2E2E2" stroke-width="3" stroke-linecap="round" stroke-dasharray="1 17"/>
<line x1="468.5" y1="1112.5" x2="468.5" y2="702.5" stroke="#E2E2E2" stroke-width="3" stroke-linecap="round" stroke-dasharray="1 17"/>
<line x1="483.5" y1="1032.5" x2="483.5" y2="622.5" stroke="#E2E2E2" stroke-width="3" stroke-linecap="round" stroke-dasharray="1 17"/>
<line x1="497.5" y1="1149.5" x2="497.5" y2="739.5" stroke="#E2E2E2" stroke-width="3" stroke-linecap="round" stroke-dasharray="1 17"/>
<line x1="511.5" y1="1102.5" x2="511.5" y2="692.5" stroke="#E2E2E2" stroke-width="3" stroke-linecap="round" stroke-dasharray="1 17"/>
<line x1="525.5" y1="1149.5" x2="525.5" y2="739.5" stroke="#E2E2E2" stroke-width="3" stroke-linecap="round" stroke-dasharray="1 17"/>
<line x1="539.5" y1="1015.5" x2="539.5" y2="605.5" stroke="#E2E2E2" stroke-width="3" stroke-linecap="round" stroke-dasharray="1 17"/>
<line x1="553.5" y1="1113.5" x2="553.5" y2="703.5" stroke="#E2E2E2" stroke-width="3" stroke-linecap="round" stroke-dasharray="1 17"/>
<line x1="1.5" y1="-1.5" x2="411.5" y2="-1.5" transform="matrix(4.37114e-08 -1 -1 -4.37114e-08 720 1125)" stroke="#E2E2E2" stroke-width="3" stroke-linecap="round" stroke-dasharray="1 17"/>
<line x1="1.5" y1="-1.5" x2="411.5" y2="-1.5" transform="matrix(4.37114e-08 -1 -1 -4.37114e-08 706 1097)" stroke="#E2E2E2" stroke-width="3" stroke-linecap="round" stroke-dasharray="1 17"/>
<line x1="1.5" y1="-1.5" x2="411.5" y2="-1.5" transform="matrix(4.37114e-08 -1 -1 -4.37114e-08 692 1159)" stroke="#E2E2E2" stroke-width="3" stroke-linecap="round" stroke-dasharray="1 17"/>
<line x1="1.5" y1="-1.5" x2="411.5" y2="-1.5" transform="matrix(4.37114e-08 -1 -1 -4.37114e-08 678 1150)" stroke="#E2E2E2" stroke-width="3" stroke-linecap="round" stroke-dasharray="1 17"/>
<line x1="1.5" y1="-1.5" x2="411.5" y2="-1.5" transform="matrix(4.37114e-08 -1 -1 -4.37114e-08 665 998)" stroke="#E2E2E2" stroke-width="3" stroke-linecap="round" stroke-dasharray="1 17"/>
<line x1="1.5" y1="-1.5" x2="411.5" y2="-1.5" transform="matrix(4.37114e-08 -1 -1 -4.37114e-08 639 1044)" stroke="#E2E2E2" stroke-width="3" stroke-linecap="round" stroke-dasharray="1 17"/>
<line x1="1.5" y1="-1.5" x2="411.5" y2="-1.5" transform="matrix(4.37114e-08 -1 -1 -4.37114e-08 624 1141)" stroke="#E2E2E2" stroke-width="3" stroke-linecap="round" stroke-dasharray="1 17"/>
<line x1="1.5" y1="-1.5" x2="411.5" y2="-1.5" transform="matrix(4.37114e-08 -1 -1 -4.37114e-08 609 1204)" stroke="#E2E2E2" stroke-width="3" stroke-linecap="round" stroke-dasharray="1 17"/>
<line x1="1.5" y1="-1.5" x2="411.5" y2="-1.5" transform="matrix(4.37114e-08 -1 -1 -4.37114e-08 594 1124)" stroke="#E2E2E2" stroke-width="3" stroke-linecap="round" stroke-dasharray="1 17"/>
<line x1="1.5" y1="-1.5" x2="411.5" y2="-1.5" transform="matrix(4.37114e-08 -1 -1 -4.37114e-08 580 1241)" stroke="#E2E2E2" stroke-width="3" stroke-linecap="round" stroke-dasharray="1 17"/>
<line x1="1.5" y1="-1.5" x2="411.5" y2="-1.5" transform="matrix(4.37114e-08 -1 -1 -4.37114e-08 566 1194)" stroke="#E2E2E2" stroke-width="3" stroke-linecap="round" stroke-dasharray="1 17"/>
<line x1="1.5" y1="-1.5" x2="411.5" y2="-1.5" transform="matrix(4.37114e-08 -1 -1 -4.37114e-08 552 1241)" stroke="#E2E2E2" stroke-width="3" stroke-linecap="round" stroke-dasharray="1 17"/>
<line x1="1.5" y1="-1.5" x2="411.5" y2="-1.5" transform="matrix(4.37114e-08 -1 -1 -4.37114e-08 538 1107)" stroke="#E2E2E2" stroke-width="3" stroke-linecap="round" stroke-dasharray="1 17"/>
<line x1="1.5" y1="-1.5" x2="411.5" y2="-1.5" transform="matrix(4.37114e-08 -1 -1 -4.37114e-08 524 1205)" stroke="#E2E2E2" stroke-width="3" stroke-linecap="round" stroke-dasharray="1 17"/>
<line x1="357.5" y1="1213.5" x2="357.5" y2="803.5" stroke="#E2E2E2" stroke-width="3" stroke-linecap="round" stroke-dasharray="1 17"/>
<line x1="371.5" y1="1185.5" x2="371.5" y2="775.5" stroke="#E2E2E2" stroke-width="3" stroke-linecap="round" stroke-dasharray="1 17"/>
<line x1="385.5" y1="1247.5" x2="385.5" y2="837.5" stroke="#E2E2E2" stroke-width="3" stroke-linecap="round" stroke-dasharray="1 17"/>
<line x1="399.5" y1="1238.5" x2="399.5" y2="828.5" stroke="#E2E2E2" stroke-width="3" stroke-linecap="round" stroke-dasharray="1 17"/>
<line x1="412.5" y1="1086.5" x2="412.5" y2="676.5" stroke="#E2E2E2" stroke-width="3" stroke-linecap="round" stroke-dasharray="1 17"/>
<line x1="1.5" y1="-1.5" x2="411.5" y2="-1.5" transform="matrix(4.37114e-08 -1 -1 -4.37114e-08 1308 744)" stroke="#E2E2E2" stroke-width="3" stroke-linecap="round" stroke-dasharray="1 17"/>
<line x1="1.5" y1="-1.5" x2="411.5" y2="-1.5" transform="matrix(4.37114e-08 -1 -1 -4.37114e-08 1294 789)" stroke="#E2E2E2" stroke-width="3" stroke-linecap="round" stroke-dasharray="1 17"/>
<line x1="1.5" y1="-1.5" x2="411.5" y2="-1.5" transform="matrix(4.37114e-08 -1 -1 -4.37114e-08 1280 922)" stroke="#E2E2E2" stroke-width="3" stroke-linecap="round" stroke-dasharray="1 17"/>
<line x1="1.5" y1="-1.5" x2="411.5" y2="-1.5" transform="matrix(4.37114e-08 -1 -1 -4.37114e-08 1266 933)" stroke="#E2E2E2" stroke-width="3" stroke-linecap="round" stroke-dasharray="1 17"/>
<line x1="1445.5" y1="728.5" x2="1445.5" y2="398.5" stroke="#E2E2E2" stroke-width="3" stroke-linecap="round" stroke-dasharray="1 17"/>
<line x1="1462.5" y1="712.5" x2="1462.5" y2="302.5" stroke="#E2E2E2" stroke-width="3" stroke-linecap="round" stroke-dasharray="1 17"/>
<line x1="1510.5" y1="704.5" x2="1510.5" y2="294.5" stroke="#E2E2E2" stroke-width="3" stroke-linecap="round" stroke-dasharray="1 17"/>
<line x1="1524.5" y1="642.5" x2="1524.5" y2="232.5" stroke="#E2E2E2" stroke-width="3" stroke-linecap="round" stroke-dasharray="1 17"/>
<line x1="1539.5" y1="739.5" x2="1539.5" y2="329.5" stroke="#E2E2E2" stroke-width="3" stroke-linecap="round" stroke-dasharray="1 17"/>
<line x1="1554.5" y1="802.5" x2="1554.5" y2="392.5" stroke="#E2E2E2" stroke-width="3" stroke-linecap="round" stroke-dasharray="1 17"/>
<line x1="1569.5" y1="722.5" x2="1569.5" y2="312.5" stroke="#E2E2E2" stroke-width="3" stroke-linecap="round" stroke-dasharray="1 17"/>
<line x1="1583.5" y1="839.5" x2="1583.5" y2="429.5" stroke="#E2E2E2" stroke-width="3" stroke-linecap="round" stroke-dasharray="1 17"/>
<line x1="1597.5" y1="792.5" x2="1597.5" y2="382.5" stroke="#E2E2E2" stroke-width="3" stroke-linecap="round" stroke-dasharray="1 17"/>
<line x1="1611.5" y1="839.5" x2="1611.5" y2="429.5" stroke="#E2E2E2" stroke-width="3" stroke-linecap="round" stroke-dasharray="1 17"/>
<line x1="1625.5" y1="705.5" x2="1625.5" y2="295.5" stroke="#E2E2E2" stroke-width="3" stroke-linecap="round" stroke-dasharray="1 17"/>
<line x1="1639.5" y1="893.5" x2="1639.5" y2="483.5" stroke="#E2E2E2" stroke-width="3" stroke-linecap="round" stroke-dasharray="1 17"/>
<line x1="215.5" y1="1105.5" x2="215.5" y2="695.5" stroke="#E2E2E2" stroke-width="3" stroke-linecap="round" stroke-dasharray="1 17"/>
<line x1="229.5" y1="1043.5" x2="229.5" y2="633.5" stroke="#E2E2E2" stroke-width="3" stroke-linecap="round" stroke-dasharray="1 17"/>
<line x1="244.5" y1="1140.5" x2="244.5" y2="730.5" stroke="#E2E2E2" stroke-width="3" stroke-linecap="round" stroke-dasharray="1 17"/>
<line x1="259.5" y1="1203.5" x2="259.5" y2="793.5" stroke="#E2E2E2" stroke-width="3" stroke-linecap="round" stroke-dasharray="1 17"/>
<line x1="274.5" y1="1123.5" x2="274.5" y2="713.5" stroke="#E2E2E2" stroke-width="3" stroke-linecap="round" stroke-dasharray="1 17"/>
<line x1="288.5" y1="1240.5" x2="288.5" y2="830.5" stroke="#E2E2E2" stroke-width="3" stroke-linecap="round" stroke-dasharray="1 17"/>
<line x1="302.5" y1="1193.5" x2="302.5" y2="783.5" stroke="#E2E2E2" stroke-width="3" stroke-linecap="round" stroke-dasharray="1 17"/>
<line x1="316.5" y1="1240.5" x2="316.5" y2="830.5" stroke="#E2E2E2" stroke-width="3" stroke-linecap="round" stroke-dasharray="1 17"/>
<line x1="330.5" y1="1106.5" x2="330.5" y2="696.5" stroke="#E2E2E2" stroke-width="3" stroke-linecap="round" stroke-dasharray="1 17"/>
<line x1="344.5" y1="1294.5" x2="344.5" y2="884.5" stroke="#E2E2E2" stroke-width="3" stroke-linecap="round" stroke-dasharray="1 17"/>
</g>
</g>
<defs>
<linearGradient id="paint0_linear_413_10569" x1="750.998" y1="745.641" x2="750.998" y2="933.839" gradientUnits="userSpaceOnUse">
<stop offset="0.014615" stop-color="white"/>
<stop offset="0.478261" stop-color="white" stop-opacity="0.22"/>
<stop offset="1" stop-color="white" stop-opacity="0"/>
</linearGradient>
<linearGradient id="paint1_linear_413_10569" x1="626.999" y1="725.641" x2="626.999" y2="913.839" gradientUnits="userSpaceOnUse">
<stop offset="0.014615" stop-color="white"/>
<stop offset="0.478261" stop-color="white" stop-opacity="0.22"/>
<stop offset="1" stop-color="white" stop-opacity="0"/>
</linearGradient>
<linearGradient id="paint2_linear_413_10569" x1="596.999" y1="709.641" x2="596.999" y2="897.839" gradientUnits="userSpaceOnUse">
<stop offset="0.014615" stop-color="white"/>
<stop offset="0.478261" stop-color="white" stop-opacity="0.22"/>
<stop offset="1" stop-color="white" stop-opacity="0"/>
</linearGradient>
<linearGradient id="paint3_linear_413_10569" x1="230.999" y1="629.641" x2="230.999" y2="817.839" gradientUnits="userSpaceOnUse">
<stop offset="0.014615" stop-color="white"/>
<stop offset="0.478261" stop-color="white" stop-opacity="0.22"/>
<stop offset="1" stop-color="white" stop-opacity="0"/>
</linearGradient>
<linearGradient id="paint4_linear_413_10569" x1="216.999" y1="689.641" x2="216.999" y2="877.839" gradientUnits="userSpaceOnUse">
<stop offset="0.014615" stop-color="white"/>
<stop offset="0.478261" stop-color="white" stop-opacity="0.22"/>
<stop offset="1" stop-color="white" stop-opacity="0"/>
</linearGradient>
<linearGradient id="paint5_linear_413_10569" x1="170.998" y1="684.641" x2="170.998" y2="872.839" gradientUnits="userSpaceOnUse">
<stop offset="0.014615" stop-color="white"/>
<stop offset="0.478261" stop-color="white" stop-opacity="0.22"/>
<stop offset="1" stop-color="white" stop-opacity="0"/>
</linearGradient>
<linearGradient id="paint6_linear_413_10569" x1="156.998" y1="672.641" x2="156.998" y2="860.839" gradientUnits="userSpaceOnUse">
<stop offset="0.014615" stop-color="white"/>
<stop offset="0.478261" stop-color="white" stop-opacity="0.22"/>
<stop offset="1" stop-color="white" stop-opacity="0"/>
</linearGradient>
<linearGradient id="paint7_linear_413_10569" x1="130.998" y1="639.641" x2="130.998" y2="827.839" gradientUnits="userSpaceOnUse">
<stop offset="0.014615" stop-color="white"/>
<stop offset="0.478261" stop-color="white" stop-opacity="0.22"/>
<stop offset="1" stop-color="white" stop-opacity="0"/>
</linearGradient>
<linearGradient id="paint8_linear_413_10569" x1="81.9979" y1="559.641" x2="81.9979" y2="747.839" gradientUnits="userSpaceOnUse">
<stop offset="0.014615" stop-color="white"/>
<stop offset="0.478261" stop-color="white" stop-opacity="0.22"/>
<stop offset="1" stop-color="white" stop-opacity="0"/>
</linearGradient>
<linearGradient id="paint9_linear_413_10569" x1="67.9979" y1="624.641" x2="67.9979" y2="812.839" gradientUnits="userSpaceOnUse">
<stop offset="0.014615" stop-color="white"/>
<stop offset="0.478261" stop-color="white" stop-opacity="0.22"/>
<stop offset="1" stop-color="white" stop-opacity="0"/>
</linearGradient>
<linearGradient id="paint10_linear_413_10569" x1="33.9977" y1="621.641" x2="33.9977" y2="809.839" gradientUnits="userSpaceOnUse">
<stop offset="0.014615" stop-color="white"/>
<stop offset="0.478261" stop-color="white" stop-opacity="0.22"/>
<stop offset="1" stop-color="white" stop-opacity="0"/>
</linearGradient>
<linearGradient id="paint11_linear_413_10569" x1="331.998" y1="691.641" x2="331.998" y2="879.839" gradientUnits="userSpaceOnUse">
<stop offset="0.014615" stop-color="white"/>
<stop offset="0.478261" stop-color="white" stop-opacity="0.22"/>
<stop offset="1" stop-color="white" stop-opacity="0"/>
</linearGradient>
<linearGradient id="paint12_linear_413_10569" x1="372.998" y1="770.641" x2="372.998" y2="958.839" gradientUnits="userSpaceOnUse">
<stop offset="0.014615" stop-color="white"/>
<stop offset="0.478261" stop-color="white" stop-opacity="0.22"/>
<stop offset="1" stop-color="white" stop-opacity="0"/>
</linearGradient>
<linearGradient id="paint13_linear_413_10569" x1="413.998" y1="670.641" x2="413.998" y2="858.839" gradientUnits="userSpaceOnUse">
<stop offset="0.014615" stop-color="white"/>
<stop offset="0.478261" stop-color="white" stop-opacity="0.22"/>
<stop offset="1" stop-color="white" stop-opacity="0"/>
</linearGradient>
<linearGradient id="paint14_linear_413_10569" x1="469.998" y1="732.641" x2="469.998" y2="920.839" gradientUnits="userSpaceOnUse">
<stop offset="0.014615" stop-color="white"/>
<stop offset="0.478261" stop-color="white" stop-opacity="0.22"/>
<stop offset="1" stop-color="white" stop-opacity="0"/>
</linearGradient>
<linearGradient id="paint15_linear_413_10569" x1="512.998" y1="689.641" x2="512.998" y2="877.839" gradientUnits="userSpaceOnUse">
<stop offset="0.014615" stop-color="white"/>
<stop offset="0.478261" stop-color="white" stop-opacity="0.22"/>
<stop offset="1" stop-color="white" stop-opacity="0"/>
</linearGradient>
<linearGradient id="paint16_linear_413_10569" x1="806.998" y1="523.383" x2="806.998" y2="711.581" gradientUnits="userSpaceOnUse">
<stop offset="0.014615" stop-color="white"/>
<stop offset="0.478261" stop-color="white" stop-opacity="0.22"/>
<stop offset="1" stop-color="white" stop-opacity="0"/>
</linearGradient>
<linearGradient id="paint17_linear_413_10569" x1="835.998" y1="495.562" x2="835.998" y2="683.76" gradientUnits="userSpaceOnUse">
<stop offset="0.014615" stop-color="white"/>
<stop offset="0.478261" stop-color="white" stop-opacity="0.22"/>
<stop offset="1" stop-color="white" stop-opacity="0"/>
</linearGradient>
<linearGradient id="paint18_linear_413_10569" x1="863.998" y1="567.569" x2="863.998" y2="755.766" gradientUnits="userSpaceOnUse">
<stop offset="0.014615" stop-color="white"/>
<stop offset="0.478261" stop-color="white" stop-opacity="0.22"/>
<stop offset="1" stop-color="white" stop-opacity="0"/>
</linearGradient>
<linearGradient id="paint19_linear_413_10569" x1="890.998" y1="392.463" x2="890.998" y2="580.66" gradientUnits="userSpaceOnUse">
<stop offset="0.014615" stop-color="white"/>
<stop offset="0.478261" stop-color="white" stop-opacity="0.22"/>
<stop offset="1" stop-color="white" stop-opacity="0"/>
</linearGradient>
<linearGradient id="paint20_linear_413_10569" x1="903.998" y1="502.274" x2="903.998" y2="690.472" gradientUnits="userSpaceOnUse">
<stop offset="0.014615" stop-color="white"/>
<stop offset="0.478261" stop-color="white" stop-opacity="0.22"/>
<stop offset="1" stop-color="white" stop-opacity="0"/>
</linearGradient>
<linearGradient id="paint21_linear_413_10569" x1="917.998" y1="389.278" x2="917.998" y2="577.475" gradientUnits="userSpaceOnUse">
<stop offset="0.014615" stop-color="white"/>
<stop offset="0.478261" stop-color="white" stop-opacity="0.22"/>
<stop offset="1" stop-color="white" stop-opacity="0"/>
</linearGradient>
<linearGradient id="paint22_linear_413_10569" x1="931.998" y1="348.451" x2="931.998" y2="536.648" gradientUnits="userSpaceOnUse">
<stop offset="0.014615" stop-color="white"/>
<stop offset="0.478261" stop-color="white" stop-opacity="0.22"/>
<stop offset="1" stop-color="white" stop-opacity="0"/>
</linearGradient>
<linearGradient id="paint23_linear_413_10569" x1="1017" y1="487.697" x2="1017" y2="639.44" gradientUnits="userSpaceOnUse">
<stop offset="0.014615" stop-color="white"/>
<stop offset="0.478261" stop-color="white" stop-opacity="0.22"/>
<stop offset="1" stop-color="white" stop-opacity="0"/>
</linearGradient>
<linearGradient id="paint24_linear_413_10569" x1="1082" y1="357.184" x2="1082" y2="545.382" gradientUnits="userSpaceOnUse">
<stop offset="0.014615" stop-color="white"/>
<stop offset="0.478261" stop-color="white" stop-opacity="0.22"/>
<stop offset="1" stop-color="white" stop-opacity="0"/>
</linearGradient>
<linearGradient id="paint25_linear_413_10569" x1="1141" y1="396.641" x2="1141" y2="584.839" gradientUnits="userSpaceOnUse">
<stop offset="0.014615" stop-color="white"/>
<stop offset="0.478261" stop-color="white" stop-opacity="0.22"/>
<stop offset="1" stop-color="white" stop-opacity="0"/>
</linearGradient>
<linearGradient id="paint26_linear_413_10569" x1="1155" y1="538.111" x2="1155" y2="726.309" gradientUnits="userSpaceOnUse">
<stop offset="0.014615" stop-color="white"/>
<stop offset="0.478261" stop-color="white" stop-opacity="0.22"/>
<stop offset="1" stop-color="white" stop-opacity="0"/>
</linearGradient>
<linearGradient id="paint27_linear_413_10569" x1="1183" y1="538.111" x2="1183" y2="726.309" gradientUnits="userSpaceOnUse">
<stop offset="0.014615" stop-color="white"/>
<stop offset="0.478261" stop-color="white" stop-opacity="0.22"/>
<stop offset="1" stop-color="white" stop-opacity="0"/>
</linearGradient>
<linearGradient id="paint28_linear_413_10569" x1="1197" y1="371.82" x2="1197" y2="560.018" gradientUnits="userSpaceOnUse">
<stop offset="0.014615" stop-color="white"/>
<stop offset="0.478261" stop-color="white" stop-opacity="0.22"/>
<stop offset="1" stop-color="white" stop-opacity="0"/>
</linearGradient>
<linearGradient id="paint29_linear_413_10569" x1="1211" y1="479.197" x2="1211" y2="667.395" gradientUnits="userSpaceOnUse">
<stop offset="0.014615" stop-color="white"/>
<stop offset="0.478261" stop-color="white" stop-opacity="0.22"/>
<stop offset="1" stop-color="white" stop-opacity="0"/>
</linearGradient>
<linearGradient id="paint30_linear_413_10569" x1="1362" y1="449.74" x2="1362" y2="637.938" gradientUnits="userSpaceOnUse">
<stop offset="0.014615" stop-color="white"/>
<stop offset="0.478261" stop-color="white" stop-opacity="0.22"/>
<stop offset="1" stop-color="white" stop-opacity="0"/>
</linearGradient>
<linearGradient id="paint31_linear_413_10569" x1="1334" y1="552.84" x2="1334" y2="741.038" gradientUnits="userSpaceOnUse">
<stop offset="0.014615" stop-color="white"/>
<stop offset="0.478261" stop-color="white" stop-opacity="0.22"/>
<stop offset="1" stop-color="white" stop-opacity="0"/>
</linearGradient>
<linearGradient id="paint32_linear_413_10569" x1="1308" y1="312.721" x2="1308" y2="500.918" gradientUnits="userSpaceOnUse">
<stop offset="0.014615" stop-color="white"/>
<stop offset="0.478261" stop-color="white" stop-opacity="0.22"/>
<stop offset="1" stop-color="white" stop-opacity="0"/>
</linearGradient>
<linearGradient id="paint33_linear_413_10569" x1="1266" y1="525.019" x2="1266" y2="713.217" gradientUnits="userSpaceOnUse">
<stop offset="0.014615" stop-color="white"/>
<stop offset="0.478261" stop-color="white" stop-opacity="0.22"/>
<stop offset="1" stop-color="white" stop-opacity="0"/>
</linearGradient>
<linearGradient id="paint34_linear_413_10569" x1="1447" y1="374.047" x2="1447" y2="525.79" gradientUnits="userSpaceOnUse">
<stop offset="0.014615" stop-color="white"/>
<stop offset="0.478261" stop-color="white" stop-opacity="0.22"/>
<stop offset="1" stop-color="white" stop-opacity="0"/>
</linearGradient>
<linearGradient id="paint35_linear_413_10569" x1="1034" y1="381.317" x2="1034" y2="533.06" gradientUnits="userSpaceOnUse">
<stop offset="0.014615" stop-color="white"/>
<stop offset="0.478261" stop-color="white" stop-opacity="0.22"/>
<stop offset="1" stop-color="white" stop-opacity="0"/>
</linearGradient>
<linearGradient id="paint36_linear_413_10569" x1="1464" y1="297.546" x2="1464" y2="485.743" gradientUnits="userSpaceOnUse">
<stop offset="0.014615" stop-color="white"/>
<stop offset="0.478261" stop-color="white" stop-opacity="0.22"/>
<stop offset="1" stop-color="white" stop-opacity="0"/>
</linearGradient>
<linearGradient id="paint37_linear_413_10569" x1="1556" y1="313.911" x2="1556" y2="502.109" gradientUnits="userSpaceOnUse">
<stop offset="0.014615" stop-color="white"/>
<stop offset="0.478261" stop-color="white" stop-opacity="0.22"/>
<stop offset="1" stop-color="white" stop-opacity="0"/>
</linearGradient>
<linearGradient id="paint38_linear_413_10569" x1="1585" y1="374.461" x2="1585" y2="562.659" gradientUnits="userSpaceOnUse">
<stop offset="0.014615" stop-color="white"/>
<stop offset="0.478261" stop-color="white" stop-opacity="0.22"/>
<stop offset="1" stop-color="white" stop-opacity="0"/>
</linearGradient>
<linearGradient id="paint39_linear_413_10569" x1="1599" y1="297.546" x2="1599" y2="485.743" gradientUnits="userSpaceOnUse">
<stop offset="0.014615" stop-color="white"/>
<stop offset="0.478261" stop-color="white" stop-opacity="0.22"/>
<stop offset="1" stop-color="white" stop-opacity="0"/>
</linearGradient>
<linearGradient id="paint40_linear_413_10569" x1="1613" y1="374.461" x2="1613" y2="562.659" gradientUnits="userSpaceOnUse">
<stop offset="0.014615" stop-color="white"/>
<stop offset="0.478261" stop-color="white" stop-opacity="0.22"/>
<stop offset="1" stop-color="white" stop-opacity="0"/>
</linearGradient>
<clipPath id="clip0_413_10569">
<rect width="1681" height="1464" fill="white" transform="translate(-1)"/>
</clipPath>
</defs>
</svg>
