<svg width="257" height="224" viewBox="0 0 257 224" fill="none" xmlns="http://www.w3.org/2000/svg">
<g clip-path="url(#clip0_429_20532)">
<path fill-rule="evenodd" clip-rule="evenodd" d="M112.495 340.029L7.01232 291.088C3.14184 288.766 0.0454585 287.992 0.0454171 278.703C0.0453924 249.287 0.0454422 169.555 0.0454343 130.85C0.0454336 127.732 5.4167 124.961 6.79824 124.363L112.495 75.2358C121.499 70.9469 135.983 70.9469 144.596 75.2358L250.292 124.363C251.316 124.85 256.255 126.935 257.045 131.625C257.045 161.04 257.045 250.061 257.045 282.573C256.255 287.229 254.723 288.766 250.292 290.902L144.596 340.029C135.592 343.928 121.107 343.928 112.495 340.029Z" fill="url(#paint0_linear_429_20532)"/>
<path d="M133.259 190.936C138.076 190.854 140.538 190.07 144.736 188.067L245.978 141.34C245.978 141.34 255.406 136.831 257.045 133.142L256.635 286.342L136.128 344.644L133.259 190.936Z" fill="url(#paint1_linear_429_20532)"/>
<path fill-rule="evenodd" clip-rule="evenodd" d="M112.45 188.306L6.75285 139.179C-2.25095 134.89 -2.25095 128.262 6.75285 124.363L112.45 75.2358C121.454 70.9469 135.938 70.9469 144.55 75.2358L250.247 124.363C259.251 128.652 259.251 135.28 250.247 139.179L144.55 188.306C135.546 192.205 121.062 192.205 112.45 188.306Z" fill="url(#paint2_linear_429_20532)"/>
<path fill-rule="evenodd" clip-rule="evenodd" d="M6.75285 124.363C-2.25095 128.262 -2.25095 134.89 6.75285 139.179L112.45 188.306C121.062 192.205 135.546 192.205 144.55 188.306L250.247 139.179C259.251 135.28 259.251 128.652 250.247 124.363L144.55 75.2358C135.938 70.9469 121.454 70.9469 112.45 75.2358L6.75285 124.363ZM249.395 126.172C249.392 126.171 249.39 126.17 249.387 126.168L143.683 77.0381L143.659 77.0261C139.71 75.0599 134.266 74.0192 128.647 74.0192C123.033 74.0192 117.473 75.0582 113.31 77.0414L113.301 77.0455L7.57186 126.188L7.54761 126.198C3.26381 128.053 2 130.181 2 131.625C2 133.104 3.30856 135.321 7.60471 137.369C7.60745 137.371 7.6102 137.372 7.61294 137.373L113.275 186.484C113.278 186.485 113.281 186.487 113.284 186.488C117.251 188.282 122.717 189.23 128.353 189.23C133.978 189.23 139.552 188.285 143.732 186.481L249.428 137.354L249.452 137.344C253.736 135.488 255 133.361 255 131.917C255 130.438 253.691 128.221 249.395 126.172Z" fill="url(#paint3_linear_429_20532)"/>
<path fill-rule="evenodd" clip-rule="evenodd" d="M107.051 7.9684C107.051 7.96899 107.051 7.96953 108.045 8.07143L107.051 7.96953L107.045 8.02035V18.7668H109.045V8.13015C109.047 8.11578 109.05 8.09811 109.052 8.07727C109.062 8.00486 109.079 7.89463 109.104 7.75333C109.155 7.4702 109.24 7.06545 109.377 6.59224C109.652 5.63698 110.124 4.44796 110.906 3.41498C111.679 2.39422 112.742 1.53973 114.231 1.18184C115.727 0.8223 117.773 0.935562 120.557 2.0764L197.079 36.7848C200.207 38.2693 202.901 39.9771 204.84 42.835C206.78 45.6947 208.045 49.8295 208.045 56.3166L208.045 123.233C208.045 127.33 206.851 129.779 205.132 131.054C203.407 132.332 200.89 132.629 197.797 131.826L191.529 129.544L190.845 131.424L197.201 133.737L197.246 133.749C200.679 134.65 203.919 134.443 206.323 132.661C208.74 130.868 210.045 127.684 210.045 123.233L210.045 56.3166C210.045 49.5785 208.731 45.0083 206.495 41.7122C204.259 38.4164 201.183 36.5179 197.928 34.9741L197.92 34.9705L121.35 0.24003L121.333 0.23318C118.272 -1.02422 115.782 -1.24792 113.764 -0.762793C111.735 -0.275302 110.303 0.899089 109.312 2.20778C108.33 3.50426 107.77 4.94526 107.455 6.03766C107.296 6.58828 107.196 7.06177 107.136 7.40092C107.105 7.57076 107.084 7.70769 107.071 7.80464C107.064 7.85314 107.06 7.89171 107.056 7.91946L107.052 7.95291L107.051 7.96336L107.051 7.96699L107.051 7.9684Z" fill="#CCCCCC"/>
<path fill-rule="evenodd" clip-rule="evenodd" d="M67.2087 97.8436L65.0454 17.1505C65.0454 17.1505 68.4431 6.33287 80.479 11.3085L158.066 46.9366C164.632 50.0706 171.045 54.6939 171.045 68.3771L171.045 141.894C171.045 150.739 163.36 154.054 157.012 150.739L78.2062 113.798C71.8582 110.484 67.2087 107.484 67.2087 97.8436Z" fill="#2E5F9B"/>
<path fill-rule="evenodd" clip-rule="evenodd" d="M63.0454 96.4284V20.4328C63.0454 20.4328 64.2937 8.18559 76.4644 13.21L156.042 49.4841C162.682 52.6489 168.045 57.0209 168.045 70.8382L168.045 141.795C168.045 150.727 162.461 154.074 156.042 150.727L74.1661 112.539C67.747 109.192 63.0454 106.163 63.0454 96.4284Z" fill="#1D4267"/>
<path fill-rule="evenodd" clip-rule="evenodd" d="M44.3078 119.327C44.3078 119.332 44.3022 119.336 44.2975 119.333C43.4565 118.936 43.2021 118.561 43.1967 117.716C43.2538 113.406 44.0439 104.574 43.2442 100.47C42.5497 96.9117 40.7443 95.2844 38.7246 94.5828C33.9441 92.927 30.3656 97.3632 25.9206 88.1558C24.7764 85.7849 24.2084 83.465 24.0763 81.3613C23.693 75.282 26.9285 71.0342 30.2237 72.5837C34.1813 74.4447 34.4965 76.0592 37.9615 77.6886C40.7924 79.0199 41.9386 79.0682 42.5185 77.9536C43.0103 77.0148 42.9144 69.4569 42.7732 63.2262C42.6898 59.5487 46.4375 57.1083 49.7663 58.6736L62.4609 64.6431C65.2918 65.9743 68.2507 65.2622 67.8246 62.1856C67.2917 58.3031 65.3466 56.9204 65.3155 52.0556C65.2659 44.323 87.6991 52.3906 87.7717 63.7152C87.7973 67.7088 85.2363 68.8563 85.2592 72.4313C85.2673 73.6984 85.8766 74.5263 86.7456 75.3522C88.2581 76.7873 98.1119 81.2085 103.386 83.5734C105.146 84.3625 106.266 86.1007 106.279 88.0294L106.353 99.5794C106.365 101.446 104.662 103.267 103.032 102.5C100.19 101.163 99.7538 98.6757 96.7984 97.286C93.6218 95.7922 88.7127 96.7416 86.6377 98.044C86.2162 98.3085 85.9185 98.7272 85.6988 99.1736C79.3842 112.002 90.1256 123.001 95.496 123.067C100.96 123.134 105.43 124.477 105.93 128.5V140.259C105.93 143.923 102.103 146.376 98.7612 144.873C94.9851 143.175 91.1799 141.443 87.6539 139.569C84.7935 138.049 82.7422 136.82 82.7284 134.659C82.7081 131.497 85.2842 132.697 85.2598 128.884C85.2275 123.855 78.3843 114.766 71.8425 112.203C67.5247 110.511 65.0295 109.609 62.6495 110.807C60.7927 111.745 59.1068 113.794 59.1294 117.324C59.1496 120.475 62.1044 123.522 62.1183 125.694C62.1257 126.837 61.599 127.447 60.1382 126.76L44.318 119.32C44.3132 119.318 44.3078 119.322 44.3078 119.327Z" fill="url(#paint4_linear_429_20532)"/>
<path fill-rule="evenodd" clip-rule="evenodd" d="M44.3078 119.327C44.3078 119.332 44.3022 119.336 44.2975 119.333C43.4565 118.936 43.2021 118.561 43.1967 117.716C43.2538 113.406 44.0439 104.574 43.2442 100.47C42.5497 96.9117 40.7443 95.2844 38.7246 94.5828C33.9441 92.927 30.3656 97.3632 25.9206 88.1558C24.7764 85.7849 24.2084 83.465 24.0763 81.3613C23.693 75.282 26.9285 71.0342 30.2237 72.5837C34.1813 74.4447 34.4965 76.0592 37.9615 77.6886C40.7924 79.0199 41.9386 79.0682 42.5185 77.9536C43.0103 77.0148 42.9144 69.4569 42.7732 63.2262C42.6898 59.5487 46.4375 57.1083 49.7663 58.6736L62.4609 64.6431C65.2918 65.9743 68.2507 65.2622 67.8246 62.1856C67.2917 58.3031 65.3466 56.9204 65.3155 52.0556C65.2659 44.323 87.6991 52.3906 87.7717 63.7152C87.7973 67.7088 85.2363 68.8563 85.2592 72.4313C85.2673 73.6984 85.8766 74.5263 86.7456 75.3522C88.2581 76.7873 98.1119 81.2085 103.386 83.5734C105.146 84.3625 106.266 86.1007 106.279 88.0294L106.353 99.5794C106.365 101.446 104.662 103.267 103.032 102.5C100.19 101.163 99.7538 98.6757 96.7984 97.286C93.6218 95.7922 88.7127 96.7416 86.6377 98.044C86.2162 98.3085 85.9185 98.7272 85.6988 99.1736C79.3842 112.002 90.1256 123.001 95.496 123.067C100.96 123.134 105.43 124.477 105.93 128.5V140.259C105.93 143.923 102.103 146.376 98.7612 144.873C94.9851 143.175 91.1799 141.443 87.6539 139.569C84.7935 138.049 82.7422 136.82 82.7284 134.659C82.7081 131.497 85.2842 132.697 85.2598 128.884C85.2275 123.855 78.3843 114.766 71.8425 112.203C67.5247 110.511 65.0295 109.609 62.6495 110.807C60.7927 111.745 59.1068 113.794 59.1294 117.324C59.1496 120.475 62.1044 123.522 62.1183 125.694C62.1257 126.837 61.599 127.447 60.1382 126.76L44.318 119.32C44.3132 119.318 44.3078 119.322 44.3078 119.327Z" fill="#F76E73"/>
<path fill-rule="evenodd" clip-rule="evenodd" d="M44.3078 119.327C44.3078 119.332 44.3022 119.336 44.2975 119.333C43.4565 118.936 43.2021 118.561 43.1967 117.716C43.2538 113.406 44.0439 104.574 43.2442 100.47C42.5497 96.9117 40.7443 95.2844 38.7246 94.5828C33.9441 92.927 30.3656 97.3632 25.9206 88.1558C24.7764 85.7849 24.2084 83.465 24.0763 81.3613C23.693 75.282 26.9285 71.0342 30.2237 72.5837C34.1813 74.4447 34.4965 76.0592 37.9615 77.6886C40.7924 79.0199 41.9386 79.0682 42.5185 77.9536C43.0103 77.0148 42.9144 69.4569 42.7732 63.2262C42.6898 59.5487 46.4375 57.1083 49.7663 58.6736L62.4609 64.6431C65.2918 65.9743 68.2507 65.2622 67.8246 62.1856C67.2917 58.3031 65.3466 56.9204 65.3155 52.0556C65.2659 44.323 87.6991 52.3906 87.7717 63.7152C87.7973 67.7088 85.2363 68.8563 85.2592 72.4313C85.2673 73.6984 85.8766 74.5263 86.7456 75.3522C88.2581 76.7873 98.1119 81.2085 103.386 83.5734C105.146 84.3625 106.266 86.1007 106.279 88.0294L106.353 99.5794C106.365 101.446 104.662 103.267 103.032 102.5C100.19 101.163 99.7538 98.6757 96.7984 97.286C93.6218 95.7922 88.7127 96.7416 86.6377 98.044C86.2162 98.3085 85.9185 98.7272 85.6988 99.1736C79.3842 112.002 90.1256 123.001 95.496 123.067C100.96 123.134 105.43 124.477 105.93 128.5V140.259C105.93 143.923 102.103 146.376 98.7612 144.873C94.9851 143.175 91.1799 141.443 87.6539 139.569C84.7935 138.049 82.7422 136.82 82.7284 134.659C82.7081 131.497 85.2842 132.697 85.2598 128.884C85.2275 123.855 78.3843 114.766 71.8425 112.203C67.5247 110.511 65.0295 109.609 62.6495 110.807C60.7927 111.745 59.1068 113.794 59.1294 117.324C59.1496 120.475 62.1044 123.522 62.1183 125.694C62.1257 126.837 61.599 127.447 60.1382 126.76L44.318 119.32C44.3132 119.318 44.3078 119.322 44.3078 119.327Z" fill="url(#paint5_linear_429_20532)" fill-opacity="0.7"/>
<path fill-rule="evenodd" clip-rule="evenodd" d="M42.7769 119.84C42.7769 119.846 42.7713 119.849 42.7666 119.847C41.9256 119.449 41.6712 119.074 41.6658 118.229C41.7229 113.919 42.513 105.087 41.7133 100.983C41.0188 97.4251 39.2133 95.7979 37.1937 95.0963C32.4132 93.4405 28.8347 97.8767 24.3897 88.6692C23.2455 86.2983 22.6774 83.9784 22.5454 81.8748C22.1621 75.7955 25.3976 71.5476 28.6928 73.0971C32.6504 74.9582 32.9656 76.5727 36.4306 78.2021C39.2615 79.5333 40.4077 79.5816 40.9876 78.467C41.4794 77.5282 41.3834 69.9703 41.2422 63.7396C41.1589 60.0621 44.9066 57.6217 48.2353 59.187L60.93 65.1565C63.7609 66.4878 66.7198 65.7756 66.2937 62.699C65.7608 58.8165 63.8157 57.4338 63.7846 52.5691C63.735 44.8364 86.1682 52.904 86.2408 64.2286C86.2664 68.2223 83.7054 69.3697 83.7283 72.9447C83.7364 74.2118 84.3457 75.0397 85.2147 75.8657C86.7274 77.3009 96.5832 81.7229 101.857 84.0876C103.616 84.8763 104.736 86.6131 104.75 88.5408L104.822 98.8984C104.831 100.298 105.215 103.083 104.776 104.138C104.531 104.725 103.684 104.522 103.057 104.416C99.3221 103.785 95.387 99.7644 93.5454 98.8984C90.0068 97.2344 89.5401 99.473 88.0144 100.983C84.8525 104.775 86.0977 117.135 93.9497 120.599C94.634 120.901 95.3973 120.935 96.1421 120.866C99.5077 120.553 103.64 121.017 104.728 125.5L105.439 128.89C105.51 129.227 105.545 129.571 105.545 129.916V136.5L105.249 141.617C105.045 145.151 101.325 147.377 98.1103 145.896C94.0194 144.01 89.8304 142.053 86.123 140.083C83.2626 138.563 81.2113 137.333 81.1975 135.172C81.1772 132.01 83.7533 133.21 83.7288 129.398C83.6966 124.369 76.8533 115.28 70.3116 112.717C65.9938 111.025 63.4986 110.122 61.1186 111.321C59.2618 112.258 57.5759 114.308 57.5985 117.837C57.6187 120.988 60.5735 124.036 60.5874 126.208C60.5947 127.351 60.068 127.96 58.6073 127.273L42.787 119.834C42.7823 119.832 42.7768 119.835 42.7769 119.84Z" fill="url(#paint6_linear_429_20532)"/>
<path fill-rule="evenodd" clip-rule="evenodd" d="M42.7769 119.84C42.7769 119.846 42.7713 119.849 42.7666 119.847C41.9256 119.449 41.6712 119.074 41.6658 118.229C41.7229 113.919 42.513 105.087 41.7133 100.983C41.0188 97.4251 39.2133 95.7979 37.1937 95.0963C32.4132 93.4405 28.8347 97.8767 24.3897 88.6692C23.2455 86.2983 22.6774 83.9784 22.5454 81.8748C22.1621 75.7955 25.3976 71.5476 28.6928 73.0971C32.6504 74.9582 32.9656 76.5727 36.4306 78.2021C39.2615 79.5333 40.4077 79.5816 40.9876 78.467C41.4794 77.5282 41.3834 69.9703 41.2422 63.7396C41.1589 60.0621 44.9066 57.6217 48.2353 59.187L60.93 65.1565C63.7609 66.4878 66.7198 65.7756 66.2937 62.699C65.7608 58.8165 63.8157 57.4338 63.7846 52.5691C63.735 44.8364 86.1682 52.904 86.2408 64.2286C86.2664 68.2223 83.7054 69.3697 83.7283 72.9447C83.7364 74.2118 84.3457 75.0397 85.2147 75.8657C86.7274 77.3009 96.5832 81.7229 101.857 84.0876C103.616 84.8763 104.736 86.6131 104.75 88.5408L104.822 98.8984C104.831 100.298 105.215 103.083 104.776 104.138C104.531 104.725 103.684 104.522 103.057 104.416C99.3221 103.785 95.387 99.7644 93.5454 98.8984C90.0068 97.2344 89.5401 99.473 88.0144 100.983C84.8525 104.775 86.0977 117.135 93.9497 120.599C94.634 120.901 95.3973 120.935 96.1421 120.866C99.5077 120.553 103.64 121.017 104.728 125.5L105.439 128.89C105.51 129.227 105.545 129.571 105.545 129.916V136.5L105.249 141.617C105.045 145.151 101.325 147.377 98.1103 145.896C94.0194 144.01 89.8304 142.053 86.123 140.083C83.2626 138.563 81.2113 137.333 81.1975 135.172C81.1772 132.01 83.7533 133.21 83.7288 129.398C83.6966 124.369 76.8533 115.28 70.3116 112.717C65.9938 111.025 63.4986 110.122 61.1186 111.321C59.2618 112.258 57.5759 114.308 57.5985 117.837C57.6187 120.988 60.5735 124.036 60.5874 126.208C60.5947 127.351 60.068 127.96 58.6073 127.273L42.787 119.834C42.7823 119.832 42.7768 119.835 42.7769 119.84Z" fill="#BB1C22"/>
<path fill-rule="evenodd" clip-rule="evenodd" d="M42.7769 119.84C42.7769 119.846 42.7713 119.849 42.7666 119.847C41.9256 119.449 41.6712 119.074 41.6658 118.229C41.7229 113.919 42.513 105.087 41.7133 100.983C41.0188 97.4251 39.2133 95.7979 37.1937 95.0963C32.4132 93.4405 28.8347 97.8767 24.3897 88.6692C23.2455 86.2983 22.6774 83.9784 22.5454 81.8748C22.1621 75.7955 25.3976 71.5476 28.6928 73.0971C32.6504 74.9582 32.9656 76.5727 36.4306 78.2021C39.2615 79.5333 40.4077 79.5816 40.9876 78.467C41.4794 77.5282 41.3834 69.9703 41.2422 63.7396C41.1589 60.0621 44.9066 57.6217 48.2353 59.187L60.93 65.1565C63.7609 66.4878 66.7198 65.7756 66.2937 62.699C65.7608 58.8165 63.8157 57.4338 63.7846 52.5691C63.735 44.8364 86.1682 52.904 86.2408 64.2286C86.2664 68.2223 83.7054 69.3697 83.7283 72.9447C83.7364 74.2118 84.3457 75.0397 85.2147 75.8657C86.7274 77.3009 96.5832 81.7229 101.857 84.0876C103.616 84.8763 104.736 86.6131 104.75 88.5408L104.822 98.8984C104.831 100.298 105.215 103.083 104.776 104.138C104.531 104.725 103.684 104.522 103.057 104.416C99.3221 103.785 95.387 99.7644 93.5454 98.8984C90.0068 97.2344 89.5401 99.473 88.0144 100.983C84.8525 104.775 86.0977 117.135 93.9497 120.599C94.634 120.901 95.3973 120.935 96.1421 120.866C99.5077 120.553 103.64 121.017 104.728 125.5L105.439 128.89C105.51 129.227 105.545 129.571 105.545 129.916V136.5L105.249 141.617C105.045 145.151 101.325 147.377 98.1103 145.896C94.0194 144.01 89.8304 142.053 86.123 140.083C83.2626 138.563 81.2113 137.333 81.1975 135.172C81.1772 132.01 83.7533 133.21 83.7288 129.398C83.6966 124.369 76.8533 115.28 70.3116 112.717C65.9938 111.025 63.4986 110.122 61.1186 111.321C59.2618 112.258 57.5759 114.308 57.5985 117.837C57.6187 120.988 60.5735 124.036 60.5874 126.208C60.5947 127.351 60.068 127.96 58.6073 127.273L42.787 119.834C42.7823 119.832 42.7768 119.835 42.7769 119.84Z" fill="url(#paint7_linear_429_20532)" fill-opacity="0.8"/>
<path fill-rule="evenodd" clip-rule="evenodd" d="M138.822 169.327C138.822 169.332 138.816 169.336 138.811 169.333C137.97 168.936 137.716 168.561 137.71 167.716C137.767 163.406 138.558 154.574 137.758 150.47C137.063 146.912 135.258 145.284 133.238 144.583C128.458 142.927 124.879 147.363 120.434 138.156C119.29 135.785 118.722 133.465 118.59 131.361C118.207 125.282 121.442 121.034 124.737 122.584C128.695 124.445 129.01 126.059 132.475 127.689C135.306 129.02 136.452 129.068 137.032 127.954C137.524 127.015 137.428 119.457 137.287 113.226C137.204 109.549 140.951 107.108 144.28 108.674L156.975 114.643C159.805 115.974 162.764 115.262 162.338 112.186C161.805 108.303 159.86 106.92 159.829 102.056C159.78 94.323 182.213 102.391 182.285 113.715C182.311 117.709 179.75 118.856 179.773 122.431C179.781 123.698 180.39 124.526 181.259 125.352C182.772 126.787 192.626 131.209 197.9 133.573C199.66 134.362 200.78 136.101 200.792 138.029L200.866 149.579C200.878 151.446 199.586 154.109 197.955 153.342C195.113 152.006 194.268 148.676 191.312 147.286C187.773 145.622 184.609 146.875 183.083 148.385C177.43 154.011 181.455 169.044 190.01 173.067C195.683 175.735 195.796 173.017 199.451 176.054C200.513 176.936 201.023 178.306 200.982 179.686L200.666 190.51C200.561 194.11 196.786 196.451 193.501 194.975C189.651 193.245 185.764 191.481 182.168 189.569C179.307 188.049 177.256 186.82 177.242 184.659C177.222 181.497 179.798 182.697 179.773 178.884C179.741 173.855 172.898 164.766 166.356 162.203C162.038 160.511 159.543 159.609 157.163 160.807C155.306 161.745 153.62 163.794 153.643 167.324C153.663 170.475 156.618 173.522 156.632 175.694C156.639 176.837 156.113 177.447 154.652 176.76L138.832 169.32C138.827 169.318 138.821 169.322 138.822 169.327Z" fill="url(#paint8_linear_429_20532)"/>
<path fill-rule="evenodd" clip-rule="evenodd" d="M138.822 169.327C138.822 169.332 138.816 169.336 138.811 169.333C137.97 168.936 137.716 168.561 137.71 167.716C137.767 163.406 138.558 154.574 137.758 150.47C137.063 146.912 135.258 145.284 133.238 144.583C128.458 142.927 124.879 147.363 120.434 138.156C119.29 135.785 118.722 133.465 118.59 131.361C118.207 125.282 121.442 121.034 124.737 122.584C128.695 124.445 129.01 126.059 132.475 127.689C135.306 129.02 136.452 129.068 137.032 127.954C137.524 127.015 137.428 119.457 137.287 113.226C137.204 109.549 140.951 107.108 144.28 108.674L156.975 114.643C159.805 115.974 162.764 115.262 162.338 112.186C161.805 108.303 159.86 106.92 159.829 102.056C159.78 94.323 182.213 102.391 182.285 113.715C182.311 117.709 179.75 118.856 179.773 122.431C179.781 123.698 180.39 124.526 181.259 125.352C182.772 126.787 192.626 131.209 197.9 133.573C199.66 134.362 200.78 136.101 200.792 138.029L200.866 149.579C200.878 151.446 199.586 154.109 197.955 153.342C195.113 152.006 194.268 148.676 191.312 147.286C187.773 145.622 184.609 146.875 183.083 148.385C177.43 154.011 181.455 169.044 190.01 173.067C195.683 175.735 195.796 173.017 199.451 176.054C200.513 176.936 201.023 178.306 200.982 179.686L200.666 190.51C200.561 194.11 196.786 196.451 193.501 194.975C189.651 193.245 185.764 191.481 182.168 189.569C179.307 188.049 177.256 186.82 177.242 184.659C177.222 181.497 179.798 182.697 179.773 178.884C179.741 173.855 172.898 164.766 166.356 162.203C162.038 160.511 159.543 159.609 157.163 160.807C155.306 161.745 153.62 163.794 153.643 167.324C153.663 170.475 156.618 173.522 156.632 175.694C156.639 176.837 156.113 177.447 154.652 176.76L138.832 169.32C138.827 169.318 138.821 169.322 138.822 169.327Z" fill="#F76E73"/>
<path fill-rule="evenodd" clip-rule="evenodd" d="M138.822 169.327C138.822 169.332 138.816 169.336 138.811 169.333C137.97 168.936 137.716 168.561 137.71 167.716C137.767 163.406 138.558 154.574 137.758 150.47C137.063 146.912 135.258 145.284 133.238 144.583C128.458 142.927 124.879 147.363 120.434 138.156C119.29 135.785 118.722 133.465 118.59 131.361C118.207 125.282 121.442 121.034 124.737 122.584C128.695 124.445 129.01 126.059 132.475 127.689C135.306 129.02 136.452 129.068 137.032 127.954C137.524 127.015 137.428 119.457 137.287 113.226C137.204 109.549 140.951 107.108 144.28 108.674L156.975 114.643C159.805 115.974 162.764 115.262 162.338 112.186C161.805 108.303 159.86 106.92 159.829 102.056C159.78 94.323 182.213 102.391 182.285 113.715C182.311 117.709 179.75 118.856 179.773 122.431C179.781 123.698 180.39 124.526 181.259 125.352C182.772 126.787 192.626 131.209 197.9 133.573C199.66 134.362 200.78 136.101 200.792 138.029L200.866 149.579C200.878 151.446 199.586 154.109 197.955 153.342C195.113 152.006 194.268 148.676 191.312 147.286C187.773 145.622 184.609 146.875 183.083 148.385C177.43 154.011 181.455 169.044 190.01 173.067C195.683 175.735 195.796 173.017 199.451 176.054C200.513 176.936 201.023 178.306 200.982 179.686L200.666 190.51C200.561 194.11 196.786 196.451 193.501 194.975C189.651 193.245 185.764 191.481 182.168 189.569C179.307 188.049 177.256 186.82 177.242 184.659C177.222 181.497 179.798 182.697 179.773 178.884C179.741 173.855 172.898 164.766 166.356 162.203C162.038 160.511 159.543 159.609 157.163 160.807C155.306 161.745 153.62 163.794 153.643 167.324C153.663 170.475 156.618 173.522 156.632 175.694C156.639 176.837 156.113 177.447 154.652 176.76L138.832 169.32C138.827 169.318 138.821 169.322 138.822 169.327Z" fill="url(#paint9_linear_429_20532)" fill-opacity="0.7"/>
<path fill-rule="evenodd" clip-rule="evenodd" d="M137.308 169.84C137.308 169.846 137.302 169.849 137.297 169.847C136.456 169.449 136.202 169.074 136.197 168.229C136.254 163.919 137.044 155.087 136.244 150.983C135.55 147.425 133.744 145.798 131.724 145.096C126.944 143.44 123.365 147.877 118.92 138.669C117.776 136.298 117.208 133.978 117.076 131.875C116.693 125.795 119.928 121.548 123.223 123.097C127.181 124.958 127.496 126.573 130.961 128.202C133.792 129.533 134.938 129.582 135.518 128.467C136.01 127.528 135.914 119.97 135.773 113.74C135.69 110.062 139.437 107.622 142.766 109.187L155.461 115.157C158.292 116.488 161.251 115.776 160.824 112.699C160.291 108.816 158.346 107.434 158.315 102.569C158.266 94.8364 180.699 102.904 180.772 114.229C180.797 118.222 178.236 119.37 178.259 122.945C178.267 124.212 178.876 125.04 179.745 125.866C181.258 127.301 191.112 131.722 196.386 134.087C198.146 134.876 199.266 136.614 199.278 138.543L199.353 150.093C199.364 151.959 198.072 154.623 196.441 153.856C193.599 152.519 192.754 149.189 189.798 147.799C186.26 146.135 183.095 147.388 181.569 148.898C175.916 154.524 179.941 169.557 188.496 173.58C194.169 176.248 194.282 173.53 197.937 176.567C198.999 177.449 199.509 178.819 199.468 180.199L199.152 191.024C199.047 194.624 195.272 196.964 191.987 195.488C188.137 193.758 184.25 191.994 180.654 190.083C177.793 188.563 175.742 187.333 175.728 185.172C175.708 182.01 178.284 183.21 178.26 179.398C178.227 174.369 171.384 165.28 164.842 162.717C160.524 161.025 158.029 160.122 155.649 161.321C153.793 162.258 152.107 164.308 152.129 167.837C152.149 170.988 155.104 174.036 155.118 176.208C155.125 177.351 154.599 177.96 153.138 177.273L137.318 169.834C137.313 169.832 137.308 169.835 137.308 169.84Z" fill="url(#paint10_linear_429_20532)"/>
<path fill-rule="evenodd" clip-rule="evenodd" d="M137.308 169.84C137.308 169.846 137.302 169.849 137.297 169.847C136.456 169.449 136.202 169.074 136.197 168.229C136.254 163.919 137.044 155.087 136.244 150.983C135.55 147.425 133.744 145.798 131.724 145.096C126.944 143.44 123.365 147.877 118.92 138.669C117.776 136.298 117.208 133.978 117.076 131.875C116.693 125.795 119.928 121.548 123.223 123.097C127.181 124.958 127.496 126.573 130.961 128.202C133.792 129.533 134.938 129.582 135.518 128.467C136.01 127.528 135.914 119.97 135.773 113.74C135.69 110.062 139.437 107.622 142.766 109.187L155.461 115.157C158.292 116.488 161.251 115.776 160.824 112.699C160.291 108.816 158.346 107.434 158.315 102.569C158.266 94.8364 180.699 102.904 180.772 114.229C180.797 118.222 178.236 119.37 178.259 122.945C178.267 124.212 178.876 125.04 179.745 125.866C181.258 127.301 191.112 131.722 196.386 134.087C198.146 134.876 199.266 136.614 199.278 138.543L199.353 150.093C199.364 151.959 198.072 154.623 196.441 153.856C193.599 152.519 192.754 149.189 189.798 147.799C186.26 146.135 183.095 147.388 181.569 148.898C175.916 154.524 179.941 169.557 188.496 173.58C194.169 176.248 194.282 173.53 197.937 176.567C198.999 177.449 199.509 178.819 199.468 180.199L199.152 191.024C199.047 194.624 195.272 196.964 191.987 195.488C188.137 193.758 184.25 191.994 180.654 190.083C177.793 188.563 175.742 187.333 175.728 185.172C175.708 182.01 178.284 183.21 178.26 179.398C178.227 174.369 171.384 165.28 164.842 162.717C160.524 161.025 158.029 160.122 155.649 161.321C153.793 162.258 152.107 164.308 152.129 167.837C152.149 170.988 155.104 174.036 155.118 176.208C155.125 177.351 154.599 177.96 153.138 177.273L137.318 169.834C137.313 169.832 137.308 169.835 137.308 169.84Z" fill="#BB1C22"/>
<path fill-rule="evenodd" clip-rule="evenodd" d="M137.308 169.84C137.308 169.846 137.302 169.849 137.297 169.847C136.456 169.449 136.202 169.074 136.197 168.229C136.254 163.919 137.044 155.087 136.244 150.983C135.55 147.425 133.744 145.798 131.724 145.096C126.944 143.44 123.365 147.877 118.92 138.669C117.776 136.298 117.208 133.978 117.076 131.875C116.693 125.795 119.928 121.548 123.223 123.097C127.181 124.958 127.496 126.573 130.961 128.202C133.792 129.533 134.938 129.582 135.518 128.467C136.01 127.528 135.914 119.97 135.773 113.74C135.69 110.062 139.437 107.622 142.766 109.187L155.461 115.157C158.292 116.488 161.251 115.776 160.824 112.699C160.291 108.816 158.346 107.434 158.315 102.569C158.266 94.8364 180.699 102.904 180.772 114.229C180.797 118.222 178.236 119.37 178.259 122.945C178.267 124.212 178.876 125.04 179.745 125.866C181.258 127.301 191.112 131.722 196.386 134.087C198.146 134.876 199.266 136.614 199.278 138.543L199.353 150.093C199.364 151.959 198.072 154.623 196.441 153.856C193.599 152.519 192.754 149.189 189.798 147.799C186.26 146.135 183.095 147.388 181.569 148.898C175.916 154.524 179.941 169.557 188.496 173.58C194.169 176.248 194.282 173.53 197.937 176.567C198.999 177.449 199.509 178.819 199.468 180.199L199.152 191.024C199.047 194.624 195.272 196.964 191.987 195.488C188.137 193.758 184.25 191.994 180.654 190.083C177.793 188.563 175.742 187.333 175.728 185.172C175.708 182.01 178.284 183.21 178.26 179.398C178.227 174.369 171.384 165.28 164.842 162.717C160.524 161.025 158.029 160.122 155.649 161.321C153.793 162.258 152.107 164.308 152.129 167.837C152.149 170.988 155.104 174.036 155.118 176.208C155.125 177.351 154.599 177.96 153.138 177.273L137.318 169.834C137.313 169.832 137.308 169.835 137.308 169.84Z" fill="url(#paint11_linear_429_20532)" fill-opacity="0.8"/>
<path fill-rule="evenodd" clip-rule="evenodd" d="M86.5517 112.254C86.5145 112.083 86.4976 111.89 86.4962 111.668C86.5002 111.366 86.5075 111.044 86.5173 110.705L85.5177 110.676C85.5078 111.019 85.5004 111.347 85.4963 111.655L85.4962 111.665L85.4962 111.675C85.4979 111.94 85.518 112.207 85.5746 112.467L86.5517 112.254ZM86.5892 108.782L85.5902 108.738C85.6168 108.123 85.647 107.476 85.6782 106.809L86.6771 106.855C86.6459 107.523 86.6158 108.168 86.5892 108.782ZM86.766 104.93L85.767 104.885C85.7952 104.252 85.8224 103.61 85.8467 102.966L86.846 103.004C86.8215 103.651 86.7942 104.296 86.766 104.93ZM86.9086 101.077L85.909 101.05C85.926 100.406 85.9383 99.7667 85.9441 99.1403L86.9441 99.1496C86.9382 99.7827 86.9258 100.428 86.9086 101.077ZM86.939 97.2221L85.9392 97.2384C85.9284 96.579 85.9073 95.9469 85.8736 95.3514L86.872 95.2949C86.9067 95.9063 86.9281 96.5522 86.939 97.2221ZM86.7014 93.377L85.7097 93.5056C85.6683 93.1861 85.6211 92.8899 85.5681 92.6187C85.5 92.2713 85.4222 91.9439 85.3357 91.6355L86.2986 91.3656C86.3926 91.7009 86.4765 92.0542 86.5494 92.4264C86.6073 92.7222 86.6577 93.04 86.7014 93.377ZM85.5056 89.3381L84.621 89.8045C84.2959 89.1878 83.9236 88.6852 83.5213 88.2737L84.2364 87.5747C84.7089 88.058 85.1374 88.6397 85.5056 89.3381ZM82.489 86.2857L82.0302 87.1742C81.7496 87.0293 81.4588 86.9066 81.1601 86.8032C80.8465 86.695 80.5377 86.6133 80.2321 86.5523L80.4279 85.5717C80.7754 85.641 81.1282 85.7343 81.4871 85.8582C81.8277 85.976 82.1628 86.1172 82.489 86.2857ZM78.2453 85.3898L78.2542 86.3898C77.7912 86.3939 77.36 86.4168 76.9107 86.4407C76.6473 86.4547 76.3778 86.4691 76.0919 86.4802L76.0531 85.4809C76.3085 85.471 76.5653 85.4574 76.8239 85.4438C77.2909 85.4191 77.764 85.3941 78.2453 85.3898ZM73.8652 85.388L73.7022 86.3747C72.9128 86.2442 72.1135 85.9892 71.31 85.5239L71.8111 84.6585C72.4979 85.0562 73.1801 85.2748 73.8652 85.388ZM70.1133 83.2841L69.3868 83.9713C68.8968 83.4533 68.4124 82.8398 67.9297 82.1165L68.7615 81.5615C69.2179 82.2454 69.6678 82.8133 70.1133 83.2841ZM67.6425 79.6684L66.7588 80.1366C66.5884 79.8148 66.4174 79.4774 66.2459 79.1234C66.0942 78.8102 65.9509 78.4974 65.8161 78.1856L66.734 77.7887C66.8631 78.0873 67.0003 78.387 67.1458 78.6873C67.3124 79.0311 67.4779 79.3579 67.6425 79.6684ZM66.0317 75.9419L65.0818 76.2543C64.8602 75.5808 64.6767 74.9141 64.5289 74.2573L65.5044 74.0377C65.6452 74.663 65.8201 75.2987 66.0317 75.9419ZM65.1695 72.0905L64.1765 72.2081C64.135 71.8579 64.1037 71.5116 64.0821 71.1697C64.062 70.8517 64.0503 70.5377 64.0466 70.2279L65.0466 70.2162C65.05 70.5087 65.0611 70.8056 65.0801 71.1065C65.1005 71.4301 65.1302 71.7582 65.1695 72.0905ZM65.1222 68.4398L64.1271 68.3412C64.1918 67.6881 64.2941 67.0602 64.4304 66.4624L65.4054 66.6847C65.2787 67.2404 65.183 67.8269 65.1222 68.4398ZM65.9239 64.9861L64.9929 64.6212C65.2429 63.9832 65.5389 63.3933 65.8759 62.8623L66.7202 63.3982C66.4205 63.8703 66.1528 64.4022 65.9239 64.9861ZM67.8536 62.0331L67.185 61.2895C67.7425 60.7882 68.371 60.4022 69.0566 60.1768L69.369 61.1267C68.8338 61.3027 68.3236 61.6105 67.8536 62.0331ZM71.1235 61.0283L71.3288 60.0496C71.6874 60.1248 72.0419 60.2445 72.3897 60.4075C72.6756 60.5414 72.946 60.6746 73.2028 60.8072L72.7439 61.6957C72.4989 61.5692 72.24 61.4416 71.9656 61.3131C71.6839 61.1811 71.4026 61.0869 71.1235 61.0283ZM74.2479 62.5611L74.7882 61.7196C75.3524 62.0819 75.8351 62.4363 76.2748 62.7813L75.6576 63.568C75.2367 63.2378 74.7799 62.9027 74.2479 62.5611ZM76.9989 64.6668L77.6345 63.8949C78.0567 64.2425 78.4729 64.573 78.9434 64.8985L78.3744 65.7208C77.8704 65.3721 77.4295 65.0214 76.9989 64.6668ZM79.8551 66.6211L80.3246 65.7381C80.5524 65.8592 80.7955 65.9809 81.0566 66.1032C81.5174 66.3191 81.931 66.5009 82.3029 66.6507L81.9294 67.5783C81.5363 67.42 81.1053 67.2303 80.6324 67.0088C80.3564 66.8795 80.0982 66.7503 79.8551 66.6211ZM84.6675 68.1499L84.4804 67.1676C84.613 67.1423 84.7145 67.0941 84.8408 66.8592C84.8348 66.8773 84.8366 66.8677 84.8502 66.8414C84.847 66.8475 84.8439 66.8534 84.8408 66.8592C84.8417 66.8564 84.8428 66.8529 84.8441 66.8487C84.8527 66.8205 84.8647 66.7744 84.8786 66.7064C84.9065 66.5695 84.9349 66.3803 84.9618 66.135L85.4588 66.1895M84.6675 68.1499C85.1581 68.0565 85.4922 67.7723 85.7366 67.3044C85.8262 67.1339 85.8985 66.7677 85.9559 66.244M90.41 114.704L89.9858 115.609L91.7577 116.439L92.1819 115.534L90.41 114.704ZM93.9539 116.364L93.5297 117.269L95.3017 118.099L95.7259 117.194L93.9539 116.364ZM97.4978 118.024L97.0737 118.929L98.8456 119.759L99.2698 118.854L97.4978 118.024ZM101.042 119.684L100.618 120.589L102.39 121.419L102.814 120.514L101.042 119.684ZM104.586 121.344L104.162 122.249L105.048 122.664C105.389 122.824 105.72 122.944 106.039 123.013L106.251 122.036C106.023 121.987 105.764 121.896 105.472 121.759L104.586 121.344ZM107.581 121.388L108.53 121.705C108.652 121.338 108.692 120.944 108.69 120.564C108.687 120.203 108.632 119.848 108.547 119.505L107.576 119.746C107.647 120.032 107.688 120.307 107.69 120.57C107.692 120.883 107.658 121.159 107.581 121.388ZM106.983 118.189L107.887 117.76C107.658 117.278 107.396 116.78 107.138 116.291L107.109 116.236L106.224 116.702C106.232 116.718 106.241 116.734 106.249 116.749C106.51 117.245 106.763 117.726 106.983 118.189ZM105.465 115.215L106.367 114.782C106.135 114.3 105.927 113.821 105.759 113.345L104.816 113.678C105 114.198 105.224 114.712 105.465 115.215ZM104.406 112.063C104.366 111.786 104.344 111.509 104.342 111.231C104.339 110.852 104.355 110.489 104.386 110.14L105.382 110.23C105.354 110.545 105.34 110.877 105.342 111.225C105.343 111.453 105.362 111.685 105.395 111.92L104.406 112.063ZM104.828 108.006L105.774 108.329C105.995 107.681 106.289 107.125 106.629 106.652L105.818 106.068C105.419 106.622 105.08 107.266 104.828 108.006ZM107.352 104.527L107.939 105.337C108.196 105.151 108.463 104.99 108.734 104.854C108.963 104.739 109.19 104.646 109.418 104.573L109.112 103.621C108.833 103.711 108.558 103.823 108.285 103.96C107.967 104.12 107.655 104.308 107.352 104.527ZM110.873 103.349L110.879 104.349C111.358 104.346 111.877 104.402 112.454 104.517L112.649 103.536C112.021 103.411 111.434 103.345 110.873 103.349ZM114.379 103.985L114.083 104.941C114.596 105.1 115.143 105.288 115.731 105.502L116.073 104.562C115.475 104.344 114.912 104.151 114.379 103.985ZM121.351 106.922L120.825 107.772C121.373 108.111 121.919 108.486 122.46 108.892L123.06 108.092C122.497 107.67 121.926 107.278 121.351 106.922ZM124.67 109.399L124.012 110.152C124.511 110.588 125 111.047 125.477 111.523L126.183 110.815C125.692 110.324 125.186 109.851 124.67 109.399ZM119.531 105.928L119.104 106.832C118.807 106.692 118.511 106.564 118.218 106.45C117.933 106.338 117.656 106.231 117.386 106.126L117.747 105.194C118.018 105.298 118.296 105.407 118.581 105.518C118.897 105.641 119.214 105.778 119.531 105.928ZM88.6516 113.88L88.6503 113.879C88.6408 113.9 88.6307 113.92 88.6198 113.94L88.6094 113.935L88.638 113.874L88.1988 113.668L88.1975 113.667L87.752 113.459C87.7507 113.458 87.7494 113.458 87.7481 113.458L87.7486 113.466L87.7416 113.462C87.741 113.463 87.7407 113.464 87.7407 113.466C87.7407 113.467 87.7403 113.469 87.7397 113.47L87.7453 113.473L87.7493 113.475L87.7816 113.957C87.7749 113.957 87.7682 113.957 87.7615 113.958L87.7331 113.474C87.7318 113.474 87.7304 113.474 87.7291 113.473C87.7242 113.471 87.7192 113.468 87.7143 113.466C87.5565 113.391 87.4174 113.317 87.2951 113.241C87.2946 113.241 87.2941 113.24 87.2936 113.24C87.2662 113.223 87.2397 113.206 87.2139 113.188L86.6555 114.018C86.8551 114.152 87.0736 114.27 87.3031 114.378C87.3696 114.409 87.4382 114.432 87.5076 114.448L88.2138 114.779L88.5988 113.957L88.6094 113.963C88.6247 113.936 88.6388 113.908 88.6516 113.88ZM87.7863 114.027L87.8151 114.456C87.807 114.456 87.799 114.457 87.7909 114.457L87.765 114.017L87.7863 114.027ZM87.1286 113.128C87.1191 113.121 87.1098 113.114 87.1006 113.107L86.8699 112.976C86.8683 112.979 86.8667 112.982 86.8651 112.985L87.1286 113.128ZM86.8651 112.985C86.7848 113.13 86.74 113.296 86.7407 113.469C86.74 113.297 86.7837 113.13 86.8634 112.984L86.8651 112.985ZM114.104 50.7659C114.14 50.4472 114.134 50.0959 114.081 49.7116C114.035 49.3746 113.979 49.0544 113.915 48.748L112.936 48.952C112.995 49.2364 113.047 49.5341 113.09 49.8481L113.09 49.8493C113.134 50.1617 113.136 50.4283 113.111 50.6533L114.104 50.7659ZM113.391 46.8693L112.445 47.1954C112.257 46.6481 112.05 46.1314 111.832 45.5881C111.809 45.5314 111.787 45.4744 111.764 45.4171L112.692 45.0458C112.715 45.1033 112.738 45.1607 112.761 45.2181C112.977 45.7582 113.193 46.2975 113.391 46.8693ZM112.013 43.215L111.062 43.5225C110.863 42.9076 110.685 42.2458 110.549 41.5067L111.532 41.325C111.66 42.0153 111.826 42.6347 112.013 43.215ZM111.301 39.3853L110.303 39.4434C110.284 39.1145 110.273 38.7725 110.271 38.4157C110.268 37.9851 110.316 37.5735 110.419 37.185L111.386 37.4414C111.308 37.7354 111.268 38.0577 111.271 38.4093C111.273 38.7493 111.283 39.0741 111.301 39.3853ZM112.457 35.8766L111.866 35.0701C112.489 34.6129 113.24 34.3265 114.046 34.1666L114.241 35.1475C113.537 35.287 112.933 35.5274 112.457 35.8766ZM113.12 52.5624L112.524 51.7593C112.211 51.9918 111.738 52.1515 111.108 52.1662L111.132 53.166C111.909 53.1478 112.599 52.9491 113.12 52.5624ZM109.055 52.8402C108.729 52.7358 108.401 52.6068 108.073 52.4535L107.13 52.0118L107.554 51.1063L108.497 51.548C108.787 51.6836 109.076 51.7968 109.36 51.8878L109.055 52.8402ZM105.244 51.1284L105.669 50.2229L103.783 49.3395L103.358 50.245L105.244 51.1284ZM101.473 49.3616L101.897 48.456L100.011 47.5726L99.5867 48.4782L101.473 49.3616ZM97.7008 47.5948L98.1249 46.6892L96.239 45.8058L95.8148 46.7114L97.7008 47.5948ZM93.9289 45.828L94.3531 44.9224L93.4102 44.4807C92.9449 44.2628 92.4694 44.1091 91.9923 44.0161L91.801 44.9977C92.1972 45.0749 92.5945 45.2029 92.986 45.3863L93.9289 45.828ZM89.3347 45.1586L89.0173 44.2104C88.0623 44.5301 87.2017 45.091 86.5238 45.8357L87.2633 46.5088C87.8263 45.8904 88.5415 45.4242 89.3347 45.1586ZM136.122 65.0242C135.744 64.7832 135.455 64.5735 135.274 64.402C135.037 64.1776 134.817 63.953 134.62 63.7213L135.382 63.0736C135.548 63.2695 135.741 63.4673 135.961 63.6758C136.072 63.7803 136.295 63.9489 136.659 64.181L136.122 65.0242ZM133.725 62.0778L134.694 61.8302C134.641 61.6247 134.61 61.3965 134.609 61.1366C134.607 60.8738 134.62 60.6267 134.644 60.3925L133.649 60.2892C133.621 60.5602 133.607 60.844 133.609 61.143C133.611 61.4803 133.652 61.7897 133.725 62.0778ZM134.021 58.6273L134.966 58.9531C135.134 58.4653 135.35 58.0035 135.597 57.5155L134.704 57.0645C134.45 57.5667 134.211 58.0757 134.021 58.6273ZM158.228 89.1003L158.235 90.0933C158.237 90.471 158.267 90.9613 158.304 91.5322L157.306 91.5969C157.27 91.0329 157.238 90.5126 157.235 90.1003L157.228 89.1073L158.228 89.1003ZM157.214 87.1212L158.214 87.1142L158.2 85.1282L157.2 85.1352L157.214 87.1212ZM157.186 83.1491L158.186 83.1421L158.172 81.1561L157.172 81.1631L157.186 83.1491ZM157.158 79.177L158.158 79.17L158.151 78.177C158.147 77.6047 158.062 77.0453 157.903 76.5131L156.945 76.7988C157.077 77.2412 157.148 77.7068 157.151 78.184L157.158 79.177ZM155.436 74.4741L156.085 73.7141C155.662 73.3524 155.184 73.0475 154.659 72.8132L153.696 72.3828L153.288 73.2958C153.526 73.4022 153.757 73.5055 153.981 73.6054L154.252 73.7262C154.688 73.921 155.085 74.1742 155.436 74.4741ZM151.355 72.4302L151.764 71.5179C151.143 71.2392 150.497 70.9483 149.836 70.6493L149.424 71.5604C150.086 71.86 150.733 72.1512 151.355 72.4302ZM137.815 93.3067L138.692 93.7882C138.835 93.5263 138.989 93.2975 139.149 93.1015C139.396 92.8545 139.615 92.6001 139.812 92.3584L139.037 91.7264C138.841 91.966 138.636 92.2033 138.41 92.4264C138.193 92.6855 137.994 92.9804 137.815 93.3067ZM140.245 90.2875L140.942 91.0047C141.283 90.6733 141.595 90.4972 141.997 90.4541L141.891 89.4598C141.201 89.5337 140.692 89.8535 140.245 90.2875ZM143.733 89.7412C144.004 89.8357 144.294 89.9546 144.605 90.1003C144.868 90.2237 145.169 90.4043 145.504 90.6272L144.949 91.4593C144.632 91.2478 144.378 91.0984 144.18 91.0059C143.896 90.8726 143.638 90.7672 143.403 90.6853L143.733 89.7412ZM147.195 91.8502C147.23 91.8765 147.265 91.9029 147.301 91.9295C147.795 92.2994 148.322 92.6942 148.874 93.0898L148.291 93.9025C147.73 93.5006 147.195 93.1 146.703 92.7311L146.595 92.6507L147.195 91.8502ZM150.602 94.2597L150.069 95.106C150.683 95.4926 151.323 95.8607 151.978 96.1826L152.419 95.285C151.803 94.9822 151.194 94.6325 150.602 94.2597ZM154.358 96.0504L154.082 97.0114C154.458 97.1197 154.84 97.206 155.226 97.2644C155.308 97.2769 155.373 97.2885 155.449 97.302C155.513 97.3134 155.585 97.3261 155.68 97.3418L155.843 96.3551C155.775 96.344 155.709 96.3322 155.643 96.3206C155.551 96.3045 155.461 96.2887 155.375 96.2757C155.037 96.2245 154.698 96.1481 154.358 96.0504ZM156.781 96.3544L157.114 97.2973C157.472 97.1711 157.806 96.9224 158.018 96.5206C158.303 95.9795 158.382 95.2561 158.408 94.6342L157.409 94.5924C157.383 95.207 157.305 95.7289 157.133 96.0543C157.052 96.2088 156.929 96.3022 156.781 96.3544ZM157.764 118.451C157.895 118.795 158.007 119.16 158.101 119.544L158.105 119.559L158.31 120.534L157.332 120.74L157.129 119.78C157.045 119.434 156.944 119.11 156.829 118.805L157.764 118.451ZM155.832 117.037L156.612 116.411C156.092 115.765 155.487 115.25 154.827 114.847L154.306 115.7C154.874 116.048 155.39 116.487 155.832 117.037ZM152.435 114.906L152.702 113.943C151.981 113.743 151.239 113.627 150.506 113.57L150.428 114.567C151.11 114.62 151.787 114.727 152.435 114.906ZM148.39 114.547L148.339 113.548C147.978 113.566 147.622 113.594 147.275 113.628C147.115 113.644 146.959 113.653 146.806 113.655L146.818 114.655C147.004 114.653 147.189 114.642 147.374 114.623C147.706 114.591 148.046 114.564 148.39 114.547ZM145.715 114.542C145.535 114.498 145.358 114.441 145.187 114.368C144.857 114.228 144.537 114.074 144.227 113.907L144.702 113.027C144.984 113.179 145.276 113.32 145.578 113.448C145.695 113.498 145.819 113.538 145.949 113.569L145.715 114.542ZM142.456 112.731C141.901 112.286 141.388 111.795 140.916 111.266L141.662 110.6C142.099 111.09 142.572 111.543 143.081 111.951L142.456 112.731ZM139.623 109.578L140.458 109.029C140.094 108.476 139.765 107.894 139.472 107.291L138.573 107.728C138.884 108.367 139.233 108.987 139.623 109.578ZM137.755 105.764L138.698 105.432C138.474 104.794 138.285 104.144 138.13 103.492L137.157 103.722C137.319 104.408 137.518 105.091 137.755 105.764ZM136.774 101.629L137.765 101.499C137.676 100.816 137.625 100.141 137.609 99.485L136.61 99.5082C136.626 100.2 136.68 100.911 136.774 101.629ZM136.686 97.3806L137.681 97.4789C137.75 96.7821 137.864 96.1307 138.019 95.539L137.052 95.2854C136.882 95.9338 136.759 96.6376 136.686 97.3806ZM157.736 122.66L158.714 122.453L158.917 123.413C158.938 123.515 158.957 123.617 158.973 123.719L157.985 123.875C157.972 123.789 157.956 123.704 157.938 123.619L157.736 122.66ZM158.039 124.391L159.037 124.339C159.043 124.442 159.045 124.546 159.045 124.65V125.575H158.045V124.65C158.045 124.563 158.043 124.477 158.039 124.391ZM158.045 127.426H159.045V129.277H158.045V127.426ZM158.045 131.128H159.045V132.082L158.996 132.934L157.998 132.876L158.045 132.053V131.128ZM157.902 134.52L158.9 134.578L158.805 136.223L157.806 136.165L157.902 134.52ZM157.711 137.809L158.709 137.867L158.661 138.689C158.632 139.19 158.544 139.671 158.403 140.127L157.448 139.832C157.565 139.453 157.639 139.051 157.663 138.631L157.711 137.809ZM156.189 141.901L156.892 142.612C156.196 143.299 155.341 143.811 154.407 144.101L154.111 143.146C154.892 142.904 155.608 142.475 156.189 141.901ZM151.694 143.283L151.506 144.265C151.037 144.175 150.571 144.028 150.115 143.819C149.816 143.682 149.517 143.545 149.217 143.407L149.634 142.498C149.934 142.636 150.233 142.773 150.532 142.91C150.914 143.085 151.304 143.208 151.694 143.283ZM147.839 141.672L147.42 142.58C146.821 142.303 146.222 142.026 145.624 141.747L146.046 140.84C146.643 141.119 147.241 141.396 147.839 141.672ZM144.257 140.001L143.83 140.905C143.23 140.622 142.633 140.338 142.04 140.053L142.473 139.152C143.064 139.436 143.659 139.719 144.257 140.001ZM140.695 138.289L140.254 139.187C139.655 138.893 139.062 138.598 138.475 138.303L138.925 137.409C139.508 137.703 140.099 137.996 140.695 138.289ZM137.166 136.51L136.705 137.397C136.408 137.243 136.114 137.089 135.823 136.934C135.512 136.77 135.207 136.607 134.911 136.445L135.39 135.568C135.681 135.726 135.982 135.887 136.291 136.051C136.58 136.204 136.872 136.357 137.166 136.51ZM133.627 134.535L133.084 135.375C132.425 134.949 131.819 134.495 131.312 133.991L132.018 133.282C132.458 133.72 133.001 134.13 133.627 134.535ZM130.927 131.579L129.971 131.875C129.844 131.463 129.777 131.031 129.774 130.578C129.772 130.176 129.802 129.81 129.864 129.475L130.847 129.658C130.798 129.922 130.772 130.223 130.774 130.572C130.776 130.929 130.829 131.263 130.927 131.579ZM131.701 128.072L130.999 127.36C131.137 127.224 131.321 127.06 131.474 126.924C131.554 126.852 131.626 126.789 131.677 126.741C131.87 126.562 132.023 126.399 132.15 126.209L132.981 126.766C132.718 127.158 132.403 127.437 132.093 127.712C131.96 127.83 131.828 127.947 131.701 128.072ZM133.563 125.048L132.57 124.931C132.597 124.703 132.611 124.44 132.609 124.135C132.608 123.859 132.584 123.562 132.537 123.245L133.526 123.098C133.579 123.456 133.607 123.8 133.609 124.129C133.612 124.469 133.595 124.774 133.563 125.048ZM133.023 121.09L132.076 121.412C131.879 120.833 131.631 120.226 131.334 119.601L132.237 119.172C132.548 119.827 132.812 120.47 133.023 121.09ZM131.265 117.342L130.402 117.847C130.074 117.286 129.715 116.721 129.329 116.157L130.155 115.592C130.553 116.175 130.925 116.76 131.265 117.342ZM128.93 113.919L128.142 114.535C127.732 114.011 127.302 113.493 126.855 112.988L127.604 112.325C128.064 112.846 128.507 113.379 128.93 113.919ZM147.495 70.6837C146.856 70.3916 146.212 70.0955 145.571 69.7986L145.991 68.8913C146.63 69.1873 147.273 69.4827 147.91 69.7742L147.495 70.6837ZM143.652 68.9017L144.078 67.9973C143.428 67.6905 142.791 67.3866 142.176 67.0894L141.741 67.9895C142.359 68.2885 142.999 68.5937 143.652 68.9017ZM139.842 67.0545L140.291 66.1609C139.615 65.8214 138.99 65.4986 138.431 65.1987L137.958 66.0798C138.527 66.385 139.16 66.7121 139.842 67.0545ZM135.474 55.5407L136.379 55.9665C136.626 55.4406 136.863 54.8682 137.048 54.2246L136.086 53.9485C135.921 54.5252 135.707 55.0459 135.474 55.5407ZM136.392 52.2721L137.388 52.354C137.413 52.0525 137.425 51.739 137.423 51.4118C137.421 51.0521 137.4 50.6953 137.362 50.3419L136.368 50.4489C136.402 50.7695 136.421 51.0926 136.423 51.4183C136.425 51.7165 136.414 52.0005 136.392 52.2721ZM135.976 48.553L136.933 48.2609C136.728 47.5919 136.465 46.9404 136.151 46.3087L135.256 46.7533C135.547 47.3396 135.789 47.9401 135.976 48.553ZM134.274 45.083L135.1 44.5201C134.719 43.9594 134.299 43.4167 133.847 42.8935L133.09 43.5467C133.518 44.0434 133.915 44.556 134.274 45.083ZM131.752 42.142C131.289 41.6988 130.801 41.2715 130.295 40.8615L130.924 40.0841C131.45 40.5104 131.959 40.9559 132.443 41.4193L131.752 42.142ZM128.742 39.6984L129.312 38.8768C128.761 38.4947 128.197 38.1317 127.623 37.7892L127.11 38.6477C127.665 38.9789 128.21 39.3296 128.742 39.6984ZM125.412 37.7074L125.868 36.8173C125.267 36.5094 124.661 36.224 124.055 35.9624L123.658 36.8806C124.244 37.1334 124.831 37.4095 125.412 37.7074ZM121.85 36.1726L122.181 35.2291C121.53 35.0007 120.885 34.8016 120.251 34.634L119.996 35.6008C120.603 35.7613 121.223 35.9525 121.85 36.1726ZM118.104 35.1937L118.265 34.2066C117.551 34.0905 116.858 34.0211 116.198 34.0042L116.172 35.0038C116.781 35.0195 117.429 35.0837 118.104 35.1937ZM86.1216 48.7007L85.1461 48.4804C85.039 48.9545 84.9882 49.4518 85.0004 49.9656C85.0089 50.3224 85.0173 50.6844 85.0255 51.0503L86.0253 51.0277C86.017 50.6614 86.0086 50.299 86.0001 49.9418C85.9898 49.5095 86.0326 49.0943 86.1216 48.7007ZM86.0712 53.2024L85.0714 53.2219C85.0854 53.9435 85.0983 54.67 85.1094 55.3923L86.1092 55.377C86.0982 54.6531 86.0853 53.9252 86.0712 53.2024ZM86.1366 57.5514L85.1367 57.561C85.1438 58.3018 85.1482 59.0277 85.1492 59.7282L86.1492 59.7267C86.1482 59.0231 86.1438 58.2945 86.1366 57.5514ZM86.1395 61.9022L85.1396 61.8909C85.1307 62.6724 85.1155 63.3956 85.0928 64.0417L86.0921 64.0769C86.1153 63.4208 86.1306 62.6893 86.1395 61.9022Z" fill="white"/>
</g>
<defs>
<linearGradient id="paint0_linear_429_20532" x1="128.545" y1="174.835" x2="128.545" y2="219.164" gradientUnits="userSpaceOnUse">
<stop stop-color="#122941"/>
<stop offset="1" stop-color="#2A283F"/>
</linearGradient>
<linearGradient id="paint1_linear_429_20532" x1="166.5" y1="112.164" x2="206.393" y2="280.478" gradientUnits="userSpaceOnUse">
<stop stop-color="#1E5777"/>
<stop offset="1" stop-color="#4D2A49"/>
</linearGradient>
<linearGradient id="paint2_linear_429_20532" x1="128.602" y1="72.0192" x2="128.499" y2="191.23" gradientUnits="userSpaceOnUse">
<stop stop-color="#132539"/>
<stop offset="1" stop-color="#83313D"/>
</linearGradient>
<linearGradient id="paint3_linear_429_20532" x1="128.5" y1="72.0192" x2="128.5" y2="191.23" gradientUnits="userSpaceOnUse">
<stop offset="0.5625" stop-color="#A96F6F" stop-opacity="0"/>
<stop offset="1" stop-color="#D13333"/>
</linearGradient>
<linearGradient id="paint4_linear_429_20532" x1="120.443" y1="72.4089" x2="70.1192" y2="109.16" gradientUnits="userSpaceOnUse">
<stop stop-color="#FFC671"/>
<stop offset="1" stop-color="#FF6F3D"/>
</linearGradient>
<linearGradient id="paint5_linear_429_20532" x1="47.3278" y1="60.9761" x2="67.0096" y2="152.935" gradientUnits="userSpaceOnUse">
<stop stop-color="#3681DE"/>
<stop offset="1" stop-color="#5C0809"/>
</linearGradient>
<linearGradient id="paint6_linear_429_20532" x1="118.443" y1="72.9223" x2="68.1194" y2="109.673" gradientUnits="userSpaceOnUse">
<stop stop-color="#FFC671"/>
<stop offset="1" stop-color="#FF6F3D"/>
</linearGradient>
<linearGradient id="paint7_linear_429_20532" x1="45.3279" y1="61.4895" x2="65.0097" y2="153.448" gradientUnits="userSpaceOnUse">
<stop stop-color="#2E5F9B"/>
<stop offset="1" stop-color="#CE3435"/>
</linearGradient>
<linearGradient id="paint8_linear_429_20532" x1="214.957" y1="122.409" x2="164.633" y2="159.16" gradientUnits="userSpaceOnUse">
<stop stop-color="#FFC671"/>
<stop offset="1" stop-color="#FF6F3D"/>
</linearGradient>
<linearGradient id="paint9_linear_429_20532" x1="141.842" y1="110.976" x2="161.523" y2="202.935" gradientUnits="userSpaceOnUse">
<stop stop-color="#3681DE"/>
<stop offset="1" stop-color="#5C0809"/>
</linearGradient>
<linearGradient id="paint10_linear_429_20532" x1="213.443" y1="122.922" x2="163.119" y2="159.673" gradientUnits="userSpaceOnUse">
<stop stop-color="#FFC671"/>
<stop offset="1" stop-color="#FF6F3D"/>
</linearGradient>
<linearGradient id="paint11_linear_429_20532" x1="140.328" y1="111.489" x2="160.009" y2="203.448" gradientUnits="userSpaceOnUse">
<stop stop-color="#2E5F9B"/>
<stop offset="1" stop-color="#CE3435"/>
</linearGradient>
<clipPath id="clip0_429_20532">
<rect width="257" height="224" fill="white"/>
</clipPath>
</defs>
</svg>
