<svg width="26" height="24" viewBox="0 0 26 24" fill="none" xmlns="http://www.w3.org/2000/svg">
<path d="M11.5 3.88846C10.6133 3.01154 10.6133 1.53462 11.5 0.657692C12.3866 -0.219231 13.88 -0.219231 14.7666 0.657692C15.6533 1.53462 15.6533 3.01154 14.7666 3.88846C13.88 4.76538 12.3866 4.76538 11.5 3.88846Z" fill="#0F2031"/>
<path d="M16.4 8.73465C15.5133 7.85773 15.5133 6.38081 16.4 5.50388C17.2867 4.62696 18.78 4.62696 19.6667 5.50388C20.5533 6.38081 20.5533 7.85773 19.6667 8.73465C18.78 9.61158 17.2867 9.61158 16.4 8.73465Z" fill="#0F2031"/>
<path d="M6.5999 8.73465C5.66657 7.81158 5.66657 6.38081 6.5999 5.50388C7.48657 4.62696 8.9799 4.62696 9.86657 5.50388C10.7532 6.38081 10.7532 7.85773 9.86657 8.73465C8.93324 9.61158 7.48657 9.61158 6.5999 8.73465Z" fill="#0F2031"/>
<path d="M16.4 18.427C15.5133 17.5501 15.5133 16.0732 16.4 15.1963C17.2867 14.3193 18.78 14.3193 19.6667 15.1963C20.5533 16.0732 20.5533 17.5501 19.6667 18.427C18.78 19.304 17.2867 19.304 16.4 18.427Z" fill="#0F2031"/>
<path d="M1.65328 13.5808C0.766615 12.7039 0.766615 11.227 1.65328 10.3501C2.53995 9.47315 4.03328 9.47315 4.91995 10.3501C5.80661 11.227 5.80661 12.7039 4.91995 13.5808C4.03328 14.4578 2.58661 14.4578 1.65328 13.5808Z" fill="#0F2031"/>
<path d="M21.3 13.5808C20.4133 12.7039 20.4133 11.227 21.3 10.3501C22.1867 9.47315 23.68 9.47315 24.5667 10.3501C25.4533 11.227 25.4533 12.7039 24.5667 13.5808C23.68 14.4578 22.1867 14.4578 21.3 13.5808Z" fill="#FF535F"/>
<path d="M11.5 13.5808C10.6133 12.7039 10.6133 11.227 11.5 10.3501C12.3866 9.47315 13.88 9.47315 14.7666 10.3501C15.6533 11.227 15.6533 12.7039 14.7666 13.5808C13.88 14.4578 12.3866 14.4578 11.5 13.5808Z" fill="#FF535F"/>
<path d="M11.5 23.2732C10.6133 22.3963 10.6133 20.9194 11.5 20.0425C12.3866 19.1655 13.88 19.1655 14.7666 20.0425C15.6533 20.9194 15.6533 22.3963 14.7666 23.2732C13.88 24.1502 12.3866 24.1502 11.5 23.2732Z" fill="#FF535F"/>
</svg>
