<svg width="153" height="28" viewBox="0 0 153 28" fill="none" xmlns="http://www.w3.org/2000/svg">
<path fill-rule="evenodd" clip-rule="evenodd" d="M13.3557 27.6567L0.816497 21.8896C-0.251658 21.3862 -0.251658 20.6081 0.816497 20.1504L5.182 18.1365L13.3093 21.8896C14.3774 22.3931 16.0958 22.3931 17.1175 21.8896L25.2447 18.1365L29.6102 20.1504C30.6784 20.6538 30.6784 21.4319 29.6102 21.8896L17.071 27.6567C16.0958 28.1144 14.3774 28.1144 13.3557 27.6567Z" fill="#FF6F3D"/>
<path fill-rule="evenodd" clip-rule="evenodd" d="M13.3557 20.5623L0.816497 14.7953C-0.251658 14.2918 -0.251658 13.5137 0.816497 13.056L5.08912 11.0879L13.3557 14.8868C14.4239 15.3903 16.1422 15.3903 17.1639 14.8868L25.4305 11.0879L29.7031 13.056C30.7713 13.5595 30.7713 14.3376 29.7031 14.7953L17.1639 20.5623C16.0958 21.0658 14.3774 21.0658 13.3557 20.5623Z" fill="#95C038"/>
<path fill-rule="evenodd" clip-rule="evenodd" d="M13.3557 13.651L0.816497 7.88393C-0.251658 7.38045 -0.251658 6.60236 0.816497 6.14466L13.3557 0.377605C14.4239 -0.125868 16.1422 -0.125868 17.1639 0.377605L29.7031 6.14466C30.7713 6.64813 30.7713 7.42622 29.7031 7.88393L17.1639 13.651C16.0958 14.1087 14.3774 14.1087 13.3557 13.651Z" fill="#5DC0E8"/>
<path d="M38.1682 13.9432C38.1682 11.5581 38.8596 9.758 40.2885 8.58794C41.6713 7.37287 43.3306 6.78784 45.2204 6.78784C47.1102 6.78784 48.7235 7.37287 50.1063 8.58794C51.4891 9.80301 52.1805 11.5581 52.1805 13.9882C52.1805 16.3734 51.4891 18.1735 50.1063 19.3435C48.7235 20.5586 47.0642 21.1436 45.2204 21.1436C43.3306 21.1436 41.7174 20.5586 40.2885 19.3435C38.8596 18.1285 38.1682 16.3284 38.1682 13.9432ZM41.2103 13.9432C41.2103 15.6083 41.533 16.7784 42.1322 17.5434C42.7775 18.3085 43.4689 18.8035 44.2064 18.9835C44.3908 19.0285 44.529 19.0735 44.7134 19.0735C44.8517 19.0735 45.0361 19.1185 45.1743 19.1185C45.3587 19.1185 45.497 19.1185 45.6814 19.0735C45.8657 19.0735 46.004 19.0285 46.1884 18.9835C46.9259 18.8035 47.6173 18.3085 48.2165 17.5434C48.8157 16.7784 49.1383 15.5633 49.1383 13.9882C49.1383 12.3681 48.8157 11.1981 48.2165 10.433C47.6173 9.668 46.9259 9.17297 46.1884 8.99296C46.004 8.94796 45.8196 8.90296 45.6814 8.90296C45.497 8.90296 45.3587 8.85795 45.1743 8.85795C44.99 8.85795 44.8517 8.85795 44.7134 8.90296C44.5751 8.90296 44.3908 8.94796 44.2064 8.99296C43.4689 9.17297 42.7775 9.668 42.1322 10.433C41.533 11.1081 41.2103 12.3231 41.2103 13.9432Z" fill="white"/>
<path d="M53.7017 6.92285H57.4813L62.4593 15.7433L63.1968 17.6784H63.2429L63.1968 15.1583V6.92285H66.1007V20.9636H62.3211L57.343 11.7831L56.6055 10.208H56.5594L56.6055 12.6832V20.9636H53.7017V6.92285Z" fill="white"/>
<path d="M69.0967 6.92285H72.0005V18.5785H77.7161V20.9636H69.0967V6.92285Z" fill="white"/>
<path d="M75.9185 6.92285H79.2832L82.2332 11.8281L82.6941 12.8182H82.7863L83.2472 11.8281L86.2433 6.92285H89.3315L84.123 15.2483V20.9636H81.2192V15.2033L75.9185 6.92285Z" fill="white"/>
<path d="M88.9626 13.9432C88.9626 11.5581 89.654 9.758 91.0829 8.58794C92.4657 7.37287 94.1251 6.78784 96.0149 6.78784C97.9047 6.78784 99.518 7.37287 100.901 8.58794C102.284 9.803 102.975 11.5581 102.975 13.9882C102.975 16.3734 102.284 18.1735 100.901 19.3435C99.518 20.5586 97.8586 21.1436 96.0149 21.1436C94.1251 21.1436 92.5118 20.5586 91.0829 19.3435C89.7001 18.1285 88.9626 16.3284 88.9626 13.9432ZM92.0048 13.9432C92.0048 15.6083 92.3274 16.7784 92.9266 17.5434C93.5719 18.3085 94.2172 18.8035 95.0008 18.9835C95.1852 19.0285 95.3235 19.0735 95.5079 19.0735C95.6461 19.0735 95.8305 19.1185 95.9688 19.1185C96.1532 19.1185 96.2914 19.1185 96.4758 19.0735C96.6602 19.0735 96.7985 19.0285 96.9828 18.9835C97.7203 18.8035 98.4117 18.3085 99.0109 17.5434C99.6101 16.7784 99.9328 15.5633 99.9328 13.9882C99.9328 12.3681 99.6101 11.1981 99.0109 10.433C98.4117 9.668 97.7203 9.17297 96.9828 8.99296C96.7985 8.94796 96.6141 8.90296 96.4758 8.90296C96.2914 8.90296 96.1532 8.85795 95.9688 8.85795C95.7844 8.85795 95.6461 8.85795 95.5079 8.90296C95.3696 8.90296 95.1852 8.94796 95.0008 8.99296C94.2633 9.17297 93.5719 9.668 92.9266 10.433C92.3274 11.1081 92.0048 12.3231 92.0048 13.9432Z" fill="white"/>
<path d="M105.003 6.92285H113.023V9.26298H107.907V12.6832H112.793V15.0683H107.907V20.9636H105.003V6.92285Z" fill="white"/>
<path d="M115.19 6.92285H123.21V9.26298H118.094V12.6832H122.979V15.0683H118.094V20.9636H115.19V6.92285Z" fill="white"/>
<path d="M124.915 20.9636V6.92285H127.819V20.9636H124.915Z" fill="white"/>
<path d="M140.614 7.23771V9.66784C140.107 9.48783 139.6 9.35282 139.047 9.26281C138.494 9.17281 137.849 9.12781 137.203 9.12781C135.682 9.12781 134.53 9.57783 133.7 10.5229C132.871 11.4229 132.456 12.593 132.456 13.9881C132.456 15.3381 132.824 16.4632 133.608 17.3633C134.392 18.2633 135.498 18.7583 136.927 18.7583C137.434 18.7583 137.941 18.7133 138.54 18.6683C139.139 18.5783 139.738 18.4433 140.384 18.1733L140.568 20.5584C140.476 20.6034 140.338 20.6484 140.199 20.6934C140.015 20.7384 139.831 20.7834 139.6 20.8284C139.231 20.9184 138.77 20.9635 138.217 21.0535C137.664 21.0985 137.111 21.1435 136.512 21.1435C136.42 21.1435 136.328 21.1435 136.281 21.1435C136.189 21.1435 136.097 21.1435 136.051 21.1435C134.392 21.0535 132.871 20.4234 131.488 19.3434C130.105 18.2183 129.414 16.4632 129.414 14.1231C129.414 11.828 130.105 10.0279 131.442 8.76779C132.778 7.50772 134.622 6.87769 136.881 6.87769C137.48 6.87769 138.033 6.87769 138.494 6.92269C139.001 6.96769 139.462 7.0577 139.969 7.1477C140.061 7.1927 140.199 7.1927 140.291 7.23771C140.384 7.1927 140.476 7.23771 140.614 7.23771Z" fill="white"/>
<path d="M142.919 6.92285H151.538V9.12797H145.869V12.6382H150.985V14.7983H145.869V18.7585H151.538V20.9636H142.919V6.92285Z" fill="white"/>
</svg>
