<svg width="168" height="24" viewBox="0 0 168 24" fill="none" xmlns="http://www.w3.org/2000/svg">
<path d="M45.0999 9.38075C45.0999 10.2115 44.9599 10.9038 44.6332 11.5038C44.3532 12.0577 43.9332 12.5192 43.4199 12.8884C42.9066 13.2577 42.2999 13.4884 41.6466 13.6269C40.9932 13.7654 40.2466 13.8577 39.4999 13.8577C39.2199 13.8577 38.9399 13.8577 38.6132 13.8115C38.2866 13.8115 38.0066 13.7654 37.7732 13.7654V18.75C37.7732 18.8423 37.7266 18.9346 37.6799 19.0269C37.5866 19.1192 37.5399 19.1192 37.3999 19.1192H35.5332C35.4399 19.1192 35.3466 19.0731 35.2532 19.0269C35.1599 18.9808 35.1599 18.8423 35.1599 18.75V5.64229C35.1599 5.45768 35.2066 5.31922 35.3466 5.22691C35.4399 5.1346 35.6266 5.08845 35.8132 5.04229C36.3266 4.94998 36.8866 4.90383 37.5399 4.85768C38.1932 4.81152 38.8932 4.81152 39.5932 4.81152C40.3399 4.81152 41.0399 4.90383 41.6932 5.04229C42.3466 5.18075 42.9532 5.41152 43.4666 5.78075C43.9799 6.10383 44.3999 6.56537 44.6799 7.16537C44.9599 7.76537 45.1466 8.41152 45.1466 9.28845V9.38075H45.0999ZM42.3932 9.19614C42.3932 8.41152 42.1599 7.81152 41.6932 7.48845C41.2266 7.16537 40.4799 6.98075 39.5466 6.98075C39.4532 6.98075 39.3132 6.98075 39.1732 6.98075C39.0332 6.98075 38.8466 6.98075 38.6599 6.98075C38.4732 6.98075 38.3332 6.98075 38.1932 6.98075C38.0532 6.98075 37.9132 6.98075 37.8199 7.02691V11.55C37.9132 11.55 38.0066 11.55 38.1932 11.55C38.3332 11.55 38.5199 11.55 38.7066 11.55C38.8932 11.55 39.0332 11.55 39.2199 11.55C39.3599 11.55 39.4999 11.55 39.5932 11.55C40.6199 11.55 41.3666 11.3654 41.8332 10.9961C42.2999 10.6269 42.4866 10.0269 42.4866 9.28845V9.19614H42.3932Z" fill="#0F2031"/>
<path d="M57.5132 18.9348C57.5132 19.0271 57.4199 19.1194 57.2332 19.1194H54.6666C54.4799 19.1194 54.2932 19.0271 54.2466 18.8887L49.7666 12.4271V18.7502C49.7666 18.8425 49.7199 18.9348 49.6732 19.0271C49.6266 19.1194 49.4866 19.1194 49.3932 19.1194H47.4799C47.3866 19.1194 47.2932 19.0733 47.1999 19.0271C47.1066 18.981 47.1066 18.8425 47.1066 18.7502V5.36558C47.1066 5.27327 47.1532 5.18096 47.1999 5.08866C47.2932 4.99635 47.3866 4.99635 47.4799 4.99635H49.3932C49.4866 4.99635 49.5799 5.0425 49.6732 5.08866C49.7666 5.18096 49.7666 5.22712 49.7666 5.36558V11.4117L54.4799 5.13481C54.5266 5.08866 54.5732 5.0425 54.6666 4.99635C54.7599 4.99635 54.8066 4.9502 54.9466 4.9502H57.1399C57.3732 4.9502 57.5132 5.0425 57.5132 5.18096C57.5132 5.27327 57.4666 5.36558 57.3732 5.50404L52.4266 11.8271L57.3732 18.704C57.4666 18.7963 57.5132 18.8887 57.5132 18.9348Z" fill="#0F2031"/>
<path d="M62.9265 14.1809H59.1465C59.0532 14.1809 58.9599 14.1347 58.8665 14.0886C58.7732 14.0424 58.7732 13.9501 58.7732 13.8578V12.6578C58.7732 12.5655 58.8199 12.4732 58.8665 12.3809C58.9599 12.2886 59.0532 12.2886 59.1465 12.2886H62.9265C63.1599 12.2886 63.2999 12.427 63.2999 12.6578V13.8578C63.2999 14.0886 63.1599 14.1809 62.9265 14.1809Z" fill="#0F2031"/>
<path d="M74.5932 7.07327C74.4999 7.11943 74.4066 7.16558 74.3133 7.16558H70.9533V18.7502C70.9533 18.8425 70.9066 18.9348 70.8599 19.0271C70.8133 19.1194 70.6733 19.1194 70.5799 19.1194H68.6666C68.5733 19.1194 68.4799 19.0733 68.3866 19.0271C68.2933 18.9348 68.2933 18.8425 68.2933 18.7502V7.16558H64.9333C64.8399 7.16558 64.7466 7.11943 64.6533 7.07327C64.5599 7.02712 64.5599 6.93481 64.5599 6.8425V5.31943C64.5599 5.22712 64.6066 5.13481 64.6533 5.0425C64.7466 4.9502 64.8399 4.9502 64.9333 4.9502H74.3599C74.4532 4.9502 74.5466 4.99635 74.6399 5.0425C74.7333 5.13481 74.7332 5.18096 74.7332 5.31943V6.8425C74.6866 6.93481 74.6399 7.02712 74.5932 7.07327Z" fill="#0F2031"/>
<path d="M83.8332 14.1345C83.8332 14.4576 83.6932 14.5961 83.4599 14.5961H77.2066V14.6422C77.2066 14.9191 77.2532 15.1961 77.2999 15.473C77.3466 15.7499 77.4866 16.0268 77.6732 16.2576C77.8599 16.4884 78.0932 16.673 78.3732 16.8115C78.6532 16.9499 79.0732 17.0422 79.5399 17.0422C80.2399 17.0422 80.8932 17.0422 81.5466 16.9961C82.1532 16.9499 82.6666 16.9038 83.0866 16.8576H83.1332C83.2266 16.8576 83.3199 16.8576 83.3666 16.9038C83.4132 16.9499 83.4599 17.0422 83.4599 17.1345V18.4268C83.4599 18.5653 83.4599 18.7038 83.4132 18.7499C83.3666 18.8422 83.2732 18.8884 83.0866 18.8884C82.7599 18.9345 82.4799 18.9807 82.1999 19.0268C81.9199 19.073 81.6399 19.1191 81.3599 19.1191C81.0799 19.1653 80.7999 19.1653 80.4732 19.1653C80.1466 19.1653 79.7732 19.1653 79.3066 19.1653C78.8399 19.1653 78.2799 19.073 77.7666 18.9345C77.2066 18.7961 76.7399 18.5191 76.2732 18.1499C75.8066 17.7807 75.4332 17.3191 75.1066 16.673C74.8266 16.073 74.6399 15.2884 74.6399 14.3191V12.8884C74.6399 12.1499 74.7332 11.5038 74.9666 10.9038C75.1532 10.3038 75.4799 9.79607 75.8532 9.38069C76.2266 8.9653 76.7399 8.64222 77.2999 8.41146C77.8599 8.18069 78.5132 8.08838 79.2599 8.08838C80.0066 8.08838 80.6599 8.22684 81.2199 8.45761C81.7799 8.68838 82.2466 9.01146 82.6666 9.47299C83.0399 9.88838 83.3199 10.3961 83.5532 10.9961C83.7866 11.5961 83.8332 12.2422 83.8332 12.9345V14.1345ZM81.2666 12.7499C81.2666 12.0115 81.0799 11.4115 80.7066 10.9961C80.3332 10.5807 79.8666 10.3961 79.2599 10.3961C78.6532 10.3961 78.1399 10.5807 77.7666 10.9961C77.3932 11.4115 77.2066 11.9653 77.2066 12.7499V12.8422H81.2666V12.7499Z" fill="#0F2031"/>
<path d="M94.9865 18.8885C94.9865 18.9347 94.9398 19.027 94.8932 19.0732C94.8465 19.1193 94.7532 19.1655 94.7065 19.1655H92.5132C92.4199 19.1655 92.3265 19.1655 92.2332 19.1193C92.1399 19.0732 92.0932 18.9808 91.9532 18.7962L89.7599 15.427L87.6599 18.7962C87.5665 18.9808 87.4732 19.0732 87.3799 19.1193C87.2865 19.1655 87.2399 19.1655 87.0999 19.1655H85.0932C84.9532 19.1655 84.8599 19.0732 84.8599 18.9347C84.8599 18.8885 84.8599 18.8424 84.9065 18.7501L88.3599 13.5809L85.0932 8.78085C85.0465 8.7347 85.0465 8.68854 85.0465 8.68854C85.0465 8.64239 85.0932 8.55008 85.1399 8.50393C85.1865 8.45778 85.2799 8.41162 85.3732 8.41162H87.5665C87.6599 8.41162 87.7532 8.45778 87.7999 8.50393C87.8465 8.55008 87.9399 8.64239 88.0332 8.78085L89.9932 11.7347L91.8132 8.78085C91.9065 8.59624 91.9999 8.50393 92.0932 8.45778C92.1865 8.41162 92.2332 8.41162 92.3732 8.41162H94.3799C94.5199 8.41162 94.6132 8.50393 94.6132 8.64239C94.6132 8.68854 94.6132 8.78085 94.5665 8.82701L91.3932 13.627L94.8932 18.7962C94.9865 18.7962 94.9865 18.8424 94.9865 18.8885Z" fill="#0F2031"/>
<path d="M99.0932 18.7037C99.0932 18.796 99.0466 18.8883 98.9999 18.9806C98.9066 19.0729 98.8132 19.1191 98.7199 19.1191H96.9466C96.8532 19.1191 96.7599 19.0729 96.6666 18.9806C96.5732 18.8883 96.5732 18.796 96.5732 18.7037V8.78062C96.5732 8.68831 96.6199 8.596 96.6666 8.5037C96.7599 8.41139 96.8532 8.36523 96.9466 8.36523H98.7199C98.8132 8.36523 98.9066 8.41139 98.9999 8.5037C99.0932 8.596 99.0932 8.68831 99.0932 8.78062V12.6114H102.92V8.78062C102.92 8.68831 102.967 8.596 103.013 8.5037C103.107 8.41139 103.2 8.36523 103.293 8.36523H105.067C105.16 8.36523 105.253 8.41139 105.347 8.5037C105.44 8.596 105.44 8.68831 105.44 8.78062V18.7037C105.44 18.796 105.393 18.8883 105.347 18.9806C105.253 19.0729 105.16 19.1191 105.067 19.1191H103.293C103.2 19.1191 103.107 19.0729 103.013 18.9806C102.92 18.8883 102.92 18.796 102.92 18.7037V14.5037H99.0932V18.7037Z" fill="#0F2031"/>
<path d="M116.733 14.5037C116.733 15.196 116.64 15.8422 116.453 16.396C116.267 16.9499 115.94 17.4576 115.567 17.873C115.193 18.2883 114.68 18.6114 114.12 18.8422C113.56 19.073 112.907 19.2114 112.113 19.2114C111.32 19.2114 110.713 19.073 110.107 18.8422C109.547 18.6114 109.033 18.2883 108.66 17.873C108.287 17.4576 107.96 16.9499 107.773 16.396C107.587 15.8422 107.493 15.196 107.493 14.5037V12.9806C107.493 12.2883 107.587 11.6422 107.773 11.0883C107.96 10.5345 108.287 10.0268 108.66 9.61141C109.033 9.19603 109.547 8.87295 110.107 8.64218C110.667 8.41141 111.32 8.27295 112.113 8.27295C112.907 8.27295 113.513 8.41141 114.12 8.64218C114.68 8.87295 115.147 9.19603 115.567 9.61141C115.94 10.0268 116.267 10.5345 116.453 11.0883C116.64 11.6422 116.733 12.2883 116.733 12.9806V14.5037ZM114.167 12.9806C114.167 12.196 113.98 11.5499 113.653 11.0883C113.327 10.6268 112.813 10.396 112.113 10.396C111.413 10.396 110.9 10.6268 110.573 11.0883C110.247 11.5499 110.06 12.196 110.06 12.9806V14.5037C110.06 15.2883 110.247 15.9345 110.573 16.396C110.9 16.8576 111.413 17.0883 112.113 17.0883C112.813 17.0883 113.327 16.8576 113.653 16.396C113.98 15.9345 114.167 15.2883 114.167 14.5037V12.9806Z" fill="#0F2031"/>
<path d="M123.22 10.7655C123.173 10.5347 123.033 10.3963 122.8 10.3963C122.567 10.3963 122.427 10.5347 122.38 10.7655L120.513 18.7963C120.467 18.8886 120.42 18.9809 120.373 19.027C120.327 19.0732 120.233 19.1194 120.14 19.1194H118.227C118.133 19.1194 118.04 19.0732 117.993 19.027C117.947 18.9809 117.9 18.8886 117.9 18.7963V18.7501V18.704L120.14 10.2117C120.233 9.75013 120.42 9.42705 120.653 9.15013C120.887 8.8732 121.12 8.68859 121.353 8.55013C121.587 8.41167 121.867 8.31936 122.147 8.2732C122.427 8.22705 122.66 8.22705 122.847 8.22705C123.033 8.22705 123.267 8.22705 123.547 8.2732C123.827 8.31936 124.06 8.41167 124.34 8.55013C124.573 8.68859 124.807 8.8732 125.04 9.15013C125.273 9.42705 125.413 9.75013 125.553 10.2117L127.84 18.704C127.84 18.7501 127.84 18.7501 127.84 18.7501V18.7963C127.84 18.8886 127.793 18.9809 127.747 19.027C127.7 19.0732 127.607 19.1194 127.513 19.1194H125.6C125.507 19.1194 125.413 19.0732 125.367 19.027C125.32 18.9809 125.273 18.8886 125.227 18.7963L123.22 10.7655Z" fill="#0F2031"/>
<path d="M137.92 14.5037C137.92 15.196 137.827 15.8422 137.64 16.396C137.453 16.9499 137.127 17.4576 136.753 17.873C136.38 18.2883 135.867 18.6114 135.307 18.8422C134.747 19.073 134.093 19.2114 133.3 19.2114C132.507 19.2114 131.9 19.073 131.293 18.8422C130.733 18.6114 130.22 18.2883 129.847 17.873C129.473 17.4576 129.147 16.9499 128.96 16.396C128.773 15.8422 128.68 15.196 128.68 14.5037V12.9806C128.68 12.2883 128.773 11.6422 128.96 11.0883C129.147 10.5345 129.473 10.0268 129.847 9.61141C130.22 9.19603 130.733 8.87295 131.293 8.64218C131.853 8.41141 132.507 8.27295 133.3 8.27295C134.093 8.27295 134.7 8.41141 135.307 8.64218C135.867 8.87295 136.333 9.19603 136.753 9.61141C137.127 10.0268 137.453 10.5345 137.64 11.0883C137.827 11.6422 137.92 12.2883 137.92 12.9806V14.5037ZM135.353 12.9806C135.353 12.196 135.167 11.5499 134.84 11.0883C134.513 10.6268 134 10.396 133.3 10.396C132.6 10.396 132.087 10.6268 131.76 11.0883C131.433 11.5499 131.247 12.196 131.247 12.9806V14.5037C131.247 15.2883 131.433 15.9345 131.76 16.396C132.087 16.8576 132.6 17.0883 133.3 17.0883C134 17.0883 134.513 16.8576 134.84 16.396C135.167 15.9345 135.353 15.2883 135.353 14.5037V12.9806Z" fill="#0F2031"/>
<path d="M143.473 10.5806C142.867 10.5806 142.54 10.9498 142.54 11.6422V18.7499C142.54 18.8422 142.493 18.9345 142.447 19.0268C142.4 19.1191 142.26 19.1191 142.167 19.1191H140.393C140.3 19.1191 140.207 19.0729 140.113 19.0268C140.02 18.9806 140.02 18.8422 140.02 18.7499V11.6422C140.02 10.4883 140.3 9.65754 140.813 9.14985C141.373 8.64216 142.26 8.36523 143.473 8.36523H145.76C145.853 8.36523 145.947 8.41139 146.04 8.45754C146.133 8.5037 146.133 8.64216 146.133 8.73446V10.1652C146.133 10.2575 146.087 10.3499 146.04 10.4422C145.993 10.5345 145.853 10.5345 145.76 10.5345H143.473V10.5806Z" fill="#0F2031"/>
<path d="M154.02 12.9345L150.193 18.7037C150.1 18.8422 150.007 18.9345 149.913 18.9806C149.82 19.0729 149.633 19.0729 149.4 19.0729H148C147.907 19.0729 147.813 19.0268 147.72 18.9345C147.627 18.8422 147.627 18.7499 147.627 18.6575V8.78062C147.627 8.68831 147.673 8.596 147.72 8.5037C147.813 8.41139 147.907 8.36523 148 8.36523H149.773C149.867 8.36523 149.96 8.41139 150.053 8.5037C150.147 8.596 150.147 8.68831 150.147 8.78062V14.5499L153.973 8.78062C154.02 8.68831 154.113 8.64216 154.207 8.54985C154.3 8.45754 154.487 8.41139 154.767 8.41139H156.12C156.213 8.41139 156.307 8.45754 156.4 8.54985C156.493 8.64216 156.493 8.73447 156.493 8.82677V18.7499C156.493 18.8422 156.447 18.9345 156.4 19.0268C156.307 19.1191 156.213 19.1652 156.12 19.1652H154.347C154.253 19.1652 154.16 19.1191 154.067 19.0268C153.973 18.9345 153.973 18.8422 153.973 18.7499V12.9345H154.02Z" fill="#0F2031"/>
<path d="M165.313 12.9345L161.487 18.7037C161.393 18.8422 161.3 18.9345 161.207 18.9806C161.113 19.0729 160.927 19.0729 160.693 19.0729H159.293C159.2 19.0729 159.107 19.0268 159.013 18.9345C158.92 18.8422 158.92 18.7499 158.92 18.6575V8.78062C158.92 8.68831 158.967 8.596 159.013 8.5037C159.107 8.41139 159.2 8.36523 159.293 8.36523H161.067C161.16 8.36523 161.253 8.41139 161.347 8.5037C161.44 8.596 161.44 8.68831 161.44 8.78062V14.5499L165.267 8.78062C165.313 8.68831 165.407 8.64216 165.5 8.54985C165.593 8.45754 165.78 8.41139 166.06 8.41139H167.413C167.507 8.41139 167.6 8.45754 167.693 8.54985C167.787 8.64216 167.787 8.73447 167.787 8.82677V18.7499C167.787 18.8422 167.74 18.9345 167.693 19.0268C167.6 19.1191 167.507 19.1652 167.413 19.1652H165.64C165.547 19.1652 165.453 19.1191 165.36 19.0268C165.267 18.9345 165.267 18.8422 165.267 18.7499V12.9345H165.313Z" fill="#0F2031"/>
<path d="M11.5 3.88846C10.6133 3.01154 10.6133 1.53462 11.5 0.657692C12.3866 -0.219231 13.88 -0.219231 14.7666 0.657692C15.6533 1.53462 15.6533 3.01154 14.7666 3.88846C13.88 4.76538 12.3866 4.76538 11.5 3.88846Z" fill="#0F2031"/>
<path d="M16.4 8.73465C15.5133 7.85773 15.5133 6.38081 16.4 5.50388C17.2867 4.62696 18.78 4.62696 19.6667 5.50388C20.5533 6.38081 20.5533 7.85773 19.6667 8.73465C18.78 9.61158 17.2867 9.61158 16.4 8.73465Z" fill="#0F2031"/>
<path d="M6.5999 8.73465C5.66657 7.81158 5.66657 6.38081 6.5999 5.50388C7.48657 4.62696 8.9799 4.62696 9.86657 5.50388C10.7532 6.38081 10.7532 7.85773 9.86657 8.73465C8.93324 9.61158 7.48657 9.61158 6.5999 8.73465Z" fill="#0F2031"/>
<path d="M16.4 18.427C15.5133 17.5501 15.5133 16.0732 16.4 15.1963C17.2867 14.3193 18.78 14.3193 19.6667 15.1963C20.5533 16.0732 20.5533 17.5501 19.6667 18.427C18.78 19.304 17.2867 19.304 16.4 18.427Z" fill="#0F2031"/>
<path d="M1.65328 13.5808C0.766615 12.7039 0.766615 11.227 1.65328 10.3501C2.53995 9.47315 4.03328 9.47315 4.91995 10.3501C5.80661 11.227 5.80661 12.7039 4.91995 13.5808C4.03328 14.4578 2.58661 14.4578 1.65328 13.5808Z" fill="#0F2031"/>
<path d="M21.3 13.5808C20.4133 12.7039 20.4133 11.227 21.3 10.3501C22.1867 9.47315 23.68 9.47315 24.5667 10.3501C25.4533 11.227 25.4533 12.7039 24.5667 13.5808C23.68 14.4578 22.1867 14.4578 21.3 13.5808Z" fill="#FF535F"/>
<path d="M11.5 13.5808C10.6133 12.7039 10.6133 11.227 11.5 10.3501C12.3866 9.47315 13.88 9.47315 14.7666 10.3501C15.6533 11.227 15.6533 12.7039 14.7666 13.5808C13.88 14.4578 12.3866 14.4578 11.5 13.5808Z" fill="#FF535F"/>
<path d="M11.5 23.2732C10.6133 22.3963 10.6133 20.9194 11.5 20.0425C12.3866 19.1655 13.88 19.1655 14.7666 20.0425C15.6533 20.9194 15.6533 22.3963 14.7666 23.2732C13.88 24.1502 12.3866 24.1502 11.5 23.2732Z" fill="#FF535F"/>
</svg>
