<svg width="168" height="24" viewBox="0 0 168 24" fill="none" xmlns="http://www.w3.org/2000/svg">
<path d="M45.1 9.38075C45.1 10.2115 44.96 10.9038 44.6334 11.5038C44.3534 12.0577 43.9334 12.5192 43.42 12.8884C42.9067 13.2577 42.3 13.4884 41.6467 13.6269C40.9934 13.7654 40.2467 13.8577 39.5 13.8577C39.22 13.8577 38.94 13.8577 38.6134 13.8115C38.2867 13.8115 38.0067 13.7654 37.7734 13.7654V18.75C37.7734 18.8423 37.7267 18.9346 37.68 19.0269C37.5867 19.1192 37.54 19.1192 37.4 19.1192H35.5334C35.44 19.1192 35.3467 19.0731 35.2534 19.0269C35.16 18.9808 35.16 18.8423 35.16 18.75V5.64229C35.16 5.45768 35.2067 5.31922 35.3467 5.22691C35.44 5.1346 35.6267 5.08845 35.8134 5.04229C36.3267 4.94998 36.8867 4.90383 37.54 4.85768C38.1934 4.81152 38.8934 4.81152 39.5934 4.81152C40.34 4.81152 41.04 4.90383 41.6934 5.04229C42.3467 5.18075 42.9534 5.41152 43.4667 5.78075C43.98 6.10383 44.4 6.56537 44.68 7.16537C44.96 7.76537 45.1467 8.41152 45.1467 9.28845V9.38075H45.1ZM42.3934 9.19614C42.3934 8.41152 42.16 7.81152 41.6934 7.48845C41.2267 7.16537 40.48 6.98075 39.5467 6.98075C39.4534 6.98075 39.3134 6.98075 39.1734 6.98075C39.0334 6.98075 38.8467 6.98075 38.66 6.98075C38.4734 6.98075 38.3334 6.98075 38.1934 6.98075C38.0534 6.98075 37.9134 6.98075 37.82 7.02691V11.55C37.9134 11.55 38.0067 11.55 38.1934 11.55C38.3334 11.55 38.52 11.55 38.7067 11.55C38.8934 11.55 39.0334 11.55 39.22 11.55C39.36 11.55 39.5 11.55 39.5934 11.55C40.62 11.55 41.3667 11.3654 41.8334 10.9961C42.3 10.6269 42.4867 10.0269 42.4867 9.28845V9.19614H42.3934Z" fill="white"/>
<path d="M57.5134 18.9346C57.5134 19.0269 57.42 19.1192 57.2334 19.1192H54.6667C54.48 19.1192 54.2934 19.0269 54.2467 18.8884L49.7667 12.4269V18.75C49.7667 18.8423 49.72 18.9346 49.6734 19.0269C49.6267 19.1192 49.4867 19.1192 49.3934 19.1192H47.48C47.3867 19.1192 47.2934 19.073 47.2 19.0269C47.1067 18.9807 47.1067 18.8423 47.1067 18.75V5.36534C47.1067 5.27303 47.1534 5.18072 47.2 5.08841C47.2934 4.99611 47.3867 4.9961 47.48 4.9961H49.3934C49.4867 4.9961 49.58 5.04226 49.6734 5.08841C49.7667 5.18072 49.7667 5.22687 49.7667 5.36534V11.4115L54.48 5.13457C54.5267 5.08841 54.5734 5.04226 54.6667 4.9961C54.76 4.9961 54.8067 4.94995 54.9467 4.94995H57.14C57.3734 4.94995 57.5134 5.04226 57.5134 5.18072C57.5134 5.27303 57.4667 5.36534 57.3734 5.5038L52.4267 11.8269L57.3734 18.7038C57.4667 18.7961 57.5134 18.8884 57.5134 18.9346Z" fill="white"/>
<path d="M62.9267 14.1806H59.1467C59.0534 14.1806 58.96 14.1345 58.8667 14.0883C58.7734 14.0422 58.7734 13.9499 58.7734 13.8576V12.6576C58.7734 12.5653 58.82 12.4729 58.8667 12.3806C58.96 12.2883 59.0534 12.2883 59.1467 12.2883H62.9267C63.16 12.2883 63.3 12.4268 63.3 12.6576V13.8576C63.3 14.0883 63.16 14.1806 62.9267 14.1806Z" fill="white"/>
<path d="M74.5934 7.07303C74.5 7.11918 74.4067 7.16534 74.3134 7.16534H70.9534V18.75C70.9534 18.8423 70.9067 18.9346 70.86 19.0269C70.8134 19.1192 70.6734 19.1192 70.58 19.1192H68.6667C68.5734 19.1192 68.48 19.073 68.3867 19.0269C68.2934 18.9346 68.2934 18.8423 68.2934 18.75V7.16534H64.9334C64.8401 7.16534 64.7467 7.11918 64.6534 7.07303C64.5601 7.02687 64.5601 6.93457 64.5601 6.84226V5.31918C64.5601 5.22687 64.6067 5.13457 64.6534 5.04226C64.7467 4.94995 64.8401 4.94995 64.9334 4.94995H74.36C74.4534 4.94995 74.5467 4.9961 74.64 5.04226C74.7334 5.13457 74.7334 5.18072 74.7334 5.31918V6.84226C74.6867 6.93457 74.64 7.02687 74.5934 7.07303Z" fill="white"/>
<path d="M83.8334 14.1345C83.8334 14.4576 83.6933 14.5961 83.46 14.5961H77.2067V14.6422C77.2067 14.9191 77.2533 15.1961 77.3 15.473C77.3467 15.7499 77.4867 16.0268 77.6733 16.2576C77.86 16.4884 78.0933 16.673 78.3733 16.8115C78.6533 16.9499 79.0734 17.0422 79.54 17.0422C80.24 17.0422 80.8934 17.0422 81.5467 16.9961C82.1534 16.9499 82.6667 16.9038 83.0867 16.8576H83.1334C83.2267 16.8576 83.32 16.8576 83.3667 16.9038C83.4134 16.9499 83.46 17.0422 83.46 17.1345V18.4268C83.46 18.5653 83.46 18.7038 83.4134 18.7499C83.3667 18.8422 83.2733 18.8884 83.0867 18.8884C82.76 18.9345 82.48 18.9807 82.2 19.0268C81.92 19.073 81.64 19.1191 81.36 19.1191C81.08 19.1653 80.8 19.1653 80.4734 19.1653C80.1467 19.1653 79.7734 19.1653 79.3067 19.1653C78.84 19.1653 78.28 19.073 77.7667 18.9345C77.2067 18.7961 76.74 18.5191 76.2733 18.1499C75.8067 17.7807 75.4333 17.3191 75.1067 16.673C74.8267 16.073 74.64 15.2884 74.64 14.3191V12.8884C74.64 12.1499 74.7333 11.5038 74.9667 10.9038C75.1533 10.3038 75.48 9.79607 75.8533 9.38069C76.2267 8.9653 76.74 8.64222 77.3 8.41146C77.86 8.18069 78.5133 8.08838 79.26 8.08838C80.0067 8.08838 80.66 8.22684 81.22 8.45761C81.78 8.68838 82.2467 9.01146 82.6667 9.47299C83.04 9.88838 83.32 10.3961 83.5533 10.9961C83.7867 11.5961 83.8334 12.2422 83.8334 12.9345V14.1345ZM81.2667 12.7499C81.2667 12.0115 81.08 11.4115 80.7067 10.9961C80.3334 10.5807 79.8667 10.3961 79.26 10.3961C78.6533 10.3961 78.14 10.5807 77.7667 10.9961C77.3933 11.4115 77.2067 11.9653 77.2067 12.7499V12.8422H81.2667V12.7499Z" fill="white"/>
<path d="M94.9867 18.8885C94.9867 18.9347 94.94 19.027 94.8934 19.0732C94.8467 19.1193 94.7534 19.1655 94.7067 19.1655H92.5134C92.42 19.1655 92.3267 19.1655 92.2334 19.1193C92.14 19.0732 92.0934 18.9808 91.9534 18.7962L89.76 15.427L87.66 18.7962C87.5667 18.9808 87.4734 19.0732 87.38 19.1193C87.2867 19.1655 87.24 19.1655 87.1 19.1655H85.0934C84.9534 19.1655 84.86 19.0732 84.86 18.9347C84.86 18.8885 84.86 18.8424 84.9067 18.7501L88.36 13.5809L85.0934 8.78085C85.0467 8.7347 85.0467 8.68854 85.0467 8.68854C85.0467 8.64239 85.0934 8.55008 85.14 8.50393C85.1867 8.45778 85.28 8.41162 85.3734 8.41162H87.5667C87.66 8.41162 87.7534 8.45778 87.8 8.50393C87.8467 8.55008 87.94 8.64239 88.0334 8.78085L89.9934 11.7347L91.8134 8.78085C91.9067 8.59624 92 8.50393 92.0934 8.45778C92.1867 8.41162 92.2334 8.41162 92.3734 8.41162H94.38C94.52 8.41162 94.6134 8.50393 94.6134 8.64239C94.6134 8.68854 94.6134 8.78085 94.5667 8.82701L91.3934 13.627L94.8934 18.7962C94.9867 18.7962 94.9867 18.8424 94.9867 18.8885Z" fill="white"/>
<path d="M99.0934 18.7039C99.0934 18.7962 99.0467 18.8886 99 18.9809C98.9067 19.0732 98.8134 19.1193 98.72 19.1193H96.9467C96.8534 19.1193 96.76 19.0732 96.6667 18.9809C96.5734 18.8886 96.5734 18.7962 96.5734 18.7039V8.78086C96.5734 8.68856 96.62 8.59625 96.6667 8.50394C96.76 8.41163 96.8534 8.36548 96.9467 8.36548H98.72C98.8134 8.36548 98.9067 8.41163 99 8.50394C99.0934 8.59625 99.0934 8.68856 99.0934 8.78086V12.6116H102.92V8.78086C102.92 8.68856 102.967 8.59625 103.013 8.50394C103.107 8.41163 103.2 8.36548 103.293 8.36548H105.067C105.16 8.36548 105.253 8.41163 105.347 8.50394C105.44 8.59625 105.44 8.68856 105.44 8.78086V18.7039C105.44 18.7962 105.393 18.8886 105.347 18.9809C105.253 19.0732 105.16 19.1193 105.067 19.1193H103.293C103.2 19.1193 103.107 19.0732 103.013 18.9809C102.92 18.8886 102.92 18.7962 102.92 18.7039V14.5039H99.0934V18.7039Z" fill="white"/>
<path d="M116.733 14.5037C116.733 15.196 116.64 15.8422 116.453 16.396C116.267 16.9499 115.94 17.4576 115.567 17.873C115.193 18.2883 114.68 18.6114 114.12 18.8422C113.56 19.073 112.907 19.2114 112.113 19.2114C111.32 19.2114 110.713 19.073 110.107 18.8422C109.547 18.6114 109.033 18.2883 108.66 17.873C108.287 17.4576 107.96 16.9499 107.773 16.396C107.587 15.8422 107.493 15.196 107.493 14.5037V12.9806C107.493 12.2883 107.587 11.6422 107.773 11.0883C107.96 10.5345 108.287 10.0268 108.66 9.61141C109.033 9.19603 109.547 8.87295 110.107 8.64218C110.667 8.41141 111.32 8.27295 112.113 8.27295C112.907 8.27295 113.513 8.41141 114.12 8.64218C114.68 8.87295 115.147 9.19603 115.567 9.61141C115.94 10.0268 116.267 10.5345 116.453 11.0883C116.64 11.6422 116.733 12.2883 116.733 12.9806V14.5037ZM114.167 12.9806C114.167 12.196 113.98 11.5499 113.653 11.0883C113.327 10.6268 112.813 10.396 112.113 10.396C111.413 10.396 110.9 10.6268 110.573 11.0883C110.247 11.5499 110.06 12.196 110.06 12.9806V14.5037C110.06 15.2883 110.247 15.9345 110.573 16.396C110.9 16.8576 111.413 17.0883 112.113 17.0883C112.813 17.0883 113.327 16.8576 113.653 16.396C113.98 15.9345 114.167 15.2883 114.167 14.5037V12.9806Z" fill="white"/>
<path d="M123.22 10.7655C123.173 10.5347 123.033 10.3963 122.8 10.3963C122.567 10.3963 122.427 10.5347 122.38 10.7655L120.513 18.7963C120.467 18.8886 120.42 18.9809 120.373 19.027C120.327 19.0732 120.233 19.1194 120.14 19.1194H118.227C118.133 19.1194 118.04 19.0732 117.993 19.027C117.947 18.9809 117.9 18.8886 117.9 18.7963V18.7501V18.704L120.14 10.2117C120.233 9.75013 120.42 9.42705 120.653 9.15013C120.887 8.8732 121.12 8.68859 121.353 8.55013C121.587 8.41167 121.867 8.31936 122.147 8.2732C122.427 8.22705 122.66 8.22705 122.847 8.22705C123.033 8.22705 123.267 8.22705 123.547 8.2732C123.827 8.31936 124.06 8.41167 124.34 8.55013C124.573 8.68859 124.807 8.8732 125.04 9.15013C125.273 9.42705 125.413 9.75013 125.553 10.2117L127.84 18.704C127.84 18.7501 127.84 18.7501 127.84 18.7501V18.7963C127.84 18.8886 127.793 18.9809 127.747 19.027C127.7 19.0732 127.607 19.1194 127.513 19.1194H125.6C125.507 19.1194 125.413 19.0732 125.367 19.027C125.32 18.9809 125.273 18.8886 125.227 18.7963L123.22 10.7655Z" fill="white"/>
<path d="M137.92 14.5037C137.92 15.196 137.827 15.8422 137.64 16.396C137.453 16.9499 137.127 17.4576 136.753 17.873C136.38 18.2883 135.867 18.6114 135.307 18.8422C134.747 19.073 134.093 19.2114 133.3 19.2114C132.507 19.2114 131.9 19.073 131.293 18.8422C130.733 18.6114 130.22 18.2883 129.847 17.873C129.473 17.4576 129.147 16.9499 128.96 16.396C128.773 15.8422 128.68 15.196 128.68 14.5037V12.9806C128.68 12.2883 128.773 11.6422 128.96 11.0883C129.147 10.5345 129.473 10.0268 129.847 9.61141C130.22 9.19603 130.733 8.87295 131.293 8.64218C131.853 8.41141 132.507 8.27295 133.3 8.27295C134.093 8.27295 134.7 8.41141 135.307 8.64218C135.867 8.87295 136.333 9.19603 136.753 9.61141C137.127 10.0268 137.453 10.5345 137.64 11.0883C137.827 11.6422 137.92 12.2883 137.92 12.9806V14.5037ZM135.353 12.9806C135.353 12.196 135.167 11.5499 134.84 11.0883C134.513 10.6268 134 10.396 133.3 10.396C132.6 10.396 132.087 10.6268 131.76 11.0883C131.433 11.5499 131.247 12.196 131.247 12.9806V14.5037C131.247 15.2883 131.433 15.9345 131.76 16.396C132.087 16.8576 132.6 17.0883 133.3 17.0883C134 17.0883 134.513 16.8576 134.84 16.396C135.167 15.9345 135.353 15.2883 135.353 14.5037V12.9806Z" fill="white"/>
<path d="M143.473 10.5809C142.867 10.5809 142.54 10.9501 142.54 11.6424V18.7501C142.54 18.8424 142.493 18.9347 142.447 19.027C142.4 19.1193 142.26 19.1193 142.167 19.1193H140.393C140.3 19.1193 140.207 19.0732 140.113 19.027C140.02 18.9809 140.02 18.8424 140.02 18.7501V11.6424C140.02 10.4886 140.3 9.65779 140.813 9.15009C141.373 8.6424 142.26 8.36548 143.473 8.36548H145.76C145.853 8.36548 145.947 8.41163 146.04 8.45779C146.133 8.50394 146.133 8.6424 146.133 8.73471V10.1655C146.133 10.2578 146.087 10.3501 146.04 10.4424C145.993 10.5347 145.853 10.5347 145.76 10.5347H143.473V10.5809Z" fill="white"/>
<path d="M154.02 12.9347L150.193 18.7039C150.1 18.8424 150.007 18.9347 149.913 18.9809C149.82 19.0732 149.633 19.0732 149.4 19.0732H148C147.907 19.0732 147.813 19.027 147.72 18.9347C147.627 18.8424 147.627 18.7501 147.627 18.6578V8.78086C147.627 8.68856 147.673 8.59625 147.72 8.50394C147.813 8.41163 147.907 8.36548 148 8.36548H149.773C149.867 8.36548 149.96 8.41163 150.053 8.50394C150.147 8.59625 150.147 8.68856 150.147 8.78086V14.5501L153.973 8.78086C154.02 8.68856 154.113 8.6424 154.207 8.55009C154.3 8.45779 154.487 8.41163 154.767 8.41163H156.12C156.213 8.41163 156.307 8.45779 156.4 8.55009C156.493 8.6424 156.493 8.73471 156.493 8.82702V18.7501C156.493 18.8424 156.447 18.9347 156.4 19.027C156.307 19.1193 156.213 19.1655 156.12 19.1655H154.347C154.253 19.1655 154.16 19.1193 154.067 19.027C153.973 18.9347 153.973 18.8424 153.973 18.7501V12.9347H154.02Z" fill="white"/>
<path d="M165.313 12.9347L161.487 18.7039C161.393 18.8424 161.3 18.9347 161.207 18.9809C161.113 19.0732 160.927 19.0732 160.693 19.0732H159.293C159.2 19.0732 159.107 19.027 159.013 18.9347C158.92 18.8424 158.92 18.7501 158.92 18.6578V8.78086C158.92 8.68856 158.967 8.59625 159.013 8.50394C159.107 8.41163 159.2 8.36548 159.293 8.36548H161.067C161.16 8.36548 161.253 8.41163 161.347 8.50394C161.44 8.59625 161.44 8.68856 161.44 8.78086V14.5501L165.267 8.78086C165.313 8.68856 165.407 8.6424 165.5 8.55009C165.593 8.45779 165.78 8.41163 166.06 8.41163H167.413C167.507 8.41163 167.6 8.45779 167.693 8.55009C167.787 8.6424 167.787 8.73471 167.787 8.82702V18.7501C167.787 18.8424 167.74 18.9347 167.693 19.027C167.6 19.1193 167.507 19.1655 167.413 19.1655H165.64C165.547 19.1655 165.453 19.1193 165.36 19.027C165.267 18.9347 165.267 18.8424 165.267 18.7501V12.9347H165.313Z" fill="white"/>
<path d="M11.5 3.88846C10.6134 3.01154 10.6134 1.53462 11.5 0.657692C12.3867 -0.219231 13.88 -0.219231 14.7667 0.657692C15.6534 1.53462 15.6534 3.01154 14.7667 3.88846C13.88 4.76538 12.3867 4.76538 11.5 3.88846Z" fill="white"/>
<path d="M16.4 8.73465C15.5133 7.85773 15.5133 6.38081 16.4 5.50388C17.2867 4.62696 18.78 4.62696 19.6667 5.50388C20.5533 6.38081 20.5533 7.85773 19.6667 8.73465C18.78 9.61158 17.2867 9.61158 16.4 8.73465Z" fill="white"/>
<path d="M21.3 13.5808C20.4133 12.7039 20.4133 11.227 21.3 10.3501C22.1867 9.47315 23.68 9.47315 24.5667 10.3501C25.4533 11.227 25.4533 12.7039 24.5667 13.5808C23.68 14.4578 22.1867 14.4578 21.3 13.5808Z" fill="#FF535F"/>
<path d="M6.60002 8.73465C5.66669 7.81158 5.66669 6.38081 6.60002 5.50388C7.48669 4.62696 8.98002 4.62696 9.86669 5.50388C10.7534 6.38081 10.7534 7.85773 9.86669 8.73465C8.93336 9.61158 7.48669 9.61158 6.60002 8.73465Z" fill="white"/>
<path d="M11.5 13.5808C10.6134 12.7039 10.6134 11.227 11.5 10.3501C12.3867 9.47315 13.88 9.47315 14.7667 10.3501C15.6534 11.227 15.6534 12.7039 14.7667 13.5808C13.88 14.4578 12.3867 14.4578 11.5 13.5808Z" fill="#FF535F"/>
<path d="M16.4 18.427C15.5133 17.5501 15.5133 16.0732 16.4 15.1963C17.2867 14.3193 18.78 14.3193 19.6667 15.1963C20.5533 16.0732 20.5533 17.5501 19.6667 18.427C18.78 19.304 17.2867 19.304 16.4 18.427Z" fill="white"/>
<path d="M1.65334 13.5808C0.766676 12.7039 0.766676 11.227 1.65334 10.3501C2.54001 9.47315 4.03334 9.47315 4.92001 10.3501C5.80668 11.227 5.80668 12.7039 4.92001 13.5808C4.03334 14.4578 2.58668 14.4578 1.65334 13.5808Z" fill="white"/>
<path d="M11.5 23.273C10.6134 22.3961 10.6134 20.9191 11.5 20.0422C12.3867 19.1653 13.88 19.1653 14.7667 20.0422C15.6534 20.9191 15.6534 22.3961 14.7667 23.273C13.88 24.1499 12.3867 24.1499 11.5 23.273Z" fill="#FF535F"/>
</svg>
