<svg width="1606" height="963" viewBox="0 0 1606 963" fill="none" xmlns="http://www.w3.org/2000/svg">
<g opacity="0.5">
<line x1="426" y1="769.137" x2="426" y2="263.863" stroke="#284E74" stroke-width="3" stroke-linecap="round" stroke-dasharray="1 17"/>
<line x1="441.5" y1="687.288" x2="441.5" y2="272.957" stroke="#284E74" stroke-width="3" stroke-linecap="round" stroke-dasharray="1 17"/>
<line x1="488.5" y1="718.613" x2="488.5" y2="304.282" stroke="#284E74" stroke-width="3" stroke-linecap="round" stroke-dasharray="1 17"/>
<line x1="503.5" y1="708.508" x2="503.5" y2="294.178" stroke="#284E74" stroke-width="3" stroke-linecap="round" stroke-dasharray="1 17"/>
<line x1="518.5" y1="806.525" x2="518.5" y2="392.194" stroke="#284E74" stroke-width="3" stroke-linecap="round" stroke-dasharray="1 17"/>
<line x1="533.5" y1="870.185" x2="533.5" y2="455.855" stroke="#284E74" stroke-width="3" stroke-linecap="round" stroke-dasharray="1 17"/>
<line x1="548.5" y1="789.346" x2="548.5" y2="375.016" stroke="#284E74" stroke-width="3" stroke-linecap="round" stroke-dasharray="1 17"/>
<line x1="562.5" y1="745.896" x2="562.5" y2="331.565" stroke="#284E74" stroke-width="3" stroke-linecap="round" stroke-dasharray="1 17"/>
<line x1="576.5" y1="698.403" x2="576.5" y2="284.073" stroke="#284E74" stroke-width="3" stroke-linecap="round" stroke-dasharray="1 17"/>
<line x1="590.5" y1="745.896" x2="590.5" y2="331.565" stroke="#284E74" stroke-width="3" stroke-linecap="round" stroke-dasharray="1 17"/>
<line x1="604.5" y1="898.479" x2="604.5" y2="484.148" stroke="#284E74" stroke-width="3" stroke-linecap="round" stroke-dasharray="1 17"/>
<line x1="618.5" y1="871.196" x2="618.5" y2="456.866" stroke="#284E74" stroke-width="3" stroke-linecap="round" stroke-dasharray="1 17"/>
<line x1="633.5" y1="881.301" x2="633.5" y2="466.97" stroke="#284E74" stroke-width="3" stroke-linecap="round" stroke-dasharray="1 17"/>
<line x1="647.5" y1="853.007" x2="647.5" y2="438.677" stroke="#284E74" stroke-width="3" stroke-linecap="round" stroke-dasharray="1 17"/>
<line x1="661.5" y1="915.657" x2="661.5" y2="501.327" stroke="#284E74" stroke-width="3" stroke-linecap="round" stroke-dasharray="1 17"/>
<line x1="675.5" y1="906.563" x2="675.5" y2="492.232" stroke="#284E74" stroke-width="3" stroke-linecap="round" stroke-dasharray="1 17"/>
<line x1="688.5" y1="807.535" x2="688.5" y2="393.205" stroke="#284E74" stroke-width="3" stroke-linecap="round" stroke-dasharray="1 17"/>
<line x1="701.5" y1="889.385" x2="701.5" y2="475.054" stroke="#284E74" stroke-width="3" stroke-linecap="round" stroke-dasharray="1 17"/>
<line x1="715.5" y1="790.357" x2="715.5" y2="376.027" stroke="#284E74" stroke-width="3" stroke-linecap="round" stroke-dasharray="1 17"/>
<line x1="729.5" y1="728.717" x2="729.5" y2="314.387" stroke="#284E74" stroke-width="3" stroke-linecap="round" stroke-dasharray="1 17"/>
<line x1="743.5" y1="739.833" x2="743.5" y2="325.503" stroke="#284E74" stroke-width="3" stroke-linecap="round" stroke-dasharray="1 17"/>
<line x1="814.5" y1="795.409" x2="814.5" y2="461.918" stroke="#284E74" stroke-width="3" stroke-linecap="round" stroke-dasharray="1 17"/>
<line x1="831.5" y1="779.242" x2="831.5" y2="364.911" stroke="#284E74" stroke-width="3" stroke-linecap="round" stroke-dasharray="1 17"/>
<line x1="1.5" y1="-1.5" x2="334.991" y2="-1.5" transform="matrix(4.32578e-08 -1 -1 -4.41697e-08 407 660.494)" stroke="#284E74" stroke-width="3" stroke-linecap="round" stroke-dasharray="1 17"/>
<line x1="1.5" y1="-1.5" x2="415.83" y2="-1.5" transform="matrix(4.32578e-08 -1 -1 -4.41697e-08 390 644.326)" stroke="#284E74" stroke-width="3" stroke-linecap="round" stroke-dasharray="1 17"/>
<line x1="1.5" y1="-1.5" x2="415.83" y2="-1.5" transform="matrix(4.32578e-08 -1 -1 -4.41697e-08 342 654.431)" stroke="#284E74" stroke-width="3" stroke-linecap="round" stroke-dasharray="1 17"/>
<line x1="1.5" y1="-1.5" x2="415.83" y2="-1.5" transform="matrix(4.32578e-08 -1 -1 -4.41697e-08 328 755.479)" stroke="#284E74" stroke-width="3" stroke-linecap="round" stroke-dasharray="1 17"/>
<line x1="1.5" y1="-1.5" x2="415.83" y2="-1.5" transform="matrix(4.32578e-08 -1 -1 -4.41697e-08 313 853.497)" stroke="#284E74" stroke-width="3" stroke-linecap="round" stroke-dasharray="1 17"/>
<line x1="1.5" y1="-1.5" x2="415.83" y2="-1.5" transform="matrix(4.32578e-08 -1 -1 -4.41697e-08 298 917.157)" stroke="#284E74" stroke-width="3" stroke-linecap="round" stroke-dasharray="1 17"/>
<line x1="1.5" y1="-1.5" x2="415.83" y2="-1.5" transform="matrix(4.32578e-08 -1 -1 -4.41697e-08 283 836.318)" stroke="#284E74" stroke-width="3" stroke-linecap="round" stroke-dasharray="1 17"/>
<line x1="1.5" y1="-1.5" x2="415.83" y2="-1.5" transform="matrix(4.32578e-08 -1 -1 -4.41697e-08 269 792.867)" stroke="#284E74" stroke-width="3" stroke-linecap="round" stroke-dasharray="1 17"/>
<line x1="1.5" y1="-1.5" x2="415.83" y2="-1.5" transform="matrix(4.32578e-08 -1 -1 -4.41697e-08 255 745.375)" stroke="#284E74" stroke-width="3" stroke-linecap="round" stroke-dasharray="1 17"/>
<line x1="1.5" y1="-1.5" x2="415.83" y2="-1.5" transform="matrix(4.32578e-08 -1 -1 -4.41697e-08 241 792.867)" stroke="#284E74" stroke-width="3" stroke-linecap="round" stroke-dasharray="1 17"/>
<line x1="1.5" y1="-1.5" x2="415.83" y2="-1.5" transform="matrix(4.32578e-08 -1 -1 -4.41697e-08 227 945.451)" stroke="#284E74" stroke-width="3" stroke-linecap="round" stroke-dasharray="1 17"/>
<line x1="1.5" y1="-1.5" x2="415.83" y2="-1.5" transform="matrix(4.32578e-08 -1 -1 -4.41697e-08 213 918.167)" stroke="#284E74" stroke-width="3" stroke-linecap="round" stroke-dasharray="1 17"/>
<line x1="1.5" y1="-1.5" x2="415.83" y2="-1.5" transform="matrix(4.32578e-08 -1 -1 -4.41697e-08 198 928.272)" stroke="#284E74" stroke-width="3" stroke-linecap="round" stroke-dasharray="1 17"/>
<line x1="1.5" y1="-1.5" x2="415.83" y2="-1.5" transform="matrix(4.32578e-08 -1 -1 -4.41697e-08 184 899.979)" stroke="#284E74" stroke-width="3" stroke-linecap="round" stroke-dasharray="1 17"/>
<line x1="1.5" y1="-1.5" x2="415.83" y2="-1.5" transform="matrix(4.32578e-08 -1 -1 -4.41697e-08 170 962.629)" stroke="#284E74" stroke-width="3" stroke-linecap="round" stroke-dasharray="1 17"/>
<line x1="1.5" y1="-1.5" x2="415.83" y2="-1.5" transform="matrix(4.32578e-08 -1 -1 -4.41697e-08 156 953.535)" stroke="#284E74" stroke-width="3" stroke-linecap="round" stroke-dasharray="1 17"/>
<line x1="1.5" y1="-1.5" x2="415.83" y2="-1.5" transform="matrix(4.32578e-08 -1 -1 -4.41697e-08 143 854.507)" stroke="#284E74" stroke-width="3" stroke-linecap="round" stroke-dasharray="1 17"/>
<line x1="1.5" y1="-1.5" x2="415.83" y2="-1.5" transform="matrix(4.32578e-08 -1 -1 -4.41697e-08 130 936.356)" stroke="#284E74" stroke-width="3" stroke-linecap="round" stroke-dasharray="1 17"/>
<line x1="1.5" y1="-1.5" x2="415.83" y2="-1.5" transform="matrix(4.32578e-08 -1 -1 -4.41697e-08 116 837.329)" stroke="#284E74" stroke-width="3" stroke-linecap="round" stroke-dasharray="1 17"/>
<line x1="1.5" y1="-1.5" x2="415.83" y2="-1.5" transform="matrix(4.32578e-08 -1 -1 -4.41697e-08 102 775.689)" stroke="#284E74" stroke-width="3" stroke-linecap="round" stroke-dasharray="1 17"/>
<line x1="1.5" y1="-1.5" x2="415.83" y2="-1.5" transform="matrix(4.32578e-08 -1 -1 -4.41697e-08 88 786.804)" stroke="#284E74" stroke-width="3" stroke-linecap="round" stroke-dasharray="1 17"/>
<line x1="1.5" y1="-1.5" x2="334.991" y2="-1.5" transform="matrix(4.32578e-08 -1 -1 -4.41697e-08 17 842.381)" stroke="#284E74" stroke-width="3" stroke-linecap="round" stroke-dasharray="1 17"/>
<line x1="1.5" y1="-1.5" x2="415.83" y2="-1.5" transform="matrix(4.32578e-08 -1 -1 -4.41697e-08 0 826.213)" stroke="#284E74" stroke-width="3" stroke-linecap="round" stroke-dasharray="1 17"/>
<line x1="879.5" y1="771.158" x2="879.5" y2="356.827" stroke="#284E74" stroke-width="3" stroke-linecap="round" stroke-dasharray="1 17"/>
<line x1="893.5" y1="708.508" x2="893.5" y2="294.178" stroke="#284E74" stroke-width="3" stroke-linecap="round" stroke-dasharray="1 17"/>
<line x1="908.5" y1="806.525" x2="908.5" y2="392.194" stroke="#284E74" stroke-width="3" stroke-linecap="round" stroke-dasharray="1 17"/>
<line x1="923.5" y1="870.185" x2="923.5" y2="455.855" stroke="#284E74" stroke-width="3" stroke-linecap="round" stroke-dasharray="1 17"/>
<line x1="938.5" y1="789.346" x2="938.5" y2="375.016" stroke="#284E74" stroke-width="3" stroke-linecap="round" stroke-dasharray="1 17"/>
<line x1="952.5" y1="907.573" x2="952.5" y2="493.243" stroke="#284E74" stroke-width="3" stroke-linecap="round" stroke-dasharray="1 17"/>
<line x1="966.5" y1="860.08" x2="966.5" y2="445.75" stroke="#284E74" stroke-width="3" stroke-linecap="round" stroke-dasharray="1 17"/>
<line x1="980.5" y1="907.573" x2="980.5" y2="493.243" stroke="#284E74" stroke-width="3" stroke-linecap="round" stroke-dasharray="1 17"/>
<line x1="994.5" y1="772.168" x2="994.5" y2="357.838" stroke="#284E74" stroke-width="3" stroke-linecap="round" stroke-dasharray="1 17"/>
<line x1="1008.5" y1="871.196" x2="1008.5" y2="456.866" stroke="#284E74" stroke-width="3" stroke-linecap="round" stroke-dasharray="1 17"/>
<line x1="1.5" y1="-1.5" x2="415.83" y2="-1.5" transform="matrix(4.32578e-08 -1 -1 -4.41697e-08 1175 882.801)" stroke="#284E74" stroke-width="3" stroke-linecap="round" stroke-dasharray="1 17"/>
<line x1="1.5" y1="-1.5" x2="415.83" y2="-1.5" transform="matrix(4.32578e-08 -1 -1 -4.41697e-08 1161 854.507)" stroke="#284E74" stroke-width="3" stroke-linecap="round" stroke-dasharray="1 17"/>
<line x1="1.5" y1="-1.5" x2="415.83" y2="-1.5" transform="matrix(4.32578e-08 -1 -1 -4.41697e-08 1147 917.157)" stroke="#284E74" stroke-width="3" stroke-linecap="round" stroke-dasharray="1 17"/>
<line x1="1.5" y1="-1.5" x2="415.83" y2="-1.5" transform="matrix(4.32578e-08 -1 -1 -4.41697e-08 1133 908.063)" stroke="#284E74" stroke-width="3" stroke-linecap="round" stroke-dasharray="1 17"/>
<line x1="1.5" y1="-1.5" x2="415.83" y2="-1.5" transform="matrix(4.32578e-08 -1 -1 -4.41697e-08 1120 754.469)" stroke="#284E74" stroke-width="3" stroke-linecap="round" stroke-dasharray="1 17"/>
<line x1="1.5" y1="-1.5" x2="415.83" y2="-1.5" transform="matrix(4.32578e-08 -1 -1 -4.41697e-08 1107 710.008)" stroke="#284E74" stroke-width="3" stroke-linecap="round" stroke-dasharray="1 17"/>
<line x1="1.5" y1="-1.5" x2="415.83" y2="-1.5" transform="matrix(4.32578e-08 -1 -1 -4.41697e-08 1093 755.479)" stroke="#284E74" stroke-width="3" stroke-linecap="round" stroke-dasharray="1 17"/>
<line x1="1.5" y1="-1.5" x2="415.83" y2="-1.5" transform="matrix(4.32578e-08 -1 -1 -4.41697e-08 1079 889.874)" stroke="#284E74" stroke-width="3" stroke-linecap="round" stroke-dasharray="1 17"/>
<line x1="1.5" y1="-1.5" x2="415.83" y2="-1.5" transform="matrix(4.32578e-08 -1 -1 -4.41697e-08 1065 900.989)" stroke="#284E74" stroke-width="3" stroke-linecap="round" stroke-dasharray="1 17"/>
<line x1="1244.5" y1="694.361" x2="1244.5" y2="360.869" stroke="#284E74" stroke-width="3" stroke-linecap="round" stroke-dasharray="1 17"/>
<line x1="1261.5" y1="678.193" x2="1261.5" y2="263.863" stroke="#284E74" stroke-width="3" stroke-linecap="round" stroke-dasharray="1 17"/>
<line x1="1309.5" y1="670.109" x2="1309.5" y2="255.779" stroke="#284E74" stroke-width="3" stroke-linecap="round" stroke-dasharray="1 17"/>
<line x1="1323.5" y1="607.459" x2="1323.5" y2="193.129" stroke="#284E74" stroke-width="3" stroke-linecap="round" stroke-dasharray="1 17"/>
<line x1="1338.5" y1="705.476" x2="1338.5" y2="291.146" stroke="#284E74" stroke-width="3" stroke-linecap="round" stroke-dasharray="1 17"/>
<line x1="1353.5" y1="769.137" x2="1353.5" y2="354.806" stroke="#284E74" stroke-width="3" stroke-linecap="round" stroke-dasharray="1 17"/>
<line x1="1368.5" y1="688.298" x2="1368.5" y2="273.968" stroke="#284E74" stroke-width="3" stroke-linecap="round" stroke-dasharray="1 17"/>
<line x1="1382.5" y1="806.525" x2="1382.5" y2="392.194" stroke="#284E74" stroke-width="3" stroke-linecap="round" stroke-dasharray="1 17"/>
<line x1="1396.5" y1="759.032" x2="1396.5" y2="344.702" stroke="#284E74" stroke-width="3" stroke-linecap="round" stroke-dasharray="1 17"/>
<line x1="1410.5" y1="806.525" x2="1410.5" y2="392.194" stroke="#284E74" stroke-width="3" stroke-linecap="round" stroke-dasharray="1 17"/>
<line x1="1424.5" y1="671.12" x2="1424.5" y2="256.789" stroke="#284E74" stroke-width="3" stroke-linecap="round" stroke-dasharray="1 17"/>
<line x1="1438.5" y1="861.091" x2="1438.5" y2="446.761" stroke="#284E74" stroke-width="3" stroke-linecap="round" stroke-dasharray="1 17"/>
<line x1="1.5" y1="-1.5" x2="415.83" y2="-1.5" transform="matrix(4.32578e-08 -1 -1 -4.41697e-08 1605 872.696)" stroke="#284E74" stroke-width="3" stroke-linecap="round" stroke-dasharray="1 17"/>
<line x1="1.5" y1="-1.5" x2="415.83" y2="-1.5" transform="matrix(4.32578e-08 -1 -1 -4.41697e-08 1591 844.402)" stroke="#284E74" stroke-width="3" stroke-linecap="round" stroke-dasharray="1 17"/>
<line x1="1.5" y1="-1.5" x2="415.83" y2="-1.5" transform="matrix(4.32578e-08 -1 -1 -4.41697e-08 1577 907.052)" stroke="#284E74" stroke-width="3" stroke-linecap="round" stroke-dasharray="1 17"/>
<line x1="1.5" y1="-1.5" x2="415.83" y2="-1.5" transform="matrix(4.32578e-08 -1 -1 -4.41697e-08 1563 897.958)" stroke="#284E74" stroke-width="3" stroke-linecap="round" stroke-dasharray="1 17"/>
<line x1="1.5" y1="-1.5" x2="415.83" y2="-1.5" transform="matrix(4.32578e-08 -1 -1 -4.41697e-08 1550 744.364)" stroke="#284E74" stroke-width="3" stroke-linecap="round" stroke-dasharray="1 17"/>
<line x1="1.5" y1="-1.5" x2="415.83" y2="-1.5" transform="matrix(4.32578e-08 -1 -1 -4.41697e-08 1537 699.903)" stroke="#284E74" stroke-width="3" stroke-linecap="round" stroke-dasharray="1 17"/>
<line x1="1.5" y1="-1.5" x2="415.83" y2="-1.5" transform="matrix(4.32578e-08 -1 -1 -4.41697e-08 1523 745.375)" stroke="#284E74" stroke-width="3" stroke-linecap="round" stroke-dasharray="1 17"/>
<line x1="1.5" y1="-1.5" x2="415.83" y2="-1.5" transform="matrix(4.32578e-08 -1 -1 -4.41697e-08 1509 879.769)" stroke="#284E74" stroke-width="3" stroke-linecap="round" stroke-dasharray="1 17"/>
<line x1="1.5" y1="-1.5" x2="415.83" y2="-1.5" transform="matrix(4.32578e-08 -1 -1 -4.41697e-08 1495 890.885)" stroke="#284E74" stroke-width="3" stroke-linecap="round" stroke-dasharray="1 17"/>
</g>
<path d="M426 568.5L426 68.5M441.5 487.5L441.5 77.5M488.5 519.5L488.5 109.5M503.5 509.5L503.5 99.5M518.5 606.5V196.5M534 671.5V261.5M548.5 589.5V179.5M562.5 546.5V136.5M576.5 499.5V89.5M590.5 546.5V136.5M605 699.5V289.5M619 672.5V262.5M634 682.5V272.5M648 654.5V244.5M662 716.5V306.5M676 707.5V297.5M688.5 607.5V197.5M702 690.5V280.5M715.5 590.5V180.5M729.5 529.5V119.5M743.5 540.5V130.5M815 597.5V267.5M831.5 579.5V169.5M409 462.5V132.5M391.5 443.5L391.5 33.5M343.5 454.5L343.5 44.5M329.5 554.5L329.5 144.5M315 653.5L315 243.5M300 716.5L300 306.5M284.5 634.5L284.5 224.5M270.5 591.5L270.5 181.5M256.5 544.5L256.5 134.5M242.5 591.5L242.5 181.5M229 744.5L229 334.5M215 717.5L215 307.5M200 727.5L200 317.5M185.5 698.5L185.5 288.5M172 761.5L172 351.5M158 752.5L158 342.5M144.5 653.5L144.5 243.5M131.5 734.5L131.5 324.5M117.5 636.5L117.5 226.5M103.5 575.5L103.5 165.5M89.5001 586.5L89.5001 176.5M19 642.5L19 312.5M2 626.5L2.00002 216.5M879.5 571.5V161.5M893.5 509.5V99.5M908.5 606.5V196.5M924 671.5V261.5M938.5 589.5V179.5M953 708.5V298.5M967 661.5V251.5M981 708.5V298.5M994.5 572.5V162.5M1009 672.5V262.5M1177 682.5V272.5M1163 654.5V244.5M1149 716.5V306.5M1135 707.5V297.5M1122 553.5V143.5M1108.5 509.5V99.5M1094.5 553.5V143.5M1081 689.5V279.5M1067 700.5V290.5M1245 497.5V167.5M1261.5 479.5V69.5M1309.5 471.5V61.5M1323.5 409.5V-0.5M1338.5 506.5V96.5M1353.5 569.5V159.5M1368.5 489.5V79.5M1382.5 606.5V196.5M1396.5 559.5V149.5M1410.5 606.5V196.5M1424.5 472.5V62.5M1439 662.5V252.5M1607 672.5V262.5M1593 644.5V234.5M1579 706.5V296.5M1565 697.5V287.5M1551.5 543.5V133.5M1538.5 499.5V89.5M1524.5 544.5V134.5M1511 679.5V269.5M1497 690.5V280.5" stroke="url(#paint0_linear_71_5881)" stroke-width="3" stroke-linecap="round" stroke-dasharray="1 17"/>
<defs>
<linearGradient id="paint0_linear_71_5881" x1="1329.01" y1="19" x2="1329.01" y2="620" gradientUnits="userSpaceOnUse">
<stop stop-color="#1B3957"/>
<stop offset="1" stop-color="#234C71"/>
</linearGradient>
</defs>
</svg>
