<svg width="257" height="213" viewBox="0 0 257 213" fill="none" xmlns="http://www.w3.org/2000/svg">
<g clip-path="url(#clip0_429_20455)">
<path fill-rule="evenodd" clip-rule="evenodd" d="M112.495 322.887L7.01232 273.947C3.14184 271.625 0.0454585 270.851 0.0454171 261.562C0.0453924 232.146 0.0454422 152.414 0.0454343 113.709C0.0454336 110.59 5.4167 107.82 6.79824 107.221L112.495 58.0945C121.499 53.8056 135.983 53.8056 144.596 58.0945L250.292 107.221C251.316 107.709 256.255 109.793 257.045 114.483C257.045 143.899 257.045 232.92 257.045 265.432C256.255 270.087 254.723 271.625 250.292 273.76L144.596 322.887C135.592 326.786 121.107 326.786 112.495 322.887Z" fill="url(#paint0_linear_429_20455)"/>
<path d="M133.259 173.795C138.076 173.713 140.538 172.929 144.736 170.926L245.978 124.198C245.978 124.198 255.406 119.69 257.045 116.001L256.635 269.2L136.128 327.503L133.259 173.795Z" fill="url(#paint1_linear_429_20455)"/>
<path fill-rule="evenodd" clip-rule="evenodd" d="M112.45 171.164L6.75285 122.037C-2.25095 117.749 -2.25095 111.12 6.75285 107.221L112.45 58.0945C121.454 53.8056 135.938 53.8056 144.55 58.0945L250.247 107.221C259.251 111.51 259.251 118.139 250.247 122.037L144.55 171.164C135.546 175.063 121.062 175.063 112.45 171.164Z" fill="url(#paint2_linear_429_20455)"/>
<path fill-rule="evenodd" clip-rule="evenodd" d="M6.75285 107.221C-2.25095 111.12 -2.25095 117.749 6.75285 122.037L112.45 171.164C121.062 175.063 135.546 175.063 144.55 171.164L250.247 122.037C259.251 118.139 259.251 111.51 250.247 107.221L144.55 58.0945C135.938 53.8056 121.454 53.8056 112.45 58.0945L6.75285 107.221ZM249.395 109.031C249.393 109.03 249.39 109.028 249.387 109.027L143.683 59.8968L143.659 59.8847C139.71 57.9185 134.266 56.8778 128.647 56.8778C123.033 56.8778 117.473 57.9169 113.31 59.9001L113.301 59.9041L7.57186 109.046L7.54761 109.057C3.26381 110.912 2 113.04 2 114.483C2 115.962 3.30843 118.179 7.60408 120.228C7.60703 120.229 7.60998 120.23 7.61294 120.232L113.275 169.342C113.278 169.344 113.281 169.345 113.284 169.347C117.251 171.14 122.717 172.089 128.353 172.089C133.978 172.089 139.552 171.144 143.732 169.339L249.428 120.213L249.452 120.202C253.736 118.347 255 116.219 255 114.776C255 113.297 253.691 111.079 249.395 109.031Z" fill="url(#paint3_linear_429_20455)"/>
<path fill-rule="evenodd" clip-rule="evenodd" d="M185.045 8.02123C185.045 8.02177 185.045 8.02227 184.045 8.02227L185.045 8.02227L185.045 17.1608L183.045 17.1608L183.045 8.02412L183.045 8.02307L183.045 8.00849C183.045 8.0005 183.045 7.98952 183.045 7.97567C183.044 7.96553 183.044 7.95385 183.044 7.94069C183.042 7.87838 183.038 7.78305 183.029 7.66015C183.012 7.41385 182.978 7.05959 182.91 6.64022C182.772 5.79291 182.5 4.72239 181.976 3.74402C181.457 2.77292 180.711 1.93052 179.629 1.44662C178.564 0.96992 177.05 0.786317 174.88 1.34334L149.076 13.0281C145.93 14.5226 143.22 16.2423 141.27 19.1205C139.318 22.0008 138.045 26.1647 138.045 32.696L138.045 101.065C138.045 105.187 139.337 107.762 141.093 108.983C142.823 110.186 145.308 110.283 148.195 108.783L148.221 108.769L161.161 102.993L161.976 104.819L149.09 110.572C145.777 112.284 142.467 112.375 139.951 110.625C137.454 108.889 136.045 105.548 136.045 101.065L136.045 32.696C136.045 25.9141 137.367 21.3151 139.614 17.9985C141.861 14.6822 144.954 12.7715 148.227 11.2176L148.235 11.2137L174.21 -0.548595L174.291 -0.570008C176.828 -1.23775 178.853 -1.09182 180.446 -0.379012C182.036 0.332435 183.072 1.55259 183.74 2.80029C184.403 4.04072 184.725 5.34526 184.884 6.3183C184.964 6.80911 185.004 7.22635 185.025 7.52402C185.035 7.67309 185.04 7.79286 185.043 7.87765C185.044 7.92006 185.045 7.95378 185.045 7.97811L185.045 8.00748L185.045 8.01673L185.045 8.02123Z" fill="#CCCCCC"/>
<path fill-rule="evenodd" clip-rule="evenodd" d="M202.045 88.5618V14.8189C202.045 14.8189 200.836 2.93464 189.04 7.81016L164.679 18.1589C158.243 21.2298 153.045 25.4722 153.045 38.88L153.045 107.734C153.045 116.401 158.458 119.648 164.679 116.401L191.267 104.195C197.489 100.947 202.045 98.0082 202.045 88.5618Z" fill="#2F5F99"/>
<path fill-rule="evenodd" clip-rule="evenodd" d="M204.045 89.5618V15.8189C204.045 15.8189 202.836 3.93464 191.04 8.81016L166.679 19.1589C160.243 22.2298 155.045 26.4722 155.045 39.88L155.045 108.734C155.045 117.401 160.458 120.648 166.679 117.401L193.267 105.195C199.489 101.947 204.045 99.0082 204.045 89.5618Z" fill="#1D4267"/>
<path fill-rule="evenodd" clip-rule="evenodd" d="M221.045 24.0412V23.0354C221.045 23.0354 221.001 22.6086 220.847 21.9517L219.874 22.1801C219.944 22.4826 219.99 22.7301 220.017 22.8985C220.03 22.9826 220.039 23.0467 220.044 23.0878C220.045 23.0903 220.045 23.0926 220.045 23.0949V24.0412H221.045ZM220.158 19.8567L219.24 20.2543C218.989 19.6756 218.67 19.082 218.264 18.5297L219.07 17.938C219.529 18.5622 219.884 19.224 220.158 19.8567ZM217.531 16.3656L216.931 17.1659C216.455 16.8095 215.907 16.5129 215.271 16.3082L215.578 15.3563C216.325 15.5968 216.971 15.9464 217.531 16.3656ZM213.407 15.0026L213.383 16.0023C212.787 15.9879 212.125 16.0397 211.393 16.1765L211.209 15.1935C212.004 15.0451 212.735 14.9864 213.407 15.0026ZM209.075 15.765L209.399 16.7111C209.083 16.8193 208.757 16.9412 208.42 17.0778C208.419 17.0784 208.417 17.079 208.416 17.0796L207.555 17.4389L207.17 16.516L208.04 16.153C208.394 16.0091 208.739 15.88 209.075 15.765ZM205.43 17.2418L205.815 18.1647L204.074 18.8906L203.689 17.9677L205.43 17.2418ZM201.949 18.6936L202.334 19.6165L200.594 20.3424L200.209 19.4195L201.949 18.6936ZM198.469 20.1453L198.854 21.0682L197.114 21.7941L196.729 20.8712L198.469 20.1453ZM194.989 21.5971L195.374 22.52L193.634 23.2459L193.249 22.323L194.989 21.5971ZM184.629 122.359L183.679 122.787C183.401 122.929 183.125 123.059 182.851 123.176L182.458 122.257C182.71 122.149 182.965 122.029 183.223 121.897L183.245 121.886L184.218 121.447L184.629 122.359ZM181.122 123.755L180.888 122.783C180.332 122.917 179.8 122.987 179.295 122.998L179.317 123.998C179.899 123.985 180.503 123.904 181.122 123.755ZM177.507 123.805L177.748 122.835C177.246 122.71 176.777 122.516 176.343 122.255L175.827 123.111C176.347 123.425 176.91 123.657 177.507 123.805ZM174.424 121.951L175.164 121.278C174.83 120.912 174.526 120.482 174.258 119.987L173.378 120.463C173.682 121.024 174.033 121.521 174.424 121.951ZM172.673 118.782L173.626 118.48C173.467 117.979 173.337 117.435 173.241 116.845L172.254 117.007C172.358 117.64 172.498 118.232 172.673 118.782ZM172.067 115.191L173.066 115.143C173.052 114.862 173.045 114.573 173.045 114.276L173.045 113.282H172.045L172.045 114.276C172.045 114.588 172.053 114.893 172.067 115.191ZM172.045 111.293H173.045L173.045 109.305H172.045L172.045 111.293ZM172.045 107.316H173.045L173.045 105.327H172.045L172.045 107.316ZM172.045 103.339H173.045L173.045 101.35H172.045L172.045 103.339ZM172.045 99.3615H173.045L173.045 97.3729H172.045L172.045 99.3615ZM172.045 95.3843H173.045L173.045 93.3957H172.045L172.045 95.3843ZM172.045 91.407H173.045L173.045 89.4184H172.045L172.045 91.407ZM172.045 87.4298H173.045L173.045 85.4412H172.045L172.045 87.4298ZM172.045 83.4526H173.045L173.045 81.4639H172.045L172.045 83.4526ZM172.045 79.4753H173.045L173.045 77.4867H172.045L172.045 79.4753ZM172.045 75.4981H173.045L173.045 73.5095H172.045L172.045 75.4981ZM172.045 71.5208H173.045L173.045 69.5322H172.045L172.045 71.5208ZM172.045 67.5436H173.045L173.045 65.555H172.045L172.045 67.5436ZM172.045 63.5663H173.045L173.045 61.5777H172.045L172.045 63.5663ZM172.045 59.5891H173.045L173.045 57.6005H172.045L172.045 59.5891ZM172.045 55.6119H173.045L173.045 53.6232H172.045L172.045 55.6119ZM172.045 51.6346H173.045L173.045 49.646H172.045L172.045 51.6346ZM172.045 47.6574H173.045L173.045 46.6631C173.045 46.3135 173.049 45.9706 173.057 45.6345L172.057 45.6125C172.049 45.9562 172.045 46.3063 172.045 46.6631L172.045 47.6574ZM172.154 43.5176L173.151 43.59C173.203 42.8831 173.272 42.2094 173.358 41.5669L172.367 41.4338C172.278 42.0976 172.207 42.7915 172.154 43.5176ZM172.721 39.371L173.699 39.5776C173.844 38.8906 174.011 38.245 174.199 37.6373L173.243 37.3425C173.046 37.9808 172.872 38.6559 172.721 39.371ZM173.967 35.3774L174.884 35.7753C175.157 35.1463 175.456 34.5644 175.777 34.0236L174.918 33.512C174.574 34.0903 174.256 34.7103 173.967 35.3774ZM176.111 31.7919L176.89 32.4178C177.306 31.9002 177.749 31.4242 178.217 30.9825L177.531 30.255C177.031 30.7269 176.556 31.2367 176.111 31.7919ZM179.143 28.918L179.734 29.7244C180.266 29.3343 180.823 28.9717 181.402 28.6293L180.893 27.7685C180.29 28.1253 179.705 28.5058 179.143 28.918ZM182.735 26.7713C183.047 26.6158 183.361 26.4641 183.679 26.3153L184.549 25.9523L184.934 26.8752L184.084 27.2299C183.779 27.3727 183.479 27.5178 183.182 27.6659L182.735 26.7713ZM186.289 25.2265L186.674 26.1494L188.414 25.4235L188.029 24.5006L186.289 25.2265ZM189.769 23.7747L190.154 24.6976L191.894 23.9717L191.509 23.0488L189.769 23.7747ZM186.528 121.503L188.427 120.647L188.016 119.735L186.117 120.591L186.528 121.503ZM190.326 119.791L189.915 118.879L191.814 118.023L192.225 118.934L190.326 119.791ZM194.124 118.078L193.713 117.167L195.613 116.311L196.023 117.222L194.124 118.078ZM197.923 116.366L197.512 115.454L199.411 114.598L199.822 115.51L197.923 116.366ZM201.721 114.654L201.31 113.742L203.209 112.886L203.62 113.798L201.721 114.654ZM205.519 112.942L205.108 112.03L207.007 111.174L207.418 112.086L205.519 112.942ZM209.318 111.229L208.907 110.318L209.833 109.9C210.126 109.75 210.414 109.601 210.697 109.452L211.162 110.338C210.868 110.492 210.569 110.646 210.267 110.801L209.318 111.229ZM212.928 109.374L212.43 108.506C213.01 108.173 213.563 107.836 214.085 107.487L214.641 108.318C214.095 108.683 213.523 109.032 212.928 109.374ZM216.256 107.119L215.616 106.351C216.104 105.945 216.554 105.517 216.966 105.06L217.709 105.73C217.262 106.226 216.776 106.686 216.256 107.119ZM218.926 104.13L218.082 103.595C218.401 103.092 218.685 102.551 218.932 101.961L219.854 102.348C219.586 102.989 219.275 103.58 218.926 104.13ZM220.487 100.44L219.518 100.194C219.665 99.6174 219.783 98.9993 219.87 98.3339L220.862 98.4638C220.77 99.1656 220.644 99.8228 220.487 100.44ZM221.045 26.0527H220.045V28.0642H221.045V26.0527ZM221.045 30.0757H220.045V32.0872H221.045V30.0757ZM221.045 34.0987H220.045V36.1102H221.045V34.0987ZM221.045 38.1217H220.045V40.1332H221.045V38.1217ZM221.045 42.1447H220.045V44.1562H221.045V42.1447ZM221.045 46.1678H220.045V48.1793H221.045V46.1678ZM221.045 50.1908H220.045V52.2023H221.045V50.1908ZM221.045 54.2138H220.045V56.2253H221.045V54.2138ZM221.045 58.2368H220.045V60.2483H221.045V58.2368ZM221.045 62.2598H220.045V64.2713H221.045V62.2598ZM221.045 66.2828H220.045V68.2943H221.045V66.2828ZM221.045 70.3058H220.045V72.3173H221.045V70.3058ZM221.045 74.3288H220.045V76.3403H221.045V74.3288ZM221.045 78.3518H220.045V80.3633H221.045V78.3518ZM221.045 82.3748H220.045V84.3864H221.045V82.3748ZM221.045 86.3979H220.045V88.4094H221.045V86.3979ZM221.045 90.4209H220.045V92.4324H221.045V90.4209ZM221.045 94.4439H220.045V95.4496C220.045 95.7824 220.039 96.1059 220.027 96.4204L221.027 96.4584C221.039 96.1308 221.045 95.7946 221.045 95.4496V94.4439Z" fill="white"/>
<path fill-rule="evenodd" clip-rule="evenodd" d="M66.4817 6.57438C64.4754 8.29825 64.0454 10.9461 64.0454 12.4779V21.5623H66.0454V12.4779C66.0454 11.1808 66.4302 9.2555 67.7851 8.09131C69.0604 6.99547 71.5579 6.28367 76.4766 8.16696L98.4306 17.9938C101.719 19.6516 104.038 20.8934 105.604 22.9359C107.143 24.9442 108.045 27.8693 108.045 33.1099V101.706C108.045 105.782 106.419 108.179 104.282 109.265C102.094 110.377 99.1171 110.25 96.2056 108.725L96.1993 108.721L84.8445 102.877L83.9291 104.655L95.2776 110.496C95.2787 110.497 95.2797 110.497 95.2807 110.498C98.6115 112.241 102.285 112.524 105.188 111.048C108.142 109.546 110.045 106.356 110.045 101.706V33.1099C110.045 27.6708 109.115 24.2292 107.191 21.7193C105.297 19.2477 102.53 17.8206 99.3104 16.1975L99.2898 16.1871L77.244 6.31924L77.2187 6.30953C71.9689 4.2934 68.5653 4.78402 66.4817 6.57438Z" fill="#CCCCCC"/>
<path fill-rule="evenodd" clip-rule="evenodd" d="M43.0454 93.6638V19.2566C43.0454 19.2566 44.2799 7.26531 56.3167 12.1848L81.1743 22.6267C87.7414 25.7253 93.0454 30.0059 93.0454 43.5345L93.0454 113.009C93.0454 121.754 87.5228 125.031 81.1743 121.754L54.0437 109.438C47.6952 106.161 43.0454 103.195 43.0454 93.6638Z" fill="#2F5F99"/>
<path fill-rule="evenodd" clip-rule="evenodd" d="M41.0454 94.6638V20.2566C41.0454 20.2566 42.2799 8.26531 54.3167 13.1848L79.1743 23.6267C85.7414 26.7253 91.0454 31.0059 91.0454 44.5345L91.0454 114.009C91.0454 122.754 85.5228 126.031 79.1743 122.754L52.0437 110.438C45.6952 107.161 41.0454 104.195 41.0454 94.6638Z" fill="#1D4267"/>
<path d="M34.031 80.8568L49.4926 56L52.4675 57.1307L36.6596 81.9875L34.031 80.8568Z" fill="white"/>
<path d="M66.0454 82L49.8176 80.1518V77.7003L62.6126 79.2305L49.8176 68.6028V65.4008L66.0454 78.8407V82Z" fill="white"/>
<path d="M19.0454 57.4916L35.2733 59.3398V61.7914L22.4782 60.2612L35.2733 70.8888V74.0908L19.0454 60.651V57.4916Z" fill="white"/>
<path fill-rule="evenodd" clip-rule="evenodd" d="M208.99 76.357C209.224 76.8576 209.007 77.4525 208.507 77.686L205.631 79.027C205.131 79.2604 204.536 79.0438 204.302 78.5433C204.069 78.0428 204.285 77.4478 204.786 77.2144L207.662 75.8734C208.162 75.6399 208.757 75.8565 208.99 76.357ZM192.311 84.135C192.545 84.6355 192.328 85.2305 191.828 85.4639L188.952 86.8049C188.451 87.0383 187.856 86.8218 187.623 86.3212C187.39 85.8207 187.606 85.2257 188.107 84.9923L190.982 83.6513C191.483 83.4179 192.078 83.6344 192.311 84.135Z" fill="white"/>
<path fill-rule="evenodd" clip-rule="evenodd" d="M208.347 85.9912C208.59 86.4872 208.384 87.0862 207.888 87.329L201.013 90.6948C200.517 90.9376 199.918 90.7324 199.675 90.2363C199.433 89.7403 199.638 89.1413 200.134 88.8985L207.009 85.5327C207.505 85.2899 208.104 85.4952 208.347 85.9912ZM194.819 92.6141C195.061 93.1101 194.856 93.7091 194.36 93.9519L187.485 97.3177C186.989 97.5605 186.39 97.3552 186.147 96.8592C185.904 96.3632 186.11 95.7642 186.606 95.5214L193.481 92.1556C193.977 91.9128 194.576 92.1181 194.819 92.6141Z" fill="white"/>
<path fill-rule="evenodd" clip-rule="evenodd" d="M210.952 64.8756C211.185 65.3763 210.968 65.9711 210.467 66.204L187.467 76.9041C186.966 77.1371 186.372 76.92 186.139 76.4192C185.906 75.9185 186.123 75.3237 186.624 75.0907L209.624 64.3907C210.124 64.1577 210.719 64.3748 210.952 64.8756Z" fill="white"/>
<path fill-rule="evenodd" clip-rule="evenodd" d="M208.347 54.0647C208.59 54.5607 208.384 55.1597 207.888 55.4025L201.013 58.7683C200.517 59.0111 199.918 58.8058 199.675 58.3098C199.433 57.8138 199.638 57.2148 200.134 56.972L207.009 53.6062C207.505 53.3634 208.104 53.5686 208.347 54.0647ZM194.819 60.6876C195.061 61.1836 194.856 61.7826 194.36 62.0254L187.485 65.3911C186.989 65.634 186.39 65.4287 186.147 64.9327C185.904 64.4367 186.11 63.8377 186.606 63.5949L193.481 60.2291C193.977 59.9863 194.576 60.1915 194.819 60.6876Z" fill="white"/>
<path fill-rule="evenodd" clip-rule="evenodd" d="M210.952 42.5783C211.185 43.0791 210.968 43.6738 210.467 43.9068L187.467 54.6069C186.966 54.8398 186.372 54.6227 186.139 54.122C185.906 53.6212 186.123 53.0265 186.624 52.7935L209.624 42.0934C210.124 41.8605 210.719 42.0776 210.952 42.5783Z" fill="white"/>
</g>
<defs>
<linearGradient id="paint0_linear_429_20455" x1="128.545" y1="157.694" x2="128.545" y2="202.023" gradientUnits="userSpaceOnUse">
<stop stop-color="#122941"/>
<stop offset="1" stop-color="#2A283F"/>
</linearGradient>
<linearGradient id="paint1_linear_429_20455" x1="166.5" y1="95.0227" x2="206.393" y2="263.337" gradientUnits="userSpaceOnUse">
<stop stop-color="#1E5777"/>
<stop offset="1" stop-color="#4D2A49"/>
</linearGradient>
<linearGradient id="paint2_linear_429_20455" x1="128.602" y1="54.8778" x2="128.499" y2="174.089" gradientUnits="userSpaceOnUse">
<stop stop-color="#132539"/>
<stop offset="1" stop-color="#83313D"/>
</linearGradient>
<linearGradient id="paint3_linear_429_20455" x1="128.5" y1="54.8778" x2="128.5" y2="174.089" gradientUnits="userSpaceOnUse">
<stop offset="0.5625" stop-color="#A96F6F" stop-opacity="0"/>
<stop offset="1" stop-color="#D13333"/>
</linearGradient>
<clipPath id="clip0_429_20455">
<rect width="257" height="213" fill="white"/>
</clipPath>
</defs>
</svg>
