<svg width="480" height="32" viewBox="0 0 480 32" fill="none" xmlns="http://www.w3.org/2000/svg">
<path fill-rule="evenodd" clip-rule="evenodd" d="M26 3H6C4.34315 3 3 4.34315 3 6V18.981L7.486 14.7193C10.0143 12.3174 13.9875 12.3387 16.49 14.7675L28.8911 26.8039C28.9621 26.5481 29 26.2785 29 26V6C29 4.34315 27.6569 3 26 3ZM3 26V23.1181C3.01115 23.1081 3.0222 23.0979 3.03312 23.0875L9.55225 16.8943C10.9136 15.601 13.0531 15.6125 14.4005 16.9203L26.7491 28.9057C26.5097 28.9673 26.2587 29 26 29H6C4.34315 29 3 27.6569 3 26ZM6 0C2.68629 0 0 2.68629 0 6V26C0 29.3137 2.68629 32 6 32H26C29.3137 32 32 29.3137 32 26V6C32 2.68629 29.3137 0 26 0H6ZM22 15C24.7614 15 27 12.7614 27 10C27 7.23858 24.7614 5 22 5C19.2386 5 17 7.23858 17 10C17 12.7614 19.2386 15 22 15ZM24 10C24 11.1046 23.1046 12 22 12C20.8954 12 20 11.1046 20 10C20 8.89543 20.8954 8 22 8C23.1046 8 24 8.89543 24 10Z" fill="black"/>
<path fill-rule="evenodd" clip-rule="evenodd" d="M26 3H6C4.34315 3 3 4.34315 3 6V18.981L7.486 14.7193C10.0143 12.3174 13.9875 12.3387 16.49 14.7675L28.8911 26.8039C28.9621 26.5481 29 26.2785 29 26V6C29 4.34315 27.6569 3 26 3ZM3 26V23.1181C3.01115 23.1081 3.0222 23.0979 3.03312 23.0875L9.55225 16.8943C10.9136 15.601 13.0531 15.6125 14.4005 16.9203L26.7491 28.9057C26.5097 28.9673 26.2587 29 26 29H6C4.34315 29 3 27.6569 3 26ZM6 0C2.68629 0 0 2.68629 0 6V26C0 29.3137 2.68629 32 6 32H26C29.3137 32 32 29.3137 32 26V6C32 2.68629 29.3137 0 26 0H6ZM22 15C24.7614 15 27 12.7614 27 10C27 7.23858 24.7614 5 22 5C19.2386 5 17 7.23858 17 10C17 12.7614 19.2386 15 22 15ZM24 10C24 11.1046 23.1046 12 22 12C20.8954 12 20 11.1046 20 10C20 8.89543 20.8954 8 22 8C23.1046 8 24 8.89543 24 10Z" fill="url(#paint0_linear_429_20927)"/>
<path fill-rule="evenodd" clip-rule="evenodd" d="M84.2426 0L85.1213 0.87868L92.1213 7.87868L93 8.75736V10V10.5V29V32H90H69H66V29V5C66 2.23858 68.2386 0 71 0H82.5H83H84.2426ZM84 4L89 9H84V4ZM81 10.5V3H71C69.8954 3 69 3.89543 69 5V26V29H72H87H90V26V12H82.5C81.6716 12 81 11.3284 81 10.5ZM73.5 15C72.6716 15 72 15.6716 72 16.5C72 17.3284 72.6716 18 73.5 18H81.5C82.3284 18 83 17.3284 83 16.5C83 15.6716 82.3284 15 81.5 15H73.5ZM73.5 21C72.6716 21 72 21.6716 72 22.5C72 23.3284 72.6716 24 73.5 24H85.5C86.3284 24 87 23.3284 87 22.5C87 21.6716 86.3284 21 85.5 21H73.5Z" fill="url(#paint1_linear_429_20927)"/>
<g clip-path="url(#clip0_429_20927)">
<path fill-rule="evenodd" clip-rule="evenodd" d="M145.452 30.9594C149.096 30.7378 152.677 29.2347 155.462 26.45C161.513 20.3992 161.513 10.5889 155.462 4.5381C149.411 -1.5127 139.601 -1.5127 133.55 4.5381C130.765 7.32277 129.262 10.9037 129.041 14.548L129 14.5509L129.024 14.8777C128.859 19.0458 130.368 23.2678 133.55 26.45C136.732 29.6322 140.954 31.1408 145.122 30.9759L145.449 31L145.452 30.9594ZM145.372 27.9594C147.806 27.7914 150.2 26.9139 152.218 25.3268L144.506 17.6146L141.981 20.1394C143.786 22.3299 145.001 25.0212 145.372 27.9594ZM137.728 20.1518C136.145 18.9076 134.256 18.0385 132.203 17.6848C132.552 19.6542 133.375 21.5559 134.673 23.2063L137.728 20.1518ZM136.794 25.3268C138.444 26.6246 140.346 27.4479 142.315 27.7968C141.961 25.7435 141.092 23.8553 139.848 22.2723L136.794 25.3268ZM139.861 18.0189C137.67 16.2136 134.979 14.9988 132.041 14.6283C132.209 12.1943 133.086 9.80005 134.673 7.78182L142.385 15.4941L139.861 18.0189ZM146.626 15.4941L154.339 23.2063C155.872 21.2566 156.743 18.956 156.952 16.6076C153.911 16.2923 151.132 15.0769 148.887 13.2333L146.626 15.4941ZM146.767 11.1128L144.506 13.3735L136.794 5.66132C138.743 4.12814 141.044 3.25713 143.392 3.04826C143.708 6.08949 144.923 8.86833 146.767 11.1128ZM151.02 11.1C152.677 12.3951 154.675 13.2731 156.854 13.5745C156.534 11.5088 155.696 9.5078 154.339 7.78182L151.02 11.1ZM152.218 5.66132L148.9 8.97951C147.605 7.32287 146.727 5.32528 146.426 3.14631C148.491 3.46573 150.492 4.30407 152.218 5.66132Z" fill="black"/>
<path fill-rule="evenodd" clip-rule="evenodd" d="M145.452 30.9594C149.096 30.7378 152.677 29.2347 155.462 26.45C161.513 20.3992 161.513 10.5889 155.462 4.5381C149.411 -1.5127 139.601 -1.5127 133.55 4.5381C130.765 7.32277 129.262 10.9037 129.041 14.548L129 14.5509L129.024 14.8777C128.859 19.0458 130.368 23.2678 133.55 26.45C136.732 29.6322 140.954 31.1408 145.122 30.9759L145.449 31L145.452 30.9594ZM145.372 27.9594C147.806 27.7914 150.2 26.9139 152.218 25.3268L144.506 17.6146L141.981 20.1394C143.786 22.3299 145.001 25.0212 145.372 27.9594ZM137.728 20.1518C136.145 18.9076 134.256 18.0385 132.203 17.6848C132.552 19.6542 133.375 21.5559 134.673 23.2063L137.728 20.1518ZM136.794 25.3268C138.444 26.6246 140.346 27.4479 142.315 27.7968C141.961 25.7435 141.092 23.8553 139.848 22.2723L136.794 25.3268ZM139.861 18.0189C137.67 16.2136 134.979 14.9988 132.041 14.6283C132.209 12.1943 133.086 9.80005 134.673 7.78182L142.385 15.4941L139.861 18.0189ZM146.626 15.4941L154.339 23.2063C155.872 21.2566 156.743 18.956 156.952 16.6076C153.911 16.2923 151.132 15.0769 148.887 13.2333L146.626 15.4941ZM146.767 11.1128L144.506 13.3735L136.794 5.66132C138.743 4.12814 141.044 3.25713 143.392 3.04826C143.708 6.08949 144.923 8.86833 146.767 11.1128ZM151.02 11.1C152.677 12.3951 154.675 13.2731 156.854 13.5745C156.534 11.5088 155.696 9.5078 154.339 7.78182L151.02 11.1ZM152.218 5.66132L148.9 8.97951C147.605 7.32287 146.727 5.32528 146.426 3.14631C148.491 3.46573 150.492 4.30407 152.218 5.66132Z" fill="url(#paint2_linear_429_20927)"/>
</g>
<path fill-rule="evenodd" clip-rule="evenodd" d="M195 6H221V20H195V6ZM192 6C192 4.34315 193.343 3 195 3H221C222.657 3 224 4.34315 224 6V20C224 21.6569 222.657 23 221 23H195C193.343 23 192 21.6569 192 20V6ZM201.5 25C200.672 25 200 25.6716 200 26.5C200 27.3284 200.672 28 201.5 28H214.5C215.328 28 216 27.3284 216 26.5C216 25.6716 215.328 25 214.5 25H201.5Z" fill="#333333"/>
<path fill-rule="evenodd" clip-rule="evenodd" d="M195 6H221V20H195V6ZM192 6C192 4.34315 193.343 3 195 3H221C222.657 3 224 4.34315 224 6V20C224 21.6569 222.657 23 221 23H195C193.343 23 192 21.6569 192 20V6ZM201.5 25C200.672 25 200 25.6716 200 26.5C200 27.3284 200.672 28 201.5 28H214.5C215.328 28 216 27.3284 216 26.5C216 25.6716 215.328 25 214.5 25H201.5Z" fill="url(#paint3_linear_429_20927)"/>
<path fill-rule="evenodd" clip-rule="evenodd" d="M261 15H271C272.105 15 273 15.8954 273 17V26.7063L267.679 20.5503C265.927 18.5236 262.803 18.4669 260.979 20.4285L259 22.5566V17C259 15.8954 259.895 15 261 15ZM259 26.9527V27C259 28.1046 259.895 29 261 29H271C271.006 29 271.011 29 271.017 28.9999L265.409 22.5121C264.825 21.8366 263.784 21.8177 263.176 22.4715L259.098 26.856C259.067 26.8901 259.034 26.9223 259 26.9527ZM256 17C256 14.2386 258.239 12 261 12H271C273.761 12 276 14.2386 276 17V27C276 29.7614 273.761 32 271 32H261C258.239 32 256 29.7614 256 27V17Z" fill="black"/>
<path fill-rule="evenodd" clip-rule="evenodd" d="M261 15H271C272.105 15 273 15.8954 273 17V26.7063L267.679 20.5503C265.927 18.5236 262.803 18.4669 260.979 20.4285L259 22.5566V17C259 15.8954 259.895 15 261 15ZM259 26.9527V27C259 28.1046 259.895 29 261 29H271C271.006 29 271.011 29 271.017 28.9999L265.409 22.5121C264.825 21.8366 263.784 21.8177 263.176 22.4715L259.098 26.856C259.067 26.8901 259.034 26.9223 259 26.9527ZM256 17C256 14.2386 258.239 12 261 12H271C273.761 12 276 14.2386 276 17V27C276 29.7614 273.761 32 271 32H261C258.239 32 256 29.7614 256 27V17Z" fill="url(#paint4_linear_429_20927)"/>
<path fill-rule="evenodd" clip-rule="evenodd" d="M262 12C262 8.68629 264.686 6 268 6H275.5C279.09 6 282 8.91015 282 12.5V20.5C282 24.0898 279.09 27 275.5 27H275V24H275.5C277.433 24 279 22.433 279 20.5V12.5C279 10.567 277.433 9 275.5 9H268C266.343 9 265 10.3431 265 12H262Z" fill="url(#paint5_linear_429_20927)"/>
<path d="M269.5 6V6C269.5 3.51472 271.515 1.5 274 1.5H281.5C284.261 1.5 286.5 3.73858 286.5 6.5V15C286.5 17.4853 284.485 19.5 282 19.5V19.5" stroke="url(#paint6_linear_429_20927)" stroke-width="3"/>
<g clip-path="url(#clip1_429_20927)">
<path d="M331.875 32C332.703 32 333.375 31.3284 333.375 30.5C333.375 29.6716 332.703 29 331.875 29V32ZM342.875 8.5C342.875 9.32843 343.547 10 344.375 10C345.203 10 345.875 9.32843 345.875 8.5H342.875ZM324.375 3H341.375V0H324.375V3ZM322.875 27.5V4.5H319.875V27.5H322.875ZM331.875 29H324.375V32H331.875V29ZM342.875 4.5V8.5H345.875V4.5H342.875ZM319.875 27.5C319.875 29.9853 321.89 32 324.375 32V29C323.547 29 322.875 28.3284 322.875 27.5H319.875ZM341.375 3C342.203 3 342.875 3.67157 342.875 4.5H345.875C345.875 2.01472 343.86 0 341.375 0V3ZM324.375 0C321.89 0 319.875 2.01472 319.875 4.5H322.875C322.875 3.67157 323.547 3 324.375 3V0Z" fill="url(#paint7_linear_429_20927)"/>
<path fill-rule="evenodd" clip-rule="evenodd" d="M349 22C349 25.9245 345.899 29 342.203 29C340.92 29 339.708 28.6291 338.674 27.9806L348.044 18.4152C348.65 19.4579 349 20.681 349 22ZM346.012 16.2037C344.919 15.4416 343.604 15 342.203 15C338.508 15 335.407 18.0755 335.407 22C335.407 23.4426 335.826 24.7705 336.539 25.873L346.012 16.2037ZM352 22C352 27.5228 347.614 32 342.203 32C336.793 32 332.407 27.5228 332.407 22C332.407 16.4772 336.793 12 342.203 12C347.614 12 352 16.4772 352 22Z" fill="url(#paint8_linear_429_20927)"/>
</g>
<path fill-rule="evenodd" clip-rule="evenodd" d="M413 16C413 23.1797 407.18 29 400 29C397.079 29 394.382 28.0364 392.212 26.4097L410.41 8.21164C412.036 10.3824 413 13.0786 413 16ZM390.033 24.3461L408.346 6.03255C406.088 4.13969 403.177 3 400 3C392.82 3 387 8.8203 387 16C387 19.1771 388.14 22.088 390.033 24.3461ZM416 16C416 24.8366 408.837 32 400 32C391.163 32 384 24.8366 384 16C384 7.16344 391.163 0 400 0C408.837 0 416 7.16344 416 16Z" fill="black"/>
<path fill-rule="evenodd" clip-rule="evenodd" d="M413 16C413 23.1797 407.18 29 400 29C397.079 29 394.382 28.0364 392.212 26.4097L410.41 8.21164C412.036 10.3824 413 13.0786 413 16ZM390.033 24.3461L408.346 6.03255C406.088 4.13969 403.177 3 400 3C392.82 3 387 8.8203 387 16C387 19.1771 388.14 22.088 390.033 24.3461ZM416 16C416 24.8366 408.837 32 400 32C391.163 32 384 24.8366 384 16C384 7.16344 391.163 0 400 0C408.837 0 416 7.16344 416 16Z" fill="url(#paint9_linear_429_20927)"/>
<path fill-rule="evenodd" clip-rule="evenodd" d="M457 0H454C450.686 0 448 2.68629 448 6V9C448 12.3137 450.686 15 454 15H457C460.314 15 463 12.3137 463 9V6C463 2.68629 460.314 0 457 0ZM451 6C451 4.34315 452.343 3 454 3H457C458.657 3 460 4.34315 460 6V9C460 10.6569 458.657 12 457 12H454C452.343 12 451 10.6569 451 9V6ZM457 17H454C450.686 17 448 19.6863 448 23V26C448 29.3137 450.686 32 454 32H457C460.314 32 463 29.3137 463 26V23C463 19.6863 460.314 17 457 17ZM451 23C451 21.3431 452.343 20 454 20H457C458.657 20 460 21.3431 460 23V26C460 27.6569 458.657 29 457 29H454C452.343 29 451 27.6569 451 26V23ZM471 0H474C477.314 0 480 2.68629 480 6V9C480 12.3137 477.314 15 474 15H471C467.686 15 465 12.3137 465 9V6C465 2.68629 467.686 0 471 0ZM471 3C469.343 3 468 4.34315 468 6V9C468 10.6569 469.343 12 471 12H474C475.657 12 477 10.6569 477 9V6C477 4.34315 475.657 3 474 3H471ZM474 17H471C467.686 17 465 19.6863 465 23V26C465 29.3137 467.686 32 471 32H474C477.314 32 480 29.3137 480 26V23C480 19.6863 477.314 17 474 17ZM468 23C468 21.3431 469.343 20 471 20H474C475.657 20 477 21.3431 477 23V26C477 27.6569 475.657 29 474 29H471C469.343 29 468 27.6569 468 26V23Z" fill="black"/>
<path fill-rule="evenodd" clip-rule="evenodd" d="M457 0H454C450.686 0 448 2.68629 448 6V9C448 12.3137 450.686 15 454 15H457C460.314 15 463 12.3137 463 9V6C463 2.68629 460.314 0 457 0ZM451 6C451 4.34315 452.343 3 454 3H457C458.657 3 460 4.34315 460 6V9C460 10.6569 458.657 12 457 12H454C452.343 12 451 10.6569 451 9V6ZM457 17H454C450.686 17 448 19.6863 448 23V26C448 29.3137 450.686 32 454 32H457C460.314 32 463 29.3137 463 26V23C463 19.6863 460.314 17 457 17ZM451 23C451 21.3431 452.343 20 454 20H457C458.657 20 460 21.3431 460 23V26C460 27.6569 458.657 29 457 29H454C452.343 29 451 27.6569 451 26V23ZM471 0H474C477.314 0 480 2.68629 480 6V9C480 12.3137 477.314 15 474 15H471C467.686 15 465 12.3137 465 9V6C465 2.68629 467.686 0 471 0ZM471 3C469.343 3 468 4.34315 468 6V9C468 10.6569 469.343 12 471 12H474C475.657 12 477 10.6569 477 9V6C477 4.34315 475.657 3 474 3H471ZM474 17H471C467.686 17 465 19.6863 465 23V26C465 29.3137 467.686 32 471 32H474C477.314 32 480 29.3137 480 26V23C480 19.6863 477.314 17 474 17ZM468 23C468 21.3431 469.343 20 471 20H474C475.657 20 477 21.3431 477 23V26C477 27.6569 475.657 29 474 29H471C469.343 29 468 27.6569 468 26V23Z" fill="url(#paint10_linear_429_20927)"/>
<defs>
<linearGradient id="paint0_linear_429_20927" x1="12.8253" y1="1.59592" x2="32.4499" y2="26.3783" gradientUnits="userSpaceOnUse">
<stop stop-color="#173F69"/>
<stop offset="1" stop-color="#CE3435"/>
</linearGradient>
<linearGradient id="paint1_linear_429_20927" x1="76.8213" y1="1.59592" x2="96.9421" y2="23.0347" gradientUnits="userSpaceOnUse">
<stop stop-color="#173F69"/>
<stop offset="1" stop-color="#CE3435"/>
</linearGradient>
<linearGradient id="paint2_linear_429_20927" x1="141.424" y1="1.54604" x2="160.436" y2="25.5539" gradientUnits="userSpaceOnUse">
<stop stop-color="#173F69"/>
<stop offset="1" stop-color="#CE3435"/>
</linearGradient>
<linearGradient id="paint3_linear_429_20927" x1="204.825" y1="4.24681" x2="218.92" y2="27.0293" gradientUnits="userSpaceOnUse">
<stop stop-color="#173F69"/>
<stop offset="1" stop-color="#CE3435"/>
</linearGradient>
<linearGradient id="paint4_linear_429_20927" x1="263.866" y1="12.9974" x2="276.096" y2="28.6343" gradientUnits="userSpaceOnUse">
<stop stop-color="#173F69"/>
<stop offset="1" stop-color="#CE3435"/>
</linearGradient>
<linearGradient id="paint5_linear_429_20927" x1="269.866" y1="7.04732" x2="282.844" y2="22.8512" gradientUnits="userSpaceOnUse">
<stop stop-color="#173F69"/>
<stop offset="1" stop-color="#CE3435"/>
</linearGradient>
<linearGradient id="paint6_linear_429_20927" x1="276.186" y1="2.3977" x2="287.328" y2="15.8524" gradientUnits="userSpaceOnUse">
<stop stop-color="#173F69"/>
<stop offset="1" stop-color="#CE3435"/>
</linearGradient>
<linearGradient id="paint7_linear_429_20927" x1="329.619" y1="1.59592" x2="349.751" y2="20.6629" gradientUnits="userSpaceOnUse">
<stop stop-color="#173F69"/>
<stop offset="1" stop-color="#CE3435"/>
</linearGradient>
<linearGradient id="paint8_linear_429_20927" x1="340.26" y1="12.9974" x2="352.58" y2="28.2398" gradientUnits="userSpaceOnUse">
<stop stop-color="#173F69"/>
<stop offset="1" stop-color="#CE3435"/>
</linearGradient>
<linearGradient id="paint9_linear_429_20927" x1="396.825" y1="1.59592" x2="416.45" y2="26.3783" gradientUnits="userSpaceOnUse">
<stop stop-color="#173F69"/>
<stop offset="1" stop-color="#CE3435"/>
</linearGradient>
<linearGradient id="paint10_linear_429_20927" x1="460.825" y1="1.59592" x2="480.45" y2="26.3783" gradientUnits="userSpaceOnUse">
<stop stop-color="#173F69"/>
<stop offset="1" stop-color="#CE3435"/>
</linearGradient>
<clipPath id="clip0_429_20927">
<rect width="32" height="32" fill="white" transform="translate(128)"/>
</clipPath>
<clipPath id="clip1_429_20927">
<rect width="32" height="32" fill="white" transform="translate(320)"/>
</clipPath>
</defs>
</svg>
