<svg width="137" height="24" viewBox="0 0 137 24" fill="none" xmlns="http://www.w3.org/2000/svg">
<path fill-rule="evenodd" clip-rule="evenodd" d="M17.8653 3.50131C18.1421 3.02344 17.9792 2.4116 17.5013 2.13473C17.0234 1.85787 16.4116 2.02081 16.1347 2.49869L6.13473 19.7587C5.85787 20.2366 6.02081 20.8484 6.49869 21.1253C6.97656 21.4021 7.5884 21.2392 7.86527 20.7613L17.8653 3.50131ZM5.01341 17.4121C5.36875 17.7432 5.91968 17.7431 6.2748 17.4117C6.66685 17.0459 6.66664 16.4244 6.27434 16.0589L2.70349 12.7316C2.27911 12.3362 2.27911 11.6638 2.70349 11.2684L6.27241 7.9429C6.66558 7.57656 6.66535 6.95358 6.27192 6.58752C5.91616 6.25652 5.36505 6.25682 5.00966 6.58822L0.562621 10.7351C0.202375 11.0706 0 11.5256 0 12C0 12.4744 0.202375 12.9294 0.562621 13.2649L5.01341 17.4121ZM18.959 17.3998C18.6056 17.736 18.0506 17.7358 17.6975 17.3994C17.3182 17.0382 17.3191 16.4329 17.6994 16.0727L21.2333 12.7261C21.6498 12.3316 21.6498 11.6684 21.2333 11.2739L17.7013 7.92904C17.3201 7.5681 17.3197 6.96132 17.7003 6.59982C18.0541 6.26377 18.6092 6.26408 18.9626 6.60052L23.306 10.7351C23.6589 11.0706 23.8571 11.5256 23.8571 12C23.8571 12.4744 23.6589 12.9294 23.306 13.2649L18.959 17.3998Z" fill="#CE3435"/>
<path fill-rule="evenodd" clip-rule="evenodd" d="M69.5 1C70.0523 1 70.5 1.44772 70.5 2V3.05493C71.4178 3.15638 72.2939 3.39582 73.1073 3.75205L73.634 2.83975C73.9101 2.36146 74.5217 2.19758 75 2.47373C75.4783 2.74987 75.6422 3.36146 75.366 3.83975L74.8385 4.75352C75.5712 5.29419 76.2189 5.94332 76.758 6.67721L77.6443 6.14338C78.1174 5.85843 78.7319 6.01095 79.0169 6.48404C79.3018 6.95714 79.1493 7.57166 78.6762 7.85662L77.7559 8.41094C78.1102 9.22488 78.3477 10.1014 78.4472 11.0193L79.4815 11.0002C80.0337 10.9899 80.4896 11.4293 80.4998 11.9815C80.5101 12.5337 80.0707 12.9896 79.5185 12.9998L78.4429 13.0198C78.341 13.9235 78.1052 14.7867 77.7559 15.5891L78.6762 16.1434C79.1493 16.4283 79.3018 17.0428 79.0169 17.5159C78.7319 17.989 78.1174 18.1416 77.6443 17.8566L76.758 17.3228C76.2228 18.0513 75.5806 18.6964 74.8545 19.2347L75.3752 20.1764C75.6424 20.6597 75.4672 21.2682 74.9839 21.5354C74.5006 21.8026 73.8921 21.6275 73.6249 21.1441L73.125 20.2401C72.3067 20.6007 71.4244 20.8429 70.5 20.9451L70.5 22C70.5 22.5523 70.0523 23 69.5 23C68.9477 23 68.5 22.5523 68.5 22L68.5 20.9451C67.5823 20.8436 66.7061 20.6042 65.8928 20.2479L65.366 21.1602C65.0899 21.6385 64.4783 21.8024 64 21.5263C63.5217 21.2501 63.3578 20.6385 63.634 20.1602L64.1616 19.2465C63.4289 18.7058 62.7811 18.0567 62.242 17.3228L61.3557 17.8566C60.8826 18.1416 60.2681 17.9891 59.9831 17.516C59.6982 17.0429 59.8507 16.4283 60.3238 16.1434L61.2441 15.5891C60.8898 14.7751 60.6523 13.8986 60.5528 12.9807L59.5185 12.9998C58.9663 13.0101 58.5104 12.5707 58.5002 12.0185C58.4899 11.4663 58.9293 11.0104 59.4815 11.0002L60.5571 10.9803C60.6591 10.0765 60.8948 9.21332 61.2441 8.41094L60.3238 7.85661C59.8507 7.57166 59.6982 6.95713 59.9831 6.48404C60.2681 6.01094 60.8826 5.85843 61.3557 6.14338L62.242 6.67721C62.7772 5.94866 63.4194 5.30364 64.1456 4.76534L63.6249 3.82362C63.3576 3.3403 63.5328 2.73185 64.0162 2.46461C64.4995 2.19738 65.1079 2.37255 65.3752 2.85588L65.875 3.75986C66.6933 3.39932 67.5756 3.15712 68.5 3.05493V2C68.5 1.44772 68.9477 1 69.5 1ZM66.0398 18.0864C66.0268 18.078 66.0135 18.07 66 18.0622C65.987 18.0546 65.9739 18.0475 65.9606 18.0406C63.8901 16.8247 62.5 14.5747 62.5 12C62.5 8.13401 65.634 5 69.5 5C70.7587 5 71.9397 5.33219 72.9603 5.91368C72.9733 5.92199 72.9865 5.93004 73 5.93783C73.013 5.94534 73.0261 5.95252 73.0393 5.95938C75.1099 7.1752 76.5 9.42527 76.5 12C76.5 15.866 73.366 19 69.5 19C68.2414 19 67.0604 18.6678 66.0398 18.0864ZM73.5 12C73.5 14.2091 71.7092 16 69.5 16C67.2909 16 65.5 14.2091 65.5 12C65.5 9.79086 67.2909 8 69.5 8C71.7092 8 73.5 9.79086 73.5 12ZM75.5 12C75.5 15.3137 72.8137 18 69.5 18C66.1863 18 63.5 15.3137 63.5 12C63.5 8.68629 66.1863 6 69.5 6C72.8137 6 75.5 8.68629 75.5 12Z" fill="#CE3435"/>
<g clip-path="url(#clip0_429_20925)">
<path fill-rule="evenodd" clip-rule="evenodd" d="M121 2H131C131.552 2 132 2.44772 132 3V21C132 21.5523 131.552 22 131 22H121C120.448 22 120 21.5523 120 21V3C120 2.44772 120.448 2 121 2ZM118 3C118 1.34315 119.343 0 121 0H131C132.657 0 134 1.34315 134 3V21C134 22.6569 132.657 24 131 24H121C119.343 24 118 22.6569 118 21V3ZM125 18C124.448 18 124 18.4477 124 19C124 19.5523 124.448 20 125 20H127C127.552 20 128 19.5523 128 19C128 18.4477 127.552 18 127 18H125Z" fill="#CE3435"/>
</g>
<defs>
<clipPath id="clip0_429_20925">
<rect width="24" height="24" fill="white" transform="translate(113)"/>
</clipPath>
</defs>
</svg>
