<svg width="257" height="213" viewBox="0 0 257 213" fill="none" xmlns="http://www.w3.org/2000/svg">
<g clip-path="url(#clip0_429_20433)">
<path fill-rule="evenodd" clip-rule="evenodd" d="M112.495 330.865L7.01232 281.924C3.14184 279.602 0.0454585 278.828 0.0454171 269.539C0.0453924 240.123 0.0454422 160.391 0.0454343 121.686C0.0454336 118.568 5.4167 115.797 6.79824 115.199L112.495 66.0717C121.499 61.7829 135.983 61.7829 144.596 66.0717L250.292 115.199C251.316 115.686 256.255 117.771 257.045 122.461C257.045 151.876 257.045 240.897 257.045 273.409C256.255 278.065 254.723 279.602 250.292 281.738L144.596 330.865C135.592 334.764 121.107 334.764 112.495 330.865Z" fill="url(#paint0_linear_429_20433)"/>
<path d="M133.259 181.772C138.076 181.69 140.538 180.906 144.736 178.903L245.978 132.176C245.978 132.176 255.406 127.667 257.045 123.978L256.635 277.178L136.128 335.48L133.259 181.772Z" fill="url(#paint1_linear_429_20433)"/>
<path fill-rule="evenodd" clip-rule="evenodd" d="M112.45 179.142L6.75285 130.015C-2.25095 125.726 -2.25095 119.098 6.75285 115.199L112.45 66.0717C121.454 61.7829 135.938 61.7829 144.55 66.0717L250.247 115.199C259.251 119.488 259.251 126.116 250.247 130.015L144.55 179.142C135.546 183.041 121.062 183.041 112.45 179.142Z" fill="url(#paint2_linear_429_20433)"/>
<path fill-rule="evenodd" clip-rule="evenodd" d="M6.75285 115.199C-2.25095 119.098 -2.25095 125.726 6.75285 130.015L112.45 179.142C121.062 183.041 135.546 183.041 144.55 179.142L250.247 130.015C259.251 126.116 259.251 119.488 250.247 115.199L144.55 66.0717C135.938 61.7829 121.454 61.7829 112.45 66.0717L6.75285 115.199ZM249.395 117.008C249.392 117.007 249.39 117.006 249.387 117.004L143.683 67.8741L143.659 67.862C139.71 65.8958 134.266 64.8551 128.647 64.8551C123.033 64.8551 117.473 65.8942 113.31 67.8774L113.301 67.8814L7.57186 117.024L7.54761 117.034C3.26381 118.889 2 121.017 2 122.461C2 123.939 3.30856 126.157 7.60471 128.205C7.60745 128.207 7.6102 128.208 7.61294 128.209L113.275 177.32C113.278 177.321 113.281 177.322 113.284 177.324C117.251 179.118 122.717 180.066 128.353 180.066C133.978 180.066 139.552 179.121 143.732 177.317L249.428 128.19L249.452 128.179C253.736 126.324 255 124.196 255 122.753C255 121.274 253.691 119.057 249.395 117.008Z" fill="url(#paint3_linear_429_20433)"/>
<path fill-rule="evenodd" clip-rule="evenodd" d="M98.1379 8.06386C98.1379 8.06446 98.1378 8.065 99.1326 8.16653L98.1378 8.065L98.1326 8.11563V14H100.133V8.225C100.134 8.21024 100.137 8.19197 100.14 8.17036C100.15 8.0969 100.167 7.98518 100.192 7.842C100.243 7.55511 100.329 7.14508 100.467 6.66573C100.745 5.69814 101.222 4.49345 102.012 3.44673C102.792 2.41216 103.865 1.54657 105.368 1.18412C106.877 0.82005 108.94 0.934873 111.748 2.08953L188.893 37.2069C192.047 38.709 194.765 40.4378 196.721 43.3317C198.679 46.2279 199.955 50.4145 199.955 56.9801L199.955 125.696C199.955 129.842 198.659 132.432 196.897 133.66C195.162 134.87 192.671 134.966 189.777 133.459L189.737 133.438L177.926 128.575L177.165 130.425L188.893 135.254C192.21 136.968 195.523 137.057 198.041 135.301C200.543 133.556 201.955 130.201 201.955 125.696L201.955 56.9801C201.955 50.1647 200.63 45.5438 198.378 42.2116C196.126 38.8795 193.026 36.9593 189.745 35.3974L189.737 35.3938L112.543 0.254199L112.527 0.247311C109.442 -1.02457 106.933 -1.25069 104.899 -0.76013C102.855 -0.267235 101.412 0.919962 100.415 2.24229C99.4265 3.55247 98.8627 5.00879 98.5451 6.11299C98.3851 6.66953 98.2844 7.14809 98.2232 7.49081C98.1926 7.66244 98.1718 7.80078 98.1584 7.89869C98.1517 7.94766 98.1468 7.9866 98.1435 8.01459L98.1396 8.0483L98.1385 8.05882L98.1381 8.06246L98.1379 8.06386Z" fill="#CCCCCC"/>
<path fill-rule="evenodd" clip-rule="evenodd" d="M69.169 95.2064V21.6108C69.169 21.6108 70.3795 9.75026 82.1819 14.616L159.351 49.7446C165.791 52.8094 170.991 57.0433 170.991 70.4243L170.991 139.141C170.991 147.79 165.576 151.032 159.351 147.79L79.9532 110.809C73.7283 107.567 69.169 104.634 69.169 95.2064Z" fill="#2E5F9B"/>
<path fill-rule="evenodd" clip-rule="evenodd" d="M67.169 96.2064V22.6108C67.169 22.6108 68.3795 10.7503 80.1819 15.616L157.351 50.7446C163.791 53.8094 168.991 58.0433 168.991 71.4243L168.991 140.141C168.991 148.79 163.576 152.032 157.351 148.79L77.9532 111.809C71.7283 108.567 67.169 105.634 67.169 96.2064Z" fill="#1D4267"/>
<path fill-rule="evenodd" clip-rule="evenodd" d="M38.169 40.6329V39.6108C38.169 39.6108 38.2129 39.1811 38.3653 38.5189L37.3907 38.2946C37.3087 38.6511 37.2554 38.9471 37.2222 39.1573C37.2056 39.2625 37.194 39.3464 37.1864 39.4061C37.1825 39.4359 37.1797 39.4597 37.1777 39.477L37.1754 39.4981L37.1746 39.5049L37.1744 39.5074L37.1743 39.5084C37.1743 39.5085 37.1742 39.5091 37.6716 39.5599L37.1743 39.5084L37.169 39.5599V40.6329H38.169ZM39.0461 36.4061L38.1254 36.016C38.4188 35.3234 38.8037 34.5865 39.3076 33.882L40.1209 34.4639C39.668 35.0969 39.3171 35.7666 39.0461 36.4061ZM41.649 32.86L41.0381 32.0684C41.6802 31.5729 42.4254 31.1571 43.2856 30.8701L43.6021 31.8188C42.8544 32.0681 42.2078 32.4288 41.649 32.86ZM45.7833 31.4476L45.7557 30.448C46.5097 30.4271 47.3167 30.4925 48.1801 30.6553L47.9949 31.638C47.1951 31.4872 46.4596 31.4289 45.7833 31.4476ZM50.1416 32.2203L50.4699 31.2757C50.8258 31.3994 51.1901 31.5378 51.563 31.6915L51.5797 31.6984L52.5149 32.1241L52.1006 33.0343L51.1819 32.616C50.8256 32.4691 50.4789 32.3375 50.1416 32.2203ZM53.938 33.8706L54.3523 32.9605L56.1896 33.7969L55.7753 34.707L53.938 33.8706ZM57.6127 35.5434L58.027 34.6333L59.8643 35.4697L59.45 36.3798L57.6127 35.5434ZM61.2874 37.2162L61.7017 36.3061L63.5391 37.1425L63.1248 38.0526L61.2874 37.2162ZM64.9621 38.889L66.7995 39.7254L67.2138 38.8153L65.3764 37.9789L64.9621 38.889ZM68.6368 40.5618L69.0512 39.6516L70.8885 40.488L70.4742 41.3982L68.6368 40.5618ZM72.3116 42.2346L72.7259 41.3244L74.5633 42.1608L74.1489 43.071L72.3116 42.2346ZM75.9863 43.9074L76.4006 42.9972L78.238 43.8336L77.8237 44.7437L75.9863 43.9074ZM79.661 45.5801L80.0754 44.67L81.9127 45.5064L81.4984 46.4165L79.661 45.5801ZM83.3358 47.2529L83.7501 46.3428L85.5875 47.1792L85.1732 48.0893L83.3358 47.2529ZM87.0105 48.9257L87.4248 48.0156L89.2622 48.852L88.8479 49.7621L87.0105 48.9257ZM90.6853 50.5985L91.0996 49.6884L92.9369 50.5248L92.5226 51.4349L90.6853 50.5985ZM94.36 52.2713L94.7743 51.3612L96.6117 52.1976L96.1974 53.1077L94.36 52.2713ZM98.0347 53.9441L98.449 53.0339L100.286 53.8703L99.8721 54.7805L98.0347 53.9441ZM101.709 55.6169L102.124 54.7067L103.961 55.5431L103.547 56.4533L101.709 55.6169ZM105.384 57.2897L105.798 56.3795L107.636 57.2159L107.222 58.1261L105.384 57.2897ZM109.059 58.9624L109.473 58.0523L111.311 58.8887L110.896 59.7988L109.059 58.9624ZM112.734 60.6352L113.148 59.7251L114.985 60.5615L114.571 61.4716L112.734 60.6352ZM116.408 62.308L116.823 61.3979L118.66 62.2343L118.246 63.1444L116.408 62.308ZM120.083 63.9808L120.497 63.0707L122.335 63.9071L121.92 64.8172L120.083 63.9808ZM123.758 65.6536L124.172 64.7435L126.01 65.5799L125.595 66.49L123.758 65.6536ZM127.433 67.3264L127.847 66.4162L128.773 66.838L128.781 66.8416C129.108 66.9973 129.433 67.1565 129.755 67.3201L129.303 68.2118C128.989 68.0525 128.672 67.8971 128.351 67.7446L127.433 67.3264ZM131.159 69.2337L131.674 68.3769C132.306 68.7572 132.923 69.1655 133.518 69.6108L132.92 70.4117C132.354 69.989 131.766 69.5991 131.159 69.2337ZM134.535 71.7803L135.229 71.0602C135.761 71.5729 136.267 72.128 136.742 72.7333L135.955 73.3505C135.51 72.7832 135.036 72.2624 134.535 71.7803ZM137.143 75.1032L138.007 74.6003C138.371 75.2253 138.705 75.8931 139.009 76.6084L138.088 76.9986C137.801 76.321 137.485 75.6909 137.143 75.1032ZM138.805 78.9924L139.762 78.7036C139.966 79.3801 140.147 80.0926 140.302 80.8439L139.323 81.0462C139.173 80.3224 139 79.6389 138.805 78.9924ZM139.672 83.1342L140.664 83.0039C140.755 83.6965 140.828 84.4185 140.881 85.1717L139.884 85.2425C139.831 84.5081 139.761 83.806 139.672 83.1342ZM139.98 87.3616L140.98 87.3401C140.987 87.6951 140.991 88.0565 140.991 88.4243L140.991 89.4349H139.991L139.991 88.4243C139.991 88.0635 139.987 87.7093 139.98 87.3616ZM139.991 91.456L140.991 91.456L140.991 93.477H139.991L139.991 91.456ZM139.991 95.4981H140.991L140.991 97.5192H139.991L139.991 95.4981ZM139.991 99.5402H140.991L140.991 101.561H139.991L139.991 99.5402ZM139.991 103.582H140.991L140.991 105.603H139.991L139.991 103.582ZM139.991 107.624H140.991L140.991 109.646H139.991L139.991 107.624ZM139.991 111.667H140.991L140.991 113.688H139.991L139.991 111.667ZM139.991 115.709H140.991L140.991 117.73H139.991L139.991 115.709ZM139.991 119.751H140.991L140.991 121.772H139.991L139.991 119.751ZM139.991 123.793H140.991L140.991 125.814H139.991L139.991 123.793ZM139.991 127.835H140.991L140.991 129.856H139.991L139.991 127.835ZM139.991 131.877H140.991L140.991 133.898H139.991L139.991 131.877ZM139.991 135.919H140.991L140.991 137.94H139.991L139.991 135.919ZM139.991 139.962H140.991L140.991 141.983H139.991L139.991 139.962ZM139.991 144.004H140.991L140.991 146.025L139.991 146.025L139.991 144.004ZM139.991 148.046H140.991L140.991 150.067H139.991L139.991 148.046ZM139.991 152.088H140.991L140.991 154.109H139.991L139.991 152.088ZM139.991 156.13H140.991L140.991 157.141C140.991 157.47 140.984 157.793 140.969 158.109L139.97 158.062C139.984 157.762 139.991 157.455 139.991 157.141L139.991 156.13ZM139.786 159.894L140.773 160.051C140.665 160.733 140.516 161.377 140.33 161.981L139.374 161.686C139.546 161.13 139.684 160.533 139.786 159.894ZM138.68 163.387L139.565 163.852C139.23 164.488 138.839 165.061 138.396 165.563L137.646 164.902C138.033 164.463 138.379 163.958 138.68 163.387ZM136.251 166.093L136.781 166.941C136.172 167.321 135.513 167.603 134.817 167.783L134.567 166.815C135.166 166.66 135.73 166.418 136.251 166.093ZM132.743 167.022L132.724 168.021C132.059 168.009 131.378 167.917 130.688 167.75L130.924 166.778C131.549 166.93 132.157 167.01 132.743 167.022ZM129.184 166.187L128.786 167.105C128.495 166.979 128.202 166.84 127.909 166.688L127.027 166.277L127.449 165.37L128.351 165.79C128.631 165.936 128.908 166.068 129.184 166.187ZM125.645 164.53L125.222 165.436L123.418 164.596L123.84 163.689L125.645 164.53ZM122.036 162.849L121.613 163.755L119.809 162.915L120.231 162.008L122.036 162.849ZM118.427 161.168L118.004 162.074L116.2 161.234L116.622 160.327L118.427 161.168ZM114.818 159.487L114.395 160.393L112.591 159.553L113.013 158.646L114.818 159.487ZM111.208 157.806L110.786 158.712L108.982 157.872L109.404 156.965L111.208 157.806ZM107.599 156.125L107.177 157.031L105.373 156.191L105.795 155.284L107.599 156.125ZM103.99 154.444L103.568 155.35L101.764 154.51L102.186 153.603L103.99 154.444ZM100.381 152.763L99.9593 153.669L98.1548 152.829L98.577 151.922L100.381 152.763ZM96.7725 151.082L96.3503 151.988L94.5458 151.148L94.968 150.241L96.7725 151.082ZM93.1635 149.401L92.7413 150.307L90.9368 149.467L91.359 148.56L93.1635 149.401ZM89.5545 147.72L89.1323 148.626L87.3277 147.786L87.75 146.879L89.5545 147.72ZM85.9455 146.039L85.5232 146.945L83.7187 146.105L84.141 145.198L85.9455 146.039ZM82.3365 144.358L81.9142 145.264L80.1097 144.424L80.532 143.517L82.3365 144.358ZM78.7275 142.677L78.3052 143.583L76.5007 142.743L76.923 141.836L78.7275 142.677ZM75.1185 140.996L74.6962 141.902L72.8917 141.062L73.314 140.155L75.1185 140.996ZM71.5095 139.315L71.0872 140.221L69.2827 139.381L69.7049 138.474L71.5095 139.315ZM67.9004 137.634L67.4782 138.54L65.6737 137.7L66.0959 136.793L67.9004 137.634ZM64.2914 135.953L63.8692 136.859L62.0647 136.019L62.4869 135.112L64.2914 135.953ZM60.6824 134.272L60.2602 135.178L58.4557 134.338L58.8779 133.431L60.6824 134.272ZM57.0734 132.591L56.6512 133.497L54.8467 132.657L55.2689 131.75L57.0734 132.591ZM53.4644 130.91L53.0422 131.816L51.2377 130.976L51.6599 130.069L53.4644 130.91ZM49.8554 129.229L49.4332 130.135L48.5109 129.706L48.4913 129.695C48.185 129.536 47.8817 129.377 47.582 129.217L48.0524 128.335C48.3484 128.492 48.6488 128.65 48.9532 128.809L49.8554 129.229ZM46.2748 127.348L45.7709 128.212C45.1569 127.854 44.5612 127.484 43.9896 127.095L44.5523 126.268C45.1007 126.642 45.676 126.999 46.2748 127.348ZM42.9316 125.042L42.2839 125.804C41.7312 125.334 41.2105 124.83 40.7283 124.283L41.4786 123.622C41.9256 124.129 42.4113 124.599 42.9316 125.042ZM40.2665 121.992L39.4164 122.519C39.041 121.913 38.708 121.263 38.4211 120.561L39.3467 120.183C39.6128 120.833 39.9206 121.434 40.2665 121.992ZM38.7206 118.251L37.75 118.492C37.585 117.827 37.4542 117.124 37.3588 116.379L38.3507 116.252C38.4415 116.962 38.5654 117.626 38.7206 118.251ZM38.1876 114.226L37.1883 114.263C37.1755 113.919 37.169 113.567 37.169 113.206V112.184H38.169V113.206C38.169 113.555 38.1753 113.894 38.1876 114.226ZM38.169 110.14H37.169V108.096H38.169V110.14ZM38.169 106.051H37.169V104.007H38.169V106.051ZM38.169 101.963H37.169V99.9183H38.169V101.963ZM38.169 97.8739H37.169V95.8296H38.169V97.8739ZM38.169 93.7853H37.169V91.741H38.169V93.7853ZM38.169 89.6967H37.169V87.6523H38.169V89.6967ZM38.169 85.608H37.169V83.5637H38.169V85.608ZM38.169 81.5194H37.169V79.475H38.169V81.5194ZM38.169 77.4307H37.169V75.3864H38.169V77.4307ZM38.169 73.3421H37.169V71.2978H38.169V73.3421ZM38.169 69.2534H37.169V67.2091H38.169V69.2534ZM38.169 65.1648H37.169V63.1205H38.169V65.1648ZM38.169 61.0761H37.169V59.0318H38.169V61.0761ZM38.169 56.9875H37.169V54.9432H38.169V56.9875ZM38.169 52.8988H37.169V50.8545H38.169V52.8988ZM38.169 48.8102H37.169V46.7659H38.169V48.8102ZM38.169 44.7216H37.169V42.6772H38.169V44.7216Z" fill="white"/>
<path fill-rule="evenodd" clip-rule="evenodd" d="M57.6378 81.4805C57.406 81.9818 57.6244 82.5761 58.1257 82.8079L60.4232 83.8704C60.9245 84.1022 61.5188 83.8838 61.7506 83.3825C61.9824 82.8812 61.764 82.287 61.2627 82.0551L58.9652 80.9926C58.4639 80.7608 57.8696 80.9792 57.6378 81.4805ZM70.9635 87.6431C70.7317 88.1444 70.9501 88.7387 71.4514 88.9705L76.0465 91.0955C76.5478 91.3273 77.1421 91.1089 77.3739 90.6076C77.6057 90.1063 77.3873 89.512 76.886 89.2802L72.2909 87.1552C71.7896 86.9234 71.1953 87.1418 70.9635 87.6431ZM86.5868 94.8682C86.355 95.3694 86.5734 95.9637 87.0747 96.1955L91.6698 98.3206C92.1711 98.5524 92.7654 98.3339 92.9972 97.8327C93.229 97.3314 93.0106 96.7371 92.5093 96.5053L87.9142 94.3803C87.4129 94.1484 86.8186 94.3669 86.5868 94.8682ZM102.21 102.093C101.978 102.595 102.197 103.189 102.698 103.421L107.293 105.546C107.794 105.777 108.389 105.559 108.62 105.058C108.852 104.556 108.634 103.962 108.133 103.73L103.537 101.605C103.036 101.374 102.442 101.592 102.21 102.093ZM117.833 109.318C117.602 109.82 117.82 110.414 118.321 110.646L120.619 111.708C121.12 111.94 121.714 111.722 121.946 111.22C122.178 110.719 121.96 110.125 121.458 109.893L119.161 108.83C118.66 108.599 118.065 108.817 117.833 109.318Z" fill="#EFEFEF"/>
<path fill-rule="evenodd" clip-rule="evenodd" d="M57.6378 95.3808C57.406 95.8821 57.6244 96.4764 58.1257 96.7082L79.1831 106.446C79.6844 106.678 80.2787 106.46 80.5105 105.958C80.7424 105.457 80.5239 104.863 80.0226 104.631L58.9652 94.8929C58.4639 94.6611 57.8696 94.8795 57.6378 95.3808ZM99.0735 114.543C98.8416 115.044 99.0601 115.639 99.5614 115.87L120.619 125.608C121.12 125.84 121.714 125.622 121.946 125.121C122.178 124.619 121.96 124.025 121.458 123.793L100.401 114.055C99.8996 113.823 99.3053 114.042 99.0735 114.543Z" fill="#EFEFEF"/>
<path fill-rule="evenodd" clip-rule="evenodd" d="M57.6378 109.281C57.406 109.782 57.6244 110.377 58.1257 110.608L60.6254 111.764C61.1267 111.996 61.721 111.778 61.9528 111.277C62.1846 110.775 61.9662 110.181 61.4649 109.949L58.9652 108.793C58.4639 108.561 57.8696 108.78 57.6378 109.281ZM67.6367 113.905C67.4049 114.406 67.6233 115.001 68.1246 115.232L73.124 117.545C73.6253 117.776 74.2196 117.558 74.4514 117.057C74.6832 116.555 74.4648 115.961 73.9635 115.729L68.9641 113.417C68.4628 113.185 67.8685 113.404 67.6367 113.905ZM80.1353 119.685C79.9035 120.186 80.1219 120.781 80.6232 121.013L85.6227 123.325C86.1239 123.556 86.7182 123.338 86.95 122.837C87.1819 122.335 86.9634 121.741 86.4622 121.509L81.4627 119.197C80.9614 118.965 80.3671 119.184 80.1353 119.685ZM92.6339 125.465C92.4021 125.966 92.6206 126.561 93.1218 126.793L98.1213 129.105C98.6226 129.336 99.2169 129.118 99.4487 128.617C99.6805 128.115 99.4621 127.521 98.9608 127.289L93.9613 124.977C93.4601 124.746 92.8658 124.964 92.6339 125.465ZM105.133 131.245C104.901 131.747 105.119 132.341 105.62 132.573L110.62 134.885C111.121 135.117 111.715 134.898 111.947 134.397C112.179 133.896 111.961 133.301 111.459 133.069L106.46 130.757C105.959 130.526 105.364 130.744 105.133 131.245ZM117.631 137.025C117.399 137.527 117.618 138.121 118.119 138.353L120.619 139.509C121.12 139.741 121.714 139.522 121.946 139.021C122.178 138.52 121.96 137.925 121.458 137.693L118.959 136.537C118.457 136.306 117.863 136.524 117.631 137.025Z" fill="#EFEFEF"/>
<path fill-rule="evenodd" clip-rule="evenodd" d="M57.6378 67.5803C57.406 68.0815 57.6244 68.6758 58.1257 68.9076L65.9373 72.5202C66.4386 72.752 67.0329 72.5336 67.2647 72.0323C67.4965 71.531 67.2781 70.9367 66.7768 70.7049L58.9652 67.0924C58.4639 66.8605 57.8696 67.079 57.6378 67.5803ZM81.0727 78.4179C80.8409 78.9191 81.0593 79.5134 81.5606 79.7452L97.1839 86.9703C97.6852 87.2021 98.2795 86.9837 98.5113 86.4824C98.7431 85.9811 98.5247 85.3869 98.0234 85.155L82.4001 77.93C81.8988 77.6981 81.3045 77.9166 81.0727 78.4179ZM112.319 92.868C112.087 93.3693 112.306 93.9636 112.807 94.1954L120.619 97.8079C121.12 98.0397 121.714 97.8213 121.946 97.32C122.178 96.8188 121.96 96.2245 121.458 95.9926L113.647 92.3801C113.145 92.1483 112.551 92.3667 112.319 92.868Z" fill="#EFEFEF"/>
</g>
<defs>
<linearGradient id="paint0_linear_429_20433" x1="128.545" y1="165.671" x2="128.545" y2="210" gradientUnits="userSpaceOnUse">
<stop stop-color="#122941"/>
<stop offset="1" stop-color="#2A283F"/>
</linearGradient>
<linearGradient id="paint1_linear_429_20433" x1="166.5" y1="103" x2="206.393" y2="271.314" gradientUnits="userSpaceOnUse">
<stop stop-color="#1E5777"/>
<stop offset="1" stop-color="#4D2A49"/>
</linearGradient>
<linearGradient id="paint2_linear_429_20433" x1="128.602" y1="62.8551" x2="128.499" y2="182.066" gradientUnits="userSpaceOnUse">
<stop stop-color="#132539"/>
<stop offset="1" stop-color="#83313D"/>
</linearGradient>
<linearGradient id="paint3_linear_429_20433" x1="128.5" y1="62.8551" x2="128.5" y2="182.066" gradientUnits="userSpaceOnUse">
<stop offset="0.5625" stop-color="#A96F6F" stop-opacity="0"/>
<stop offset="1" stop-color="#D13333"/>
</linearGradient>
<clipPath id="clip0_429_20433">
<rect width="257" height="213" fill="white"/>
</clipPath>
</defs>
</svg>
